<svg width="25" height="12" viewBox="0 0 25 12" fill="none" xmlns="http://www.w3.org/2000/svg">
<path fill-rule="evenodd" clip-rule="evenodd" d="M16.3251 0C16.3251 0.922863 16.8183 1.72668 17.4541 2.38365C18.0941 3.04495 18.9306 3.61271 19.7412 4.07202C20.0542 4.24937 20.3666 4.41241 20.667 4.56007H4.5C2.01472 4.56007 0 6.57479 0 9.06007V11.3853H1V9.06007C1 7.12707 2.567 5.56007 4.5 5.56007H20.9C20.5269 5.75448 20.129 5.9736 19.7305 6.21275C18.9242 6.69648 18.0943 7.27432 17.4599 7.90878C16.8394 8.52925 16.3251 9.28426 16.3251 10.1204H17.3251C17.3251 9.69144 17.6014 9.18141 18.167 8.61589C18.7185 8.06437 19.4699 7.5353 20.2449 7.07024C21.0161 6.60758 21.7902 6.22031 22.3734 5.94814C22.6645 5.81231 22.9067 5.70576 23.0755 5.63342C23.1599 5.59726 23.2258 5.56968 23.2703 5.5513L23.3204 5.53072L23.3327 5.52576L23.3355 5.52464L23.336 5.52443L23.336 5.52442L23.3361 5.52439L24.6034 5.01749L23.3086 4.58589L23.3085 4.58588L23.3084 4.58585L23.3081 4.58572L23.3054 4.58484L23.2935 4.58079L23.244 4.5637C23.2 4.54834 23.1345 4.52514 23.0507 4.49439C22.8829 4.43287 22.6419 4.3413 22.3521 4.22218C21.7713 3.9834 21.001 3.63649 20.2342 3.202C19.4634 2.76524 18.7187 2.25243 18.1727 1.68822C17.6225 1.11967 17.3251 0.553025 17.3251 0H16.3251Z" fill="#BE8A76"/>
</svg>
