<svg width="26" height="26" viewBox="0 0 26 26" fill="none" xmlns="http://www.w3.org/2000/svg">
<path d="M9.83586 8.94007C8.82356 9.52452 8.41431 10.7176 8.92356 11.5997L12.5414 17.8659C13.0506 18.748 14.2885 18.9901 15.3008 18.4057L16.2985 17.8296C16.5377 17.6916 16.6196 17.3858 16.4816 17.1466L15.7204 15.8283C15.5823 15.5891 15.2765 15.5072 15.0374 15.6453L14.217 16.119C14.0701 16.2037 13.8912 16.1687 13.8173 16.0408L11.1421 11.4073C11.0683 11.2793 11.1274 11.1069 11.2743 11.0221L12.0947 10.5484C12.3339 10.4103 12.4158 10.1045 12.2777 9.86539L11.5166 8.54705C11.3785 8.3079 11.0727 8.22596 10.8336 8.36404L9.83586 8.94007Z" fill="#363157"/>
<circle cx="13" cy="13" r="12.5" stroke="#363157"/>
</svg>
