<svg height="464pt" viewBox="-23 0 464 464.9" width="464pt" xmlns="http://www.w3.org/2000/svg"><path d="m190.089844 173.179688c-26.765625 0-48.460938 21.695312-48.460938 48.460937s21.695313 48.464844 48.460938 48.464844 48.460937-21.699219 48.460937-48.464844c-.027343-26.75-21.707031-48.429687-48.460937-48.460937zm23.960937 72.421874c-11.433593 11.425782-29.34375 13.191407-42.785156 4.210938-13.4375-8.980469-18.664063-26.203125-12.476563-41.136719 6.1875-14.933593 22.058594-23.417969 37.914063-20.265625 15.851563 3.152344 27.269531 17.066406 27.269531 33.230469.027344 8.992187-3.546875 17.621094-9.921875 23.960937zm0 0"/><path d="m409.765625 106.609375c-10.765625-29.714844-33.46875-56.828125-63.929687-76.332031-30.621094-19.5625-66.15625-30.058594-102.492188-30.277344-44.460938 0-89.113281 17.070312-122.507812 46.84375-34.175782 30.464844-53 70.152344-53 111.761719 0 1.511719-.429688 2.988281-1.238282 4.261719l-66.148437 104.632812h60.03125c4.394531.011719 7.957031 3.554688 8 7.949219l.839843 83.859375c.09375 9.191406 3.878907 17.957031 10.507813 24.324218 6.628906 6.363282 15.542969 9.792969 24.730469 9.507813l134.859375-4.148437h.234375c4.417968-.074219 8.0625 3.445312 8.136718 7.863281.078126 4.417969-3.441406 8.0625-7.859374 8.136719l-59.414063 1.820312v58.085938l220.710937-2.832032.921876-150.859375c-.011719-.277343-.007813-.558593.011718-.835937 1.394532-12.644532 3.472656-27.21875 5.6875-42.648438 8.152344-56.789062 18.292969-127.46875 2.257813-160.324218-.128907-.257813-.242188-.519532-.339844-.789063zm-78.398437 11.457031-80.929688 80.933594c10.417969 27.769531.546875 59.066406-23.917969 75.828125-24.46875 16.765625-57.214843 14.675781-79.351562-5.066406-22.136719-19.738281-27.945313-52.035157-14.078125-78.253907 13.863281-26.21875 43.832031-39.59375 72.605468-32.40625l19.140626-19.140624c1.640624-1.636719 3.90625-2.484376 6.21875-2.324219l14.683593 1.03125 15.90625-15.90625-3.113281-17.511719c-.453125-2.5625.367188-5.191406 2.203125-7.039062 1.832031-1.847657 4.453125-2.683594 7.019531-2.246094l13.601563 2.324218-.992188-15.878906c-.152343-2.4375.816407-4.8125 2.632813-6.445312 1.816406-1.636719 4.277344-2.351563 6.6875-1.941406l31.820312 5.390624c3.210938.546876 5.773438 2.984376 6.472656 6.164063l5.546876 25.105469c.589843 2.667968-.222657 5.453125-2.152344 7.382812zm0 0"/><path d="m296.960938 91.484375.996093 15.894531c.152344 2.441406-.820312 4.816406-2.636719 6.449219-1.820312 1.636719-4.285156 2.347656-6.695312 1.9375l-12.347656-2.113281 1.851562 10.414062c.457032 2.574219-.371094 5.210938-2.21875 7.058594l-21.4375 21.4375c-1.636718 1.636719-3.90625 2.484375-6.214844 2.324219l-14.6875-1.03125-11.722656 11.722656c8.171875 4.652344 15.238282 11.027344 20.707032 18.679687l74.398437-74.402343-3.4375-15.5625zm0 0"/><path d="m190.089844 203.757812c-8.09375 0-15.175782 5.4375-17.273438 13.253907-2.09375 7.820312 1.324219 16.070312 8.332032 20.117187 7.011718 4.046875 15.863281 2.878906 21.585937-2.84375 5.113281-5.113281 6.644531-12.804687 3.875-19.488281-2.765625-6.679687-9.285156-11.039063-16.519531-11.039063zm0 0"/></svg>