<svg id="Capa_1" enable-background="new 0 0 512 512" viewBox="0 0 512 512" xmlns="http://www.w3.org/2000/svg"><g><path d="m295.22 325.162c-2.28-5.689-7.793-9.417-13.922-9.417h-11.013l21.376-20.429c5.989-5.724 6.204-15.219.48-21.208-5.723-5.989-15.219-6.204-21.207-.48l-48.419 46.273c-4.431 4.234-5.84 10.739-3.559 16.427 2.281 5.689 7.794 9.417 13.922 9.417h11.012l-23.553 22.509c-5.989 5.724-6.204 15.219-.48 21.208 2.947 3.083 6.893 4.637 10.846 4.636 3.725 0 7.456-1.379 10.362-4.156l50.595-48.353c4.432-4.234 5.841-10.738 3.56-16.427z"/><path d="m485.577 494.346-6.804-37.839c-3.653-20.316-15.596-37.328-31.971-47.812-15.478 17.201-37.895 28.039-62.802 28.039-24.906 0-47.323-10.839-62.802-28.04-16.375 10.484-28.319 27.496-31.972 47.812l-6.804 37.839c-.786 4.373.407 8.869 3.257 12.277s7.064 5.377 11.507 5.377h86.814 86.814c4.442 0 8.657-1.969 11.507-5.377 2.849-3.408 4.042-7.904 3.256-12.276z"/><path d="m329.506 352.239c0 30.048 24.446 54.495 54.494 54.495 30.049 0 54.495-24.446 54.495-54.495 0-30.048-24.446-54.495-54.495-54.495-30.048 0-54.494 24.446-54.494 54.495z"/><path d="m222.773 456.506c-3.653-20.316-15.596-37.328-31.971-47.812-15.478 17.201-37.895 28.039-62.802 28.039-24.906 0-47.324-10.839-62.801-28.04-16.375 10.484-28.319 27.496-31.972 47.812l-6.804 37.839c-.786 4.373.407 8.869 3.257 12.277s7.064 5.379 11.507 5.379h86.813 86.814c4.442 0 8.657-1.969 11.507-5.377s4.043-7.904 3.257-12.277z"/><path d="m128 406.733c30.049 0 54.495-24.446 54.495-54.495 0-30.048-24.446-54.495-54.495-54.495-30.048 0-54.494 24.446-54.494 54.495s24.446 54.495 54.494 54.495z"/><path d="m332.875 27.75c-21.561-17.965-48.464-27.75-76.875-27.75-32.145 0-62.365 12.518-85.095 35.248-44.272 44.271-46.764 114.733-7.493 161.964z"/><path d="m256 240.686c32.144 0 62.365-12.518 85.095-35.248 42.327-42.335 46.463-108.621 12.409-155.636l-168.056 168.055c20.394 14.821 44.856 22.829 70.552 22.829z"/></g><g/><g/><g/><g/><g/><g/><g/><g/><g/><g/><g/><g/><g/><g/><g/></svg>