<svg id="_x33_0" enable-background="new 0 0 58 58" height="512" viewBox="0 0 58 58" width="512" xmlns="http://www.w3.org/2000/svg"><g><path d="m38.284 48.32.44 2.2 2.145-1.073-2.006-1.337c-.196.065-.389.135-.579.21z"/><path d="m45.716 48.32c-.19-.075-.383-.145-.579-.21l-2.006 1.337 2.145 1.073z"/><path d="m47.572 49.24-.848 4.24-1.477-.738-1.188 2.375.721 2.883h8l-.333-1.665c-.598-2.991-2.383-5.523-4.875-7.095z"/><path d="m37.276 53.48-.848-4.24c-2.492 1.573-4.277 4.104-4.875 7.095l-.333 1.665h8l.721-2.883-1.188-2.375z"/><path d="m41.78 56-.5 2h1.44l-.5-2z"/><path d="m40.542 51.847 1.076 2.153h.764l1.076-2.153-1.458-.729z"/><path d="m42 46c-.535 0-1.061-.037-1.581-.096l-.229.687 1.81 1.207 1.81-1.207-.229-.687c-.52.059-1.046.096-1.581.096z"/><path d="m10 12h6v2h-6z"/><path d="m15.557 42h-5.114l.75 2h3.614z"/><path d="m16 7c0-1.654-1.346-3-3-3s-3 1.346-3 3v3h6z"/><path d="m23.224 40.766c-.311-.75-.141-1.605.434-2.18l.656-.657-4.242-4.243-.657.657c-.383.383-.894.568-1.414.568v3.856c1.825 1.466 3 3.709 3 6.233 0 4.418-3.582 8-8 8s-8-3.582-8-8c0-2.523 1.175-4.767 3-6.233v-3.856c-.519 0-1.031-.185-1.414-.569l-.657-.657-4.242 4.243.656.657c.574.574.744 1.43.434 2.18s-1.038 1.235-1.849 1.235h-.929v6h.929c.812 0 1.537.484 1.848 1.234s.141 1.605-.434 2.18l-.656.657 4.242 4.243.657-.657c.574-.573 1.429-.745 2.18-.434.75.311 1.234 1.036 1.234 1.848v.929h6v-.929c0-.812.484-1.538 1.234-1.848.751-.31 1.605-.14 2.18.434l.657.657 4.242-4.243-.656-.657c-.574-.574-.744-1.43-.434-2.18s1.037-1.234 1.848-1.234h.929v-6h-.929c-.811 0-1.537-.484-1.847-1.234z"/><path d="m28 30c-1.103 0-2 .897-2 2s.897 2 2 2h.16c-.095-.655-.16-1.319-.16-2z"/><path d="m13.416 47.711.642-1.711h-2.115l.642 1.712c.129.344.7.345.831-.001z"/><path d="m16 16h-6v24h6zm-2 12h-2v-2h2zm0-4h-2v-2h2zm0-4h-2v-2h2z"/><path d="m56 30v2c0 .681-.065 1.345-.16 2h.16c1.103 0 2-.897 2-2s-.897-2-2-2z"/><path d="m55.586 18h-9.806l-.568 2.272c-.254 1.018-1.164 1.728-2.212 1.728s-1.958-.71-2.212-1.728l-.568-2.272h-11.22c-.182 0-.358-.023-.531-.054l-.51.509c-1.264 1.264-1.959 2.944-1.959 4.73 0 1.032.244 2.066.706 2.992l.93 1.86c.122-.011.239-.037.364-.037v-3.566l5.956-3.574.491.246c5.152 2.577 11.067 3.461 16.693 2.524l4.86-.81v5.18c.125 0 .242.026.364.037l.93-1.86c.462-.926.706-1.96.706-2.992 0-1.787-.695-3.466-1.959-4.73z"/><path d="m34.048 23.137-4.048 2.429v6.434c0 6.617 5.383 12 12 12s12-5.383 12-12v-6.82l-2.531.422c-5.867.979-12.052.103-17.421-2.465zm1.952 9.863c-1.105 0-2-.895-2-2s.895-2 2-2 2 .895 2 2-.895 2-2 2zm5.172 7h-2.172v-2h2.172c1.557 0 3.021-.606 4.121-1.707l1.414 1.414c-1.478 1.479-3.443 2.293-5.535 2.293zm6.828-7c-1.105 0-2-.895-2-2s.895-2 2-2 2 .895 2 2-.895 2-2 2z"/><path d="m57 0h-28c-.552 0-1 .449-1 1v14c0 .551.448 1 1 1h12.78l.947 3.787c.063.251.482.251.545 0l.948-3.787h12.78c.552 0 1-.449 1-1v-14c0-.551-.448-1-1-1zm-19 2h12v2h-12zm-8 0h6v2h-6zm0 4h12v2h-12zm8 6h-8v-2h8zm5.067 2.481-2.774-2.774 1.414-1.414 1.226 1.226 4.299-5.159 1.537 1.28zm7 0-2.774-2.774 1.414-1.414 1.226 1.226 4.299-5.159 1.537 1.28z"/></g></svg>