<svg id="Layer_1" enable-background="new 0 0 512 512" viewBox="0 0 512 512" xmlns="http://www.w3.org/2000/svg"><path clip-rule="evenodd" d="m143.432 56.234-30.944 52.207h61.888zm136.464 419.142c-1.303 4.321-4.16 8.91-6.305 12.921 4.879 2.803 9.274 4.701 12.744-1.218 3.043-5.833-2.041-9.213-6.439-11.703zm83.688-195.171c14.775 38.11 29.549 76.221 44.323 114.331.173.446.818.711 1.259.54l22.01-8.533c.456-.177.702-.811.539-1.258l-44.323-114.332c-.172-.444-.815-.709-1.255-.541l-22.013 8.534c-.446.173-.711.818-.54 1.259zm23.391 6.087c0 4.051-3.284 7.335-7.335 7.335-4.05 0-7.334-3.284-7.334-7.335s3.284-7.335 7.334-7.335c4.051 0 7.335 3.284 7.335 7.335zm-283.338 99.616 49.571-112.156c.214-.485.028-1.041-.465-1.259l-21.59-9.542c-.485-.214-1.042-.029-1.26.465l-49.57 112.154c-.214.485-.029 1.042.465 1.259l21.591 9.543c.484.214 1.04.029 1.258-.464zm32.93-99.49c-4.046-.188-7.175-3.62-6.987-7.666s3.62-7.174 7.667-6.987c4.046.188 7.174 3.62 6.987 7.667-.188 4.045-3.621 7.173-7.667 6.986zm245.364 95.401-13.105 5.468c-1.586-1.523-3.392-2.882-5.405-4.029l-58.537-33.365c-16.682-9.508-33.326-2.771-50.657 4.246-15.392 6.231-31.525 12.758-45.458 1.6 5.333-3.388 10.515-6.958 15.526-10.721 12.411-9.319 22.26-21.193 34.418-29.622 19.785-12.165 29.784-11.307 50.496-2.841 12.97 5.302 24.453 9.894 37.953 2.872l7.48-4.003zm-163.917 96.634 13.467-25.883c.38-3.082-1.155-6.241-3.917-7.714-2.729-1.456-6.217-1.028-8.563.965l-14.404 27.893c.044 2.766 1.526 5.284 3.98 6.596 3.143 1.681 7.159.869 9.437-1.857zm30.862-16.689-12.953 24.896c-.043 2.828 1.464 5.522 3.974 6.864 3.677 1.966 8.355.572 10.324-3.11l10.306-19.27c1.948-3.642.509-8.39-3.113-10.324-2.72-1.453-6.191-1.033-8.538.944zm-47.251-25.096c.409-3.1-1.129-6.293-3.909-7.777-2.462-1.314-5.467-1.151-7.8.359-5.765 9.977-11.654 19.825-17.086 29.98-1.965 3.675-.572 8.349 3.105 10.32 3.6 1.886 7.982.708 10.124-2.753zm-41.78 5.367c-2.29 1.436-5.353 1.615-7.75.333-3.682-1.969-5.077-6.647-3.111-10.324 3.583-6.698 7.165-13.396 10.747-20.094 1.969-3.681 6.647-5.073 10.324-3.111 3.344 1.784 4.855 5.933 3.505 9.459zm-29.367-68.218 30.505-69.018 10.114 4.666c13.022 7.19 24.601 4.48 37.181 1.533 8.287-1.941 17.172-4.022 26.845-1.673-7.641 7.13-14.051 13.589-22.596 20.005-7.162 5.378-17.292 10.492-23.368 15.414-5.216 3.997-6.142 11.465-2.118 16.647 24.328 31.304 50.115 20.873 74.567 10.975 12.842-5.199 25.175-10.191 33.584-5.399l58.537 33.364c3.336 1.9 4.807 6.15 2.955 9.626-1.934 3.36-5.951 4.859-9.473 3.004-13.398-7.67-26.949-15.106-40.355-22.781-4.714-2.697-10.723-1.061-13.42 3.653s-1.061 10.723 3.653 13.42c13.407 7.675 26.887 15.226 40.365 22.775 3.419 1.925 4.776 6.208 2.866 9.682-1.802 3.275-6.252 4.746-9.567 2.828l-53.022-29.835c-4.736-2.654-10.727-.967-13.381 3.768s-.967 10.727 3.768 13.381c14.425 8.117 28.816 16.375 43.245 24.458 3.415 1.922 4.791 6.214 2.878 9.69-1.904 3.438-6.22 4.689-9.665 2.789l-29.548-16.725c-.188-.107-.379-.206-.571-.299-6.217-7.222-15.877-10.729-25.33-9.067l-.255-.131c-5.026-11.424-17.304-17.994-29.597-15.832l-.252-.133c-4.549-10.339-15.051-16.776-26.309-16.176-4.784-17.579-25.067-25.573-40.585-16.02-3.622-12.426-11.233-13.995-21.651-18.589zm183.604-205.419c28.271 0 51.19 22.918 51.19 51.19 0 28.271-22.918 51.19-51.19 51.19-28.271 0-51.19-22.918-51.19-51.19s22.918-51.19 51.19-51.19zm-29.723 58.279 14.038 14.038c3.126 3.126 8.261 3.131 11.356-.045l33.769-30.646c3.262-2.968 3.5-8.02.531-11.281-2.969-3.262-8.02-3.5-11.281-.531l-28.442 25.812-8.659-8.658c-3.124-3.124-8.189-3.124-11.312 0-3.123 3.123-3.123 8.188 0 11.311zm-193.048-106.683c-1.201-2.423-1.102-5.28.277-7.615l44.906-75.762c1.868-3.284 5.798-4.81 9.406-3.638 22.464 6.167 31.117 2.89 40.274-.58 11.218-4.251 23.05-8.733 51.122-2.87 3.273-7.053 10.416-11.946 18.703-11.946s15.431 4.893 18.703 11.946c28.072-5.863 39.904-1.382 51.122 2.87 9.153 3.468 17.803 6.744 40.246.588 3.488-1.151 7.427.232 9.372 3.524l44.713 75.437c1.617 2.377 1.824 5.494.541 8.064-5.849 19.706-30.848 34.275-52.129 34.275-21.241 0-46.149-14.513-52.055-34.163-1.225-2.363-1.242-5.285.212-7.745l35.782-60.368c-15.217 1.8-23.582-1.368-32.306-4.674-9.422-3.571-19.373-7.336-45.021-1.589-2.036 5.164-6.098 9.308-11.206 11.454l.026 117.602c-10.438 11.665-16.859 26.997-17.094 43.826h-54.505c-2.31 0-3.75-2.48-2.606-4.486 11.871-20.82 33.274-35.501 58.268-38.1l-.026-118.839c-5.113-2.144-9.178-6.29-11.215-11.457-25.648-5.746-35.599-1.981-45.021 1.589-8.724 3.306-17.089 6.474-32.305 4.674l35.526 59.937c1.617 2.377 1.824 5.494.541 8.064-5.849 19.706-30.848 34.275-52.129 34.275-21.288 0-46.284-14.577-52.122-34.293zm277.257-63.76-30.944 52.207h61.888z" fill-rule="evenodd"/></svg>