<svg id="Layer_1" viewBox="0 0 64 64" xmlns="http://www.w3.org/2000/svg" data-name="Layer 1"><path d="m33.642 44.424-1.642-3.324-1.642 3.326a1 1 0 0 1 -.753.548l-3.67.533 2.656 2.59a1 1 0 0 1 .287.884l-.627 3.656 3.284-1.726a1 1 0 0 1 .93 0l3.284 1.726-.627-3.656a1 1 0 0 1 .287-.884l2.656-2.59-3.67-.533a1 1 0 0 1 -.753-.55z"/><path d="m45.668 58.325h14.332v-6.9h-9.9c-1.709 2.591-3.474 5.328-4.432 6.9z"/><path d="m44.518 39.218-13.551-9.01-11.91 13.05 4.264 15.067h15.715l5.482-8.686zm-3.605 6.3-3.731 3.642.88 5.134a1 1 0 0 1 -.985 1.169 1.012 1.012 0 0 1 -.466-.114l-4.611-2.425-4.611 2.425a1 1 0 0 1 -1.451-1.055l.88-5.134-3.731-3.638a1 1 0 0 1 .555-1.7l5.155-.749 2.303-4.673a1.041 1.041 0 0 1 1.792 0l2.308 4.668 5.155.749a1 1 0 0 1 .555 1.7z"/><path d="m4.178 47.038 4.142 11.287h6.507c-.787-2.217-2.652-7.072-3.9-10.267a1 1 0 0 1 1.864-.728c2.577 6.6 3.707 9.563 4.14 11h4.312l-4.263-15.062a1 1 0 0 1 .224-.947l12.863-14.095a1 1 0 0 1 1.293-.159l14.712 9.783a1 1 0 0 1 .446.832v11.246a1 1 0 0 1 -.154.533l-4.964 7.864h1.962c.6-1.175 2.074-3.48 5.365-8.449a1 1 0 0 1 .834-.448h5.192l3.743-15.6-14.955-1.934a1 1 0 0 1 -.842-.751l-3.047-12.3h-10.078a1 1 0 0 1 -.845-.464l-4.11-6.475-12.865 7.325.446 20.432a1 1 0 0 1 -.348.78z"/><path d="m40.286 16.847 7.422-2.256-7.741-8.034-8.092-.841-5.624 5.032 3.873 6.099z"/><path d="m41.633 18.528 2.843 11.472 12.04 1.559-7.6-6.48a1 1 0 0 1 -.351-.761v-7.895z"/></svg>