<svg id="Layer_1" viewBox="0 0 512 512" xmlns="http://www.w3.org/2000/svg" data-name="Layer 1"><path d="m73.5818 18.2791c23.7931 0 43.0824 19.2892 43.0824 43.0824s-19.2892 43.0832-43.0824 43.0832-43.0836-19.2888-43.0836-43.0832 19.2892-43.0824 43.0836-43.0824zm182.4182 15.8452c28.2995 0 51.2421 22.9425 51.2421 51.2421s-22.9425 51.2421-51.2421 51.2421-51.2425-22.9425-51.2425-51.2421 22.9425-51.2421 51.2425-51.2421zm21.1068 31.245-27.387 27.387-14.8258-14.8245c-2.3198-2.3198-6.0846-2.3198-8.4044 0s-2.3198 6.0846 0 8.4044l19.028 19.0267c2.3198 2.3203 6.0846 2.3203 8.4044 0l31.5892-31.5892c2.3198-2.3198 2.3198-6.0846 0-8.4044s-6.0846-2.3198-8.4044 0zm104.2955 169.6184h-72.5305c-12.1613 0-22.1167-9.95-22.1167-22.1122s9.9546-22.113 22.1167-22.113h60.682c5.695 0 10.579-1.3079 15.51-4.1568l52.5516-30.3408c10.5171-6.0705 24.1357-2.4243 30.2099 8.0932 6.0809 10.5336 2.4321 24.1278-8.0982 30.2075l-62.8144 36.2665c-4.9311 2.8477-9.8155 4.1556-15.5105 4.1556zm-250.805 0h72.5309c12.1609 0 22.1167-9.95 22.1167-22.1122s-9.9546-22.113-22.1167-22.113h-60.682c-5.6954 0-10.5794-1.3079-15.5105-4.1568l-52.5512-30.3408c-10.5175-6.0705-24.1361-2.4243-30.2104 8.0932-6.0809 10.5336-2.4321 24.1278 8.0982 30.2075l62.8144 36.2665c4.9315 2.8477 9.8155 4.1556 15.5105 4.1556zm307.8204-216.7086c-23.7931 0-43.082 19.2892-43.082 43.0824s19.2888 43.0832 43.082 43.0832 43.0836-19.2888 43.0836-43.0832-19.2892-43.0824-43.0836-43.0824zm34.6231 112.2236h-69.2457c-11.39 0-20.6801 9.2889-20.6801 20.6788v22.8257l48.5574-28.035c16.1757-9.3392 37.1051-3.7321 46.4455 12.4428 9.3487 16.191 3.7412 37.096-12.4477 46.4435l-62.8144 36.2665c-6.2274 3.5947-12.657 5.4597-19.7407 5.7169v219.2323c0 15.2059 12.4416 27.6466 27.6503 27.6466s27.6511-12.4358 27.6511-27.6466v-70.9502c0-5.695 2.0297-10.598 6.0578-14.6235l43.1876-43.1888c4.0268-4.0268 6.0578-8.9286 6.0578-14.6223l.0012-171.5078c0-11.39-9.2901-20.6788-20.6801-20.6788zm-434.0816 0h69.2453c11.39 0 20.6801 9.2889 20.6801 20.6788v22.8257l-48.557-28.035c-16.1762-9.3392-37.1055-3.7321-46.446 12.4428-9.3483 16.191-3.7412 37.096 12.4477 46.4435l62.8144 36.2665c6.2274 3.5947 12.6574 5.4597 19.7407 5.7169v219.2323c0 15.2059-12.4416 27.6466-27.6503 27.6466s-27.6511-12.4358-27.6511-27.6466v-70.9502c0-5.695-2.0297-10.598-6.0578-14.6235l-43.1876-43.1888c-4.0268-4.0268-6.0578-8.9286-6.0578-14.6223l-.0008-171.5078c0-11.39 9.2897-20.6788 20.6801-20.6788zm454.7617 335.5715c0 15.2096-12.4444 27.6466-27.6528 27.6466-5.8481 0-11.2872-1.8415-15.7663-4.9699v-93.6269c0-2.5398.78-4.4234 2.577-6.2204l40.8422-40.843v118.0136zm-475.4417 0c0 15.2096 12.444 27.6466 27.6524 27.6466 5.8481 0 11.2872-1.8415 15.7668-4.9699v-93.6269c0-2.5398-.7804-4.4234-2.5774-6.2204l-40.8418-40.843zm133.1946-370.1066 41.4633-13.3788c-.2385 5.5303.227 11.0309 1.4238 16.4407l-22.69 7.3211c-2.5142.806-4.1147 3.1354-4.1147 5.6413l-.0173 66.8858h-16.0651zm24.9937 150.9049c16.3503 24.4518 51.2268 46.9618 76.8391 60.0435 1.7408.889 3.7132.8539 5.4457-.0305 25.5963-13.0817 60.4364-35.5739 76.7785-60.013h18.4915c-22.829 45.3564-98.0223 79.2027-98.0223 79.2027s-75.1945-33.8451-98.0227-79.2027zm167.9931-67.9948h16.0651v-82.9101l-41.4633-13.3788c.2385 5.5315-.2282 11.0297-1.4238 16.4407l22.243 7.177c2.6244.6166 4.579 2.9727 4.579 5.7854zm-165.0356-62.5784v62.5784h23.7032c18.7213 0 34.0015 15.2752 34.0015 33.9978s-15.281 33.997-34.0015 33.997h-11.8675c16.1551 19.2669 42.701 36.5252 64.7393 48.1071 22.0346-11.5798 48.5863-28.8426 64.7377-48.1071h-11.8658c-18.7205 0-34.0019-15.2752-34.0019-33.997s15.2802-33.9978 34.0019-33.9978h23.7028v-62.5784l-18.5719-5.9921c-9.6714 22.458-32.0019 38.186-58.0027 38.186s-48.3316-15.728-58.0031-38.186l-18.5719 5.9921z" fill-rule="evenodd"/></svg>