<?xml version="1.0" encoding="utf-8"?>
<!-- Generator: Adobe Illustrator 27.3.1, SVG Export Plug-In . SVG Version: 6.00 Build 0)  -->
<svg version="1.1" id="Layer_1" width="25" height="12" xmlns="http://www.w3.org/2000/svg" xmlns:xlink="http://www.w3.org/1999/xlink" x="0px" y="0px"
	 viewBox="0 0 25 12" style="enable-background:new 0 0 25 12;" xml:space="preserve">
<style type="text/css">
	.st0{fill-rule:evenodd;clip-rule:evenodd;fill:#035256;}
</style>
<path class="st0" d="M16.3,0c0,0.9,0.5,1.7,1.1,2.4c0.6,0.7,1.5,1.2,2.3,1.7c0.3,0.2,0.6,0.3,0.9,0.5H4.5C2,4.6,0,6.6,0,9.1v2.3h1
	V9.1c0-1.9,1.6-3.5,3.5-3.5h16.4c-0.4,0.2-0.8,0.4-1.2,0.7c-0.8,0.5-1.6,1.1-2.3,1.7c-0.6,0.6-1.1,1.4-1.1,2.2h1
	c0-0.4,0.3-0.9,0.8-1.5c0.6-0.6,1.3-1.1,2.1-1.5c0.8-0.5,1.5-0.8,2.1-1.1c0.3-0.1,0.5-0.2,0.7-0.3c0.1,0,0.2-0.1,0.2-0.1l0.1,0l0,0
	l0,0l0,0v0l0,0L24.6,5l-1.3-0.4l0,0l0,0l0,0l0,0l0,0l0,0c0,0-0.1,0-0.2-0.1c-0.2-0.1-0.4-0.2-0.7-0.3c-0.6-0.2-1.4-0.6-2.1-1
	c-0.8-0.4-1.5-0.9-2.1-1.5c-0.6-0.6-0.8-1.1-0.8-1.7H16.3z"/>
</svg>
