<svg id="Line" height="512" viewBox="0 0 64 64" width="512" xmlns="http://www.w3.org/2000/svg"><path d="m54.44824 42.88739v-7.62915a1.50039 1.50039 0 0 0 -1.5-1.5h-19.44824v-13.82519h18.8418a1.50039 1.50039 0 0 0 1.5-1.5v-10.77246a1.50039 1.50039 0 0 0 -1.5-1.5h-40.6836a1.50039 1.50039 0 0 0 -1.5 1.5v10.77246a1.50039 1.50039 0 0 0 1.5 1.5h18.8418v13.82519h-19.44824a1.50039 1.50039 0 0 0 -1.5 1.5v7.62915c-8.7834 1.93561-7.60585 14.75846 1.50016 14.95288 9.10979-.20534 10.28615-13.00675 1.49969-14.95288l.00015-6.12915h17.94824v6.12915c-8.79366 1.942-7.59633 14.76 1.50016 14.95288 9.09907-.20116 10.2947-13.00357 1.49968-14.95288l.00016-6.12915h17.94824v6.12915c-8.80312 1.94725-7.58724 14.76194 1.50016 14.95288 9.08765-.19675 10.30379-13.00027 1.49984-14.95288zm-41.29-33.7268h37.68356v7.77246h-37.6836zm2.44532 41.12793a4.55194 4.55194 0 0 1 -9.10356-.0001 4.55194 4.55194 0 0 1 9.10352.0001zm20.94824 0a4.55194 4.55194 0 0 1 -9.10352-.0001 4.55194 4.55194 0 0 1 9.10348.0001zm16.39648 4.55175a4.55194 4.55194 0 0 1 .0001-9.10351 4.55194 4.55194 0 0 1 -.00014 9.10351z"/></svg>