<svg id="_x30_1" enable-background="new 0 0 496 492.438" height="512" viewBox="0 0 496 492.438" width="512" xmlns="http://www.w3.org/2000/svg"><g><path d="m472 224h-136.365l7.291-12.152-42.773-42.775-17.076 10.246-4.831-19.319h-60.492l-4.83 19.319-17.076-10.246-42.773 42.775 7.29 12.152h-35.814c-6.831-9.979-18.088-16-30.439-16-7.782 0-14.112-6.33-14.112-14.111v-1.889c0-8.822-7.178-16-16-16-17.645 0-32 14.355-32 32h-8c-13.233 0-24 10.766-24 24v64c0 13.234 10.767 24 24 24h132.922l38.925 38.926 17.076-10.245 4.83 19.319h60.492l4.83-19.319 17.076 10.245 38.927-38.926h32.369c6.831 9.98 18.09 16 30.442 16 7.781 0 14.111 6.331 14.111 14.111v1.889c0 8.822 7.178 16 16 16 17.645 0 32-14.355 32-32h8c13.233 0 24-10.767 24-24v-64c0-13.233-10.767-24-24-24zm-360 80h-88c-4.411 0-8-3.589-8-8v-8h32v-16h-32v-16h32v-16h-32v-8c0-4.411 3.589-8 8-8h24v-16c0-8.822 7.178-16 16-16v1.889c0 16.603 13.508 30.111 30.111 30.111 7.397 0 14.103 3.808 17.889 10.048zm256 0h-32.365l-2.954-4.924 19.319-4.83v-54.246h16zm-240-64h16v54.246l19.319 4.83-2.954 4.924h-32.365zm169.672 98.779-17.257-10.354-3.773 1.638c-.721.313-1.452.606-2.185.896l-3.821 1.512-4.882 19.529h-35.508l-4.882-19.528-3.821-1.512c-.732-.29-1.464-.583-2.185-.896l-3.773-1.638-17.257 10.354-25.107-25.108 10.354-17.256-1.639-3.774c-.312-.718-.604-1.446-.893-2.176l-1.51-3.828-19.533-4.884v-35.508l19.533-4.883 1.51-3.828c.289-.731.582-1.459.894-2.179l1.638-3.773-10.354-17.255 25.107-25.108 17.257 10.354 3.773-1.638c.72-.313 1.449-.605 2.181-.895l3.824-1.511 4.883-19.53h35.508l4.883 19.531 3.824 1.511c.731.289 1.461.582 2.181.895l3.773 1.638 17.257-10.354 25.107 25.108-10.354 17.255 1.638 3.773c.312.719.604 1.448.894 2.179l1.51 3.828 19.533 4.882v35.508l-19.533 4.883-1.51 3.828c-.289.73-.581 1.458-.893 2.176l-1.639 3.774 10.354 17.256zm174.328-18.779h-24v16c0 8.822-7.178 16-16 16v-1.889c0-16.603-13.508-30.111-30.111-30.111-7.401 0-14.104-3.817-17.889-10.062v-69.938h88c4.411 0 8 3.589 8 8v8h-32v16h32v16h-32v16h32v8c0 4.411-3.589 8-8 8z"/><path d="m248 240c-13.233 0-24 10.766-24 24s10.767 24 24 24 24-10.766 24-24-10.767-24-24-24zm0 32c-4.411 0-8-3.589-8-8s3.589-8 8-8 8 3.589 8 8-3.589 8-8 8z"/><path d="m248 208c-30.879 0-56 25.122-56 56s25.121 56 56 56 56-25.122 56-56-25.121-56-56-56zm0 96c-22.056 0-40-17.944-40-40s17.944-40 40-40 40 17.944 40 40-17.944 40-40 40z"/><path d="m223.155 395.578-14.31-7.156-18.579 37.158 15.44 15.44-28.362 42.543 13.312 8.875 35.638-53.458-16.56-16.56z"/><path d="m169.344 355.563-26.587 39.88-15.622-15.622-53.535 71.379 12.8 9.6 42.465-56.621 16.378 16.378 37.413-56.119z"/><path d="m289.734 425.58-18.579-37.158-14.31 7.156 13.421 26.842-16.56 16.56 35.638 53.458 13.312-8.875-28.362-42.543z"/><path d="m353.243 395.443-26.587-39.88-13.312 8.875 37.413 56.119 16.378-16.378 42.465 56.621 12.8-9.6-53.535-71.379z"/><path d="m472 0h-448c-13.233 0-24 10.766-24 24v96c0 13.234 10.767 24 24 24h76.687l26.343 26.343c3.647 3.648 8.497 5.657 13.657 5.657 10.649 0 19.313-8.664 19.313-19.313v-12.687h176v12.687c0 10.649 8.664 19.313 19.313 19.313 5.16 0 10.01-2.009 13.657-5.657l26.343-26.343h76.687c13.233 0 24-10.766 24-24v-96c0-13.234-10.767-24-24-24zm8 120c0 4.411-3.589 8-8 8h-83.313l-31.03 31.03c-.625.625-1.457.97-2.343.97-1.827 0-3.313-1.486-3.313-3.313v-28.687h-208.001v28.687c0 1.827-1.486 3.313-3.313 3.313-.886 0-1.718-.344-2.343-.97l-31.031-31.03h-83.313c-4.411 0-8-3.589-8-8v-96c0-4.411 3.589-8 8-8h448c4.411 0 8 3.589 8 8z"/><path d="m80 32h16v48h-16z"/><circle cx="88" cy="104" r="8"/><path d="m112 32h16v48h-16z"/><circle cx="120" cy="104" r="8"/><path d="m144 32h16v48h-16z"/><circle cx="152" cy="104" r="8"/><path d="m400 32h16v48h-16z"/><circle cx="408" cy="104" r="8"/><path d="m368 32h16v48h-16z"/><circle cx="376" cy="104" r="8"/><path d="m336 32h16v48h-16z"/><circle cx="344" cy="104" r="8"/></g></svg>