<svg id="Layer_1" enable-background="new 0 0 512 512" viewBox="0 0 512 512" xmlns="http://www.w3.org/2000/svg"><path clip-rule="evenodd" d="m181.462 400.706c-12.827-16.599-32.927-27.289-55.526-27.294 19.584-.008 35.457-15.885 35.457-35.47 0-19.59-15.881-35.471-35.471-35.471s-35.471 15.881-35.471 35.471c0 19.585 15.873 35.463 35.457 35.47-22.599.004-42.7 10.695-55.527 27.294zm103.572 103.225c-10.523 0-10.523-16 0-16h25.951v-19.437h149.838v19.437h25.952c10.523 0 10.523 16 0 16zm12.677-87.225h176.133c2.847 0 5.176 2.329 5.176 5.175v25.438c0 2.846-2.329 5.175-5.176 5.175h-176.133c-2.846 0-5.175-2.329-5.175-5.175v-25.438c0-2.846 2.328-5.175 5.175-5.175zm88.02-114.235c19.59 0 35.471 15.881 35.471 35.471 0 19.585-15.874 35.463-35.457 35.47 22.599.005 42.699 10.695 55.526 27.294h-111.081c12.827-16.599 32.928-27.29 55.527-27.294-19.583-.008-35.457-15.885-35.457-35.47 0-19.59 15.881-35.471 35.471-35.471zm-137.405-286.446c-.123-10.483 15.815-10.668 15.938-.188l.262 22.136c.123 10.483-15.815 10.668-15.938.188zm53.52 11.583c8.005-6.774 18.318 5.413 10.312 12.187l-16.885 14.316c-8.005 6.774-18.318-5.413-10.312-12.187zm-101.113 12.187c-8.005-6.774 2.307-18.961 10.312-12.187l16.885 14.316c8.005 6.774-2.307 18.961-10.312 12.187zm63.531 78.884c-.123 10.481-16.061 10.295-15.938-.188l.262-22.136c.123-10.481 16.061-10.295 15.938.188zm47.895-23.958c8.005 6.774-2.307 18.961-10.312 12.187l-16.885-14.316c-8.005-6.774 2.307-18.961 10.312-12.187zm-101.114 12.188c-8.005 6.774-18.318-5.413-10.312-12.187l16.885-14.316c8.005-6.774 18.318 5.413 10.312 12.187zm157.133 66.292c-7.44-7.44 3.872-18.753 11.312-11.312l6.242 6.241 6.241-6.241c7.44-7.44 18.753 3.872 11.312 11.312l-6.241 6.241 6.241 6.241c7.44 7.44-3.872 18.753-11.312 11.312l-6.241-6.241-6.242 6.241c-7.44 7.44-18.753-3.872-11.312-11.312l6.241-6.241zm74.23-49.047c-37.784 0-75.568 0-113.352 0-8.524 0-15.477 6.952-15.477 15.476v77.565c0 8.524 6.953 15.476 15.477 15.476h35.411l18.495 44.155c1.024 2.444 4.515 2.444 5.539 0l18.496-44.155h35.411c8.524 0 15.476-6.952 15.476-15.476 0-25.855 0-51.71 0-77.565 0-8.524-6.952-15.476-15.476-15.476zm-56.676 90.637c-19.522 0-35.349-15.826-35.349-35.348s15.826-35.349 35.349-35.349c19.522 0 35.348 15.826 35.348 35.349 0 19.521-15.826 35.348-35.348 35.348zm-253.569-52.903c7.44-7.44 18.753 3.872 11.312 11.312l-6.241 6.241 6.241 6.241c7.44 7.44-3.872 18.753-11.312 11.312l-6.241-6.241-6.242 6.241c-7.44 7.44-18.753-3.872-11.312-11.312l6.241-6.241-6.241-6.241c-7.44-7.44 3.872-18.753 11.312-11.312l6.242 6.241zm50.435-37.734c-37.784 0-75.568 0-113.352 0-8.524 0-15.476 6.952-15.476 15.476v77.565c0 8.524 6.952 15.476 15.476 15.476h35.411l18.496 44.155c1.024 2.444 4.515 2.444 5.539 0l18.495-44.155h35.411c8.524 0 15.477-6.952 15.477-15.476 0-25.855 0-51.71 0-77.565-.001-8.524-6.953-15.476-15.477-15.476zm-56.676 90.637c-19.522 0-35.349-15.826-35.349-35.348s15.826-35.349 35.349-35.349 35.349 15.826 35.349 35.349c0 19.521-15.827 35.348-35.349 35.348zm234.387-177.762c0-3.236-3.717-5.04-6.26-3.038l-37.934 29.865c-1.966 1.549-1.966 4.529 0 6.078l37.934 29.865c2.543 2.001 6.26.198 6.26-3.038v-12.402h105.951c1.652 0 3-1.348 3-3v-28.928c0-1.652-1.348-3-3-3h-105.951zm-206.779 0v12.402h-105.952c-1.652 0-3 1.348-3 3v28.926c0 1.652 1.348 3 3 3h105.952v12.403c0 3.236 3.717 5.04 6.26 3.038l37.934-29.865c1.966-1.549 1.966-4.529 0-6.078l-37.934-29.864c-2.543-2.002-6.26-.198-6.26 3.038zm-128.305 466.902c-10.523 0-10.523-16 0-16h25.951v-19.437h149.838v19.437h25.952c10.523 0 10.523 16 0 16zm12.677-87.225h176.133c2.847 0 5.176 2.329 5.176 5.175v25.438c0 2.846-2.329 5.175-5.176 5.175h-176.133c-2.846 0-5.175-2.329-5.175-5.175v-25.438c0-2.846 2.329-5.175 5.175-5.175z" fill-rule="evenodd"/></svg>