<svg clip-rule="evenodd" fill-rule="evenodd" height="512" image-rendering="optimizeQuality" shape-rendering="geometricPrecision" text-rendering="geometricPrecision" viewBox="0 0 4335 4335" width="512" xmlns="http://www.w3.org/2000/svg"><g id="Layer_x0020_1"><path d="m1969 907c-77 64-110 154-110 253 185 121 432 121 617 0 0-99-33-189-110-253-117 89-280 89-397 0zm2044 3428h-1605c-106 0-191-86-191-191 0-64-99-64-99 0 0 105-85 191-191 191h-1606c-217 0-260-307-59-373v-478c0-29 21-54 49-59 48-8 1057-176 1698 168-313-434-1019-212-1713-542-69-32-18-139 51-107 589 281 1235 142 1610 427v-951l-594-359c-435 388-1141 87-1141-511 0-378 308-685 685-685 441 0 765 414 668 838l382 234v-600c-277-89-474-349-474-652 0-377 307-685 684-685 378 0 685 308 685 685 0 303-197 563-474 652v600l382-234c-97-424 228-838 668-838 377 0 685 307 685 685 0 598-706 899-1141 511l-594 359v951c375-285 1017-145 1610-427 69-32 120 75 51 107-317 151-628 189-903 221-357 43-632 74-810 321 641-343 1650-176 1697-168 29 5 50 30 50 59v478c201 66 158 373-60 373zm-3632-382h1400c50-101 137-178 241-215-523-332-1422-234-1641-203v153h763c77 0 77 119 0 119h-763zm1932-215c104 37 191 114 241 215h1400v-146h-763c-77 0-77-119 0-119h763v-153c-219-31-1119-129-1641 203zm22 406c0 40 33 72 73 72h1605c95 0 95-145 0-145h-1497c-25 0-47-15-56-38-102-269-483-269-585 0-9 23-31 38-56 38h-1498c-95 0-95 145 0 145h1606c40 0 73-32 73-72 0-221 335-221 335 0zm-260-659c34 41 65 87 93 140 27-53 58-99 92-140v-1099c0-20 10-40 28-50l601-363c-37-47-68-99-92-154l-447 275c-38 23-90-5-90-51v-679c-61 8-124 8-185 0v679c0 46-52 74-90 51l-447-275c-24 55-55 107-92 154l601 363c17 10 28 30 28 50zm809-1774c29 82 66 155 124 219 17-96 67-183 142-246-130-211 21-497 278-497s408 286 277 497c75 63 125 150 143 246 320-355 78-946-420-946-379 0-649 370-544 727zm-717-1592c-498 0-740 592-419 946 17-96 67-182 142-246-130-211 20-497 277-497 258 0 408 286 278 497 75 63 125 150 143 246 320-355 78-946-421-946zm-1260 865c-498 0-740 591-420 946 18-96 68-183 143-246-131-211 20-497 277-497s408 286 278 497c75 63 125 150 142 246 321-355 79-946-420-946zm-308 1041c185 121 431 121 617 0 0-99-33-189-110-253-117 89-280 89-397 0-78 64-110 154-110 253zm2520 0c185 121 432 121 617 0 0-99-32-189-110-253-117 89-280 89-397 0-77 64-110 154-110 253zm-2212-719c-114 0-207 93-207 207 0 115 93 208 207 208 115 0 208-93 208-208 0-114-93-207-208-207zm2521 0c-115 0-208 93-208 207 0 115 93 208 208 208 114 0 207-93 207-208 0-114-93-207-207-207zm-1261-865c-114 0-207 93-207 207 0 122 102 211 218 208 110-6 197-97 197-208 0-114-93-207-208-207z"/></g></svg>