<svg id="Capa_1" enable-background="new 0 0 512 512" height="512" viewBox="0 0 512 512" width="512" xmlns="http://www.w3.org/2000/svg"><g><path d="m345.729 302h-74.729v69.743c23.635-.813 46.412-3.549 67.521-8.04 3.985-19.451 6.431-40.222 7.208-61.703z"/><path d="m241 302h-74.729c.777 21.481 3.223 42.252 7.209 61.702 21.109 4.491 43.885 7.227 67.521 8.04v-69.742z"/><path d="m370.576 355.095c9.736-3.216 18.931-6.863 27.467-10.927 25.377-12.084 42.587-26.904 49.521-42.168h-71.824c-.619 18.216-2.361 36.02-5.164 53.095z"/><path d="m241 478.972v-77.22c-20.375-.661-40.235-2.66-59.132-5.917 3.8 11.782 8.242 22.83 13.302 32.95 13.022 26.042 29.164 43.52 45.83 50.187z"/><path d="m479.228 302c-6.414 26.873-30.097 51.068-68.286 69.253-14.363 6.839-30.319 12.618-47.452 17.255-5.135 19.503-11.78 37.6-19.826 53.693-22.507 45.01-53.64 69.799-87.664 69.799 60.1 0 116.602-23.404 159.099-65.901 38.942-38.942 61.837-89.646 65.398-144.099z"/><path d="m168.337 442.201c-8.046-16.093-14.691-34.189-19.826-53.693-17.133-4.637-33.09-10.415-47.452-17.255-38.19-18.186-61.873-42.38-68.286-69.253h-1.269c3.561 54.453 26.456 105.158 65.398 144.099 42.496 42.497 98.998 65.901 159.098 65.901-34.024 0-65.157-24.789-87.663-69.799z"/><path d="m316.83 428.784c5.06-10.12 9.502-21.168 13.302-32.95-18.896 3.257-38.757 5.257-59.132 5.917v77.22c16.666-6.666 32.808-24.144 45.83-50.187z"/><path d="m113.957 344.168c8.535 4.064 17.731 7.711 27.467 10.927-2.802-17.075-4.544-34.879-5.163-53.095h-71.825c6.934 15.264 24.144 30.084 49.521 42.168z"/><circle cx="348.5" cy="50" r="50"/><circle cx="163.5" cy="50" r="50"/><circle cx="256" cy="177.5" r="37.5"/><path d="m323.5 177.5c0 6.328-.894 12.447-2.53 18.259 18.471 17.342 30.03 41.965 30.03 69.241v7h70v-109.5c0-19.987-8.09-38.084-21.171-51.199-13.903 11.661-31.807 18.699-51.329 18.699s-37.426-7.038-51.329-18.699c-2.504 2.51-4.821 5.205-6.937 8.059 19.89 11.756 33.266 33.41 33.266 58.14z"/><path d="m161 265c0-27.276 11.559-51.899 30.03-69.241-1.636-5.812-2.53-11.931-2.53-18.259 0-24.73 13.376-46.384 33.266-58.14-2.116-2.853-4.433-5.549-6.937-8.059-13.903 11.661-31.807 18.699-51.329 18.699s-37.426-7.038-51.329-18.699c-13.081 13.115-21.171 31.212-21.171 51.199v109.5h70z"/><path d="m321 265c0-15.934-5.773-30.539-15.324-41.857-12.346 13.426-30.043 21.857-49.676 21.857s-37.33-8.431-49.676-21.857c-9.551 11.318-15.324 25.923-15.324 41.857v7h130z"/></g></svg>