<?xml version="1.0"?>
<svg xmlns="http://www.w3.org/2000/svg" data-name="Layer 1" id="Layer_1" viewBox="0 0 64 64"><path d="M36,48a4,4,0,1,0-4,4A4,4,0,0,0,36,48Zm-6,0a2,2,0,1,1,2,2A2,2,0,0,1,30,48Z"/><path d="M23,58v4a1,1,0,0,0,1,1H40a1,1,0,0,0,1-1V58a5,5,0,0,0-5-5H34a1,1,0,0,0-.89.55L32,55.76l-1.11-2.21A1,1,0,0,0,30,53H28A5,5,0,0,0,23,58Zm8.11.45a1,1,0,0,0,1.78,0L34.62,55H36a3,3,0,0,1,3,3v3H25V58a3,3,0,0,1,3-3h1.38Z"/><path d="M6,28a4,4,0,1,0,4-4A4,4,0,0,0,6,28Zm4-2a2,2,0,1,1-2,2A2,2,0,0,1,10,26Z"/><path d="M2,43H18a1,1,0,0,0,1-1V38a5,5,0,0,0-5-5H12a1,1,0,0,0-.89.55L10,35.76,8.89,33.55A1,1,0,0,0,8,33H6a5,5,0,0,0-5,5v4A1,1,0,0,0,2,43Zm1-5a3,3,0,0,1,3-3H7.38l1.73,3.45a1,1,0,0,0,1.78,0L12.62,35H14a3,3,0,0,1,3,3v3H3Z"/><path d="M50,28a4,4,0,1,0,4-4A4,4,0,0,0,50,28Zm6,0a2,2,0,1,1-2-2A2,2,0,0,1,56,28Z"/><path d="M58,33H56a1,1,0,0,0-.89.55L54,35.76l-1.11-2.21A1,1,0,0,0,52,33H50a5,5,0,0,0-5,5v4a1,1,0,0,0,1,1H62a1,1,0,0,0,1-1V38A5,5,0,0,0,58,33Zm3,8H47V38a3,3,0,0,1,3-3h1.38l1.73,3.45a1,1,0,0,0,1.78,0L56.62,35H58a3,3,0,0,1,3,3Z"/><path d="M20,17a1,1,0,0,0-1,1v4a1,1,0,0,0,1,1h6.06l-1,2.65a1,1,0,0,0,.12.92A1,1,0,0,0,26,27H38a1,1,0,0,0,.82-.43,1,1,0,0,0,.12-.92l-1-2.65H44a1,1,0,0,0,1-1V18a1,1,0,0,0-1-1H42V11h1a1,1,0,0,0,1-1V7a1,1,0,0,0-.59-.91l-11-5a1,1,0,0,0-.82,0l-11,5A1,1,0,0,0,20,7v3a1,1,0,0,0,1,1h1v6Zm7.44,8,2.25-6h4.62l2.25,6ZM24,17V11H40v6Zm19,2v2H37.19l-.75-2ZM22,7.64,32,3.1,42,7.64V9H22ZM27.56,19l-.75,2H21V19Z"/><circle cx="32" cy="6" r="1"/><path d="M54,7H47a1,1,0,0,0,0,2h6V21a1,1,0,0,0,2,0V8A1,1,0,0,0,54,7Z"/><path d="M11,21V9h6a1,1,0,0,0,0-2H10A1,1,0,0,0,9,8V21a1,1,0,0,0,2,0Z"/><path d="M54,45a1,1,0,0,0-1,1V59H44a1,1,0,0,0,0,2H54a1,1,0,0,0,1-1V46A1,1,0,0,0,54,45Z"/><path d="M11,46a1,1,0,0,0-2,0V60a1,1,0,0,0,1,1H20a1,1,0,0,0,0-2H11Z"/></svg>
