<?xml version="1.0" encoding="UTF-8"?>
<svg xmlns="http://www.w3.org/2000/svg" viewBox="0 0 64 64" width="512" height="512"><g id="team-worker-group-marketing-seo"><path d="M16,32.85l5.18-2.96L18.4,27.8A1.014,1.014,0,0,1,18,27V24.71a7.042,7.042,0,0,1-4,0V27a1.014,1.014,0,0,1-.4.8l-2.78,2.09Z"/><path d="M21,18V12.78l-6.88-1.72L11,12.62V18a5,5,0,0,0,10,0Zm-4-4h2v2H17Zm-2,2H13V14h2Z"/><path d="M25,37V34a3.012,3.012,0,0,1-2.92-2.32L16.5,34.87a1.044,1.044,0,0,1-1,0L8.75,31.01A4.995,4.995,0,0,0,4,36v4a1,1,0,0,0,1,1H26.26A6.987,6.987,0,0,1,25,37Z"/><path d="M41,13V12a.977.977,0,0,1,.55-.89l4-2a.972.972,0,0,1,.69-.08l8,2a1.072,1.072,0,0,1,.48.29A4.971,4.971,0,0,0,56,8V5H45a5,5,0,0,0-5,5v2A1,1,0,0,0,41,13Z"/><path d="M53,18V12.78l-6.88-1.72L43,12.62V18a5,5,0,0,0,10,0Zm-4-4h2v2H49Zm-2,2H45V14h2Z"/><path d="M12,26.5V23.74A7.01,7.01,0,0,1,9,18V12a.977.977,0,0,1,.55-.89l4-2a.978.978,0,0,1,.69-.08l8,2A1,1,0,0,1,23,12v6a7.01,7.01,0,0,1-3,5.74V26.5l2.07,1.55A7.017,7.017,0,0,1,25,23.26V14A9,9,0,0,0,7,14V29.29a6.941,6.941,0,0,1,1.64-.27Z"/><path d="M48,32.85l5.18-2.96L50.4,27.8A1.014,1.014,0,0,1,50,27V24.71a7.042,7.042,0,0,1-4,0V27a1.014,1.014,0,0,1-.4.8l-2.78,2.09Z"/><path d="M24,31a1,1,0,0,0,1,1V31a.977.977,0,0,1,.55-.89l4-2a.978.978,0,0,1,.69-.08l8,2a1.072,1.072,0,0,1,.48.29A4.971,4.971,0,0,0,40,27V24H29a5,5,0,0,0-5,5Z"/><path d="M32,51.85l5.18-2.96L34.4,46.8A1.014,1.014,0,0,1,34,46V43.71a7.042,7.042,0,0,1-4,0V46a1.014,1.014,0,0,1-.4.8l-2.78,2.09Z"/><path d="M39.25,50.01,32.5,53.87a1.044,1.044,0,0,1-1,0l-6.75-3.86A5.005,5.005,0,0,0,20,55v4a1,1,0,0,0,1,1H43a1,1,0,0,0,1-1V55A5.005,5.005,0,0,0,39.25,50.01ZM24,58H22V56h2Zm14,0H26V56H38Zm4,0H40V56h2Z"/><path d="M37,37V31.78l-6.88-1.72L27,31.62V37a5,5,0,0,0,10,0Zm-4-4h2v2H33Zm-2,2H29V33h2Z"/><path d="M55.25,31.01,48.5,34.87a1.044,1.044,0,0,1-1,0l-6.75-3.86h-.03A6.987,6.987,0,0,1,39,32.72V37a6.987,6.987,0,0,1-1.26,4H59a1,1,0,0,0,1-1V36A5.005,5.005,0,0,0,55.25,31.01Z"/><path d="M55,54a1,1,0,0,1-1,1H46v2h8a3,3,0,0,0,3-3V47H55Z"/><rect x="55" y="43" width="2" height="2"/><path d="M9,54V47H7v7a3,3,0,0,0,3,3h8V55H10A1,1,0,0,1,9,54Z"/><rect x="7" y="43" width="2" height="2"/></g></svg>
