<svg id="Layer_1" enable-background="new 0 0 500 500" viewBox="0 0 500 500" xmlns="http://www.w3.org/2000/svg"><path clip-rule="evenodd" d="m265.349 300.124 39.426 39.435c-4.571 3.491-8.661 7.588-12.142 12.177l-38.13-38.134c-1.188-1.19-2.81-1.862-4.505-1.862-1.689 0-3.312.672-4.499 1.862l-38.136 38.134c-3.476-4.589-7.566-8.686-12.137-12.177l39.436-39.435c1.187-1.198 1.858-2.822 1.858-4.503v-18.536c0-3.519-2.856-6.374-6.373-6.374h-63.541c.394-2.855.619-5.761.619-8.728 0-2.871-.215-5.693-.589-8.464h50.216c3.394 0 6.189-2.652 6.368-6.043l3.138-59.855c.399-7.633-1.976-14.407-7.049-20.126-3.153-3.543-6.26-5.593-8.758-7.24-3.809-2.516-6.332-4.174-9.02-10.82-1.792-4.445-3.322-10.232-4.556-17.192-1.019-5.813-1.833-12.535-2.411-19.844.855.136 1.73.22 2.626.22 4.494 0 8.584-1.75 11.64-4.597 3.112 2.379 6.998 3.799 11.2 3.799 4.049 0 7.796-1.318 10.847-3.537 6.204 9.648 17.466 10.998 30.729 12.061v1.198c-18.321 9.366-22.288 23.855-22.283 34.69.01 3.519 2.856 6.375 6.378 6.375h.005c3.522-.008 6.373-2.863 6.363-6.382-.005-11.542 5.841-19.41 18.412-24.765 2.345-1.004 3.875-3.315 3.875-5.865v-11.142c0-3.323-2.549-6.085-5.856-6.356-1.29-.102-2.544-.204-3.768-.298-18.228-1.42-24.33-1.904-25.845-14.821h43.941c2.442 0 4.377 1.121 5.585 3.245l11.261 19.691c3.45 6.035 3.281 12.867-.451 18.732l-24.325 38.226c-3.363 5.287-4.776 10.888-4.326 17.126l4.192 57.603c.246 3.331 3.015 5.915 6.353 5.915h52.243c-.374 2.771-.589 5.593-.589 8.464 0 2.967.22 5.873.624 8.728h-63.546c-3.522 0-6.373 2.855-6.373 6.374v18.536c.004 1.683.675 3.307 1.873 4.505zm129.119 90.12c0-28.14-22.897-51.035-51.03-51.035-28.144 0-51.035 22.895-51.035 51.035 0 13.367 5.175 25.547 13.611 34.649v-3.475c0-14.099 7.852-26.406 19.406-32.779-3.793-4.26-6.097-9.868-6.097-16.005 0-13.291 10.821-24.111 24.115-24.111 13.299 0 24.11 10.819 24.11 24.111 0 6.136-2.303 11.745-6.097 16.005 11.558 6.372 19.406 18.68 19.406 32.779v3.475c8.436-9.102 13.611-21.281 13.611-34.649zm-62.394-17.61c0-6.263 5.098-11.361 11.364-11.361 6.26 0 11.359 5.099 11.359 11.361 0 6.265-5.098 11.363-11.359 11.363-6.266 0-11.364-5.098-11.364-11.363zm-13.309 62.263v-13.479c0-13.599 11.062-24.672 24.673-24.672 13.601 0 24.668 11.074 24.668 24.672v13.479c-7.315 4.061-15.73 6.383-24.668 6.383-8.943-.001-17.358-2.322-24.673-6.383zm-124.778-10.004c8.436-9.102 13.616-21.281 13.616-34.649 0-28.14-22.897-51.035-51.035-51.035-28.139 0-51.035 22.895-51.035 51.035 0 13.367 5.175 25.547 13.616 34.649v-3.475c0-14.099 7.842-26.406 19.401-32.779-3.788-4.26-6.092-9.868-6.092-16.005 0-13.291 10.811-24.111 24.11-24.111 13.294 0 24.11 10.819 24.11 24.111 0 6.136-2.304 11.745-6.092 16.005 11.548 6.372 19.401 18.68 19.401 32.779zm-48.783-52.259c0-6.263 5.098-11.361 11.364-11.361 6.26 0 11.364 5.099 11.364 11.361 0 6.265-5.104 11.363-11.364 11.363-6.266 0-11.364-5.098-11.364-11.363zm-13.309 62.263v-13.479c0-13.599 11.062-24.672 24.673-24.672 13.596 0 24.673 11.074 24.673 24.672v13.479c-7.32 4.061-15.735 6.383-24.673 6.383-8.943-.001-17.359-2.322-24.673-6.383zm8.968-138.256v-3.485c0-14.099-7.857-26.405-19.406-32.779 3.793-4.257 6.097-9.868 6.097-16.002 0-13.293-10.821-24.111-24.11-24.111-13.304 0-24.115 10.818-24.115 24.111 0 6.134 2.304 11.745 6.097 16.002-11.558 6.375-19.406 18.68-19.406 32.779v3.485c-8.436-9.112-13.611-21.29-13.611-34.659 0-28.138 22.892-51.035 51.035-51.035 28.134 0 51.03 22.897 51.03 51.035 0 13.369-5.175 25.546-13.611 34.659zm-48.783-52.267c0 6.271 5.088 11.371 11.364 11.371 6.26 0 11.359-5.1 11.359-11.371 0-6.265-5.098-11.364-11.359-11.364-6.276 0-11.364 5.099-11.364 11.364zm-13.309 62.261c7.315 4.063 15.72 6.382 24.673 6.382 8.938 0 17.353-2.319 24.668-6.382v-13.479c0-13.597-11.072-24.663-24.668-24.663-13.611 0-24.673 11.066-24.673 24.663zm114.049-230.942v19.81c0 2.371 1.996 4.369 4.371 4.369 2.37 0 4.377-1.998 4.377-4.369h.128c-.077-.706-.128-1.42-.128-2.15v-17.66c0-2.371-2.007-4.377-4.377-4.377-2.375 0-4.371 2.005-4.371 4.377zm21.494-4.623v22.283c0 3.153 2.565 5.719 5.718 5.719 3.158 0 5.723-2.566 5.723-5.719v-22.283c0-3.153-2.564-5.713-5.723-5.713-3.154 0-5.718 2.559-5.718 5.713zm24.186-4.905c0-4.105 3.332-7.444 7.438-7.444 4.116 0 7.443 3.339 7.443 7.444v14.065h-14.881zm35.075-7.445c4.105 0 7.448 3.339 7.448 7.444v14.066h-14.891v-14.065c0-4.106 3.338-7.445 7.443-7.445zm122.986 152.227c28.139 0 51.035 22.897 51.035 51.035 0 13.369-5.18 25.546-13.616 34.649v-3.475c0-14.099-7.847-26.405-19.406-32.779 3.793-4.257 6.102-9.868 6.102-16.002 0-13.293-10.816-24.111-24.115-24.111-13.294 0-24.115 10.818-24.115 24.111 0 6.134 2.304 11.745 6.097 16.002-11.553 6.375-19.406 18.68-19.406 32.779v3.485c-8.436-9.112-13.611-21.29-13.611-34.659 0-28.138 22.892-51.035 51.035-51.035zm-11.363 33.427c0 6.271 5.098 11.371 11.364 11.371 6.271 0 11.369-5.1 11.369-11.371 0-6.265-5.098-11.364-11.369-11.364-6.266 0-11.364 5.099-11.364 11.364zm-13.31 62.261c7.315 4.063 15.73 6.382 24.673 6.382 8.948 0 17.353-2.319 24.668-6.382v-13.479c0-13.597-11.062-24.663-24.668-24.663-13.601 0-24.673 11.066-24.673 24.663zm-35.381-23.175c8.84 24.637 32.423 42.305 60.055 42.305 35.167 0 63.781-28.614 63.781-63.782 0-35.166-28.615-63.782-63.781-63.782-27.734 0-51.378 17.796-60.137 42.571h-49.372l-3.757-51.699c-.261-3.501.471-6.382 2.355-9.348l24.335-38.228c6.26-9.85 6.542-21.773.752-31.903l-11.251-19.7c-1.464-2.557-3.424-4.667-5.718-6.264v-17.465c0-11.134-9.06-20.191-20.194-20.191-5.339 0-10.197 2.089-13.816 5.488-3.614-3.399-8.477-5.488-13.821-5.488-7.013 0-13.196 3.593-16.821 9.034-2.688-1.522-5.784-2.397-9.086-2.397-6.225 0-11.733 3.101-15.08 7.836-2.339-1.19-4.965-1.88-7.76-1.88-9.444 0-17.118 7.684-17.118 17.126v19.81c0 2.081.389 4.079 1.08 5.932.507 12.468 1.602 23.583 3.271 33.017 1.377 7.837 3.163 14.481 5.293 19.76 4.167 10.326 9.301 13.699 13.821 16.683 2.263 1.487 4.208 2.779 6.24 5.065 2.81 3.172 4.07 6.765 3.849 10.998l-2.826 53.814h-47.221c-8.763-24.775-32.408-42.571-60.137-42.571-35.172 0-63.786 28.616-63.786 63.782 0 35.168 28.615 63.782 63.786 63.782 27.627 0 51.21-17.668 60.05-42.305h60.28v9.518l-39.723 39.722c-8.328-3.993-17.65-6.237-27.483-6.237-35.167 0-63.781 28.606-63.781 63.782 0 35.168 28.615 63.782 63.781 63.782 35.167 0 63.781-28.614 63.781-63.782 0-9.766-2.216-19.028-6.153-27.306l35.802-35.814 35.807 35.814c-3.931 8.278-6.153 17.54-6.153 27.306 0 35.168 28.615 63.782 63.786 63.782 35.162 0 63.781-28.614 63.781-63.782 0-35.176-28.62-63.782-63.781-63.782-9.838 0-19.16 2.244-27.488 6.237l-39.723-39.722v-9.518z" fill-rule="evenodd"/></svg>