<svg id="Layer_1" enable-background="new 0 0 512 512" viewBox="0 0 512 512" xmlns="http://www.w3.org/2000/svg"><path clip-rule="evenodd" d="m120.604 256c14.051-27.947 34.908-48.772 59.095-62.5-13.953 17.015-22.33 38.778-22.33 62.5 0 23.721 8.377 45.485 22.33 62.5-24.187-13.728-45.044-34.553-59.095-62.5zm-59.069 118.56c17.64 0 31.939 14.124 31.939 31.547s-14.299 31.547-31.939 31.547c-17.639 0-31.939-14.124-31.939-31.547s14.3-31.547 31.939-31.547zm0-366.06c17.64 0 31.939 14.124 31.939 31.547s-14.299 31.547-31.939 31.547c-17.639 0-31.939-14.124-31.939-31.547s14.3-31.547 31.939-31.547zm388.93 0c17.64 0 31.939 14.124 31.939 31.547s-14.299 31.547-31.939 31.547c-17.639 0-31.939-14.124-31.939-31.547s14.299-31.547 31.939-31.547zm0 366.06c17.64 0 31.939 14.124 31.939 31.547s-14.299 31.547-31.939 31.547c-17.639 0-31.939-14.124-31.939-31.547s14.299-31.547 31.939-31.547zm-402.018-211.581c0-4.142 3.358-7.5 7.5-7.5s7.5 3.358 7.5 7.5v33.352c0 8.346 6.855 15.201 15.201 15.201h13.78l-3.583-3.451c-2.977-2.864-3.069-7.599-.205-10.576s7.599-3.069 10.576-.205l16.968 16.341c2.977 2.864 3.069 7.599.205 10.576l-16.342 16.968c-2.864 2.977-7.599 3.069-10.576.205s-3.069-7.599-.205-10.576l4.124-4.282h-14.742c-16.626 0-30.201-13.576-30.201-30.201zm363.505 107.835c2.864-2.977 7.599-3.069 10.576-.205s3.069 7.599.205 10.576l-4.124 4.282h14.742c16.626 0 30.201 13.576 30.201 30.201v33.352c0 4.142-3.358 7.5-7.5 7.5s-7.5-3.358-7.5-7.5v-33.352c0-8.346-6.855-15.201-15.201-15.201h-13.78l3.583 3.451c2.977 2.864 3.069 7.599.205 10.576s-7.599 3.069-10.576.205l-16.968-16.341c-2.977-2.864-3.069-7.599-.205-10.576zm10.781-40c2.864 2.977 2.772 7.713-.205 10.576-2.977 2.864-7.712 2.772-10.576-.205l-16.342-16.968c-2.864-2.977-2.772-7.712.205-10.576l16.968-16.341c2.977-2.864 7.712-2.772 10.576.205s2.772 7.713-.205 10.576l-3.583 3.451h13.78c8.345 0 15.201-6.856 15.201-15.201v-33.352c0-4.142 3.358-7.5 7.5-7.5s7.5 3.358 7.5 7.5v33.352c0 16.626-13.575 30.201-30.201 30.201h-14.742zm-333.466 50.372c-2.864-2.977-2.772-7.712.205-10.576s7.712-2.772 10.576.205l16.342 16.968c2.864 2.977 2.772 7.713-.205 10.576l-16.968 16.341c-2.977 2.864-7.713 2.772-10.576-.205-2.864-2.977-2.772-7.712.205-10.576l3.583-3.451h-13.78c-8.345 0-15.201 6.856-15.201 15.201v33.352c0 4.142-3.358 7.5-7.5 7.5s-7.5-3.358-7.5-7.5v-33.352c0-16.626 13.575-30.201 30.201-30.201h14.742zm-78.134 222.314h100.805c1.448 0 2.633-1.185 2.633-2.633v-22.783c0-15.93-8.367-30.001-20.924-38.036-8.42 7.828-19.735 12.605-32.111 12.605s-23.691-4.777-32.111-12.605c-12.557 8.035-20.925 22.106-20.925 38.036v22.783c0 1.448 1.185 2.633 2.633 2.633zm0-366.06h100.805c1.448 0 2.633-1.185 2.633-2.633v-22.783c0-15.93-8.367-30.001-20.924-38.036-8.42 7.828-19.735 12.605-32.111 12.605s-23.691-4.777-32.111-12.605c-12.557 8.035-20.925 22.106-20.925 38.036v22.783c0 1.448 1.185 2.633 2.633 2.633zm388.93 0h100.805c1.448 0 2.633-1.185 2.633-2.633v-22.783c0-15.93-8.367-30.001-20.924-38.036-8.42 7.828-19.735 12.605-32.111 12.605s-23.691-4.777-32.111-12.605c-12.556 8.035-20.924 22.105-20.924 38.036v22.783c-.001 1.448 1.183 2.633 2.632 2.633zm0 366.06h100.805c1.448 0 2.633-1.185 2.633-2.633v-22.783c0-15.93-8.367-30.001-20.924-38.036-8.42 7.828-19.735 12.605-32.111 12.605s-23.691-4.777-32.111-12.605c-12.556 8.034-20.924 22.105-20.924 38.036v22.783c-.001 1.448 1.183 2.633 2.632 2.633zm-151.563-133.046c0-4.142 3.358-7.5 7.5-7.5s7.5 3.358 7.5 7.5v35.447c0 4.142-3.358 7.5-7.5 7.5s-7.5-3.358-7.5-7.5zm15-228.908c0 4.142-3.358 7.5-7.5 7.5s-7.5-3.358-7.5-7.5v-35.447c0-4.142 3.358-7.5 7.5-7.5s7.5 3.358 7.5 7.5zm68.464 15.69c-2.071 3.576-6.649 4.796-10.225 2.725s-4.796-6.649-2.725-10.225l14.383-24.912c2.071-3.576 6.649-4.796 10.225-2.725s4.796 6.649 2.725 10.225zm-138.98-7.5c2.071 3.576.851 8.154-2.725 10.225s-8.154.851-10.225-2.725l-14.383-24.912c-2.071-3.576-.851-8.154 2.725-10.225s8.154-.851 10.225 2.725zm126.031 212.529c-2.071-3.576-.851-8.154 2.725-10.224 3.576-2.071 8.154-.851 10.225 2.725l14.383 24.912c2.071 3.576.851 8.154-2.725 10.225s-8.154.851-10.225-2.725zm-138.98-7.5c2.071-3.576 6.649-4.796 10.225-2.725s4.796 6.649 2.725 10.224l-14.383 24.912c-2.071 3.576-6.649 4.796-10.225 2.725s-4.796-6.649-2.725-10.225zm75.965-182.396c-46.189 0-83.632 37.443-83.632 83.632 0 46.188 37.443 83.632 83.632 83.632s83.632-37.443 83.632-83.632-37.443-83.632-83.632-83.632zm0 32.715c28.118 0 50.916 22.798 50.916 50.916s-22.797 50.916-50.916 50.916-50.916-22.798-50.916-50.916c0-9.494 2.599-18.381 7.125-25.989-1.032-2.238-1.608-4.73-1.608-7.356 0-9.717 7.877-17.594 17.594-17.594 3.758 0 7.241 1.179 10.1 3.187 5.514-2.045 11.479-3.164 17.705-3.164zm0 15.001c19.837 0 35.915 16.078 35.915 35.916 0 19.837-16.078 35.916-35.915 35.916s-35.916-16.078-35.916-35.916c0-5.854 1.401-11.381 3.884-16.263 1.354.334 2.769.512 4.226.512 9.717 0 17.594-7.877 17.594-17.594 0-.366-.012-.728-.035-1.088 3.248-.965 6.687-1.483 10.247-1.483zm76.301-26.584c24.188 13.73 45.044 34.553 59.095 62.5-14.051 27.947-34.907 48.77-59.095 62.5 13.953-17.015 22.33-38.778 22.33-62.5s-8.377-45.486-22.33-62.5z" fill-rule="evenodd"/></svg>