<svg id="Layer_1" height="512" viewBox="0 0 64 64" width="512" xmlns="http://www.w3.org/2000/svg" data-name="Layer 1"><path d="m62.14 2-7-1a1 1 0 0 0 -.8.23 1 1 0 0 0 -.34.77v17h2v-9h6a1 1 0 0 0 1-1v-6a1 1 0 0 0 -.86-1zm-1.14 6h-5v-4.85l5 .72z"/><path d="m55 21c-1.63 0-3-.92-3-2a1.65 1.65 0 0 1 .66-1.23l-1.28-1.54a3.62 3.62 0 0 0 -1.38 2.77c0 2.21 2.24 4 5 4s5-1.79 5-4a3.63 3.63 0 0 0 -1.35-2.75l-1.3 1.53a1.62 1.62 0 0 1 .65 1.22c0 1.08-1.37 2-3 2z"/><path d="m39.94 30.19a1.58 1.58 0 0 0 -.18-1.27l-1.13-1.87a1.72 1.72 0 0 0 -2.3-.61l-.26.15a7.19 7.19 0 0 0 -1.24-.7v-.22a1.69 1.69 0 0 0 -1.7-1.67h-2.26a1.69 1.69 0 0 0 -1.7 1.67v.22a6.83 6.83 0 0 0 -1.24.7l-.26-.15a1.72 1.72 0 0 0 -2.3.61l-1.13 1.87a1.58 1.58 0 0 0 -.18 1.27 1.66 1.66 0 0 0 .81 1l.21.12v.65s0 .44 0 .65l-.21.12a1.66 1.66 0 0 0 -.81 1 1.58 1.58 0 0 0 .18 1.27l1.13 2a1.72 1.72 0 0 0 2.3.61l.26-.15a7.19 7.19 0 0 0 1.24.7v.22a1.69 1.69 0 0 0 1.7 1.62h2.26a1.69 1.69 0 0 0 1.7-1.67v-.22a6.83 6.83 0 0 0 1.24-.7l.26.15a1.72 1.72 0 0 0 2.3-.61l1.13-1.87a1.58 1.58 0 0 0 .18-1.27 1.66 1.66 0 0 0 -.81-1l-.21-.12c0-.21 0-.43 0-.65s0-.44 0-.65l.21-.12a1.66 1.66 0 0 0 .81-1.08zm-2.94 1.81v.63a1.65 1.65 0 0 0 .85 1.67l.1.06-.79 1.32-.18-.1a1.76 1.76 0 0 0 -1.88.13 4.84 4.84 0 0 1 -1.09.61 1.69 1.69 0 0 0 -1.09 1.56v.12h-1.75v-.12a1.69 1.69 0 0 0 -1.09-1.56 5.14 5.14 0 0 1 -1.1-.61 1.74 1.74 0 0 0 -1.87-.13l-.18.1-.79-1.32.1-.06a1.67 1.67 0 0 0 .86-1.67 4.46 4.46 0 0 1 -.05-.63c0-.21 0-.42 0-.63a1.65 1.65 0 0 0 -.85-1.67l-.1-.06.79-1.32.18.1a1.76 1.76 0 0 0 1.93-.13 4.84 4.84 0 0 1 1.09-.61 1.69 1.69 0 0 0 1.09-1.56v-.12h1.66v.12a1.69 1.69 0 0 0 1.09 1.56 5.14 5.14 0 0 1 1.1.61 1.74 1.74 0 0 0 1.87.13l.18-.1.79 1.32-.1.06a1.67 1.67 0 0 0 -.86 1.67 4.46 4.46 0 0 1 .09.63z"/><path d="m32 28.75a3.25 3.25 0 1 0 3.25 3.25 3.26 3.26 0 0 0 -3.25-3.25zm0 4.5a1.25 1.25 0 1 1 1.25-1.25 1.25 1.25 0 0 1 -1.25 1.25z"/><path d="m1.55 51.89 1.51.76.94 9.45a1 1 0 0 0 1 .9h4a1 1 0 0 0 1-.9l.94-9.45 1.51-.76a1 1 0 0 0 .55-.89v-6.14a3.85 3.85 0 0 0 -3.43-3.86 4 4 0 1 0 -6.57-3 4 4 0 0 0 1.43 3 3.85 3.85 0 0 0 -3.43 3.86v6.14a1 1 0 0 0 .55.89zm5.45-15.89a2 2 0 1 1 -2 2 2 2 0 0 1 2-2zm-4 8.86a1.86 1.86 0 0 1 1.86-1.86h4.28a1.86 1.86 0 0 1 1.86 1.86v5.52l-1.45.73a1 1 0 0 0 -.55.79l-.91 9.1h-2.18l-.91-9.1a1 1 0 0 0 -.55-.79l-1.45-.73z"/><path d="m21 33v-2h-2.5a7.5 7.5 0 0 1 0-15h21.89l-1.9 1.14 1 1.72 5-3a1 1 0 0 0 0-1.72l-5-3-1 1.72 1.9 1.14h-21.89a9.5 9.5 0 0 0 0 19z"/><path d="m45.5 31h-2.5v2h2.5a7.5 7.5 0 0 1 0 15h-23.5v2h23.5a9.5 9.5 0 0 0 0-19z"/><path d="m18 48h2v2h-2z"/></svg>