<svg id="Layer_1" height="512" viewBox="0 0 66 66" width="512" xmlns="http://www.w3.org/2000/svg"><g><path d="m11.9 16.8h6.9v5.6c0 .4.2.7.6.9.3.2.8.1 1-.2l6.9-6.3h11.3l6.9 6.3c.2.2.4.3.6.3.1 0 .3 0 .4-.1.3-.2.6-.5.6-.9v-5.6h6.9c1.6 0 2.9-1.3 2.9-2.9v-10c.1-1.6-1.2-2.9-2.8-2.9h-42.2c-1.6 0-2.9 1.3-2.9 2.9v10c0 1.6 1.3 2.9 2.9 2.9zm2.9-11h36.4c.5 0 1 .4 1 1s-.4 1-1 1h-36.4c-.5 0-1-.4-1-1s.5-1 1-1zm0 4.2h15.1c.5 0 1 .4 1 1 0 .5-.4 1-1 1h-15.1c-.5 0-1-.4-1-1 0-.5.5-1 1-1z"/><path d="m62.3 52.1c2.1-5.9 2.1-9.9 2-13.1 0-.4 0-.9 0-1.3 0-7.4-6-13.4-13.4-13.4s-13.4 6-13.4 13.4v1.3c0 3.2-.1 7.3 2 13.1-1.6 1.2-2.6 3-2.6 5.1v6.8c0 .5.4 1 1 1h26.1c.5 0 1-.4 1-1v-6.7c0-2.1-1-4-2.7-5.2zm-9.3-.6-2 2-2-2v-1.1c.6.2 1.3.4 2 .4s1.4-.1 2-.4zm-2.1-2.6c-4.2 0-7.8-6.8-7.8-11.1.5.1 1.1.2 1.7.2 4.3 0 9.2-3.7 10.7-6.5 2 1.5 3.2 3.8 3.2 6.3 0 4.2-3.6 11.1-7.8 11.1z"/><path d="m25 49.7h-4.3v-1.9c3.8-2.7 6.4-8.6 6.4-12.9 0-2.9-1.2-5.6-3.1-7.5s-4.6-3.1-7.5-3.1c-5.9 0-10.6 4.7-10.7 10.6v.1c0 4.2 2.5 10.1 6.4 12.9v1.9h-4.3c-3.8 0-6.9 3.1-6.9 6.9v7.3c0 .5.4 1 1 1h29c.5 0 1-.4 1-1v-7.5c-.1-3.7-3.2-6.8-7-6.8zm-17.2-14.3 3-2.6 2.3 2.6c.3.3.6.4 1 .3s.6-.4.7-.8l.5-4.1c5.6 3.8 8.4 5 9.9 5.3-.5 4.8-4.3 11.3-8.6 11.3-4.7 0-8.6-7.2-8.8-12zm11 14.8-2.3 2.4-2.4-2.4v-1.4c.8.3 1.5.5 2.4.5.8 0 1.6-.2 2.3-.5z"/><path d="m39.5 27.1c.5 0 1-.5 1-1v-3.6c0-.5-.4-1-1-1s-1 .4-1 1v1c-3.3-3-7.6-3.1-11 0v-1c0-.5-.4-1-1-1-.5 0-1 .4-1 1v3.6c0 .5.5 1 1 1h3.5c.5 0 1-.4 1-1 0-.5-.4-1-1-1h-1.5c2.6-2.5 6.1-2.6 8.8 0h-1.5c-.5 0-1 .4-1 1 0 .5.4 1 1 1z"/></g></svg>