<svg height="512" viewBox="0 0 64 64" width="512" xmlns="http://www.w3.org/2000/svg"><g id="_31_Law_Balance_Equal_Suitcase_Work" data-name="31 Law, Balance, Equal, Suitcase, Work"><path d="m54 14h-8v-4a6 6 0 0 0 -6-6h-16a6 6 0 0 0 -6 6v4h-8a6 6 0 0 0 -6 6v10a6 6 0 0 0 2 4.46v13.54a6 6 0 0 0 6 6h6v-10h-8v-8h12v-6h11.08a7.94 7.94 0 0 1 2.92-2.92v-3.08h8v3.08a7.94 7.94 0 0 1 2.92 2.92h13.08v-10a6 6 0 0 0 -6-6zm-32-4a2 2 0 0 1 2-2h16a2 2 0 0 1 2 2v4h-20zm38 34v3a7 7 0 0 1 -14 0v-3a2 2 0 0 1 2-2h3v-6h-5.35a6 6 0 0 1 -3.65 3.65v16.35h4v4h-12v-4h4v-16.35a6 6 0 0 1 -3.65-3.65h-5.35v6h3a2 2 0 0 1 2 2v3a7 7 0 0 1 -14 0v-3a2 2 0 0 1 2-2h3v-6h-1v-4h10.35a6 6 0 0 1 3.65-3.65v-2.35h4v2.35a6 6 0 0 1 3.65 3.65h10.35v4h-1v6h3a2 2 0 0 1 2 2z"/></g></svg>