<svg clip-rule="evenodd" fill-rule="evenodd" height="1.707in" image-rendering="optimizeQuality" shape-rendering="geometricPrecision" text-rendering="geometricPrecision" viewBox="0 0 1707 1707" width="1.707in" xmlns="http://www.w3.org/2000/svg"><g id="Layer_x0020_1"><path d="m260 1336c-11 0-20-9-20-20v-925c0-11 9-20 20-20s20 9 20 20v925c0 11-9 20-20 20zm-185 0c-11 0-20-9-20-20v-925c0-11 9-20 20-20s20 9 20 20v925c0 11-9 20-20 20z"/><path d="m303 411h-271c-18 0-32-14-32-32v-61c0-18 14-33 32-33h271c18 0 32 15 32 33v61c0 18-14 32-32 32z"/><path d="m238 325c-11 0-20-8-20-20v-86c0-13-10-23-23-23h-55c-13 0-23 11-23 23v86c0 12-9 20-20 20s-20-8-20-20v-86c0-35 28-63 63-63h55c35 0 63 28 63 63v86c0 11-9 20-20 20z"/><path d="m303 1421h-271c-18 0-32-14-32-32v-61c0-18 14-32 32-32h271c18 0 32 14 32 32v61c0 18-14 32-32 32z"/><path d="m195 1550h-55c-35 0-63-28-63-62v-87c0-11 9-20 20-20s20 9 20 20v87c0 12 10 22 23 22h55c13 0 23-10 23-22v-87c0-11 9-20 20-20s20 9 20 20v87c0 34-28 62-63 62z"/><path d="m260 638v78c11 0 20 9 20 20s-9 20-20 20h-185c-11 0-20-9-20-20 0-9 5-16 13-19-8-29-13-90-13-99 0-11 9-20 20-20h185c11 0 20 9 20 20 0 12-9 20-20 20z"/><path d="m260 991h-185c-11 0-20-9-20-20 0-8 5-15 11-18-7-30-11-91-11-100 0-11 9-20 20-20h185c11 0 20 9 20 20s-9 20-20 20v78c11 0 20 9 20 20s-9 20-20 20zm0 117h-185c-11 0-20-9-20-20s9-20 20-20h185c11 0 20 9 20 20s-9 20-20 20z"/><path d="m1632 1336c-11 0-20-9-20-20v-925c0-11 9-20 20-20 10 0 20 9 20 20v925c0 11-9 20-20 20zm-185 0c-11 0-20-9-20-20v-925c0-11 9-20 20-20s20 9 20 20v925c0 11-9 20-20 20z"/><path d="m1674 411h-270c-18 0-32-14-32-32v-61c0-18 14-33 32-33h270c18 0 33 15 33 33v61c0 18-15 32-33 32z"/><path d="m1610 325c-11 0-20-8-20-20v-86c0-13-10-23-23-23h-56c-12 0-22 11-22 23v86c0 12-9 20-20 20s-20-8-20-20v-86c0-35 28-63 62-63h56c35 0 63 28 63 63v86c0 11-9 20-20 20z"/><path d="m1674 1421h-270c-18 0-32-14-32-32v-61c0-18 14-32 32-32h270c18 0 33 14 33 32v61c0 18-15 32-33 32z"/><path d="m1567 1550h-56c-34 0-63-28-63-62v-87c0-11 9-20 20-20s20 9 20 20v87c0 12 11 22 23 22h56c13 0 23-10 23-22v-87c0-11 9-20 20-20s20 9 20 20v87c0 34-28 62-63 62z"/><path d="m1632 756h-185c-11 0-20-9-20-20 0-9 5-16 13-19-7-33-13-91-13-99 0-11 9-20 20-20h185c10 0 20 9 20 20 0 12-9 20-20 20v78c10 0 20 9 20 20s-9 20-20 20z"/><path d="m1632 991h-185c-11 0-20-9-20-20 0-8 4-14 10-18-7-30-10-91-10-100 0-11 9-20 20-20h185c10 0 20 9 20 20s-9 20-20 20v78c10 0 20 9 20 20s-9 20-20 20z"/><path d="m1632 1108h-185c-11 0-20-9-20-20s9-20 20-20h185c10 0 20 9 20 20s-9 20-20 20z"/><path d="m1447 1204h-1187c-11 0-20-9-20-20s9-20 20-20h1187c11 0 20 9 20 20s-9 20-20 20zm0-661h-1187c-11 0-20-9-20-20s9-20 20-20h1187c11 0 20 9 20 20s-9 20-20 20z"/><path d="m623 1067c-84 0-152-68-152-151 0-37 42-111 98-204 15-25 28-47 36-62 3-7 10-11 18-11 7 0 14 4 17 11 8 15 21 37 36 62 56 93 98 167 98 204 0 83-68 151-151 151zm0-367c-6 10-13 21-20 33-34 57-92 154-92 183 0 61 50 111 112 111 61 0 111-50 111-111 0-29-57-126-92-184-7-11-13-22-19-32z"/><path d="m662 1047-110-15c-11 0-73-106-73-116 0-11 1-20 12-20h263c12 0 17 9 17 20s-98 131-109 131z"/><path d="m1171 679h-636c-11 0-20-9-20-20s9-20 20-20h637c10 0 20 9 20 20s-10 20-21 20z"/><path d="m1084 1067c-84 0-152-68-152-151 0-37 43-111 98-204 15-25 28-47 36-62 4-7 11-11 18-11 7 0 14 4 18 11 7 15 20 37 36 62 55 93 97 167 97 204 1 83-68 151-151 151zm0-367c-6 10-13 21-20 33-34 57-92 154-92 183 0 61 50 111 112 111 61 0 112-50 112-111 0-29-58-126-93-184-7-11-13-22-19-32z"/><path d="m1148 1040-127 1c-11 0-89-114-89-125s9-20 20-20h264c11 0 15 9 15 20s-72 124-83 124z"/></g></svg>