<svg id="Layer_1" viewBox="0 0 64 64" xmlns="http://www.w3.org/2000/svg" data-name="Layer 1"><circle cx="17.378" cy="40.272" r="6.539"/><path d="m6.845 59.341v.659h21.062v-.659c0-2.807-1.094-5.451-3.082-7.448-1.985-1.984-4.629-3.078-7.444-3.078-5.809 0-10.535 4.722-10.535 10.526z"/><path d="m57.155 59.341c0-2.809-1.097-5.453-3.089-7.446-1.987-1.986-4.631-3.08-7.446-3.08-5.804 0-10.526 4.722-10.526 10.526v.659h21.062v-.659z"/><circle cx="46.622" cy="40.272" r="6.539"/><path d="m52.548 4h-41.096c-.551 0-1 .449-1 1v19.419c0 .551.449 1 1 1h5.926c.552 0 1 .448 1 1v1.535l2.901-2.316c.177-.141.397-.218.624-.218h20.193c.227 0 .447.077.624.218l2.901 2.316v-1.535c0-.552.448-1 1-1h5.926c.551 0 1-.449 1-1v-19.419c0-.551-.449-1-1-1zm-8.935 5.256c0 .454-.309.822-.724.944v8.436c.415.122.724.49.724.944v2.991c0 .552-.448 1-1 1h-9.987c-.552 0-1-.448-1-1v-2.991c0-.454.309-.823.724-.944v-1.771h-10.965c-.552 0-1-.448-1-1v-2.895c0-.552.448-1 1-1h10.965v-1.771c-.415-.122-.724-.49-.724-.944v-2.991c0-.552.448-1 1-1h9.987c.552 0 1 .448 1 1v2.991z"/><path d="m33.627 7.265h7.987v.991h-7.987z"/><path d="m33.627 20.581h7.987v.991h-7.987z"/><path d="m22.386 13.971h9.965v.895h-9.965z"/><path d="m34.351 10.256v2.715 2.895 2.715h6.539v-8.325z"/></svg>