<svg id="Layer_1" enable-background="new 0 0 512 512" viewBox="0 0 512 512" xmlns="http://www.w3.org/2000/svg"><path clip-rule="evenodd" d="m248.46 75.97v105.96h-18.99c-3.31 0-6 2.69-6 6 0 3.32 2.7 6 6 6h49.99c3.31 0 6-2.68 6-6 0-3.31-2.7-6-6-6h-18.99v-105.96c6.98-2.04 12.5-7.55 14.54-14.54h44.76l-25.4 30.93c-.94 1.15-1.39 2.58-1.35 4.01.41 21.35 18.05 38.7 39.41 38.7s39.04-17.35 39.41-38.7c.04-1.43-.41-2.86-1.35-4.01l-33.41-40.74c-1.14-1.38-2.86-2.19-4.66-2.19h-57.42c-2.04-6.99-7.55-12.5-14.54-14.54v-7.7c0-3.31-2.7-6-6-6-3.31 0-6 2.69-6 6v7.7c-6.98 2.04-12.5 7.55-14.54 14.54h-57.38c-1.8 0-3.51.81-4.66 2.19l-33.41 40.74c-.94 1.15-1.39 2.58-1.35 4.01.37 21.35 18.01 38.7 39.41 38.7 21.36 0 39-17.35 39.37-38.7.08-1.43-.41-2.86-1.35-4.01l-25.35-30.93h44.72c2.04 7 7.55 12.51 14.54 14.54zm-92.63 402.28c0-24.71 16.83-45.82 40.88-51.34l21.15-4.84v-10.08c-6.08-4.36-11.27-9.9-15.19-16.3-5.1-5.52-11.72-9.48-19.19-11.43l-33.24-8.67c-3.59 13.77-16.17 23.95-31.04 23.95s-27.4-10.18-31.04-23.95l-33.2 8.67c-17.64 4.59-29.49 19.92-29.49 38.13v68.8h32.67v-36.87c0-3.31 2.65-6 6-6 3.31 0 6 2.69 6 6v36.87h85.68v-12.94zm176.59 0v12.94h-164.58v-12.94c0-19.08 12.99-35.38 31.57-39.64l18.99-4.35c2.65 15.1 15.85 26.61 31.73 26.61 15.85 0 29.04-11.51 31.73-26.61l18.99 4.35c18.58 4.26 31.57 20.56 31.57 39.64zm79.35-102.66c-3.59 13.77-16.13 23.95-31 23.95-14.91 0-27.44-10.18-31.04-23.95l-33.24 8.67c-7.15 1.85-13.48 5.54-18.46 10.66-4 6.73-9.35 12.54-15.68 17.06v10.09l21.15 4.84c24.09 5.52 40.92 26.63 40.92 51.34v12.94h85.39v-36.87c0-3.31 2.7-6 6-6 3.31 0 6 2.69 6 6v36.87h32.67v-68.8c0-18.21-11.84-33.54-29.49-38.13zm28.95-59.14c8.37 17.23 23.52 30.78 42.51 36.93-1.59 12.15-10.86 21.94-23.07 24.06-3.76-2.05-7.8-3.67-12.13-4.79l-35.2-9.18v-15.13c12.5-7.17 22.42-18.4 27.89-31.89zm-51.53-70.09c5.15 12.74 17.81 21.3 31.45 21.3h2.74c3.47 0 6.86-.52 10.09-1.54v-13.51c0-29.07-23.65-52.72-52.68-52.72-29.08 0-52.72 23.65-52.72 52.72v13.51c3.23 1.02 6.62 1.54 10.09 1.54h2.74c13.64 0 26.3-8.56 31.45-21.3 1.39-3.46 4.7-5.7 8.45-5.7 3.69 0 7 2.24 8.39 5.7zm-40.52 101.97v15.14l-35.2 9.18c-2.94.76-5.76 1.76-8.45 2.98.45-2.9.73-5.88.73-8.91v-13.17c0-5.12-.73-10.07-2.04-14.78 7.23-6.36 12.99-13.95 17.07-22.33 5.47 13.49 15.36 24.73 27.89 31.89zm-20.62-56.17c0 29.07 23.65 52.72 52.72 52.72 29.04 0 52.68-23.65 52.68-52.72v-13.63c-3.27.75-6.66 1.13-10.09 1.13h-2.74c-16.7 0-31.77-8.94-39.86-23.23-8.13 14.29-23.2 23.23-39.9 23.23h-2.74c-3.43 0-6.82-.38-10.09-1.13v13.63zm32.63 75.3v-13.78c6.33 2.07 13.07 3.2 20.09 3.2 6.98 0 13.72-1.13 20.05-3.2v13.78c0 11.07-8.98 20.08-20.05 20.08-11.11 0-20.09-9.01-20.09-20.08zm-130.81 51.04v10.13c0 11.16 9.07 20.24 20.26 20.24 11.15 0 20.22-9.08 20.22-20.24v-10.13c-6.25 2.46-13.07 3.83-20.22 3.83s-13.97-1.37-20.26-3.83zm-110.67-30.96c-11.07 0-20.09-9.01-20.09-20.08v-7.86c6.37 1.91 13.11 2.95 20.09 2.95s13.72-1.04 20.09-2.95v7.86c.01 11.07-9.02 20.08-20.09 20.08zm130.93-34.91c20.95 0 36.51 6.08 43.62 12.54v1.55c0 24.04-19.6 43.61-43.62 43.61-24.05 0-43.62-19.57-43.62-43.61v-1.55c7.07-6.46 22.67-12.54 43.62-12.54zm0-42.7c-23.03 0-41.9 17.91-43.49 40.52 11.03-6.21 26.54-9.82 43.49-9.82s32.43 3.61 43.49 9.82c-1.59-22.61-20.5-40.52-43.49-40.52zm-84.25-26.93c-23.69 0-46.43-6.33-64.73-17.9-10.01 10.33-24.34 16.69-39.78 17.59v10.03c0 31.89 25.93 57.83 57.83 57.83 31.89 0 57.83-25.94 57.83-57.83v-10.21c-3.72.31-7.43.49-11.15.49zm11.15-25.27v12.73c-3.68.35-7.43.54-11.15.54-23.2 0-45.33-6.65-62.28-18.72-2.61-1.86-6.25-1.33-8.21 1.21-7.76 9.94-20.3 16.19-34.02 17.17v-12.93c0-31.9 25.93-57.84 57.83-57.84s57.83 25.94 57.83 57.84zm-.49-192.84 20.71 25.27h-41.45zm26.59 37.27c-2.94 11.97-13.8 20.91-26.59 20.91-12.82 0-23.69-8.94-26.63-20.91zm60.76-46.72c0 5.19-4.25 9.41-9.43 9.41-5.19 0-9.39-4.22-9.39-9.41s4.21-9.42 9.39-9.42c5.19-.01 9.43 4.22 9.43 9.42zm47.78 34.72 20.75-25.27 20.75 25.27zm20.75 32.91c-12.78 0-23.69-8.94-26.63-20.91h53.25c-2.93 11.97-13.8 20.91-26.62 20.91z" fill-rule="evenodd"/></svg>