<svg id="Layer_1" enable-background="new 0 0 512 512" viewBox="0 0 512 512" xmlns="http://www.w3.org/2000/svg"><path d="m331.72 121.7c15.82-8.22 30.08-19.02 42.21-31.89-1.05-1.08-2.1-2.18-3.15-3.23-21.43-21.43-48.95-36.74-79.77-43.12 10.09 8.79 19.13 21.57 26.59 37.47 5.64 11.97 10.41 25.69 14.12 40.77zm-188.19-31.89c12.16 12.87 26.39 23.67 42.21 31.89 3.71-15.08 8.5-28.8 14.12-40.76 7.46-15.9 16.5-28.69 26.59-37.47-30.78 6.38-58.34 21.69-79.77 43.12-1.06 1.07-2.1 2.15-3.15 3.22zm110.21 49.58v-98.81c-17.21 2.69-32.94 19.22-44.87 44.59-5.61 11.91-10.32 25.74-13.95 40.96 18.06 7.96 37.93 12.64 58.82 13.26zm9.98-98.81v98.82c20.89-.62 40.76-5.3 58.82-13.27-3.63-15.22-8.33-29.06-13.95-40.96-11.94-25.38-27.67-41.9-44.87-44.59zm76.87 153.04h76.51c-1.13-36.57-14.65-70.02-36.51-96.29-13.35 13.97-29.11 25.65-46.6 34.41 3.97 19.05 6.29 39.94 6.6 61.88zm-76.87 0h66.87c-.28-20.38-2.35-39.8-5.9-57.57-18.82 8.02-39.4 12.73-60.97 13.35zm-76.85 0h66.87v-44.22c-21.57-.62-42.15-5.33-60.97-13.35-3.55 17.77-5.59 37.19-5.9 57.57zm-86.51 0h76.51c.31-21.94 2.64-42.83 6.6-61.88-17.49-8.76-33.25-20.44-46.6-34.41-21.86 26.27-35.38 59.72-36.51 96.29zm7.17 215.46h-22.62v59.24c0 3.12 1.28 5.92 3.32 7.99 2.07 2.04 4.88 3.32 7.99 3.32s5.92-1.28 7.99-3.32c2.04-2.07 3.32-4.88 3.32-7.99zm32.62 0h-22.62v59.24c0 3.12 1.28 5.92 3.32 7.99 2.07 2.04 4.88 3.32 7.99 3.32 3.12 0 5.92-1.28 7.99-3.32 2.04-2.07 3.32-4.88 3.32-7.99zm-8.56-117.38c-5.75 4.37-12.56 6.86-19.84 6.86-7.31 0-14.09-2.49-19.84-6.86h-17.46c-3.26 0-6.26 1.22-8.65 3.34-2.49 2.21-4.34 5.41-5.1 9.24l-10.69 53.4c-.62 3-.06 5.98 1.3 8.36 1.19 2.13 3.03 3.74 5.22 4.45 2.72-.03 6.55-.06 8.84-.68l10.97-45.58c.65-2.67 3.32-4.34 6.01-3.69 2.66.62 4.34 3.32 3.69 5.98l-11.28 46.77c0 .31-.03.65-.11.96l-5.39 24.8h10.63 32.63 32.66 10.6l-5.24-23.53c-.2-.37-.34-.77-.45-1.16l-11.54-47.96c-.65-2.66.99-5.36 3.69-5.98 2.66-.65 5.36.99 5.98 3.69l11.25 46.6c1.76.77 3.97.91 6.18.45 1.56-.31 3.06-.88 4.39-1.67 1.28-.79 2.44-1.81 3.37-3.06 1.59-2.21 2.38-5.16 1.64-8.76l-10.8-53.94c-.74-3.66-2.49-6.72-4.88-8.84-2.27-2.04-5.16-3.2-8.28-3.2h-19.5zm-57.03-46.35c-.17-.6-.23-1.25-.14-1.9.4-3.43 1.16-6.75 2.27-9.89-.79 1.13-1.53 2.35-2.21 3.63l-.6 1.62c-4.9 12.95-10.06 26.67-19.98 33.25 1.62.23 3.23.25 4.88.08 5.22-.54 10.74-2.98 16.67-7.29-.88-3.88-1.36-7.99-1.36-12.22 0-1.56.09-3.12.2-4.68.07-.84.16-1.72.27-2.6zm64.63 11.76c-1.5.2-3.03.31-4.56.31-6.04 0-11.74-1.62-16.84-4.45-3.71-2.1-7.06-4.85-9.95-8.14-2.1 1.39-4.34 2.55-6.66 3.46-3.88 1.5-8.05 2.32-12.33 2.32-1.56 0-3.12-.11-4.71-.34-.03.77-.06 1.56-.06 2.35 0 10.15 3.23 19.28 8.48 25.82 1.25 1.59 2.64 3 4.08 4.25.14.08.26.2.37.28 4.28 3.51 9.33 5.56 14.74 5.56 5.39 0 10.46-2.04 14.74-5.56.11-.09.23-.2.37-.28 1.45-1.25 2.83-2.66 4.08-4.25 4.45-5.56 7.46-12.99 8.25-21.33zm-38.64-48.5c3.54-1.25 7.29-1.9 11.2-1.9 10.52 0 20.01 4.82 26.84 12.61 6.69 7.63 10.83 18.11 10.83 29.62 0 .28-.03.09-.06.99v.68.2c0 .2 0 .45.03.77 0 1.02.03.71.03 1.05 0 11.03-3.2 21.15-8.5 29.06h10.18c1.67 0 3.32.2 4.88.54 7.17-5.53 14.8-10.49 22.82-14.83 1.5-.82 3.03-1.62 4.56-2.38-.28-1.42-.57-2.86-.85-4.31-3.37-17.77-5.36-36.99-5.64-57.09h-76.54c.06 1.22.08 2.41.14 3.54.03.49.06.97.08 1.45zm11.2 8.11c-6.86 0-13.15 2.92-17.97 7.74-4.14 4.11-7.2 9.61-8.7 15.87 1.22.17 2.47.28 3.77.28 3.09 0 6.01-.57 8.73-1.62 2.86-1.13 5.53-2.78 7.91-4.85 2.07-1.81 5.22-1.62 7.03.45.14.17.26.34.37.51h.03c2.61 3.85 5.95 7 9.78 9.13 3.6 2.04 7.65 3.17 11.93 3.17 1.42 0 2.81-.11 4.11-.34.2-.06.42-.08.62-.11-.43-8.25-3.52-15.65-8.28-21.06-4.96-5.68-11.82-9.17-19.33-9.17zm288.17 192.36h-22.62v59.24c0 3.12 1.28 5.92 3.32 7.99 2.07 2.04 4.9 3.32 7.99 3.32 3.12 0 5.92-1.28 7.99-3.32 2.04-2.07 3.32-4.88 3.32-7.99zm32.63 0h-22.62v59.24c0 3.12 1.28 5.92 3.32 7.99 2.07 2.04 4.9 3.32 7.99 3.32 3.12 0 5.95-1.28 7.99-3.32 2.04-2.07 3.32-4.88 3.32-7.99zm-7-117.38c-5.75 4.37-12.53 6.86-19.84 6.86-7.29 0-14.09-2.49-19.84-6.86h-19.5c-3.12 0-6.01 1.16-8.28 3.2-2.38 2.13-4.14 5.19-4.88 8.84l-10.8 53.94c-.74 3.6.06 6.55 1.64 8.76.94 1.25 2.1 2.27 3.37 3.06 1.33.79 2.83 1.36 4.39 1.67 2.24.45 4.42.31 6.21-.45l11.23-46.6c.62-2.69 3.32-4.34 5.98-3.69 2.69.62 4.34 3.32 3.71 5.98l-11.57 47.96c-.11.4-.25.79-.42 1.16l-5.27 23.53h10.63 32.63 32.63 10.63l-5.39-24.8c-.08-.31-.11-.65-.11-.96l-11.28-46.77c-.62-2.66 1.02-5.36 3.69-5.98 2.69-.65 5.36 1.02 6.01 3.69l10.97 45.58c2.32.62 6.12.65 8.84.68 2.18-.71 4.03-2.32 5.22-4.45 1.36-2.38 1.93-5.36 1.33-8.36l-10.72-53.4c-.77-3.83-2.61-7.03-5.07-9.24-2.41-2.13-5.41-3.34-8.67-3.34h-17.47zm-1.85-67.24c-4.85-4.82-11.14-7.74-18-7.74-7.51 0-14.37 3.49-19.33 9.18-4.76 5.41-7.85 12.81-8.28 21.06.23.03.43.06.62.11 1.3.23 2.69.34 4.11.34 4.28 0 8.33-1.13 11.93-3.17 3.83-2.13 7.17-5.27 9.78-9.13h.03c.11-.17.23-.34.37-.51 1.81-2.07 4.96-2.27 7.03-.45 2.38 2.07 5.05 3.71 7.91 4.85 2.72 1.05 5.64 1.62 8.73 1.62 1.3 0 2.58-.11 3.77-.28-1.5-6.27-4.56-11.77-8.67-15.88zm9.56 25.82c-1.56.23-3.09.34-4.65.34-4.28 0-8.42-.82-12.33-2.32-2.32-.91-4.56-2.07-6.66-3.46-2.89 3.29-6.24 6.04-9.95 8.14-5.07 2.83-10.8 4.45-16.84 4.45-1.53 0-3.06-.11-4.56-.31.79 8.33 3.8 15.76 8.25 21.34 1.25 1.59 2.64 3 4.08 4.25.14.08.26.2.37.28 4.28 3.51 9.35 5.56 14.74 5.56 5.41 0 10.46-2.04 14.74-5.56.11-.09.23-.2.37-.28 1.47-1.25 2.83-2.66 4.08-4.25 5.24-6.55 8.48-15.68 8.48-25.82-.01-.77-.04-1.56-.12-2.36zm7.54-16.72c1.08 3.15 1.84 6.46 2.24 9.89.11.82 0 1.62-.28 2.35.11.74.23 1.45.31 2.15.2 1.59.31 3.17.31 4.68 0 4.22-.48 8.33-1.36 12.22 5.92 4.31 11.48 6.75 16.67 7.29 1.64.17 3.26.14 4.88-.08-9.92-6.58-15.08-20.3-19.96-33.25l-.62-1.62c-.69-1.28-1.43-2.5-2.19-3.63zm-35.1-26.85c3.91 0 7.65.65 11.2 1.9.03-.48.06-.96.08-1.45.06-1.13.11-2.32.14-3.54h-76.54c-.26 17.69-1.81 34.72-4.48 50.65-.62 3.63-1.28 7.23-2.01 10.74 9.69 4.88 18.88 10.63 27.38 17.21 1.59-.34 3.2-.54 4.88-.54h10.18c-5.3-7.91-8.48-18.03-8.48-29.06 0-.34 0-.03.03-1.05 0-.31 0-.57 0-.77 0-.08 0-.14 0-.2v-.68c-.03-.91-.03-.71-.03-.99 0-11.51 4.11-22 10.8-29.62 6.87-7.78 16.34-12.6 26.85-12.6zm-213.5 135.78 5.98-29.79c-4.96-11.23-9.21-23.87-12.56-37.62-.71.37-1.39.74-2.1 1.11-6.15 3.32-12.05 7.03-17.66 11.11l.14.14c3.97 3.54 6.86 8.5 8.05 14.34l7 35.01c2.38 1.36 4.79 2.64 7.26 3.83 1.28.66 2.58 1.28 3.89 1.87zm64.68 66.59h-22.62v59.24c0 3.12 1.28 5.92 3.32 7.99 2.04 2.04 4.88 3.32 7.99 3.32 3.09 0 5.92-1.28 7.99-3.32 2.04-2.07 3.32-4.88 3.32-7.99zm32.63 0h-22.62v59.24c0 3.12 1.28 5.92 3.32 7.99 2.07 2.04 4.88 3.32 7.99 3.32 3.09 0 5.92-1.28 7.99-3.32 2.04-2.07 3.32-4.88 3.32-7.99zm43.54-59.24.34 1.84.45-2.24c-.25.14-.53.28-.79.4zm-9.55-47.54 7.51 37.39c.28-.14.57-.31.88-.45 1.56-.82 3.06-1.62 4.51-2.44l7-35.01c1.19-5.84 4.08-10.8 8.05-14.34l.14-.14c-6.26-4.54-12.84-8.65-19.76-12.22-2.35 9.63-5.16 18.73-8.33 27.21zm-91.59-20.61c-1.45-2.15-2.72-4.51-3.86-6.97-6.43 4.25-12.76 6.69-18.91 7.34-4 .4-7.88.06-11.65-1.02 1.45 5.19 3.06 10.23 4.79 15.02 1.53-3.32 3.66-6.18 6.21-8.48 4.2-3.74 9.52-5.9 15.31-5.9h8.11zm49.04 10.01c-5.75 4.37-12.56 6.86-19.84 6.86-7.31 0-14.09-2.49-19.84-6.86h-17.47c-3.26 0-6.26 1.22-8.67 3.34-2.47 2.24-4.31 5.41-5.07 9.24l-10.71 53.4c-.6 3-.03 5.98 1.33 8.36 1.19 2.13 3.03 3.74 5.22 4.45 2.72-.03 6.52-.06 8.84-.68l10.97-45.58c.65-2.67 3.32-4.34 6.01-3.69 2.66.62 4.31 3.32 3.69 5.98l-11.28 46.77c0 .31-.03.65-.11.96l-5.39 24.8h10.63 32.63 32.63 10.63l-5.27-23.53c-.17-.37-.31-.77-.43-1.16l-11.57-47.96c-.62-2.66 1.02-5.36 3.71-5.98 2.66-.65 5.36.99 5.98 3.69l11.23 46.6c1.79.77 3.97.91 6.21.45 1.56-.31 3.06-.88 4.39-1.67 1.28-.79 2.44-1.81 3.37-3.06 1.59-2.21 2.38-5.16 1.64-8.76l-10.8-53.94c-.74-3.66-2.49-6.72-4.88-8.84-2.27-2.04-5.16-3.2-8.28-3.2h-19.5zm17.01-29.57c-1.28 7.31-3.94 14-7.68 19.56h10.18c5.64 0 10.83 2.13 14.91 5.75.74.62 1.42 1.33 2.07 2.07 1.93-6.01 3.66-12.3 5.22-18.85-7.92-3.48-16.17-6.35-24.7-8.53zm-74.04-16.78c-.17-.6-.23-1.25-.14-1.9.4-3.43 1.16-6.75 2.24-9.89-.77 1.13-1.5 2.35-2.18 3.63l-.62 1.62c-4.88 12.95-10.03 26.67-19.96 33.25 1.62.23 3.23.25 4.88.08 5.19-.54 10.74-2.98 16.67-7.29-.88-3.88-1.36-7.99-1.36-12.22 0-1.56.06-3.12.2-4.68.07-.84.15-1.72.27-2.6zm64.63 11.76c-1.5.2-3.03.31-4.56.31-6.04 0-11.76-1.62-16.84-4.45-3.71-2.1-7.06-4.85-9.95-8.14-2.1 1.39-4.34 2.55-6.66 3.46-3.91 1.5-8.05 2.32-12.33 2.32-1.56 0-3.15-.11-4.71-.34-.03.77-.06 1.56-.06 2.35 0 10.15 3.23 19.28 8.48 25.82 1.25 1.59 2.61 3 4.08 4.25.14.08.26.2.37.28 4.28 3.51 9.33 5.56 14.74 5.56 5.39 0 10.46-2.04 14.74-5.56.11-.09.23-.2.34-.28 1.47-1.25 2.83-2.66 4.11-4.25 4.45-5.56 7.45-12.99 8.25-21.33zm-24.83-50.31c9.47.74 17.97 5.39 24.24 12.53 6.69 7.63 10.8 18.11 10.8 29.62 0 .23 0 .11-.03.99v.68.17.79l.03.45c8.99 2.18 17.69 5.1 26.05 8.67.51-2.66.99-5.36 1.45-8.08 2.58-15.34 4.08-31.83 4.34-49.01h-66.87v3.19zm-19.82 4.56c3.06-1.76 6.35-3.06 9.84-3.85v-3.88h-66.87c.28 19.53 2.18 38.13 5.44 55.25.11.62.23 1.22.34 1.84 3.86-1.64 7.77-3.15 11.74-4.51 3.83-5.84 6.72-13.52 9.5-20.92l.68-1.81c.11-.28.25-.57.4-.82 3.29-6.32 7.65-11.11 12.42-14.54 5.29-3.84 11.1-6.02 16.51-6.76zm17.21 5.36c-.57 0-1.13 0-1.7.06-.17.03-.37.03-.54.03-5.98.57-11.45 3.34-15.76 7.65-4.11 4.11-7.17 9.61-8.67 15.87 1.19.17 2.47.28 3.77.28 3.09 0 6.01-.57 8.73-1.62 2.86-1.13 5.53-2.78 7.91-4.85 2.07-1.81 5.22-1.62 7.03.45.14.17.26.34.37.51h.03c2.61 3.85 5.95 7 9.78 9.13 3.6 2.04 7.65 3.17 11.93 3.17 1.42 0 2.81-.11 4.11-.34.2-.06.4-.08.62-.11-.43-8.25-3.52-15.65-8.28-21.06-4.96-5.68-11.82-9.17-19.33-9.17z"/></svg>