<svg id="Layer_1" enable-background="new 0 0 500 500" height="512" viewBox="0 0 500 500" width="512" xmlns="http://www.w3.org/2000/svg"><path clip-rule="evenodd" d="m113.728 217.417 32.978-57.119c4.104-7.109 5.431-10.642 15.255-10.642h57.722c.248 0 .461.093.63.274.168.181.246.4.228.647-.051.707-.077 1.42-.077 2.14 0 16.313 13.224 29.537 29.537 29.537 16.312 0 29.536-13.224 29.536-29.537 0-.72-.026-1.433-.077-2.14-.018-.247.06-.466.228-.647.169-.181.382-.274.63-.274h50.201c10.277 0 16.284-.6 22.014 9.324l33.739 58.438c3.436 5.952 1.378 13.633-4.574 17.069-5.952 3.436-13.633 1.378-17.069-4.574l-27.048-46.848c-.174-.301-.491-.462-.837-.425s-.621.261-.728.592l-6.98 21.757c-.068.212-.056.417.037.62l28.613 62.71c.422.924.063 1.938-.558 2.743s-1.496 1.234-2.512 1.234h-21.164c-.474 0-.86.386-.86.86v51.351c0 .253-.098.472-.286.641-.189.169-.416.242-.668.214-6.711-.741-13.416-1.006-20.064-.624-.245.014-.461-.065-.64-.233-.178-.168-.27-.38-.27-.625v-52.68c0-3.802-3.082-6.884-6.884-6.884s-6.884 3.082-6.884 6.884v54.841c0 .406-.273.748-.669.839-6 1.37-11.635 3.329-16.934 5.813-.274.129-.571.11-.827-.053s-.399-.423-.399-.726c.023-23.26.053-46.52.079-69.78.016-14.729 5.807-27.336 16.971-36.944l10.86-9.346c6.465-5.563 7.206-15.481 1.643-21.945s-15.48-7.207-21.944-1.643c-2.429 2.091-4.793 4.301-7.16 6.464-3.277 2.993-6.561 5.978-9.896 8.907-3.797 3.334-7.713 6.693-11.784 9.69-1.104.813-5.197 3.73-6.709 3.973-.096.015-.18.016-.276 0-1.498-.247-5.588-3.161-6.691-3.973-4.07-2.997-7.986-6.356-11.784-9.69-3.335-2.928-6.62-5.913-9.896-8.907-2.367-2.162-4.731-4.373-7.16-6.464-6.464-5.564-16.381-4.821-21.944 1.643s-4.821 16.381 1.643 21.945l10.86 9.346c11.164 9.607 16.955 22.215 16.971 36.944.026 23.26.056 46.52.079 69.78 0 .303-.143.564-.398.727-.256.163-.552.182-.827.053-5.299-2.484-10.934-4.442-16.934-5.813-.396-.091-.669-.433-.669-.839v-54.841c0-3.802-3.082-6.884-6.884-6.884s-6.884 3.082-6.884 6.884v52.68c0 .246-.091.457-.269.625-.179.169-.395.247-.64.233-7.915-.454-15.913.011-23.905 1.1-.255.035-.488-.035-.682-.204s-.295-.391-.295-.648v-139.833c0-.385-.242-.711-.609-.823-.368-.112-.751.024-.965.343l-3.398 5.057c-.011.017-.021.032-.031.05l-23.169 40.131c-3.436 5.952-11.117 8.01-17.069 4.574-5.951-3.437-8.01-11.118-4.573-17.069zm175.074.43 10.86-9.346c2.392-2.059 2.679-5.894.62-8.285-2.059-2.392-5.893-2.68-8.285-.621-2.364 2.035-4.643 4.17-6.946 6.274-3.324 3.036-6.655 6.064-10.038 9.034-4.03 3.538-8.11 7.029-12.431 10.211-3.363 2.477-7.901 5.653-12.108 5.862l-.441.022c-.03.001-.056.001-.086 0l-.441-.022c-4.197-.212-8.728-3.391-12.085-5.862-4.321-3.182-8.401-6.673-12.431-10.211-3.383-2.97-6.715-5.998-10.038-9.034-2.303-2.104-4.582-4.239-6.946-6.274-2.392-2.059-6.227-1.772-8.285.621-2.059 2.392-1.772 6.227.62 8.285l10.86 9.346c13.298 11.444 20.319 26.73 20.339 44.274.029 25.419.062 50.838.085 76.257 0 .295.136.549.381.713 6.301 4.227 12.067 9.274 17.365 14.999.169.182.383.276.632.276s.463-.093.632-.276c5.298-5.725 11.064-10.772 17.365-14.999.245-.164.381-.418.381-.713.023-25.419.057-50.838.085-76.257.017-17.544 7.037-32.83 20.336-44.274zm-38.802-45.455c10.866 0 19.675-8.809 19.675-19.675s-8.809-19.675-19.675-19.675-19.675 8.809-19.675 19.675 8.809 19.675 19.675 19.675zm-50.55-53.341c14.116 0 25.557-11.441 25.557-25.557s-11.441-25.557-25.557-25.557-25.557 11.441-25.557 25.557 11.441 25.557 25.557 25.557zm93.579 0c14.116 0 25.557-11.441 25.557-25.557s-11.441-25.557-25.557-25.557-25.557 11.441-25.557 25.557 11.441 25.557 25.557 25.557zm158.285 248.263c-.191-.276-.481-.437-.833-.466-69.315-5.612-145.597-68.872-199.784 6.202-.166.232-.411.363-.697.363-.287 0-.53-.13-.697-.363-54.187-75.074-130.469-11.814-199.784-6.202-.352.029-.642.19-.834.466-.191.275-.23.586-.112.895l12.9 33.809c.171.449.636.725 1.148.68 62.111-5.553 123.942-43.29 186.729 29.065.168.196.391.301.65.301.26 0 .48-.105.65-.301 62.787-72.354 124.618-34.618 186.729-29.065.512.045.976-.23 1.148-.68l12.9-33.809c.117-.309.078-.62-.113-.895z" fill-rule="evenodd"/></svg>