<?xml version="1.0" encoding="UTF-8"?>
<svg xmlns="http://www.w3.org/2000/svg" xmlns:xlink="http://www.w3.org/1999/xlink" version="1.1" id="Layer_1" x="0px" y="0px" viewBox="0 0 493.5 461.5" xml:space="preserve" width="512" height="512">
<g>
	<path d="M287.8,258.4c13,11.5,22.3,26.6,26.7,43.4v-53.7c0-2.8,0.2-5.6,0.7-8.3l-15.4-14.1l-23,24.4   C280.7,252.6,284.3,255.4,287.8,258.4z"/>
	<polygon points="150.8,216.2 147.4,214 139.7,223.3 143.2,248.5  "/>
	<path d="M353.8,223.3l-7.7-9.3c-1.1,0.7-2.2,1.4-3.3,2.2l7.5,32.4L353.8,223.3z"/>
	<path d="M135.6,281l-6.7-48.6c-2.2,0.9-9.4,1.4-9.4,1.4l-3.6,47.5l11.4,34.8L135.6,281z"/>
	<path d="M166,74.1l-67.2,4.3c-1.3,2-3.3,5.4-6.2,11c-1.5,2.8-5,4-7.9,2.6c-1.7-0.8-3.5-1.2-5.3-1.2c-6.7,0-12.2,5.5-12.2,12.2   c0,4.6,2.6,8.9,6.8,10.9c2.9,1.5,4.1,5,2.7,7.9c-7.1,15.2-13.3,29.1-14.9,32.8l-0.2,45.9h65.1v-20.6c0.1-3.2,2.6-5.8,5.8-5.9   c23-0.8,37.1-8.2,36.6-42.6c0,0,0.7-5.4,2-6.6c1.3-1.1,3-1.7,4.7-1.5h11.3c0,0-19.6-27.8-19.7-28.8C166.7,89.5,166,74.1,166,74.1z    M132.4,102.7c-4.9,1.2-9.8-1.9-10.9-6.8s1.9-9.8,6.8-10.9s9.8,1.9,10.9,6.8C140.3,96.6,137.3,101.5,132.4,102.7z M157,159.8   c-4,0.4-8-0.3-11.6-2c-3.7-1.6-9.9-7.8-10.1-8.1c-1.6-2.7-0.8-6.1,1.9-7.7c2.7-1.6,6.1-0.7,7.7,1.9c2.7,3.3,6.8,5,11,4.8   c3.1-0.3,5.8,1.9,6.1,5c0,0.1,0,0.1,0,0.2C162.3,156.9,160,159.5,157,159.8z"/>
	<path d="M320.6,41.3l92,3.3c2.5,0.1,4.7,1.8,5.5,4.1c0.5,1.5,2.6,8.2,2.6,8.2c1.4-0.3,5.6-0.4,5.6-0.4c12.9,0.7,23,11.3,23,24.2   c0,3.2-0.6,6.3-1.8,9.2c-2.4,5.8-6.9,10.4-12.6,12.9c3.2,10.6,5.8,19.8,7.8,26.9c1.7-4,3.7-8.5,5.7-13.4c0,0,25.8-77.2,18.5-94.8   C455.6-5.9,395.5-0.7,355.7,2.8c-11.2,0.9-21.7,1.8-30,2c-3.5,0.1-4.9,1.4-5.8,2.6c-4.2,5.9-2.7,20.1-0.1,31.1   C320.1,39.5,320.3,40.4,320.6,41.3z"/>
	<path d="M371.4,233.9c-2.3,0-4.6-0.5-6.7-1.4l-6.7,48.6l8.2,35.1l11.5-34.8l-3.7-47.5H371.4z"/>
	<path d="M133.1,212.5h-23.7l6.5,7.1c1.5,1.6,3.7,2.5,5.9,2.4C124,222,133.1,212.5,133.1,212.5z"/>
	<path d="M363.9,172.7v25h70.4v-0.9l-0.3-47c0-1,0.9-3.2,0.9-3.3c-1.6-5.9-6.3-23.2-13.2-46c-0.5-1.7-0.2-3.5,0.7-5   c1-1.5,2.5-2.5,4.3-2.7c6.1-0.7,10.6-5.9,10.6-12.1c0-6.8-5.5-12.2-12.2-12.2c-1.9,0-6,1.5-6.3,1.6c-3.2,1.1-6.6-0.6-7.7-3.8   c-1-3.2-2.1-6.5-3.1-9.8l-84.6-3c-0.9,4.6-4.4,28.2-4.7,28.8l-20.3,39h13.1c0.2,0,0.4,0,0.6,0c3.3,0,6,2.7,6,6   c0,0.3,0.1,2.5,0.2,4.7c0.2,5.1,0.2,6.3,0.2,6.7c-0.3,17,3.8,21.8,7.3,24c5.3,3.4,14.4,3.6,25.9,3.9l6.4,0.2   C361.3,166.9,363.8,169.5,363.9,172.7z M347.2,144.7c-2.2,3.4-5.2,6.2-8.7,8.2s-7.4,3.2-11.4,3.5c-0.1,0-0.1,0-0.2,0   c-3,0.1-5.5-2.4-5.6-5.4c0.1-3.2,2.6-5.8,5.8-5.9c2.1-0.1,4.1-0.8,5.8-1.9c1.8-1,3.3-2.3,4.5-4c1.6-2.8,5.2-3.7,8-2.2   c0.1,0.1,0.2,0.1,0.3,0.2C348.2,138.9,348.9,142.2,347.2,144.7z M341.8,94.7c-4.8,0.2-8.9-3.5-9.1-8.3s3.5-8.9,8.3-9.1   c4.9-0.1,8.9,3.8,9.1,8.7C350.1,90.7,346.4,94.5,341.8,94.7z"/>
	<path d="M360.3,212.3l5.7,6.9c1.4,1.7,3.6,2.7,5.8,2.7c2.2,0.1,4.3-0.8,5.8-2.4l7.2-7.6L360.3,212.3z"/>
	<polygon points="400.3,212.7 385.6,228.4 387.4,251.8  "/>
	<path d="M225.8,236.7h4.6c12.2,0,24.3,2.5,35.4,7.5l23.9-25.3v-50.5c0-1.2-1-2.2-2.2-2.2h-5.1c-3.1,0-3.5,0-5.9,7.4   c-0.3,0.6-0.5,1.2-0.7,1.9l-7.2,21c-0.9,2.4-3.1,4-5.7,4h-22.1c-9.2,0-16.6,7.4-16.6,16.6l0,12.6   C224.2,232.1,224.8,234.5,225.8,236.7z"/>
	<path d="M314.5,345.5c-4.2,16-12.8,30.4-24.9,41.7l24.9-3V345.5z"/>
	<path d="M217.4,409.5c0,0.4-0.1,0.8-0.1,1.2v17.7c0.1,6,5,10.9,11,10.9h51.2v-39.6h-51.2C222.7,399.7,218,403.9,217.4,409.5z"/>
	<path d="M440.7,209.9c-3.8-0.7-7.7-1.1-11.6-1.1h-13.4c-0.7,0-1.4,0.4-1.7,1.1l-43.2,130.3c-1.2,2.2-3.3,4.1-5.9,4   c-2.7-0.2-4.9-2.1-5.6-4.7l-26.4-112.9c-4.1,6.4-6.4,13.9-6.4,21.5v134.6l73.3-9c5.9-0.6,10.2-5.9,9.6-11.8l-5.4-57   c-0.3-3.3,2.1-6.3,5.4-6.6c3.3-0.3,6.3,2.1,6.6,5.4l5.3,57c1.2,12.4-7.6,23.5-20,25l-109.8,13.4v39.6l177.9-18.2   c6-0.6,10.3-5.9,9.7-11.9l-11.5-115.2c-0.1-0.4-0.1-0.7-0.1-1c0-3.3,2.6-6,5.9-6.1c3.3,0,6,2.6,6.1,5.9l11.6,115.2   c1.2,12.6-7.9,23.7-20.5,25l-144.1,14.8v14.3h167V273.2C493.5,242.1,471.3,215.5,440.7,209.9z"/>
	<path d="M106.1,251.8l1.8-23.4c-0.3-0.2-14.7-15.7-14.7-15.7L106.1,251.8z"/>
	<path d="M304.1,310c-1.8-9.2-5.2-18-10.1-26c-6.4-10.2-15.2-18.8-25.6-25c0,0-7.8-4.1-11.4-5.4c-8.5-3.3-17.5-4.9-26.6-4.9   c-3.5,0-7,0.2-10.4,0.7c-15.4,2.2-29.7,9.1-41,19.7c-3.8,3.6-7.2,7.6-10.2,11.9c-23.5,34-15,80.7,19,104.2l81.3,2.5   c22.5-13.5,36.2-37.9,36.2-64.1C305.3,319,304.9,314.5,304.1,310z M263.8,292.3c4.1,0.1,7.5,3.5,7.4,7.6c0,4.1-3.3,7.4-7.4,7.4   c-0.1,0-0.1,0-0.2,0c-4.1-0.1-7.5-3.5-7.4-7.6C256.3,295.6,259.7,292.2,263.8,292.3z M193.7,292.4c4.1,0,7.5,3.4,7.5,7.5   s-3.4,7.5-7.5,7.5s-7.5-3.4-7.5-7.5S189.6,292.4,193.7,292.4z M229.4,376.6c-26.4,0-47.9-17.5-47.9-39.1c0-3.3,2.7-6,6-6s6,2.7,6,6   c0,15,16.2,27.1,35.9,27.1s35.8-12.1,35.8-27.1c0-3.3,2.7-6,6-6s6,2.7,6,6C277.2,359.1,255.8,376.6,229.4,376.6z"/>
	<path d="M72.2,360.7l5.4-57c0.3-3.3,3.2-5.7,6.5-5.4c3.3,0.4,5.7,3.3,5.4,6.6l-5.4,57c-0.3,5.7,3.9,10.7,9.6,11.4l73,9   c-31.1-33.4-30.9-85.2,0.3-118.5v-16.1c0-7.6-2.2-15.1-6.4-21.5l-26.4,112.9c-0.6,2.6-2.9,4.7-5.6,4.7c-4.1,0.1-5.8-3.1-6-3.7   L80.5,212.5c0,0-27.1-0.3-28.1-0.9c-31,9.2-52.4,37.6-52.4,70v179.9h167v-14.3L22.9,432.4c-12.5-1.3-21.7-12.5-20.4-25L14,292.2   c0.3-3.3,3.3-5.7,6.6-5.4c3.3,0.3,5.7,3.3,5.4,6.6L14.4,408.6c-0.6,6,3.8,11.3,9.8,11.9L202,438.7v-39.6L92.2,385.7   C79.8,384.2,71,373.1,72.2,360.7z"/>
	<path d="M63.8,121.4c-5.4-4.6-8.5-11.3-8.5-18.4c0-13.3,10.8-24.2,24.2-24.2c1.7,0,3.4,0.2,5,0.5c1.9-3.6,4-7.1,6.4-10.4   c1.1-1.4,2.7-2.2,4.4-2.3l69.3-4.5h0.2c4.3-0.3,8.2-2.5,10.6-6c1.6-2.2,2.4-4.9,2.5-7.6c0-2.4,0.1-4.6,0.1-6.7   c0-19.1-2.5-25.4-3.5-27.1l-0.5,0.2c-15.2,10.9-40,8.4-66.2,5.7c-11.6-1.2-22.8-2.4-32.9-2.4c-17.6,0-31.8,4.7-36.2,16.7   c-4.4,12-3.3,28.8,0,45.8c2.4,12.1,5.7,24.1,9.7,35.8c2.7,8.3,5.5,15.7,7.8,21.4C58.3,133.2,61,127.5,63.8,121.4z"/>
</g>
</svg>
