<svg height="512" viewBox="0 0 64 64" width="512" xmlns="http://www.w3.org/2000/svg"><g id="_09_Search_House_Construction_Find_Home" data-name="09 Search House, Construction, Find, Home"><path d="m39 23v4h-4v-4a2 2 0 0 1 4 0zm-9-9.1v12.1a1 1 0 0 0 1 1h2v-4a4 4 0 0 1 8 0v4h2a1 1 0 0 0 1-1v-12.1l-7-3.76zm28-4.9v46a5 5 0 0 1 -5 5h-33a5 5 0 0 0 2-4v-4a5 5 0 0 0 -3-4.58v-2.6a11.73 11.73 0 0 0 4.6-1.82h28.4v-2h-26.07a11.8 11.8 0 0 0 2-3h24.07v-2h-23.39a11.43 11.43 0 0 0 .39-3h23v-2h-23.17a12 12 0 0 0 -11.83-10c-.34 0-.67 0-1 0v-12a5 5 0 0 1 5-5h32a5 5 0 0 1 5 5zm-10.52 4.5-2-1.07-8-4.3a1 1 0 0 0 -.94 0l-8 4.3-2 1.07 1 1.76.46-.26v11a3 3 0 0 0 3 3h12a3 3 0 0 0 3-3v-11l.52.28zm4.52 32.5h-30v2h30zm-31 10a4 4 0 0 1 -8 0v-4a4 4 0 0 1 3-3.86v-4.14a11 11 0 1 1 2 0v4.19a4 4 0 0 1 3 3.81zm-4-14a9 9 0 1 0 -9-9 9 9 0 0 0 9 9z"/></g></svg>