<?xml version="1.0" encoding="UTF-8"?>
<svg xmlns="http://www.w3.org/2000/svg" viewBox="0 0 64 64" width="512" height="512"><g id="Worldwide"><path d="M52.5,36.49A20.327,20.327,0,0,0,53,32,20.982,20.982,0,0,0,27.51,11.49,13,13,0,0,0,2,15c0,5.61,5.36,12.83,9,17.1A20.982,20.982,0,0,0,36.49,52.51,13,13,0,1,0,52.5,36.49Zm-9.86,6.15,1.41,1.41a7.007,7.007,0,0,0,0,9.9l-1.41,1.41A9,9,0,0,1,42.64,42.64ZM45,52h2a2,2,0,1,0,2-2,3.993,3.993,0,0,1-1-7.86V40h2v2.14A4,4,0,0,1,53,46H51a2,2,0,1,0-2,2,3.993,3.993,0,0,1,1,7.86V58H48V55.86A4,4,0,0,1,45,52Zm8.95,1.95a7.007,7.007,0,0,0,0-9.9l1.41-1.41a9,9,0,0,1,0,12.72ZM50.54,36.1A13.128,13.128,0,0,0,49,36a12.951,12.951,0,0,0-8.55,3.23A48.16,48.16,0,0,0,40.97,33h10A18.809,18.809,0,0,1,50.54,36.1Zm.41-5.1H40.98a44.787,44.787,0,0,0-1.16-9.53,20.655,20.655,0,0,0,5.33-3.14A18.949,18.949,0,0,1,50.95,31ZM43.63,17a19.21,19.21,0,0,1-4.35,2.53,18.812,18.812,0,0,0-2.94-6.01A18.983,18.983,0,0,1,43.63,17Zm-15.86.09C29.03,14.46,30.52,13,32,13c1.95,0,4.02,2.71,5.4,7.2A18.875,18.875,0,0,1,32,21a19.082,19.082,0,0,1-5.22-.74A17.736,17.736,0,0,0,27.77,17.09ZM32,23a20.687,20.687,0,0,0,5.92-.87A42.443,42.443,0,0,1,38.98,31H25.03a42.248,42.248,0,0,1,1.06-8.86A20.965,20.965,0,0,0,32,23Zm-8.69,3.49c-.16,1.47-.25,2.98-.28,4.51H19.92C21.01,29.67,22.2,28.13,23.31,26.49ZM15,6a9,9,0,1,1-9,9A9.014,9.014,0,0,1,15,6ZM13.19,34.56c.61.65,1.02,1.06,1.1,1.15a1.014,1.014,0,0,0,1.42,0c.14-.14,1.14-1.15,2.51-2.71h4.8a44.787,44.787,0,0,0,1.16,9.53,20.655,20.655,0,0,0-5.33,3.14A18.98,18.98,0,0,1,13.19,34.56ZM20.37,47a19.21,19.21,0,0,1,4.35-2.53,18.812,18.812,0,0,0,2.94,6.01A18.983,18.983,0,0,1,20.37,47Zm15.8.03C34.94,49.55,33.43,51,32,51c-1.95,0-4.02-2.71-5.4-7.2a18.63,18.63,0,0,1,10.53-.08A12.75,12.75,0,0,0,36.17,47.03ZM32,41a20.687,20.687,0,0,0-5.92.87A42.443,42.443,0,0,1,25.02,33H38.97a43.459,43.459,0,0,1-1.05,8.87A20.791,20.791,0,0,0,32,41Z"/><path d="M6,32H4A28.032,28.032,0,0,0,32,60V58A26.029,26.029,0,0,1,6,32Z"/><path d="M58,32h2A28.032,28.032,0,0,0,32,4V6A26.029,26.029,0,0,1,58,32Z"/><circle cx="12" cy="13" r="2"/><circle cx="18" cy="17" r="2"/><rect x="9.169" y="14" width="11.662" height="2" transform="translate(-5.58 20.145) rotate(-59.036)"/></g></svg>
