<svg height="448pt" viewBox="-8 0 448 448" width="448pt" xmlns="http://www.w3.org/2000/svg"><path d="m104 248c0 4.417969-3.582031 8-8 8s-8-3.582031-8-8 3.582031-8 8-8 8 3.582031 8 8zm0 0"/><path d="m104 376c0 4.417969-3.582031 8-8 8s-8-3.582031-8-8 3.582031-8 8-8 8 3.582031 8 8zm0 0"/><path d="m104 184c0 4.417969-3.582031 8-8 8s-8-3.582031-8-8 3.582031-8 8-8 8 3.582031 8 8zm0 0"/><path d="m168 184c0 4.417969-3.582031 8-8 8s-8-3.582031-8-8 3.582031-8 8-8 8 3.582031 8 8zm0 0"/><path d="m168 312c0 4.417969-3.582031 8-8 8s-8-3.582031-8-8 3.582031-8 8-8 8 3.582031 8 8zm0 0"/><path d="m168 376c0 4.417969-3.582031 8-8 8s-8-3.582031-8-8 3.582031-8 8-8 8 3.582031 8 8zm0 0"/><path d="m104 312c0 4.417969-3.582031 8-8 8s-8-3.582031-8-8 3.582031-8 8-8 8 3.582031 8 8zm0 0"/><path d="m232 248c0 4.417969-3.582031 8-8 8s-8-3.582031-8-8 3.582031-8 8-8 8 3.582031 8 8zm0 0"/><path d="m232 184c0 4.417969-3.582031 8-8 8s-8-3.582031-8-8 3.582031-8 8-8 8 3.582031 8 8zm0 0"/><path d="m304 40v-24c.03125-5.632812 1.570312-11.15625 4.449219-16h-292.449219c-8.835938 0-16 7.164062-16 16v24c0 8.835938 7.164062 16 16 16h292.449219c-2.878907-4.84375-4.417969-10.367188-4.449219-16zm0 0"/><path d="m296 248c0 4.417969-3.582031 8-8 8s-8-3.582031-8-8 3.582031-8 8-8 8 3.582031 8 8zm0 0"/><path d="m296 184c0 4.417969-3.582031 8-8 8s-8-3.582031-8-8 3.582031-8 8-8 8 3.582031 8 8zm0 0"/><path d="m72 112h240v16h-240zm0 0"/><path d="m248 408v-48c0-4.417969 3.582031-8 8-8h60.449219c-2.878907-4.84375-4.417969-10.367188-4.449219-16-.058594-13.34375 8.203125-25.3125 20.703125-29.984375 12.496094-4.675781 26.585937-1.066406 35.296875 9.039063 4.210938-4.84375 9.789062-8.300782 16-9.917969v-289.136719c0-8.835938-7.164062-16-16-16h-32c-8.835938 0-16 7.164062-16 16v24c0 8.835938 7.164062 16 16 16s16-7.164062 16-16v-8h-16v-16h24c4.417969 0 8 3.582031 8 8v16c0 17.671875-14.328125 32-32 32h-304v360h232v-16h-8c-4.417969 0-8-3.582031-8-8zm104-328h16v216h-16zm-128 128c-13.253906 0-24-10.746094-24-24s10.746094-24 24-24 24 10.746094 24 24-10.746094 24-24 24zm24 40c0 13.253906-10.746094 24-24 24s-24-10.746094-24-24 10.746094-24 24-24 24 10.746094 24 24zm48 64c0-4.417969-3.582031-8-8-8s-8 3.582031-8 8 3.582031 8 8 8v16c-13.253906 0-24-10.746094-24-24s10.746094-24 24-24 24 10.746094 24 24zm-8-40c-13.253906 0-24-10.746094-24-24s10.746094-24 24-24 24 10.746094 24 24-10.746094 24-24 24zm0-64c-13.253906 0-24-10.746094-24-24s10.746094-24 24-24 24 10.746094 24 24-10.746094 24-24 24zm-232-72v-32c0-4.417969 3.582031-8 8-8h256c4.417969 0 8 3.582031 8 8v32c0 4.417969-3.582031 8-8 8h-256c-4.417969 0-8-3.582031-8-8zm40 264c-13.253906 0-24-10.746094-24-24s10.746094-24 24-24 24 10.746094 24 24-10.746094 24-24 24zm0-64c-13.253906 0-24-10.746094-24-24s10.746094-24 24-24 24 10.746094 24 24-10.746094 24-24 24zm0-64c-13.253906 0-24-10.746094-24-24s10.746094-24 24-24 24 10.746094 24 24-10.746094 24-24 24zm0-64c-13.253906 0-24-10.746094-24-24s10.746094-24 24-24 24 10.746094 24 24-10.746094 24-24 24zm64 192c-13.253906 0-24-10.746094-24-24s10.746094-24 24-24 24 10.746094 24 24-10.746094 24-24 24zm0-64c-13.253906 0-24-10.746094-24-24s10.746094-24 24-24 24 10.746094 24 24-10.746094 24-24 24zm-21.65625-98.34375 11.3125-11.3125 10.34375 10.34375 10.34375-10.34375 11.3125 11.3125-10.34375 10.34375 10.34375 10.34375-11.3125 11.3125-10.34375-10.34375-10.34375 10.34375-11.3125-11.3125 10.34375-10.34375zm21.65625-29.65625c-13.253906 0-24-10.746094-24-24s10.746094-24 24-24 24 10.746094 24 24-10.746094 24-24 24zm72 160h-8c-4.417969 0-8 3.582031-8 8s3.582031 8 8 8h8v16h-8c-13.253906 0-24-10.746094-24-24s10.746094-24 24-24h8zm-8-32c-13.253906 0-24-10.746094-24-24s10.746094-24 24-24 24 10.746094 24 24-10.746094 24-24 24zm0 0"/><path d="m264 400h72v-32h-72zm0 0"/><path d="m352 368v32h32v-32zm0 0"/><path d="m400 368v32h32v-32zm0 0"/><path d="m352 416h32v32h-32zm0 0"/><path d="m360 336c0-8.835938-7.164062-16-16-16s-16 7.164062-16 16 7.164062 16 16 16h16zm0 0"/><path d="m232 312c0 4.417969-3.582031 8-8 8s-8-3.582031-8-8 3.582031-8 8-8 8 3.582031 8 8zm0 0"/><path d="m400 448h8c4.417969 0 8-3.582031 8-8v-24h-16zm0 0"/><path d="m408 336c0-8.835938-7.164062-16-16-16s-16 7.164062-16 16v16h16c8.835938 0 16-7.164062 16-16zm0 0"/><path d="m280 440c0 4.417969 3.582031 8 8 8h48v-32h-56zm0 0"/></svg>