<svg id="Calque_1" enable-background="new 0 0 512 512" height="512" viewBox="0 0 512 512" width="512" xmlns="http://www.w3.org/2000/svg"><g><path d="m220.043 471.01c-.001 0-.001.001 0 0-.001.001-.001.002-.002.002-4.953 4.954-4.953 13.015 0 17.969 4.953 4.951 13.014 4.951 17.968-.001.001-.001.002-.001.002-.002l4.873-4.872-18.419-17.518z"/><path d="m321.408 236.854c-2.199-2.199-5.123-3.41-8.233-3.41-3.109 0-6.032 1.211-8.23 3.41-4.539 4.539-4.538 11.924 0 16.464l81.913 81.913c2.199 2.198 5.123 3.409 8.232 3.409s6.033-1.211 8.233-3.41c2.197-2.197 3.407-5.12 3.406-8.23 0-3.11-1.211-6.034-3.41-8.232z"/><path d="m374.147 336.661-74.748-74.748-61.355 9.942c-4.398.717-8.055 3.944-9.313 8.222l-19.951 68.042c-1.806 6.16 1.736 12.642 7.895 14.447 6.161 1.807 12.644-1.737 14.448-7.897l15.695-52.112c.552-1.831 2.1-3.188 3.987-3.493l43.204-7.004c2.724-.445 5.293 1.409 5.735 4.136.442 2.726-1.409 5.294-4.136 5.735l-9.35 1.516 75.135 72.691 1.501-1.5c.01-.011.017-.022.026-.032l11.237-11.236c7.358-7.358 7.358-19.333.001-26.692-.003-.006-.006-.012-.011-.017z"/><path d="m255.492 308.434-14.783 49.083c-2.753 9.396-11.405 15.521-20.767 15.521-2.012.001-4.054-.282-6.08-.876-11.451-3.356-18.036-15.404-14.679-26.856l19.953-68.046c.708-2.41 1.833-4.637 3.275-6.612l-12.372-3.715-71.382 75.051c-.014.015-.022.032-.036.047-3.545 3.727-5.427 8.61-5.298 13.752s2.251 9.926 5.978 13.472l12.79 12.335c.012.012.025.019.037.03.008.008.013.018.021.026l17.96 17.321 7.38 7.303c.011.012.025.019.037.03.01.011.017.022.027.033l25.14 24.876s0 .001.001.001c0 0 0 .001.001.001l22.728 22.49 34.697 32.996c.002.002.004.003.006.005 5.477 5.21 14.171 4.995 19.384-.484 2.523-2.651 3.862-6.128 3.771-9.79-.092-3.645-1.592-7.036-4.222-9.556l-10.102-9.607c-2.001-1.903-2.081-5.067-.178-7.068 1.901-2.003 5.067-2.082 7.068-.178l10.038 9.547c.01.009.021.015.03.023.038.036.073.075.111.111l5.186 4.932c5.476 5.21 14.171 4.994 19.382-.482 5.207-5.477 4.99-14.173-.486-19.385-.003-.003-.005-.006-.007-.009l-9.612-9.144c-2.001-1.903-2.08-5.068-.177-7.069 1.904-2 5.069-2.079 7.069-.177l15.364 14.616c5.62 5.348 14.699 5.317 19.821-.068 2.471-2.596 3.733-6.107 3.556-9.888-.176-3.745-1.802-7.346-4.458-9.885-.035-.034-.069-.067-.104-.103l-11.292-10.738c-2.001-1.902-2.081-5.067-.178-7.068 1.901-2 5.065-2.083 7.068-.178l11.373 10.814c.04.038.08.076.118.116l6.947 6.607c5.477 5.206 14.173 4.992 19.381-.485 2.527-2.654 3.867-6.131 3.776-9.791-.092-3.66-1.605-7.065-4.261-9.589l-100.554-97.284z"/><path d="m163.121 406.119-14.468-13.953-3.724 3.725c-.002.001-.003.003-.004.005-2.399 2.399-3.72 5.589-3.72 8.983s1.321 6.583 3.72 8.98c2.399 2.4 5.59 3.722 8.984 3.723h.002c3.39 0 6.576-1.318 8.973-3.711.002-.002.005-.005.007-.008.001-.001.001-.002.002-.003l4.005-4.004z"/><path d="m199.178 441.798-4.174 4.175c-.001.001-.001.002-.002.003-2.398 2.397-3.719 5.588-3.719 8.982 0 3.396 1.321 6.585 3.72 8.983 2.399 2.399 5.589 3.721 8.984 3.721 3.394 0 6.583-1.321 8.981-3.72.004-.004.009-.007.013-.011l4.26-4.261z"/><path d="m210.187 247.21c-.08-3.179-1.393-6.137-3.698-8.329-2.224-2.115-5.137-3.28-8.203-3.28-3.294 0-6.359 1.314-8.629 3.701l-81.109 85.277c-2.192 2.304-3.355 5.324-3.275 8.504.08 3.181 1.393 6.139 3.697 8.33 2.222 2.113 5.134 3.277 8.2 3.277 3.297 0 6.362-1.314 8.632-3.702l81.109-85.277c2.193-2.303 3.356-5.322 3.276-8.501z"/><path d="m174.006 416.89-4.036 4.035c-.003.004-.005.008-.009.011-.004.004-.008.007-.012.011-2.39 2.397-3.706 5.582-3.706 8.97 0 3.396 1.321 6.586 3.719 8.983 4.954 4.955 13.014 4.955 17.969.002.002-.002.005-.004.008-.007l4.131-4.131z"/><path d="m104.605 218.858c0 3.037 2.476 5.508 5.519 5.508h45.239c3.043 0 5.519-2.471 5.519-5.508v-8.022h-56.276v8.022z"/><path d="m227.861 218.858c0 3.037 2.476 5.508 5.52 5.508h45.239c3.043 0 5.519-2.471 5.519-5.508v-8.022h-56.277v8.022z"/><path d="m351.118 218.858c0 3.037 2.477 5.508 5.521 5.508h45.236c3.043 0 5.519-2.471 5.519-5.508v-8.022h-56.275v8.022z"/><path d="m429.752 173.997h-361.006v13.415c0 7.402 6.022 13.424 13.425 13.424h17.424c.003 0 .006-.001.01-.001s.006.001.01.001h66.257c.003 0 .006-.001.01-.001s.006.001.01.001h56.96c.003 0 .006-.001.01-.001s.006.001.01.001h66.258c.003 0 .007-.001.01-.001s.007.001.01.001h56.961c.003 0 .007-.001.01-.001s.007.001.01.001h66.256c.003 0 .007-.001.01-.001s.007.001.01.001h17.347.001.001c7.483 0 13.502-6.022 13.502-13.424v-13.415h-13.416z"/><path d="m256 20.9-166.11 143.1h332.22zm0 129.55c-23.97 0-43.47-19.5-43.47-43.47 0-23.98 19.5-43.48 43.47-43.48s43.47 19.5 43.47 43.48c0 23.97-19.5 43.47-43.47 43.47z"/><path d="m256 73.501c-18.458 0-33.475 15.017-33.475 33.475s15.017 33.474 33.475 33.474c18.457 0 33.474-15.016 33.474-33.474 0-18.459-15.017-33.475-33.474-33.475z"/></g></svg>