<svg id="Layer_1" enable-background="new 0 0 512 512" viewBox="0 0 512 512" xmlns="http://www.w3.org/2000/svg"><path d="m424.345 338.72-2.807-2.807c-2.733-2.733-7.166-2.733-9.899 0-2.733 2.734-2.733 7.166 0 9.899l14.757 14.757c1.367 1.367 3.158 2.05 4.95 2.05s3.583-.684 4.95-2.05l14.757-14.757c2.733-2.734 2.733-7.166 0-9.899s-7.166-2.733-9.899 0l-2.807 2.807v-74.913c0-2.764-1.626-5.269-4.151-6.394l-81.728-36.412c2.856-9.44 4.336-19.367 4.336-29.533 0-27.029-10.457-52.371-29.444-71.358l-28.936-28.936c3.372-3.528 5.457-8.296 5.457-13.549 0-6.235-2.93-11.789-7.476-15.39l9.014-15.612c3.086-5.345 3.901-11.588 2.296-17.579s-5.433-10.99-10.778-14.075c-6.822-3.939-15.009-3.968-21.746-.71-4.209-6.19-11.314-10.259-19.191-10.259-7.876 0-14.982 4.069-19.189 10.258-6.737-3.257-14.925-3.229-21.747.711-5.345 3.085-9.172 8.084-10.777 14.075s-.79 12.233 2.296 17.579l9.014 15.612c-4.545 3.6-7.476 9.154-7.476 15.39 0 5.254 2.085 10.021 5.457 13.549l-28.936 28.936c-18.987 18.987-29.444 44.329-29.444 71.358 0 10.166 1.48 20.093 4.336 29.533l-81.728 36.412c-2.525 1.125-4.151 3.63-4.151 6.394v76.188l-2.807-2.807c-2.733-2.733-7.166-2.733-9.899 0-2.733 2.734-2.733 7.166 0 9.899l14.757 14.757c1.367 1.367 3.158 2.05 4.95 2.05s3.583-.684 4.95-2.05l14.757-14.757c2.733-2.734 2.733-7.166 0-9.899s-7.166-2.733-9.899 0l-2.807 2.807v-71.644l76.876-34.25c4.902 10.559 11.658 20.273 20.111 28.726 17.896 17.896 40.896 27.649 64.357 29.266v67.642l-2.807-2.807c-2.733-2.732-7.166-2.733-9.899 0s-2.733 7.166 0 9.899l14.757 14.757c1.312 1.312 3.093 2.05 4.95 2.05s3.637-.738 4.95-2.05l14.757-14.757c2.733-2.734 2.733-7.166 0-9.899s-7.166-2.733-9.899 0l-2.81 2.807v-67.643c23.462-1.617 46.462-11.371 64.358-29.267 8.452-8.452 15.209-18.166 20.11-28.725l76.876 34.25v70.37zm-206.535-306.053c.638-2.379 2.148-4.358 4.254-5.575 4.078-2.354 9.392-1.179 12.095 2.678 1.688 2.409 4.703 3.506 7.543 2.744 2.841-.761 4.903-3.217 5.161-6.147.414-4.692 4.427-8.367 9.137-8.367s8.723 3.675 9.135 8.366c.258 2.93 2.32 5.387 5.161 6.148 2.842.762 5.855-.335 7.544-2.743 2.704-3.858 8.017-5.033 12.095-2.678 2.106 1.216 3.618 3.196 4.255 5.575.638 2.379.319 4.849-.897 6.955l-10.601 18.362h-53.383l-10.601-18.362c-1.217-2.107-1.536-4.577-.898-6.956zm72.069 44.957c0 3.11-2.53 5.64-5.64 5.64h-56.478c-3.11 0-5.64-2.53-5.64-5.64s2.53-5.64 5.64-5.64h56.478c3.11 0 5.64 2.53 5.64 5.64zm27.579 175.303c-33.889 33.889-89.028 33.889-122.917 0-16.343-16.343-25.343-38.169-25.343-61.459s9-45.116 25.343-61.458l32.768-32.768c.152.003.299.023.452.023h56.478c.152 0 .3-.019.452-.023l32.768 32.768c16.343 16.343 25.343 38.169 25.343 61.458s-9 45.116-25.344 61.459zm-236.803 117.718c-32.721 0-59.341 26.621-59.341 59.341 0 32.721 26.621 59.342 59.341 59.342s59.341-26.621 59.341-59.342c.001-32.721-26.62-59.341-59.341-59.341zm0 104.683c-25.001 0-45.341-20.34-45.341-45.342s20.34-45.341 45.341-45.341 45.341 20.34 45.341 45.341-20.339 45.342-45.341 45.342zm163.719-303.196c0 6.411 5.215 11.626 11.626 11.626 14.13 0 25.626 11.496 25.626 25.626 0 11.703-7.889 21.593-18.626 24.647v6.154c0 3.866-3.134 7-7 7s-7-3.134-7-7v-6.155c-10.737-3.054-18.626-12.943-18.626-24.646 0-3.866 3.134-7 7-7s7 3.134 7 7c0 6.411 5.215 11.626 11.626 11.626s11.626-5.215 11.626-11.626-5.215-11.626-11.626-11.626c-14.13 0-25.626-11.496-25.626-25.626 0-11.703 7.889-21.592 18.626-24.646v-6.155c0-3.866 3.134-7 7-7s7 3.134 7 7v6.154c10.737 3.054 18.626 12.943 18.626 24.647 0 3.866-3.134 7-7 7s-7-3.134-7-7c0-6.411-5.215-11.626-11.626-11.626-6.411-.001-11.626 5.215-11.626 11.626zm186.971 198.513c-32.721 0-59.342 26.621-59.342 59.341 0 32.721 26.621 59.342 59.342 59.342s59.341-26.621 59.341-59.342-26.62-59.341-59.341-59.341zm0 104.683c-25.001 0-45.342-20.34-45.342-45.342s20.34-45.341 45.342-45.341c25.001 0 45.341 20.34 45.341 45.341s-20.34 45.342-45.341 45.342zm-175.345-86.011c-32.721 0-59.342 26.621-59.342 59.342 0 32.72 26.621 59.341 59.342 59.341s59.341-26.621 59.341-59.341c0-32.721-26.62-59.342-59.341-59.342zm0 104.683c-25.001 0-45.342-20.34-45.342-45.341s20.34-45.342 45.342-45.342 45.341 20.34 45.341 45.342-20.34 45.341-45.341 45.341zm-152.135-90.214-34.295 59.401c-1.296 2.246-3.649 3.501-6.068 3.501-1.188 0-2.391-.302-3.494-.939-3.348-1.933-4.495-6.214-2.562-9.562l34.295-59.401c1.933-3.349 6.214-4.495 9.562-2.562 3.347 1.933 4.495 6.214 2.562 9.562zm-44.822 15.128c-3.238-1.87-5.554-4.888-6.522-8.5-1.997-7.456 2.443-15.146 9.897-17.144 3.612-.968 7.384-.471 10.622 1.398 3.238 1.87 5.555 4.889 6.522 8.5 1.998 7.455-2.442 15.145-9.898 17.143-1.206.323-2.43.483-3.646.483-2.425.001-4.818-.635-6.975-1.88zm49.746 30.644c.968 3.612.471 7.384-1.398 10.623s-4.889 5.554-8.5 6.522c-1.206.323-2.43.483-3.645.483-2.425 0-4.819-.636-6.976-1.881-3.238-1.869-5.554-4.888-6.522-8.499-1.998-7.456 2.442-15.146 9.897-17.145h.001c7.458-1.997 15.145 2.443 17.143 9.897zm170.42-27.1-34.295 59.401c-1.296 2.246-3.649 3.501-6.068 3.501-1.188 0-2.391-.302-3.494-.939-3.348-1.933-4.495-6.214-2.562-9.562l34.295-59.401c1.933-3.349 6.214-4.495 9.562-2.562s4.496 6.214 2.562 9.562zm-37.819 17.005c-6.18 0-11.85-4.129-13.524-10.376-.968-3.612-.471-7.384 1.398-10.622 1.87-3.238 4.888-5.554 8.5-6.522 3.611-.967 7.383-.472 10.622 1.398 3.238 1.87 5.554 4.888 6.522 8.5s.471 7.384-1.398 10.622c-1.87 3.238-4.888 5.554-8.5 6.522-1.209.323-2.425.478-3.62.478zm42.744 28.767c1.997 7.457-2.443 15.147-9.898 17.145-1.206.323-2.43.483-3.645.483-2.426 0-4.819-.636-6.976-1.881-3.238-1.87-5.554-4.888-6.522-8.5-1.998-7.456 2.442-15.146 9.897-17.144h.001c7.457-1.997 15.145 2.443 17.143 9.897zm170.421-64.444-34.295 59.401c-1.296 2.246-3.649 3.501-6.068 3.501-1.188 0-2.391-.302-3.494-.939-3.348-1.933-4.495-6.214-2.562-9.562l34.295-59.401c1.933-3.349 6.214-4.495 9.562-2.562s4.495 6.214 2.562 9.562zm-44.823 15.128c-3.238-1.87-5.554-4.889-6.522-8.5-.967-3.611-.471-7.383 1.398-10.621 1.87-3.238 4.888-5.554 8.5-6.522 7.453-1.998 15.146 2.442 17.144 9.897 1.997 7.456-2.443 15.146-9.897 17.144-1.206.323-2.431.483-3.646.483-2.426 0-4.82-.636-6.977-1.881zm49.747 30.644c.968 3.612.471 7.384-1.398 10.622-1.87 3.238-4.889 5.555-8.5 6.522-1.208.324-2.424.479-3.62.479-6.179 0-11.849-4.129-13.523-10.376-1.997-7.457 2.443-15.147 9.898-17.145 7.457-1.997 15.145 2.443 17.143 9.898z"/></svg>