<svg id="Layer_5" enable-background="new 0 0 64 64" height="512" viewBox="0 0 64 64" width="512" xmlns="http://www.w3.org/2000/svg"><g><path d="m36 5.762v15.238h2v-15.238l3.232 3.878 1.536-1.28-5.768-6.922-5.768 6.922 1.536 1.28z"/><path d="m54.768 14.64-1.536-1.28-3.232 3.878v-16.238h-2v16.238l-3.232-3.878-1.536 1.28 5.768 6.922z"/><path d="m28.335 40.411-6.844-9.411h-8.982l-6.844 9.411c-.466.641-.777 1.396-.898 2.181l-1.727 11.224c.785 1.343 4.729 7.184 13.96 7.184 9.227 0 13.172-5.835 13.96-7.184l-1.727-11.225c-.121-.785-.432-1.539-.898-2.18zm-12.335 5.589h2c1.654 0 3 1.346 3 3v3h-3v2h-2v-2c-1.654 0-3-1.346-3-3h2c0 .551.449 1 1 1h3v-1c0-.551-.449-1-1-1h-2c-1.654 0-3-1.346-3-3v-3h3v-2h2v2c1.654 0 3 1.346 3 3h-2c0-.551-.449-1-1-1h-3v1c0 .551.449 1 1 1zm6.324 12.156-.647-1.893c.642-.22 1.264-.492 1.847-.809l.954 1.758c-.682.37-1.406.687-2.154.944zm6.285-4.438c-.563.734-1.226 1.419-1.972 2.037l-1.275-1.541c.517-.428.986-.893 1.398-1.386l-.719-4.676 1.977-.304.851 5.531z"/><path d="m42 39.142v-8.095c-5.702.466-10.292 4.872-10.921 10.637.026.105.047.21.068.316h7.994c.365-1.399 1.46-2.494 2.859-2.858z"/><path d="m12.58 25h8.939l3.213-4.016c.173-.216.268-.487.268-.763 0-.673-.548-1.221-1.221-1.221h-2.779v4h-2v-4.779c0-.673-.548-1.221-1.221-1.221h-7.559c-.672 0-1.22.548-1.22 1.221v.189c0 .212.056.422.161.607z"/><path d="m12 27c-.551 0-1 .449-1 1s.449 1 1 1h10c.551 0 1-.449 1-1s-.449-1-1-1z"/><circle cx="43" cy="43" r="2"/><path d="m44 31.051v8.091c1.399.364 2.494 1.459 2.858 2.858h8.091c-.483-5.819-5.13-10.466-10.949-10.949z"/><path d="m39.142 44h-7.669l.609 3.958c1.808 3.975 5.619 6.637 9.918 6.997v-8.096c-1.399-.365-2.494-1.46-2.858-2.859z"/><path d="m58.706 39.956-.125-.547c-.396-1.725-1.078-3.367-2.026-4.881l-.298-.476 1.083-2.168-3.223-3.223-2.168 1.083-.476-.298c-1.514-.949-3.156-1.63-4.881-2.026l-.547-.125-.766-2.295h-4.559l-.765 2.294-.547.125c-1.725.396-3.367 1.078-4.881 2.026l-.476.298-2.168-1.083-3.223 3.223 1.083 2.168-.298.476c-.453.723-.844 1.527-1.192 2.372l1.389 1.91c1.784-5.749 7.1-9.809 13.358-9.809 7.72 0 14 6.28 14 14s-6.28 14-14 14c-3.935 0-7.607-1.663-10.211-4.444l.247 1.606-.142.285c-.057.114-.559 1.074-1.597 2.306l.586.586 2.168-1.083.476.298c1.514.949 3.156 1.63 4.881 2.026l.547.125.766 2.295h4.559l.765-2.294.547-.125c1.725-.396 3.367-1.078 4.881-2.026l.476-.298 2.168 1.083 3.223-3.223-1.083-2.168.298-.476c.949-1.514 1.63-3.156 2.026-4.881l.125-.547 2.294-.766v-4.559z"/><path d="m44 46.858v8.091c5.819-.483 10.466-5.13 10.949-10.949h-8.091c-.364 1.399-1.459 2.494-2.858 2.858z"/></g></svg>