<svg clip-rule="evenodd" fill-rule="evenodd" stroke-linejoin="round" stroke-miterlimit="2" viewBox="0 0 32 32" xmlns="http://www.w3.org/2000/svg"><g transform="translate(-288 -144)"><g transform="matrix(.875 0 0 .875 120.844 137.5)"><path d="m197.893 32.571h-1.143c-.631 0-1.143-.512-1.143-1.142 0-.631.512-1.143 1.143-1.143h1.989l8.389-4.661-4.28-2.853c-.954-.636-1.527-1.706-1.527-2.852v-6.777c0-1.894 1.535-3.429 3.429-3.429h9.143c1.893 0 3.428 1.535 3.428 3.429v6.777c0 1.146-.572 2.216-1.526 2.852l-4.28 2.853 8.388 4.661h1.99c.631 0 1.143.512 1.143 1.143 0 .63-.512 1.142-1.143 1.142h-1.143v6.858h1.143c.631 0 1.143.512 1.143 1.142 0 .631-.512 1.143-1.143 1.143h-25.143c-.631 0-1.143-.512-1.143-1.143 0-.63.512-1.142 1.143-1.142h1.143zm20.571 6.858v-6.858h-18.285v6.858zm-14.857-2.286c-.631 0-1.143-.512-1.143-1.143s.512-1.143 1.143-1.143h2.286c.631 0 1.143.512 1.143 1.143s-.512 1.143-1.143 1.143zm9.143 0c-.631 0-1.143-.512-1.143-1.143s.512-1.143 1.143-1.143h2.286c.63 0 1.143.512 1.143 1.143s-.513 1.143-1.143 1.143zm1.143-25.143h-9.143c-.631 0-1.143.512-1.143 1.143v6.777c0 .382.191.738.509.951l4.571 3.047c.384.256.884.256 1.268 0l4.572-3.048c.318-.212.509-.568.509-.95v-6.777c0-.631-.512-1.143-1.143-1.143zm-8.253 5.935c-.437-.455-.423-1.179.032-1.616s1.179-.423 1.616.032l.953.99 2.533-2.695c.432-.46 1.156-.482 1.616-.05.459.432.482 1.156.05 1.615l-3.357 3.572c-.215.228-.513.358-.827.36-.313.002-.613-.125-.83-.351zm9.557 12.351-5.876-3.264-5.875 3.264z"/></g></g></svg>