<svg id="Layer_1" enable-background="new 0 0 512 512" viewBox="0 0 512 512" xmlns="http://www.w3.org/2000/svg"><path clip-rule="evenodd" d="m479.502 145.086 23.498 31.412v324.552c-74.181-21.836-153.077-46.144-225.88-3.786-13.144 7.647-29.095 7.647-42.239 0-72.804-42.358-151.7-18.05-225.881 3.786v-324.552l23.498-31.411v313.858h.019c.002 5.29 5.097 9.166 10.231 7.656 70.739-20.804 143.234-24.996 203.973 10.345 5.86 3.41 12.699 3.41 18.56 0 26.663-15.513 56.865-24.16 90.605-25.941 33.983-1.794 71.589 3.352 112.814 15.434 5.797 1.932 10.803-2.259 10.803-7.495v-313.858zm-223.502-136.086c-64.462 0-116.719 52.257-116.719 116.718 0 42.664 22.888 79.982 57.055 100.34 7.366 4.389 11.555 11.756 11.555 20.333v2.53h96.215v-2.53c0-8.575 4.189-15.944 11.555-20.333 34.167-20.358 57.056-57.676 57.056-100.34.002-64.46-52.254-116.718-116.717-116.718zm0 56.636c-33.182 0-60.081 26.899-60.081 60.081s26.899 60.082 60.081 60.082 60.081-26.899 60.081-60.082-26.899-60.081-60.081-60.081zm-8 24.371v3.782c-3.002 1.026-5.694 2.729-7.89 4.926-12.959 12.959-3.607 35.003 14.492 35.003 2.395 0 4.311-.334 5.976 1.331 2.899 2.899.722 7.69-3.179 7.69-3.37 0-5.83.566-7.613-1.896-2.589-3.573-7.584-4.37-11.156-1.781-3.573 2.589-4.37 7.584-1.781 11.156 2.696 3.725 6.673 6.492 11.152 7.76v3.45c0 4.418 3.582 8 8 8s8-3.582 8-8v-3.782c3.002-1.026 5.694-2.729 7.89-4.926 12.959-12.959 3.607-35.002-14.492-35.002-2.395 0-4.311.334-5.976-1.331-2.898-2.898-.722-7.691 3.179-7.691 3.372 0 5.83-.566 7.613 1.897 2.589 3.573 7.583 4.37 11.156 1.781s4.37-7.583 1.781-11.156c-2.696-3.725-6.672-6.493-11.152-7.76v-3.45c0-4.418-3.582-8-8-8-4.418-.001-8 3.581-8 7.999zm8-50.368c-47.54 0-86.079 38.539-86.079 86.079s38.539 86.078 86.079 86.078 86.079-38.539 86.079-86.079-38.539-86.078-86.079-86.078zm48.108 225.281h-96.215v9.929c0 8.838 7.207 16.045 16.045 16.045h64.126c8.838 0 16.045-7.207 16.045-16.045v-9.929zm-16.459 41.974h-63.298c2.074 10.947 11.729 19.27 23.256 19.27h16.786c11.527 0 21.181-8.329 23.256-19.27zm-160.404-148.931c-17.015 1.023-34.789 3.846-53.375 8.376-4.28 1.035-8.59-1.595-9.625-5.875s1.595-8.59 5.875-9.625c18.787-4.579 36.831-7.5 54.183-8.677-.965-7.761-1.246-15.526-.842-23.372-23.536 1.587-48.523 6.024-74.963 13.32v316.279c69.035-18.711 139.12-21.099 199.503 11.003v-117.23c-5.641 0-10.629-.967-15.571-3.024-.55 5.1-5.822 8.444-10.708 6.62-47.504-17.732-98.073-16.761-148.039-5.961-4.315.932-8.568-1.81-9.5-6.125s1.811-8.568 6.125-9.5c48.931-10.577 98.943-12.04 146.222 2.938-5.354-6.742-8.566-15.259-8.591-24.507-3.143-1.819-5.951-4.157-8.304-6.895-15.799-4.23-32.083-6.551-48.788-7.159-24.802-.903-50.586 1.932-77.132 7.868-4.297.949-8.551-1.765-9.5-6.062s1.765-8.551 6.062-9.5c40.982-9.107 81.899-11.716 121.724-3.384-.07-.865-.108-1.74-.108-2.623v-24.364c-38.267-9.153-78.134-6.601-118.116 2.585-4.297.984-8.579-1.702-9.562-6-.984-4.297 1.702-8.579 6-9.562 35.701-8.202 70.881-11.204 105.13-6.377-11.114-8.505-20.702-18.623-28.515-29.919-23.028-.527-47.347 2.423-72.99 8.508-4.297 1.018-8.606-1.64-9.625-5.937-1.018-4.297 1.64-8.607 5.937-9.625 23.313-5.532 45.701-8.586 67.203-8.93-4.34-8.649-7.741-17.788-10.11-27.264zm260.452-15.8c17.353 1.176 35.396 4.098 54.183 8.677 4.28 1.035 6.91 5.345 5.875 9.625s-5.345 6.91-9.625 5.875c-18.586-4.53-36.36-7.353-53.375-8.376-2.369 9.476-5.77 18.614-10.109 27.264 21.502.344 43.891 3.398 67.203 8.93 4.297 1.018 6.956 5.327 5.937 9.625-1.018 4.297-5.327 6.956-9.625 5.937-25.643-6.085-49.962-9.035-72.99-8.508-7.813 11.297-17.402 21.415-28.516 29.92 34.251-4.828 69.428-1.827 105.131 6.376 4.297.984 6.983 5.265 6 9.562-.984 4.297-5.265 6.983-9.562 6-39.983-9.186-79.849-11.737-118.116-2.585v24.364c0 .883-.038 1.758-.108 2.623 39.825-8.332 80.743-5.723 121.724 3.384 4.297.949 7.011 5.203 6.062 9.5s-5.202 7.012-9.5 6.062c-26.546-5.936-52.33-8.772-77.132-7.868-16.704.608-32.988 2.929-48.788 7.159-2.354 2.739-5.161 5.076-8.305 6.896-.026 9.247-3.239 17.764-8.595 24.507 47.279-14.979 97.294-13.515 146.225-2.939 4.315.932 7.057 5.185 6.125 9.5s-5.185 7.057-9.5 6.125c-49.966-10.8-100.534-11.771-148.039 5.961-4.884 1.823-10.161-1.521-10.708-6.621-4.943 2.057-9.93 3.025-15.571 3.025v117.23c60.383-32.102 130.467-29.714 199.502-11.003v-316.279c-26.44-7.296-51.426-11.733-74.963-13.32.406 7.848.125 15.609-.84 23.372zm-97.543 246.437c47.745-16.859 98.623-15.788 148.226-5.451 4.315.897 8.54-1.873 9.438-6.188.897-4.315-1.873-8.54-6.188-9.438-52.386-10.917-106.278-11.811-156.789 6.014-4.159 1.467-6.342 6.028-4.875 10.187 1.467 4.161 6.029 6.343 10.188 4.876zm-.157 42.809c23.686-7.881 48.267-11.61 73.13-12.129 25.027-.522 50.337 2.202 75.315 7.219 4.315.863 8.512-1.935 9.375-6.25s-1.936-8.512-6.25-9.375c-52.037-10.429-105.829-11.417-156.57 5.41-4.177 1.38-6.443 5.886-5.063 10.062 1.381 4.177 5.887 6.443 10.063 5.063zm-62.838-57.871c-50.489-17.828-104.423-16.926-156.789-6.014-4.315.897-7.085 5.123-6.188 9.438s5.123 7.085 9.438 6.188c49.623-10.341 100.46-11.405 148.226 5.451 4.159 1.467 8.721-.715 10.188-4.875s-.716-8.721-4.875-10.188zm-.157 42.746c-25.282-8.412-51.432-12.39-77.818-12.942-26.223-.548-52.683 2.295-78.752 7.531-4.315.863-7.113 5.06-6.25 9.375s5.06 7.113 9.375 6.25c49.334-9.888 100.425-11.014 148.445 4.91 4.177 1.38 8.682-.886 10.062-5.063 1.382-4.175-.885-8.681-5.062-10.061z" fill-rule="evenodd"/></svg>