<svg id="Layer_1" enable-background="new 0 0 512 512" viewBox="0 0 512 512" xmlns="http://www.w3.org/2000/svg"><path clip-rule="evenodd" d="m464.71 137.85c-2.64-9.48-7.7-18.24-14.63-25.31-1.5-1.54-2.07-3.75-1.49-5.82l4.78-17.07-12.44-7.18-12.37 12.66c-1.5 1.54-3.7 2.15-5.78 1.62-2.83-.72-5.71-1.23-8.63-1.52v20.73c18.19 2.89 32.15 18.68 32.15 37.67s-13.95 34.78-32.15 37.67v20.73c2.92-.3 5.8-.8 8.63-1.53 2.08-.53 4.28.09 5.78 1.62l12.37 12.66 12.44-7.18-4.78-17.07c-.58-2.07-.01-4.29 1.49-5.82 6.93-7.08 11.99-15.83 14.63-25.32.57-2.07 2.21-3.67 4.29-4.2l17.15-4.39v-14.36l-17.15-4.38c-2.08-.54-3.72-2.14-4.29-4.21zm-381.46 156.97c15.32 0 27.78-12.46 27.78-27.78s-12.46-27.78-27.78-27.78-27.78 12.46-27.78 27.78 12.46 27.78 27.78 27.78zm17.66 130.55c1.4-9.03 9.35-15.58 18.9-15.58h12.51c-12.92-3.41-22.47-15.2-22.47-29.17 0-15.84 12.28-28.86 27.82-30.07-3.11-15.13-16.58-26.59-32.57-26.59h-43.7c-18.34 0-33.25 14.92-33.25 33.25v72.64h32.6c3.31 0 6 2.69 6 6v46.65h25.28zm59.33-3.58c3.59 0 6.55 2.28 7.04 5.42l8.6 55.29h-71.7l8.6-55.29c.49-3.14 3.45-5.42 7.04-5.42zm-2.05-41.17c0 10.02-8.15 18.17-18.17 18.17s-18.17-8.15-18.17-18.17 8.15-18.17 18.17-18.17 18.17 8.15 18.17 18.17zm61.16-94.6h-41.39c-19.44 0-35.25 15.82-35.25 35.26v10.86c3.93 5.87 6.54 12.69 7.37 20.04 11.71 4.15 20.12 15.33 20.12 28.44 0 13.97-9.55 25.76-22.47 29.17h12.51c9.55 0 17.5 6.55 18.9 15.58l8.89 57.13h27.99v-50.37c0-3.31 2.69-6 6-6h3.95c15.8 0 28.65-12.85 28.65-28.64v-76.21c-.01-19.44-15.83-35.26-35.27-35.26zm9.12-58.84c0-16.44-13.38-29.82-29.82-29.82s-29.81 13.37-29.81 29.82c0 16.44 13.37 29.81 29.81 29.81s29.82-13.37 29.82-29.81zm105.56-205.86 11.84 22.21c1.08 2.02 3.15 3.18 5.3 3.18.95 0 1.92-.23 2.82-.71 2.93-1.56 4.03-5.19 2.47-8.12l-11.84-22.2c-1.56-2.92-5.19-4.03-8.12-2.47-2.92 1.55-4.03 5.19-2.47 8.11zm-59.31 65.99 22.48 11.29c.86.44 1.78.64 2.69.64 2.2 0 4.31-1.21 5.37-3.31 1.49-2.96.29-6.57-2.67-8.06l-22.49-11.29c-2.96-1.49-6.57-.29-8.06 2.67-1.48 2.96-.29 6.57 2.68 8.06zm-10.31 88.13 24.88-3.77c3.28-.49 5.53-3.55 5.03-6.83s-3.55-5.53-6.83-5.04l-24.88 3.77c-3.28.5-5.53 3.56-5.03 6.83.45 2.97 3.01 5.1 5.92 5.1.3.01.6-.02.91-.06zm42.48 77.9 18.13-17.45c2.39-2.3 2.46-6.09.16-8.48s-6.1-2.46-8.49-.16l-18.13 17.45c-2.39 2.3-2.46 6.1-.16 8.48 1.18 1.23 2.75 1.84 4.32 1.84 1.5-.01 3-.57 4.17-1.68zm116.82 52.19h-31.14c2.83 5.78 8.78 9.75 15.57 9.75 6.78 0 12.74-3.97 15.57-9.75zm11.29-26.34h-53.72c-3.95 0-7.17 3.21-7.17 7.17 0 3.95 3.22 7.17 7.17 7.17h53.72c3.95 0 7.17-3.21 7.17-7.17-.01-3.95-3.22-7.17-7.17-7.17zm0-26.32h-53.72c-3.95 0-7.17 3.21-7.17 7.16s3.22 7.17 7.17 7.17h53.72c3.95 0 7.17-3.21 7.17-7.17-.01-3.95-3.22-7.16-7.17-7.16zm-65.01-99.25c0 18.99 13.95 34.78 32.15 37.67v49.57h-20.86c-2.38 0-4.65.45-6.75 1.25-.88-1.55-1.37-3.31-1.37-5.13v-7.71c0-2.26-1.27-4.33-3.29-5.35-28.67-14.54-46.48-43.52-46.48-75.64 0-44.71 34.81-81.45 78.75-84.54v52.2c-18.19 2.9-32.15 18.69-32.15 37.68z" fill-rule="evenodd"/></svg>