<svg id="Layer_1" height="512" viewBox="0 0 64 64" width="512" xmlns="http://www.w3.org/2000/svg"><g><g style="fill:none;stroke:#000;stroke-linecap:round;stroke-linejoin:round;stroke-miterlimit:10;stroke-width:1.5"><g><path d="m43.4 62.2.9-4.6c.1-.5.4-.9.9-1.2l11.1-5.5c1.3-.6 2.2-1.8 2.5-3.1l3.4-16.5c.3-1.3-.6-2.5-2-2.7-1.1-.1-2.2.6-2.6 1.6l-3.9 11.1"/><path d="m46 49.2 8.8-3.1c1.4-.5 2.2-2 1.7-3.3-.5-1.3-2-1.9-3.3-1.4l-12.2 4.6c-2.4.9-4.3 2.9-4.8 5.3l-2 9.5"/></g><g><path d="m20.6 62.2-.9-4.6c-.1-.5-.4-.9-.9-1.2l-11.1-5.5c-1.3-.6-2.2-1.8-2.5-3.1l-3.4-16.5c-.3-1.3.6-2.5 2-2.7 1.1-.1 2.2.6 2.6 1.6l3.9 11.1"/><path d="m18 49.2-8.8-3.1c-1.4-.5-2.2-2-1.7-3.3.5-1.3 2-1.9 3.3-1.4l12.2 4.6c2.4.9 4.3 2.9 4.8 5.3l2 9.5"/></g></g><g style="fill:none;stroke:#000;stroke-linecap:round;stroke-linejoin:round;stroke-miterlimit:10;stroke-width:1.5"><g><circle cx="22" cy="24.8" r="3.3"/><path d="m27.3 38.8c1 0 1.9-.7 2.2-1.7.1-.5.2-1.1.2-1.6 0-4.3-3.4-4.5-7.7-4.5-4.3 0-7.7.2-7.7 4.5 0 .6.1 1.1.2 1.6.2 1 1.1 1.7 2.2 1.7z"/></g><g><circle cx="42" cy="24.8" r="3.3"/><path d="m47.4 38.8c1 0 1.9-.7 2.2-1.7.1-.5.2-1.1.2-1.6 0-4.3-3.4-4.5-7.7-4.5-4.3 0-7.7.2-7.7 4.5 0 .6.1 1.1.2 1.6.2 1 1.1 1.7 2.2 1.7z"/></g></g><g><g style="fill:none;stroke:#000;stroke-linecap:round;stroke-linejoin:round;stroke-miterlimit:10;stroke-width:1.5"><circle cx="32" cy="5" r="3.3"/><path d="m37.4 19c1 0 1.9-.7 2.2-1.7.1-.5.2-1.1.2-1.6 0-4.3-3.4-4.5-7.7-4.5-4.3 0-7.7.2-7.7 4.5 0 .6.1 1.1.2 1.6.2 1 1.1 1.7 2.2 1.7z"/></g></g></g></svg>