<svg id="Layer_1" enable-background="new 0 0 512 512" viewBox="0 0 512 512" xmlns="http://www.w3.org/2000/svg"><path d="m332.91 210.78h26.99l12.64-39.91h-78.66v118.66c0 12.64-10.32 22.99-22.99 22.99h-38.69c-12.64 0-22.96-10.35-22.96-22.99v-118.66h-78.66l12.61 39.91h27.01c4.62 0 8.5 4.56 6.35 9.92l-14.74 42.58c-.99 2.89-3.71 4.71-6.6 4.71v.03h-100.78c-3.29 0-6.04-2.27-6.8-5.33l-14.74-42.63c-1.59-4.56 1.87-9.24 6.58-9.24v-.03h26.99l12.98-41.05c-18.31-21.54-2.95-54.88 25.4-54.88 9.58 0 18.26 4.05 24.38 10.6h80.02v-22.34c.03-1.53.37-2.01.79-3.12l30.36-66.93c4.37-9.61 17.97-9.61 22.31 0l30.36 66.93c.54.99.82 2.1.82 3.29v22.17h80.02c12.87-13.8 34.58-14.17 47.93-.85 12.27 12.27 13.07 31.92 1.84 45.13l12.98 41.05h26.99c4.62 0 8.5 4.56 6.35 9.92l-14.74 42.58c-.99 2.89-3.71 4.71-6.6 4.71v.03h-100.74c-3.32 0-6.07-2.27-6.8-5.33l-14.77-42.63c-1.59-4.56 1.87-9.24 6.58-9.24v-.05zm41.67 0h47.4l-10.18-32.15c-8.59 3.8-18.45 3.8-27.04 0zm79.26 14.01h-111.12l10.12 29.23h90.88zm-372.7-14.01h47.4l-10.18-32.15c-8.59 3.8-18.48 3.8-27.04 0zm79.25 14.01h-111.11l10.12 29.23h90.85zm84.16-87.62c0-3.85 3.12-7 7-7 3.85 0 7 3.15 7 7v134.48c0 3.86-3.15 6.97-7 6.97-3.88 0-7-3.12-7-6.97zm49.33 2.29v17.43h72.23c-1.53-5.7-1.53-11.74 0-17.43zm-84.64 17.44v-17.43h-72.26c1.56 5.7 1.56 11.74 0 17.43zm14-46.61v179.23c0 4.93 4.05 8.99 8.96 8.99h38.69c4.93 0 8.99-4.05 8.99-8.99v-179.23zm195.82 246.53v18.68c11.68-1.64 19.19-1.73 30.47-2.21v-51.36c-34.13-3.17-69.08.85-101.71 11.31-33.31 10.66-64.18 27.98-89.26 51.08v27.84c41.87-34.21 106.27-69.76 162.74-69.28 3.86.03 6.94 3.17 6.92 7.03-.03 3.86-3.17 6.94-7.03 6.92-.72-.01-1.43-.01-2.13-.01zm0 32.8v25.43c16.64-3.03 33.79-4.14 50.48-3v-23.36c-16.84-1.96-33.73-1.62-50.48.93zm0 39.63v26.14c0 6.46-8.33 9.86-12.76 4l-17.72-21.69c-26.33 9.64-51.76 25.6-68.26 48.05-1.36 1.84-3.49 2.83-5.64 2.83v.03h-126.28c-2.47 0-4.62-1.28-5.87-3.23-15.56-20.92-39.06-36.62-65.37-46.69-28.94-11.06-61.14-15.25-89.86-12.05-4.11.45-7.74-2.83-7.74-6.94h-.03v-37.13c0-3.63 2.81-6.63 6.35-6.97 4.56-.65 9.13-1.16 13.66-1.53v-58.39c0-3.71 2.86-6.72 6.49-7 37.96-4.48 77.1-.37 113.53 11.28 34.1 10.91 65.85 28.49 91.98 51.87 26.14-23.39 57.88-40.96 91.98-51.87 36.43-11.65 75.57-15.76 113.5-11.28 3.63.28 6.49 3.29 6.49 7v58.39c4.71.37 9.38.88 14.03 1.59 3.49.51 5.98 3.51 5.98 6.92v37.13c0 4.22-3.63 7.54-8.19 6.89-17.35-2.17-38.76-.75-56.27 2.65zm-39.8-2.95-9.07-11.11-21.63 26.48c9.58-6.01 19.93-11.12 30.7-15.37zm-55.42 34.44c-1.64-1.39-2.49-3.37-2.49-5.36v-23.47c-6.49 4.99-17.18 14.09-22.28 19.56-1.47 1.59-3.12 2.44-5.33 2.47h-84.39c-2.13 0-4.03-.96-5.3-2.44-23.53-23.58-52.02-41.73-82.89-52.58-27.92-9.84-57.77-13.69-87.62-10.23v23.36c55.9-3.77 122.94 17.4 158.31 62.56h119.4c3.83-4.91 8.05-9.53 12.59-13.87zm-2.49-46.12v-27.89c-23.64 12.87-45.47 28.43-62.79 43.71v9.5h32.31c4.88-4.79 9.89-9.33 15.02-13.58 4.91-4.06 10.07-8 15.46-11.74zm83.7 21.18v-78.07c-23.53 2.69-47.99 11.28-69.73 21.8v56.27c3.43-4.17 29.11-35.94 30.47-37.05 2.98-2.44 7.37-1.98 9.81 1.02zm-347.58-62.34c23.36.28 46.4 4.56 68.34 12.27 32.06 11.28 61.74 29.96 86.4 54.2h32.34v-9.5c-40-35.32-106.78-74.1-162.62-73.62-3.85.03-7-3.06-7.03-6.92-.03-3.85 3.06-7 6.92-7.03 55.98-.48 120.33 34.61 162.74 69.28v-27.84c-25.09-23.1-55.96-40.42-89.26-51.08-32.63-10.46-67.58-14.49-101.74-11.31v51.36c1.41.08 2.72.14 3.91.19zm218.55-277.17-24.46-53.97-24.49 53.97zm-157.52 38.24c-12.13-12.13-33-3.51-33 13.63 0 17.18 20.86 25.8 33 13.66 7.54-7.53 7.54-19.75 0-27.29zm293.44 0c-12.22-12.22-32.97-3.4-32.97 13.63 0 17.06 20.75 25.88 32.97 13.66 7.54-7.53 7.54-19.75 0-27.29z"/></svg>