<svg id="Layer_1" viewBox="0 0 512 512" xmlns="http://www.w3.org/2000/svg" data-name="Layer 1"><g fill-rule="evenodd"><path d="m163.64 317.538c-16.065 0-29.083 13.018-29.083 29.083s13.019 29.082 29.083 29.082 29.083-13.017 29.083-29.082-13.019-29.083-29.083-29.083z"/><path d="m348.361 317.538c-16.064 0-29.083 13.018-29.083 29.083s13.02 29.082 29.083 29.082 29.083-13.017 29.083-29.082-13.018-29.083-29.083-29.083z"/><path d="m256.001 384.686c-9.078 0-16.434 7.356-16.434 16.434s7.329 16.436 16.434 16.436 16.434-7.338 16.434-16.436-7.331-16.434-16.434-16.434z"/><path d="m244.461 429.746c-13.997 4.459-23.6 17.549-23.6 32.252v33.803h70.278v-33.803c0-14.702-9.604-27.796-23.601-32.252-3.565 1.439-7.459 2.231-11.538 2.231s-7.974-.792-11.539-2.231z"/><path d="m394.212 405.646c-7.157-9.072-17.048-15.893-28.381-19.175-5.347 2.348-11.257 3.652-17.47 3.652s-12.123-1.304-17.469-3.652c-19.577 5.677-34.851 21.947-39.105 41.901 8.786 9 13.774 21.012 13.774 33.627v33.803h100.592v-55.741c0-12.502-4.225-24.631-11.94-34.414z"/><path d="m105.849 440.06v55.741h100.592v-33.803c0-12.607 4.982-24.611 13.757-33.611-4.236-20.05-19.416-36.232-39.085-41.918-5.348 2.349-11.258 3.654-17.472 3.654s-12.123-1.304-17.47-3.652c-23.771 6.884-40.321 28.814-40.321 53.589z"/><path d="m132.629 246.046c.378 21.668 2.484 43.319 6.526 64.614 6.976-4.759 15.406-7.544 24.486-7.544 21.302 0 39.498 15.459 42.931 36.431 13.898-2.949 28.048-4.634 42.249-5.057v-88.444h-116.19z"/><path d="m151.939 119.304c-11.6 32.684-18.574 71.077-19.305 112.32h116.186v-88.445c-33.64-1.002-66.655-9.109-96.88-23.876z"/><path d="m248.818 16.199c-44.792 4.743-75.685 51.029-91.699 89.624 28.588 14.167 59.79 21.922 91.7 22.929v-112.553z"/><path d="m354.882 105.823c-16.015-38.596-46.907-84.884-91.701-89.624v112.553c31.896-1.005 63.127-8.762 91.701-22.929z"/><path d="m379.368 231.625c-.731-41.243-7.706-79.637-19.305-112.32-30.225 14.767-63.24 22.874-96.88 23.876v88.445h116.186z"/><path d="m372.847 310.66c4.043-21.296 6.148-42.946 6.526-64.614h-116.19v88.444c14.201.424 28.35 2.109 42.248 5.057 3.433-20.972 21.629-36.431 42.931-36.431 9.08 0 17.51 2.784 24.486 7.544z"/><path d="m393.792 246.046c-.45 25.85-3.293 51.808-8.817 77.072 4.36 6.779 6.89 14.845 6.89 23.503 0 11.572-4.522 22.091-11.893 29.883 10.005 4.685 18.737 11.663 25.505 20.242 1.163 1.473 2.268 2.994 3.311 4.558 43.15-40.586 68.244-96.038 70.117-155.259h-85.114z"/><path d="m372.905 112.536c12.572 34.65 20.134 75.403 20.886 119.088h85.11c-1.847-58.135-25.942-110.657-64.05-149.326-12.796 11.528-26.855 21.684-41.946 30.238z"/><path d="m314.598 23.597c23.886 19.191 41.201 47.343 53.009 75.397 13.176-7.631 25.5-16.57 36.793-26.643-25.393-22.65-56.003-39.576-89.802-48.754z"/><path d="m144.394 98.995c11.813-28.058 29.115-56.2 53.008-75.396-33.799 9.179-64.408 26.104-89.8 48.752 11.295 10.072 23.618 19.013 36.793 26.643z"/><path d="m118.21 231.625c.752-43.685 8.314-84.438 20.886-119.088-15.09-8.554-29.151-18.709-41.946-30.238-38.11 38.668-62.205 91.191-64.051 149.326z"/><path d="m127.027 323.118c-5.524-25.268-8.365-51.218-8.817-77.072h-85.116c1.872 59.217 26.969 114.677 70.119 155.259 7.15-10.716 17.141-19.333 28.816-24.801-7.371-7.792-11.893-18.311-11.893-29.883 0-8.657 2.529-16.724 6.89-23.503z"/><path d="m195.257 376.496c12.322 5.756 22.738 14.99 29.945 26.506-.018-.311-.033-.624-.042-.938-.01-.314-.015-.628-.015-.944 0-17.036 13.819-30.855 30.855-30.855s30.855 13.847 30.855 30.855c0 .651-.021 1.298-.061 1.939 7.222-11.506 17.648-20.777 29.959-26.552-5.701-6.026-9.698-13.681-11.218-22.195-32.441-7.347-66.632-7.348-99.072 0-1.518 8.507-5.511 16.16-11.207 22.184z"/></g></svg>