<svg clip-rule="evenodd" fill-rule="evenodd" stroke-linejoin="round" stroke-miterlimit="2" viewBox="0 0 128 128" xmlns="http://www.w3.org/2000/svg" xmlns:serif="http://www.serif.com/"><g id="Icon"><path d="m58.723 85h-6.723c-5.523 0-10 4.477-10 10v9.01c-10.106-2.946-18.894-9-25.257-17.056l39.257-30.424 13.215 10.242c-1.268 1.147-2.45 2.388-3.535 3.713-1.116-4.304-5.03-7.485-9.68-7.485-5.519 0-10 4.481-10 10s4.481 10 10 10c1.183 0 2.318-.206 3.372-.584-.249.848-.466 1.71-.649 2.584zm13.706-20.798-6.429-4.982v-5.22c0-3.314 2.686-6 6-6h8c3.314 0 6 2.686 6 6v4.529c-4.983.888-9.592 2.864-13.571 5.673zm17.571-6.144v-4.058c0-5.523-4.477-10-10-10h-8c-5.523 0-10 4.477-10 10v2.12l-4-3.1v-46.981c26.67 1.052 48 23.035 48 49.961 0 1.655-.081 3.291-.238 4.905-4.208-1.867-8.865-2.905-13.762-2.905-.671 0-1.338.02-2 .058zm-14-36.058c-5.519 0-10 4.481-10 10s4.481 10 10 10 10-4.481 10-10-4.481-10-10-10zm0 4c3.311 0 6 2.689 6 6s-2.689 6-6 6-6-2.689-6-6 2.689-6 6-6zm-15.095 79.762c-1.614.157-3.25.238-4.905.238-3.424 0-6.769-.345-10-1.002v-9.998c0-3.314 2.686-6 6-6h6.131c-.087.989-.131 1.989-.131 3 0 4.897 1.038 9.554 2.905 13.762zm-4.905-38.762c3.311 0 6 2.689 6 6s-2.689 6-6 6-6-2.689-6-6 2.689-6 6-6zm-41.61 16.718c-5.299-7.936-8.39-17.469-8.39-27.718 0-26.926 21.33-48.909 48-49.961v46.981l-4 3.1v-2.12c0-5.523-4.477-10-10-10h-8c-5.523 0-10 4.477-10 10v23.82zm21.61-61.718c-5.519 0-10 4.481-10 10s4.481 10 10 10 10-4.481 10-10-4.481-10-10-10zm0 4c3.311 0 6 2.689 6 6s-2.689 6-6 6-6-2.689-6-6 2.689-6 6-6zm-10 48.72v-20.72c0-3.314 2.686-6 6-6h8c3.314 0 6 2.686 6 6v5.22zm66-12.72c16.557 0 30 13.443 30 30s-13.443 30-30 30-30-13.443-30-30 13.443-30 30-30zm12.316 23.341-3.006 3.005c.446 1.132.69 2.365.69 3.654 0 5.519-4.481 10-10 10s-10-4.481-10-10 4.481-10 10-10c1.289 0 2.522.244 3.654.69l3.005-3.006c-1.981-1.074-4.249-1.684-6.659-1.684-7.727 0-14 6.273-14 14s6.273 14 14 14 14-6.273 14-14c0-2.41-.61-4.678-1.684-6.659zm5.681-2.069h-3.612l-.602.602c1.408 2.382 2.217 5.16 2.217 8.126 0 8.831-7.169 16-16 16s-16-7.169-16-16 7.169-16 16-16c2.966 0 5.744.809 8.126 2.217l.602-.602v-3.612c-2.638-1.283-5.6-2.003-8.728-2.003-11.038 0-20 8.962-20 20s8.962 20 20 20 20-8.962 20-20c0-3.128-.72-6.09-2.003-8.728zm-11.839 5.399 7.398-7.399h4.829c1.104 0 2-.896 2-2s-.896-2-2-2h-3.657v-3.657c0-1.104-.896-2-2-2s-2 .896-2 2v4.829l-7.399 7.398c-.99-.537-2.124-.842-3.329-.842-3.863 0-7 3.137-7 7s3.137 7 7 7 7-3.137 7-7c0-1.205-.305-2.339-.842-3.329zm-5.991.334-.581.581c-.781.78-.781 2.048 0 2.828.78.781 2.048.781 2.828 0l.581-.581c.003.055.005.111.005.167 0 1.656-1.344 3-3 3s-3-1.344-3-3 1.344-3 3-3c.056 0 .112.002.167.005z"/></g></svg>