<svg id="Layer_1" enable-background="new 0 0 500 500" viewBox="0 0 500 500" xmlns="http://www.w3.org/2000/svg"><path clip-rule="evenodd" d="m330.394 334.212c-.109 4.05 3.641 8.34 9.781 11.203 5.216 2.159 9.672 2.458 14.78 2.795 5.597.369 11.846.79 19.181 3.826.054.025.109.053.163.068 10.922 4.875 17.388 13.353 17.334 22.667-.054 9.208-6.575 17.514-17.389 22.209-4.293 1.813-8.857 2.906-13.476 3.447v19.097c0 3.56-2.88 6.449-6.412 6.449-3.586 0-6.466-2.889-6.466-6.449v-18.942c-9.944-.834-19.507-3.672-27.061-7.111-3.26-1.471-4.673-5.296-3.206-8.537 1.467-3.243 5.271-4.678 8.531-3.207 7.499 3.422 17.986 6.319 28.202 6.217 5.162-.053 10.216-.887 14.834-2.813 5.923-2.581 9.509-6.493 9.564-10.431 0-4.033-3.587-8.057-9.618-10.782-5.325-2.193-9.835-2.494-14.997-2.836-5.543-.372-11.791-.783-19.018-3.818-.109-.034-.163-.06-.217-.093-11.085-5.126-17.606-13.802-17.388-23.217.163-9.191 6.575-17.077 17.551-21.651 4.021-1.728 8.368-2.802 12.824-3.352v-19.124c0-3.557 2.88-6.448 6.466-6.448 3.532 0 6.412 2.891 6.412 6.448v18.899c9.89.775 19.562 3.534 27.169 7.162 3.26 1.522 4.619 5.375 3.097 8.59-1.521 3.216-5.379 4.591-8.585 3.06-11.9-5.639-30.212-8.607-42.275-3.379-.054.019-.054.025-.109.042-6.086 2.514-9.618 6.167-9.672 10.011zm23.963 115.698c52.491 0 95.201-42.725 95.201-95.235 0-52.511-42.71-95.234-95.201-95.234-52.545 0-95.255 42.724-95.255 95.234s42.71 95.235 95.255 95.235zm-303.969-38.091v-177.038c0-37.875 30.81-68.691 68.684-68.691s68.738 30.816 68.738 68.691v57.17h-5.108c-12.009 0-21.79 9.776-21.79 21.797v14.153c0 2.568.489 5.028 1.359 7.289h-27.55c-12.009 0-21.79 9.777-21.79 21.807v12.536c0 12.018 9.781 21.795 21.79 21.795h27.876c-1.087 2.545-1.685 5.349-1.685 8.289v13.775c0 2.94.598 5.744 1.685 8.289h-102.32c-5.434.001-9.889-4.427-9.889-9.862zm32.222-295.118c0-20.12 16.356-36.492 36.461-36.492 20.159 0 36.515 16.372 36.515 36.492s-16.356 36.492-36.515 36.492c-20.105 0-36.461-16.372-36.461-36.492zm165.352 218.49c1.956-10.747 5.542-20.953 10.433-30.343h-75.694c-4.89 0-8.911 3.99-8.911 8.9v14.153c0 4.023 3.315 7.289 7.336 7.289h66.836zm-1.575 12.899h-111.666c-4.89 0-8.912 3.999-8.912 8.908v12.536c0 4.91 4.021 8.898 8.912 8.898h114.111c-1.739-7.644-2.608-15.597-2.608-23.756 0-2.21.054-4.403.163-6.586zm-64.283 73.592c-4.565-.009-8.314-3.723-8.314-8.289v-13.775c0-4.566 3.749-8.289 8.314-8.289h70.531c3.967 11.067 9.727 21.29 16.899 30.353h-75.313zm56.458-216.961c14.237 0 28.31 5.891 39.069 16.251-.761 4.49-1.141 9.097-1.141 13.81v44.953c-3.695 3.816-7.118 7.892-10.161 12.218h-65.641v-57.17c0-4.712-.435-9.32-1.195-13.81 10.813-10.362 24.886-16.252 39.069-16.252zm-24.398-37.307c0-13.457 10.976-24.41 24.398-24.41 13.476 0 24.452 10.952 24.452 24.41 0 13.455-10.976 24.41-24.452 24.41-13.422 0-24.398-10.954-24.398-24.41zm143.888-1.325c37.874 0 68.684 30.816 68.684 68.691v39.665c-19.182-17.335-44.558-27.901-72.379-27.901-24.398 0-46.894 8.106-64.989 21.752v-33.516c0-37.875 30.81-68.691 68.684-68.691zm-36.461-49.388c0-20.12 16.356-36.492 36.461-36.492s36.515 16.372 36.515 36.492-16.41 36.492-36.515 36.492-36.461-16.372-36.461-36.492zm79.388-66.611c-10.324 0-20.051 7.308-27.006 19.872 2.826.97 5.543 2.184 8.096 3.619 6.032-4.109 12.498-6.268 18.91-6.268 11.357 0 22.55 7.043 31.462 19.819 1.195 1.694 2.337 3.474 3.423 5.332-4.672-24.231-18.746-42.374-34.885-42.374zm38.635 238.214v-53.523c0-35.443-22.714-65.673-54.338-76.91 13.367-8.857 22.17-23.998 22.17-41.169 0-13.5-5.434-25.743-14.237-34.66 2.554-1.204 5.162-1.832 7.77-1.832 14.671 0 30.212 22.58 34.668 50.327.489 3.078 3.097 5.364 6.195 5.425h.163c3.043 0 5.705-2.159 6.303-5.169 1.359-6.775 2.065-13.824 2.065-20.969 0-18.908-4.836-36.776-13.639-50.31-9.292-14.393-22.007-22.321-35.755-22.321-16.193 0-30.973 11.195-40.21 30.205-.869-.05-1.793-.085-2.717-.085-27.224 0-49.394 22.158-49.394 49.389 0 17.172 8.803 32.321 22.17 41.169-22.985 8.149-41.243 26.31-49.502 49.198-5.869-4.617-12.28-8.263-19.073-10.842 8.314-6.843 13.639-17.222 13.639-28.812 0-20.568-16.736-37.309-37.331-37.309-20.54 0-37.276 16.741-37.276 37.309 0 11.589 5.325 21.969 13.639 28.812-6.792 2.579-13.259 6.226-19.073 10.842-8.314-22.888-26.571-41.049-49.502-49.198 13.313-8.849 22.116-23.998 22.116-41.169 0-27.231-22.116-49.389-49.394-49.389-27.224 0-49.339 22.158-49.339 49.389 0 17.172 8.803 32.321 22.116 41.169-31.625 11.237-54.338 41.467-54.338 76.91v177.038c0 12.547 10.216 22.76 22.768 22.76h121.772.054 99.439c19.236 17.522 44.775 28.228 72.813 28.228 59.609 0 108.134-48.512 108.134-108.132.001-24.995-8.531-48.029-22.876-66.371z" fill-rule="evenodd"/></svg>