<svg id="Layer_1" enable-background="new 0 0 512 512" height="512" viewBox="0 0 512 512" width="512" xmlns="http://www.w3.org/2000/svg"><path clip-rule="evenodd" d="m365.883 341.235c-25.306 11.114-34.628 46.172-12.632 68.167 4.867 4.866 4.867 12.759 0 17.623l-26.827 26.828c-4.866 4.866-12.758 4.866-17.623 0-26.414-26.414-71.671-7.67-71.671 29.686 0 6.884-5.58 12.461-12.461 12.461h-37.939c-6.88 0-12.461-5.577-12.461-12.461 0-37.402-45.224-56.133-71.671-29.686-4.865 4.866-12.757 4.866-17.623 0l-26.827-26.828c-4.866-4.865-4.866-12.758 0-17.623 26.413-26.413 7.669-71.671-29.687-71.671-6.885 0-12.461-5.58-12.461-12.461v-37.937c0-6.881 5.576-12.462 12.461-12.462 37.356 0 56.1-45.257 29.687-71.671-4.866-4.866-4.866-12.757 0-17.623l26.827-26.827c4.866-4.866 12.758-4.866 17.623 0 26.414 26.414 71.671 7.67 71.671-29.687 0-6.884 5.581-12.461 12.461-12.461h37.938c6.881 0 12.461 5.577 12.461 12.461 0 26.17 22.209 43.201 44.591 41.977 11.942 26.181 33.058 47.296 59.238 59.239-.93 17.036 8.72 33.972 24.925 41.088l-12.682 27.933h-32.03c-3.642-61.004-54.309-108.682-115.472-108.682-63.887 0-115.682 51.794-115.682 115.682s51.794 115.682 115.682 115.682c61.163 0 111.83-47.677 115.472-108.682h32.03zm24.615-325.235c-58.267 0-105.502 47.235-105.502 105.502s47.235 105.502 105.502 105.502 105.502-47.235 105.502-105.502-47.235-105.502-105.502-105.502zm-7.001 162.714c0-3.866 3.134-7 7-7s7 3.134 7 7v3.963c0 3.866-3.134 7-7 7s-7-3.134-7-7zm42.506-11.808c-2.733-2.733-2.733-7.165 0-9.899 2.733-2.733 7.165-2.733 9.899 0l2.802 2.802c2.733 2.733 2.733 7.165 0 9.899-2.733 2.733-7.165 2.733-9.899 0zm21.706-38.404c-3.866 0-7-3.134-7-7s3.134-7 7-7h3.963c3.866 0 7 3.134 7 7s-3.134 7-7 7zm-11.807-42.506c-2.733 2.733-7.165 2.733-9.899 0-2.733-2.733-2.733-7.165 0-9.899l2.802-2.802c2.733-2.733 7.165-2.733 9.899 0 2.733 2.733 2.733 7.165 0 9.899zm-80.91-9.898c2.733 2.733 2.733 7.165 0 9.899-2.733 2.733-7.165 2.733-9.899 0l-2.802-2.802c-2.733-2.733-2.733-7.165 0-9.899 2.733-2.733 7.165-2.733 9.899 0zm-21.707 38.404h-3.962c-3.866 0-7 3.134-7 7s3.134 7 7 7h3.962c3.866 0 7-3.134 7-7s-3.134-7-7-7zm11.808 42.506-2.802 2.802c-2.733 2.733-2.733 7.165 0 9.899 2.733 2.733 7.165 2.733 9.899 0l2.802-2.802c2.733-2.733 2.733-7.165 0-9.899-2.734-2.733-7.166-2.733-9.899 0zm52.405-92.718c0 3.866-3.134 7-7 7s-7-3.134-7-7v-3.962c0-3.866 3.134-7 7-7s7 3.134 7 7zm-7 67.172c-5.501 0-9.96-4.46-9.96-9.96 0-2.772 1.133-5.279 2.96-7.085v-27.418c0-3.866 3.134-7 7-7s7 3.134 7 7v27.418c1.264 1.249 2.195 2.833 2.65 4.608l15.301 8.834c3.337 1.918 4.488 6.178 2.57 9.516-1.918 3.337-6.178 4.488-9.516 2.57l-15.326-8.848c-.852.238-1.751.365-2.679.365zm0-96.493c-47.789 0-86.533 38.744-86.533 86.533s38.744 86.533 86.533 86.533 86.533-38.743 86.533-86.533-38.744-86.533-86.533-86.533zm0 14.001c-40.06 0-72.533 32.473-72.533 72.533s32.473 72.532 72.533 72.532 72.533-32.472 72.533-72.532c-.001-40.061-32.473-72.533-72.533-72.533zm53.601 257.331 17.579-36.566h-79.679l-16.601 36.566 16.601 36.566h79.679zm-238.4-19.719c-10.917 0-19.719 8.802-19.719 19.72s8.802 19.72 19.719 19.72c8.223 0 15.553-5.06 18.448-12.72h-18.448c-3.866 0-7-3.134-7-7s3.134-7 7-7h18.448c-2.896-7.661-10.225-12.72-18.448-12.72zm0-14c15.951 0 29.718 11.152 32.994 26.719h27.307c-3.508-30.579-29.475-53.7-60.301-53.7-33.538 0-60.701 27.163-60.701 60.701s27.163 60.701 60.701 60.701c30.827 0 56.795-23.122 60.301-53.701h-27.307c-3.277 15.568-17.042 26.72-32.994 26.72-18.647 0-33.72-15.073-33.72-33.72 0-18.648 15.073-33.72 33.72-33.72zm0-40.982c38.551 0 70.815 29.363 74.376 67.7h27.066c-3.622-53.264-48.006-94.681-101.442-94.681-56.158 0-101.682 45.523-101.682 101.682s45.523 101.682 101.682 101.682c53.436 0 97.821-41.418 101.443-94.682h-27.066c-3.56 38.338-35.825 67.701-74.376 67.701-41.267 0-74.701-33.434-74.701-74.701-.001-41.267 33.433-74.701 74.7-74.701z" fill-rule="evenodd"/></svg>