<svg id="Bahan_copy_2" viewBox="0 0 64 64" xmlns="http://www.w3.org/2000/svg" data-name="Bahan copy 2"><g fill="rgb(0,0,0)"><path d="m30.85 17.87c.46962-.895-.26252-2.0931-.58-2.92a2.00737 2.00737 0 0 0 -2.61-1.09l-.77.31a9.385 9.385 0 0 0 -1.05-1.04 2.7815 2.7815 0 0 0 .32988-2.3c-.30514-.9781-1.66616-1.29782-2.48-1.67a2.02752 2.02752 0 0 0 -2.61988 1.08l-.3.77a9.38042 9.38042 0 0 0 -1.5 0l-.31-.77a2.02241 2.02241 0 0 0 -2.62-1.09l-1.39.58a2.00738 2.00738 0 0 0 -1.09 2.61l.31.77a8.60273 8.60273 0 0 0 -1.04 1.05l-.77-.32a2.00314 2.00314 0 0 0 -2.62 1.08c-.30472.84322-1.05454 2.00209-.57993 2.92a2.66066 2.66066 0 0 0 1.85 1.39 9.3764 9.3764 0 0 0 0 1.50005 2.74431 2.74431 0 0 0 -1.85993 1.40007c-.4696.89458.26243 2.09331.57993 2.92a1.99031 1.99031 0 0 0 1.08 1.09 2.7721 2.7721 0 0 0 2.3-.32006 8.11543 8.11543 0 0 0 1.04993 1.04994l-.31993.77a2.00309 2.00309 0 0 0 1.08 2.62l1.39.58a2.02754 2.02754 0 0 0 2.62-1.08l.3-.77a9.39445 9.39445 0 0 0 1.5 0l.31.77a2.02149 2.02149 0 0 0 2.61993 1.09l1.39-.58a2.00733 2.00733 0 0 0 1.09-2.61l-.31-.77a9.38049 9.38049 0 0 0 1.04-1.05l.77.32a2.00309 2.00309 0 0 0 2.62-1.08l.58-1.39a2.02758 2.02758 0 0 0 -1.08-2.62l-.77-.3a9.38042 9.38042 0 0 0 0-1.5 2.74428 2.74428 0 0 0 1.86-1.4zm-10.85 7.04c-6.48959-.20268-6.488-9.6183.00011-9.82 6.48942.20263 6.48797 9.61826-.00011 9.82z"/><path d="m20 17.09a2.91017 2.91017 0 0 0 .00009 5.82 2.91017 2.91017 0 0 0 -.00009-5.82z"/><path d="m33.15 46.13c-.46954.89463.26249 2.09336.58 2.92a2.00743 2.00743 0 0 0 2.61 1.09l.77-.32a8.11806 8.11806 0 0 0 1.05 1.05 2.78136 2.78136 0 0 0 -.32987 2.3c.30522.97776 1.666 1.29814 2.48 1.67a2.02751 2.02751 0 0 0 2.61987-1.08l.3-.77a9.39445 9.39445 0 0 0 1.5 0l.31.77a2.02149 2.02149 0 0 0 2.62 1.09l1.39-.58a2.00733 2.00733 0 0 0 1.09-2.61l-.31-.77a9.38049 9.38049 0 0 0 1.04-1.05l.77.32a2.00309 2.00309 0 0 0 2.62-1.08c.30453-.84227 1.0547-2.00275.57993-2.91995a2.66085 2.66085 0 0 0 -1.85-1.39 9.3764 9.3764 0 0 0 0-1.50005 2.744 2.744 0 0 0 1.85993-1.4c.46968-.895-.26246-2.09305-.57993-2.92a1.99012 1.99012 0 0 0 -1.08-1.09 2.81522 2.81522 0 0 0 -2.3.31 9.38133 9.38133 0 0 0 -1.05-1.04l.31994-.77a2.00306 2.00306 0 0 0 -1.08-2.62l-1.39-.58a2.02755 2.02755 0 0 0 -2.61987 1.08l-.3.77a9.38042 9.38042 0 0 0 -1.5 0l-.31-.77a2.02241 2.02241 0 0 0 -2.62-1.09l-1.39.58a2.00738 2.00738 0 0 0 -1.09 2.61l.31.77a8.60273 8.60273 0 0 0 -1.04 1.05l-.77-.32a2.00314 2.00314 0 0 0 -2.62 1.08l-.58 1.39a2.02763 2.02763 0 0 0 1.08 2.62l.77.3a9.38042 9.38042 0 0 0 0 1.5 2.74463 2.74463 0 0 0 -1.86 1.4zm10.85-7.04c6.48953.20266 6.48808 9.61829-.00011 9.82-6.48948-.20271-6.48789-9.61833.00011-9.82z"/><path d="m44 46.91a2.91017 2.91017 0 0 0 -.00009-5.82 2.91017 2.91017 0 0 0 .00009 5.82z"/><path d="m57.10156 34.36182a15.77656 15.77656 0 0 0 -19.541-5.79688l-11.87456 5.00879a13.82753 13.82753 0 0 1 -16.7334-4.52 13.86576 13.86576 0 0 1 1.96609-19.02387c10.17372-9.84448 26.12631-.14329 23.49891 12.93192a1.58329 1.58329 0 0 0 2.0336 1.81943l3.1445-1.039a1.00026 1.00026 0 1 0 -.62793-1.89942l-2.45459.81153a15.982 15.982 0 0 0 -8.2915-16.5918c-14.01817-8.27905-31.7146 9.72748-20.86183 24.20179a15.73756 15.73756 0 0 0 19.10353 5.15219l11.87451-5.00879c13.83482-5.76051 26.39274 11.27237 15.61011 22.64935-10.19574 11.27043-27.11477 1.2839-24.43283-11.922a1.58144 1.58144 0 0 0 -2.191-1.73757l-2.72163 1.22851a1.00044 1.00044 0 0 0 .8233 1.8232l1.98529-.89645a16.01967 16.01967 0 0 0 7.63087 15.99852c6.63261 4.287 15.09248 2.66353 20.33639-3.09689a15.61 15.61 0 0 0 1.72317-20.09256z"/></g></svg>