<svg id="Layer_1" height="512" viewBox="0 0 64 64" width="512" xmlns="http://www.w3.org/2000/svg"><path d="m5.85 36.53 3.15-5.04v7.51c0 .55.45 1 1 1v21c0 .55.45 1 1 1h4c.51 0 .94-.38.99-.89l1.01-9.05 1.01 9.05c.06.51.48.89.99.89h4c.55 0 1-.45 1-1v-21c.55 0 1-.45 1-1v-12h13c.55 0 1-.45 1-1v-4c0-.55-.45-1-1-1h-24.79c-2.35 0-4.52 1.17-5.82 3.12l-6.22 9.33c-.31.46-.18 1.08.28 1.39l3 2c.23.15.5.2.77.15.26-.06.49-.22.64-.45zm16.15 23.47h-2.1l-1.9-17.11c-.06-.51-.48-.89-.99-.89s-.94.38-.99.89l-1.9 17.11h-2.1v-20h10v20zm-17.3-25.4-1.31-.87 5.66-8.5c.93-1.39 2.48-2.23 4.16-2.23h23.79v2h-13c-.55 0-1 .45-1 1v12h-12v-10c0-.45-.3-.84-.72-.96-.43-.12-.89.05-1.12.43l-4.45 7.13z"/><path d="m17 20c2.76 0 5-2.24 5-5s-2.24-5-5-5-5 2.24-5 5 2.24 5 5 5zm0-8c1.65 0 3 1.35 3 3s-1.35 3-3 3-3-1.35-3-3 1.35-3 3-3z"/><path d="m29 49v-2h1c.55 0 1-.45 1-1v-4c0-.55-.45-1-1-1h-1v-1h-2v1h-1c-.55 0-1 .45-1 1v4c0 .55.45 1 1 1h1v2zm-2-6h2v2h-2z"/><path d="m44 37v-2h1c.55 0 1-.45 1-1v-4c0-.55-.45-1-1-1h-1v-1h-2v1h-1c-.55 0-1 .45-1 1v4c0 .55.45 1 1 1h1v2zm-2-6h2v2h-2z"/><path d="m36 43v-1h1c.55 0 1-.45 1-1v-4c0-.55-.45-1-1-1h-1v-2h-2v2h-1c-.55 0-1 .45-1 1v4c0 .55.45 1 1 1h1v1zm-2-5h2v2h-2z"/><path d="m62 7.35h-4.61l-1.43-4.64c-.13-.42-.52-.71-.96-.71s-.83.29-.96.71l-1.43 4.64h-4.61c-.43 0-.81.27-.95.68s0 .85.34 1.12l3.77 2.88-1.45 4.68c-.13.42.03.87.38 1.12.36.25.83.24 1.18-.03l.72-.55v14.75h-1.97c-.43 0-.81.27-.95.67l-1.83 5.31-5.26.11c-.42 0-.78.28-.92.67l-1.82 5.17-5.27.11c-.42 0-.78.28-.92.67l-1.82 5.17-5.27.11c-.54.01-.98.46-.98 1v10c0 .55.45 1 1 1h32.02c.55 0 1-.45 1-1v-28c0-.55-.45-1-1-1v-14.75l.72.55c.18.14.39.21.61.21.2 0 .4-.06.57-.18.36-.25.51-.7.38-1.12l-1.45-4.68 3.77-2.88c.34-.26.48-.71.34-1.12s-.52-.68-.95-.68zm-27 52.65h-8v-5.02l6.98-.11c.42 0 .79-.27.93-.67l.1-.27v6.07zm8 0h-6v-10.97l4.99-.11c.42 0 .78-.28.92-.67l.09-.25zm8 0h-6v-16.93l5-.11c.42 0 .78-.28.92-.67l.08-.23v17.93zm6 0h-4v-22.89l4-.09zm0-24.98-4.99.11c-.42 0-.78.28-.92.67l-1.83 5.18-5.27.11c-.42 0-.78.28-.92.67l-1.82 5.17-5.27.11c-.42 0-.78.28-.92.67l-1.82 5.17-6.25.1v-1.01l4.98-.11c.42 0 .78-.28.92-.67l1.82-5.17 5.27-.11c.42 0 .78-.28.92-.67l1.82-5.17 5.27-.11c.42 0 .79-.28.92-.67l1.82-5.29h6.25v1.02zm-3-3.02v-16.28l1-.76 1 .76v16.28zm3.07-21.14c-.33.25-.47.69-.35 1.09l.73 2.36-1.84-1.41c-.18-.14-.39-.21-.61-.21s-.43.07-.61.21l-1.84 1.41.73-2.36c.12-.4-.02-.83-.35-1.09l-1.98-1.51h2.39c.44 0 .83-.29.96-.71l.7-2.25.7 2.25c.13.42.52.71.96.71h2.39z"/><path d="m48 14c0-.38-.21-.72-.55-.89l-8-4c-.31-.15-.68-.14-.97.04s-.47.5-.47.85v1h-13c-.55 0-1 .45-1 1v4c0 .55.45 1 1 1h13v1c0 .35.18.67.47.85.16.1.34.15.53.15.15 0 .31-.04.45-.11l8-4c.34-.17.55-.52.55-.89zm-10 1h-12v-2h12zm2 1.38v-4.76l4.76 2.38z"/></svg>