<svg id="Layer_1" enable-background="new 0 0 512 512" viewBox="0 0 512 512" xmlns="http://www.w3.org/2000/svg"><path clip-rule="evenodd" d="m349.876 17.556c43.465 23.964 46.13 90.71 8 119.925v54.473c6.729-9.036 14.829-17.285 23.403-24.458-7.872-35.057 37.629-70.993 121.721-61.121-37.087 16.539-38.062 131.944-114.27 75.722-2.431 2.151-4.836 4.419-7.178 6.792-10.822 10.966-20.054 23.999-23.676 37.642v37.446h21.532v230.467h-59.064v-230.467h21.532v-42.425c-1.093-15.984-8.514-28.529-18.36-38.243-3.612-3.564-7.552-6.762-11.637-9.624-72.998 61.754-81.108-53.837-119.235-68.066 82.943-15.021 130.535 17.652 125.359 52.951 8.888 5.836 17.146 12.861 23.873 21.33v-42.419c-38.13-29.216-35.465-95.961 8-119.925zm-182.732 201.962-154.687 89.309c-3.3 1.905-4.439 6.153-2.533 9.453l12.965 22.456c1.905 3.301 6.153 4.438 9.453 2.533l154.688-89.309 9.717 16.829c2.148 3.725 7.754 3.528 9.461-.633l24.407-59.495c1.313-3.202-.749-6.774-4.178-7.238l-63.728-8.61c-4.457-.603-7.431 4.152-5.28 7.875zm-156.23 192.871h59.064v82.055h-59.064zm103.143-54.067h59.064v136.123h-59.064zm103.144-54.071v190.193h59.064v-190.193z" fill-rule="evenodd"/></svg>