<svg id="Layer_1" viewBox="0 0 512 512" xmlns="http://www.w3.org/2000/svg" data-name="Layer 1"><path d="m487.899 395.824-12.786-2.521-9.212-22.235 7.26-10.825c1.185-1.767.96-4.07-.545-5.574l-16.752-16.752c-1.504-1.504-3.807-1.729-5.574-.544l-10.825 7.259-22.235-9.212-2.521-12.785c-.412-2.087-2.199-3.556-4.326-3.556h-23.691c-2.127 0-3.915 1.469-4.326 3.556l-2.521 12.786-22.235 9.212-10.825-7.259c-1.767-1.185-4.069-.961-5.573.544l-16.752 16.752c-1.504 1.504-1.729 3.807-.544 5.573l7.259 10.825-9.212 22.235-12.785 2.521c-2.087.411-3.556 2.198-3.556 4.326v23.691c0 2.128 1.469 3.915 3.556 4.327l12.785 2.521 9.212 22.235-7.259 10.825c-1.185 1.767-.96 4.069.544 5.573l16.752 16.752c1.504 1.504 3.806 1.729 5.573.544l10.825-7.259 22.235 9.212 2.521 12.786c.411 2.087 2.199 3.557 4.326 3.557h23.691c2.127 0 3.915-1.469 4.326-3.557l2.521-12.785 22.235-9.212 10.825 7.259c1.767 1.185 4.069.96 5.574-.544l16.752-16.752c1.504-1.504 1.73-3.807.545-5.574l-7.26-10.825 9.212-22.235 12.786-2.521c2.087-.412 3.556-2.199 3.556-4.327v-23.691c0-2.128-1.469-3.915-3.556-4.326zm-89.361 65.268c-27.041 0-49.096-22.055-49.096-49.096s22.055-49.096 49.096-49.096 49.096 22.055 49.096 49.096-22.055 49.096-49.096 49.096zm25.998-69.158c3.124 3.124 3.124 8.189 0 11.312l-31.594 31.594c-3.703 3.698-9.942 2.869-12.562-1.656l-12.465-21.59c-2.209-3.814-.908-8.697 2.906-10.906s8.697-.908 10.906 2.906l7.261 12.576 24.235-24.235c3.124-3.124 8.189-3.124 11.312 0zm-22.849-195.912h-35.16c-21.028-57.99-76.589-99.425-141.841-99.425s-120.812 41.436-141.841 99.425h-35.16v33.401h354.002zm-139.161-34.306-17.161 16.096 4.423 23.109c.229 1.195-.225 2.342-1.209 3.057s-2.215.792-3.281.206l-20.611-11.348-20.611 11.348c-1.066.586-2.297.51-3.281-.206s-1.438-1.862-1.209-3.057l4.423-23.109-17.161-16.096c-.887-.832-1.195-2.027-.819-3.184s1.327-1.943 2.534-2.095l23.345-2.935 10.005-21.295c.517-1.101 1.559-1.762 2.775-1.762s2.258.661 2.775 1.762l10.005 21.295 23.345 2.935c1.207.152 2.158.937 2.534 2.095.376 1.157.069 2.352-.819 3.184zm39.866 278.879h-254.706v-26.457h243.937v9.703c0 7.353 4.318 13.823 10.771 16.754zm12.168 38.626 5.318 5.318h-299.334v-29.945h292.654l-.91 1.357c-4.899 7.307-3.948 17.049 2.272 23.27zm-193.883-212.831v110.783l3.825 1.024c5.252 1.407 8.78 6.006 8.78 11.443v10.499h-68.766v-10.499c0-5.436 3.528-10.037 8.78-11.443l3.825-1.024v-110.783l-3.825-1.025c-5.251-1.407-8.78-6.006-8.78-11.442v-10.5h68.766v10.5c0 5.437-3.529 10.034-8.78 11.442zm207.348 64.916v-64.916l-3.825-1.025c-5.251-1.407-8.78-6.006-8.78-11.442v-10.5h68.767v10.5c0 5.437-3.529 10.034-8.78 11.442l-3.825 1.025v46.571c-1.42 2.04-2.443 4.395-2.95 6.966l-1.071 5.43-8.381 3.472-4.597-3.083c-7.306-4.9-17.049-3.949-23.27 2.272l-3.287 3.287zm-81.896-64.916v110.783l3.825 1.024c5.252 1.407 8.78 6.006 8.78 11.443v10.499h-68.766v-10.499c0-5.436 3.528-10.037 8.78-11.443l3.825-1.024v-110.783l-3.825-1.025c-5.251-1.407-8.78-6.006-8.78-11.442v-10.5h68.766v10.5c0 5.437-3.529 10.034-8.78 11.442zm-27.199-181.751v-71.796c0-3.179 2.577-5.756 5.755-5.756s5.756 2.577 5.756 5.756v.209c31.751-8.929 51.969 21.779 86.286 33.788-42.983 23.687-61.879.495-86.286 15.763v22.034c0 3.179-2.577 5.756-5.756 5.756s-5.756-2.577-5.756-5.756z" fill-rule="evenodd"/></svg>