<?xml version="1.0" encoding="iso-8859-1"?>
<!-- Generator: Adobe Illustrator 19.0.0, SVG Export Plug-In . SVG Version: 6.00 Build 0)  -->
<svg version="1.1" id="Capa_1" xmlns="http://www.w3.org/2000/svg" xmlns:xlink="http://www.w3.org/1999/xlink" x="0px" y="0px"
	 viewBox="0 0 512 512" style="enable-background:new 0 0 512 512;" xml:space="preserve">
<g>
	<g>
		<polygon points="428.303,12.284 352.303,49.661 352.303,196 413.303,196 413.303,136 443.303,136 443.303,196 504.303,196 
			504.303,49.661 		"/>
	</g>
</g>
<g>
	<g>
		<rect x="113.3" y="136" width="90" height="90"/>
	</g>
</g>
<g>
	<g>
		<rect x="293.3" y="286" width="90" height="90"/>
	</g>
</g>
<g>
	<g>
		<polygon points="128.91,411.606 107.697,390.394 68.303,429.787 28.91,390.394 7.697,411.606 47.091,451 7.697,490.394 
			28.91,511.606 68.303,472.213 107.697,511.606 128.91,490.394 89.516,451 		"/>
	</g>
</g>
<g>
	<g>
		<rect x="413.3" y="226" width="30" height="60"/>
	</g>
</g>
<g>
	<g>
		<rect x="413.3" y="316" width="30" height="60"/>
	</g>
</g>
<g>
	<g>
		<rect x="233.3" y="226" width="30" height="60"/>
	</g>
</g>
<g>
	<g>
		<rect x="233.3" y="316" width="30" height="60"/>
	</g>
</g>
<g>
	<g>
		<path d="M413.304,406v1c0,20.032-7.802,38.867-21.968,53.033l21.213,21.213c19.833-19.832,30.755-46.2,30.755-74.246v-1H413.304z"
			/>
	</g>
</g>
<g>
	<g>
		<path d="M263.302,407v-1h-29.999v1c0,28.046,10.922,54.414,30.754,74.246l21.213-21.213
			C271.104,445.867,263.302,427.033,263.302,407z"/>
	</g>
</g>
<g>
	<g>
		<path d="M369.547,475.201c-9.829,4.512-20.341,6.799-31.243,6.799c-10.903,0-21.415-2.287-31.242-6.799l-12.516,27.266
			c13.781,6.325,28.504,9.533,43.758,9.533c15.253,0,29.975-3.207,43.757-9.533L369.547,475.201z"/>
	</g>
</g>
<g>
	<g>
		<rect x="53.3" y="316" width="30" height="60"/>
	</g>
</g>
<g>
	<g>
		<rect x="53.3" y="226" width="30" height="60"/>
	</g>
</g>
<g>
	<g>
		<rect x="53.3" y="136" width="30" height="60"/>
	</g>
</g>
<g>
	<g>
		<rect x="233.3" y="136" width="30" height="60"/>
	</g>
</g>
<g>
	<g>
		<path d="M84.057,30.754C64.225,50.586,53.303,76.954,53.303,105v1h30v-1c0-20.033,7.801-38.867,21.967-53.033L84.057,30.754z"/>
	</g>
</g>
<g>
	<g>
		<path d="M232.549,30.754l-21.214,21.213c14.166,14.166,21.967,33,21.967,53.033v1h0.001h30v-1
			C263.303,76.954,252.381,50.586,232.549,30.754z"/>
	</g>
</g>
<g>
	<g>
		<path d="M158.303,0c-15.254,0-29.976,3.208-43.757,9.533l12.515,27.266c9.828-4.512,20.34-6.799,31.242-6.799
			c10.903,0,21.415,2.287,31.243,6.799l12.515-27.266C188.279,3.208,173.557,0,158.303,0z"/>
	</g>
</g>
<g>
</g>
<g>
</g>
<g>
</g>
<g>
</g>
<g>
</g>
<g>
</g>
<g>
</g>
<g>
</g>
<g>
</g>
<g>
</g>
<g>
</g>
<g>
</g>
<g>
</g>
<g>
</g>
<g>
</g>
</svg>
