<svg id="Capa_1" enable-background="new 0 0 512 512" height="512" viewBox="0 0 512 512" width="512" xmlns="http://www.w3.org/2000/svg"><g><g><path d="m176.552 105.931c4.864 0 8.828-3.964 8.828-8.828s-3.964-8.828-8.828-8.828h-8.828v17.646.009h8.828z"/><path d="m137.41 189.105-9.931-2.481-10.187 15.289 5.544 5.535z"/><path d="m35.31 70.621h10.399c3.266-10.761 11.503-19.545 22.581-23.235l1.951-.653c-2.03-1.615-3.999-3.319-5.862-5.182l12.482-12.482c9.719 9.719 22.634 15.069 36.387 15.069h9.746c10.196 0 20.056-2.984 28.54-8.642l11.299-7.53 9.79 14.689-11.299 7.53c-.653.441-1.377.742-2.048 1.156 5.173 4.838 8.448 11.661 8.448 19.279h8.828c1.351 0 2.657.203 3.955.397 3.169-6.656 4.873-13.912 4.873-21.354-.001-27.382-22.282-49.663-49.665-49.663h-57.882c-7.98 0-15.492 3.116-21.142 8.757l-7.786 7.786-1.977.662c-12.227 4.078-20.445 15.475-20.445 28.363v5.809c0 6.815 1.412 13.515 4.096 19.721 1.536-.283 3.107-.477 4.731-.477z"/><path d="m326.621 70.621v-17.655h12.314c16.967 0 32.724-8.43 42.134-22.554l7.345-11.017 7.345 11.017c9.41 14.124 25.167 22.554 42.134 22.554h12.315v17.655h8.828c3.107 0 6.056.636 8.828 1.624v-10.452c-.002-34.074-27.721-61.793-61.795-61.793h-35.31c-34.074 0-61.793 27.719-61.793 61.793v10.452c2.772-.989 5.72-1.624 8.828-1.624z"/><path d="m158.888 300.138c0 4.873 3.964 8.828 8.828 8.828h8.828v-17.656h-8.828c-4.865 0-8.828 3.955-8.828 8.828z"/><path d="m129.668 137.825-9.092-18.194c-1.51-3.001-4.537-4.873-7.901-4.873h-13.488c-3.363 0-6.391 1.871-7.892 4.882l-9.092 18.194c4.617 2.154 9.64 3.407 14.901 3.407h17.655c5.261 0 10.284-1.253 14.909-3.416z"/><path d="m150.069 105.922v-35.301c0-4.864-3.964-8.828-8.828-8.828h-18.247-9.746c-7.512 0-14.822-1.245-21.751-3.54l-17.629 5.879c-7.23 2.41-12.076 9.137-12.076 16.746v25.035c0 7.38 2.313 14.371 6.479 20.277l7.23-14.46c4.511-9.022 13.594-14.627 23.684-14.627h13.489c10.09 0 19.165 5.606 23.684 14.636l7.23 14.46c4.177-5.905 6.481-12.897 6.481-20.277z"/><path d="m105.931 187.118 8.828-13.241v-14.98h-17.656v14.98z"/><path d="m89.026 207.448 5.544-5.535-10.187-15.289-9.931 2.481z"/><path d="m379.586 158.897v24.55l-15.289 3.822c4.149 9.331 13.427 15.766 24.117 15.766 10.681 0 19.959-6.435 24.117-15.766l-15.289-3.822v-24.55z"/><path d="m432.552 105.922v-35.504c-16.896-1.315-32.574-8.836-44.138-21.001-11.564 12.164-27.242 19.686-44.138 21.001v35.505c0 9.437 3.672 18.3 10.337 24.973 6.665 6.674 15.537 10.346 24.973 10.346h17.655c9.428 0 18.3-3.672 24.973-10.346 6.674-6.674 10.338-15.546 10.338-24.974z"/><path d="m459.034 105.931c4.864 0 8.828-3.964 8.828-8.828s-3.964-8.828-8.828-8.828h-8.828v17.646.009h8.828z"/><path d="m317.784 291.31v17.655h.556 8.263c4.864 0 8.828-3.955 8.828-8.828s-3.964-8.828-8.828-8.828h-8.819z"/><path d="m158.897 247.172c0 9.304 2.207 18.414 6.215 26.748.874-.088 1.713-.265 2.604-.265h9.56c2.304-9.437 10.346-16.649 20.25-17.558l2.489-4.979c3.937-7.874 11.864-12.774 20.674-12.774 8.819 0 16.737 4.899 20.674 12.782 6.947 13.895 20.921 22.528 36.458 22.528h.309c-8.289-9.569-13.303-21.91-13.303-35.31h17.655c0 16.737 11.335 31.25 27.569 35.302l.026.009h7.706 8.828c.874 0 1.704.177 2.56.256 4.008-6.947 6.268-14.874 6.268-22.916 0-15.916-8.06-30.455-21.548-38.886l-29.387-18.361c-8.757-5.473-18.847-8.369-29.175-8.369h-12.826c-20.983 0-39.848 11.661-49.24 30.429l-2.428 4.882h-5.455c-14.61 0-26.483 11.882-26.483 26.482z"/><path d="m308.966 164.07v3.655c0 7.133 1.713 13.983 4.917 20.18 7.036-5.809 15.236-10.037 24.241-12.288l23.808-5.959v-13.833c-7.362-2.595-14.124-6.771-19.809-12.456-5.676-5.676-9.843-12.438-12.438-19.791h-11.891c-8.395 0-15.801-3.999-20.657-10.116-3.778 5.561-5.826 12.094-5.826 18.953 0 9.022 3.513 17.514 9.896 23.896z"/><path d="m317.793 105.931h8.828v-.009-17.646h-8.828c-4.864 0-8.828 3.964-8.828 8.828s3.964 8.827 8.828 8.827z"/><path d="m225.562 259.019c-1.854-3.725-7.892-3.734-9.763 0l-7.309 14.636h-8.828c-3.01 0-5.455 2.445-5.455 5.455v44.632c0 19.95 10.99 37.888 28.681 47.016h48.569c17.69-9.128 28.681-27.065 28.681-47.025l-.009-32.424h-22.307c-22.272.001-42.293-12.366-52.26-32.29zm21.61 94.084c-10.037 0-19.633-4.29-26.315-11.767l13.162-11.776c6.682 7.495 19.633 7.477 26.315 0l13.162 11.776c-6.691 7.477-16.287 11.767-26.324 11.767z"/><path d="m397.241 441.379h35.31v35.31h-35.31z"/><path d="m361.931 459.034v17.655h17.655v-35.31h-20.33c1.695 5.65 2.675 11.564 2.675 17.655z"/><path d="m420.511 326.621h-93.899-8.263-.759c-.671 16.693-7.071 32.132-17.849 44.138h.397c14.601 0 26.483 11.882 26.483 26.483v6.135c9.816 4.679 18.132 11.679 24.17 20.348h99.416v-35.31c0-23.959-11.105-46.796-29.696-61.794z"/><path d="m326.621 423.751v70.594c9.737 0 17.655-7.918 17.655-17.655v-17.655c0-14.116-6.762-27.101-17.655-35.284z"/><path d="m479.691 113.47c-4.855 6.118-12.262 10.116-20.657 10.116h-11.891c-2.595 7.353-6.762 14.115-12.438 19.791-5.685 5.685-12.447 9.852-19.809 12.456v13.833l23.817 5.95c9.119 2.278 17.205 6.647 24.108 12.314 3.213-6.223 5.041-13.127 5.041-20.206v-3.655l7.759-7.759c6.382-6.382 9.896-14.874 9.896-23.896 0-6.859-2.048-13.392-5.826-18.944z"/><path d="m300.138 388.414h-105.931c-4.864 0-8.828 3.955-8.828 8.828v79.448h123.586v-79.448c.001-4.873-3.963-8.828-8.827-8.828zm-52.966 61.793c-9.754 0-17.655-7.901-17.655-17.655s7.901-17.655 17.655-17.655 17.655 7.901 17.655 17.655-7.9 17.655-17.655 17.655z"/><path d="m434.035 314.765c9.604 8.271 17.311 18.379 23.005 29.511h1.995c4.864 0 8.828-3.955 8.828-8.828v-26.483h-31.885z"/><path d="m434.432 192.742-4.634-1.156c-6.215 17.081-22.519 29.105-41.384 29.105-18.873 0-35.169-12.023-41.384-29.105l-4.626 1.156c-5.57 1.395-10.655 3.919-15.201 7.23 16.243 11.944 25.9 30.623 25.9 51.032 0 10.593-2.781 21.08-7.83 30.367 4.829 4.802 7.83 11.441 7.83 18.767 0 3.107-.636 6.056-1.624 8.828h65.889l13.286-39.865c1.253-3.787 1.898-7.733 1.898-11.723 0-9.913-3.866-19.235-10.867-26.244l-4.202-4.202 12.482-12.482 4.202 4.202c10.337 10.337 16.04 24.099 16.04 38.727 0 5.888-.945 11.723-2.807 17.311l-5.544 16.622h26.006v-55.746c0-20.296-13.744-37.899-33.43-42.824z"/><path d="m61.793 308.966h81.064c-.989-2.772-1.624-5.72-1.624-8.828 0-7.353 3.019-14.009 7.874-18.812-5.085-10.646-7.865-22.272-7.865-34.154 0-19.977 13.365-36.829 31.603-42.249-4.696-4.864-10.452-8.474-16.905-10.752l-31.603 39.759-18.406-18.414-18.406 18.414-31.629-39.812c-17.47 6.197-29.414 22.59-29.414 41.446v55.746h17.655v-35.31h17.655v52.966z"/><path d="m150.069 326.621h-88.276v150.069h35.31v-97.103h17.655v97.103h17.655v-17.655c0-16.49 6.612-31.876 17.655-43.193v-89.221z"/><path d="m35.31 105.931h8.828v-.009-17.646h-8.828c-4.864 0-8.828 3.964-8.828 8.828s3.964 8.827 8.828 8.827z"/><path d="m44.138 326.621v-17.655h-17.655c0 9.736 7.918 17.655 17.655 17.655z"/><path d="m185.379 503.172c0 4.873 3.964 8.828 8.828 8.828h105.931c4.864 0 8.828-3.955 8.828-8.828v-8.828h-123.587z"/><path d="m150.069 459.034v17.655c0 9.737 7.918 17.655 17.655 17.655v-70.603c-10.893 8.193-17.655 21.178-17.655 35.293z"/></g></g></svg>