<?xml version="1.0" encoding="UTF-8"?>
<svg xmlns="http://www.w3.org/2000/svg" id="Save_the_world" data-name="Save the world" viewBox="0 0 64 64" width="512" height="512"><path d="M36,46V42.82A3,3,0,0,1,35,43H28v3a4,4,0,0,0,4,4,3.978,3.978,0,0,0,4-4Z"/><path d="M31,51.91V54a1,1,0,0,0,2,0V51.91A5.551,5.551,0,0,1,32,52,6.638,6.638,0,0,1,31,51.91Z"/><path d="M31,38H25v1a2.006,2.006,0,0,0,2,2h8a1,1,0,0,0,1-1V39H34v1H32V39A1,1,0,0,0,31,38Z"/><path d="M15,37a3.3,3.3,0,0,0-.67.08,1,1,0,0,1-.85-.19A3.966,3.966,0,0,0,7.13,39h10.7A3.014,3.014,0,0,0,15,37Z"/><path d="M25.98,43.19a.889.889,0,0,1-.15.36l-1.93,2.9a22.216,22.216,0,0,0,2.22.74A5.787,5.787,0,0,1,26,46V43.1Z"/><path d="M54,44V40.99a3,3,0,0,1-1.88-.87A2.993,2.993,0,0,1,50,41H46v3a4.045,4.045,0,0,0,1.17,2.84,4.038,4.038,0,0,0,4.44.83A4.024,4.024,0,0,0,54,44Z"/><path d="M48,35a5,5,0,0,0-5,5V50.42A4.941,4.941,0,0,1,45,50h2v-.83A5.758,5.758,0,0,1,44,44V40a1,1,0,0,1,1-1h5a1,1,0,0,0,1-1V37h2v.76l.34.68a1,1,0,0,0,.9.56H55a1,1,0,0,1,1,1v4a6.027,6.027,0,0,1-3,5.19V50h2a4.941,4.941,0,0,1,2,.42V40a5,5,0,0,0-5-5Z"/><path d="M49,49.91V51a1,1,0,0,0,2,0V49.91a5.6,5.6,0,0,1-2,0Z"/><path d="M32.99,12.93C34.7,12.25,38,11,39,11a13.854,13.854,0,0,0,1.9-1.3,7.449,7.449,0,0,1,2.88-1.68,2.7,2.7,0,0,0,.3-.39,21.925,21.925,0,0,0-23.05-.69l4.44,3.17Z"/><path d="M19.93,14.63l1.9,4.75,4.79,3.84a.994.994,0,0,1,.38.72,1.031,1.031,0,0,1-.29.77A7.334,7.334,0,0,0,25,27.02a8.078,8.078,0,0,1-.19,1.38c-.12.7-.45,2.54-.1,2.89.42.43,1.02,1.36,1.86,4.71h3.18L27.2,32.6a1,1,0,0,1-.18-.8l1-5a1.093,1.093,0,0,1,.05-.17l2-5a1.013,1.013,0,0,1,.69-.6l8-2,6.68-1.91,3.97-4.54A22.061,22.061,0,0,0,45.7,8.81C45.18,9.54,44.65,10,44,10a13.854,13.854,0,0,0-1.9,1.3C40.65,12.39,39.79,13,39,13a39.192,39.192,0,0,0-5.63,1.93A.937.937,0,0,1,33,15a1.03,1.03,0,0,1-.35-.06l-8-3a1.046,1.046,0,0,1-.23-.13l-5.19-3.7a21.994,21.994,0,0,0-4.68,4.51l4.74,1.42A1.014,1.014,0,0,1,19.93,14.63Z"/><path d="M14.35,35.05A4.865,4.865,0,0,1,15,35a5,5,0,0,1,5,5,.875.875,0,0,1-.06.28A4.2,4.2,0,0,1,20,41v3c0,.13-.03.26-.04.39a20.1,20.1,0,0,0,2.1,1.22l2-3,.15-.75A3.972,3.972,0,0,1,23,39V37a1,1,0,0,1,1-1h.51c-.71-2.67-1.13-3.21-1.22-3.29-1.09-1.09-.73-3.07-.44-4.66A9.918,9.918,0,0,0,23,27a5.467,5.467,0,0,1,1.53-2.89l-4.15-3.33a1.04,1.04,0,0,1-.31-.41l-1.82-4.55-4.9-1.47A21.848,21.848,0,0,0,10,26a21.541,21.541,0,0,0,1.55,8.04A5.866,5.866,0,0,1,14.35,35.05Z"/><path d="M18,44V41H10v3a3.009,3.009,0,0,0,3,3h2A3.009,3.009,0,0,0,18,44Z"/><path d="M36.25,50.24a5.984,5.984,0,0,1-1.25.95V53h2a4.934,4.934,0,0,1,3.09,1.1A4.9,4.9,0,0,1,41,52.03V48.25a23.684,23.684,0,0,1-4.11,1.23A5.726,5.726,0,0,1,36.25,50.24Z"/><path d="M48,33h4a7.368,7.368,0,0,1,.82.05,21.818,21.818,0,0,0-2.23-18.79l-3.84,4.4a.963.963,0,0,1-.48.3l-7,2-7.53,1.89-1.78,4.44-.89,4.47L31.8,35.4l.66,1a2.964,2.964,0,0,1,.76.6H37a1,1,0,0,1,1,1v8a5.931,5.931,0,0,1-.12,1.19A21.513,21.513,0,0,0,41,46.06V40A7.008,7.008,0,0,1,48,33Z"/><path d="M55,52H52.82a2.988,2.988,0,0,1-5.64,0H45a3.009,3.009,0,0,0-3,3v1H58V55A3.009,3.009,0,0,0,55,52Z"/><path d="M37,55H34.82a2.988,2.988,0,0,1-5.64,0H27a3.009,3.009,0,0,0-3,3v2H40V58A3.009,3.009,0,0,0,37,55Z"/><path d="M13,51a1,1,0,0,0,2,0V49H13Z"/><path d="M19,52H16.82a2.988,2.988,0,0,1-5.64,0H9a3.009,3.009,0,0,0-3,3v1H22V55A3.009,3.009,0,0,0,19,52Z"/><path d="M29,53V51.19a6.083,6.083,0,0,1-1.87-1.7,23.58,23.58,0,0,1-7.77-3.1A5.065,5.065,0,0,1,17,48.58V50h2a5,5,0,0,1,4.91,4.1A4.934,4.934,0,0,1,27,53Z"/></svg>
