<svg id="Layer_5" enable-background="new 0 0 64 64" height="512" viewBox="0 0 64 64" width="512" xmlns="http://www.w3.org/2000/svg"><circle cx="32" cy="47" r="4"/><path d="m7 43.69v-4.69h2v2.812c.884-.513 1.907-.812 3-.812 2.607 0 4.824 1.673 5.65 4h8.7c.48-1.351 1.427-2.478 2.65-3.188v-2.812h2v2.09c.326-.055.659-.09 1-.09 1.085 0 2.101.294 2.98.8-.103-3.011-2.145-5.664-5.057-6.496l-7.147-2.042c-.531 1.585-2.014 2.738-3.776 2.738s-3.245-1.153-3.777-2.738l-7.147 2.042c-2.988.854-5.076 3.621-5.076 6.73v2.966h3.35c.165-.465.381-.905.65-1.31z"/><circle cx="12" cy="47" r="4"/><path d="m12 53c-4.625 0-8.445 3.506-8.944 8h17.889c-.5-4.494-4.32-8-8.945-8z"/><path d="m27 19v1.384c0 .892-.098 1.767-.279 2.616h.279c1.103 0 2-.897 2-2s-.897-2-2-2z"/><path d="m28.246 51.674c-1.367-1.101-2.246-2.786-2.246-4.674h-8c0 1.888-.879 3.573-2.246 4.674 2.774 1.012 5.026 3.103 6.246 5.771 1.22-2.668 3.472-4.759 6.246-5.771z"/><path d="m9 21c0 1.103.897 2 2 2h.279c-.181-.849-.279-1.724-.279-2.616v-1.384c-1.103 0-2 .897-2 2z"/><path d="m25 20.384v-1.384h-.768c-2.944 0-5.863-.973-8.219-2.74-.571-.429-1.468-.276-1.865.319l-1.148 1.724v2.082c0 4.082 2.341 7.771 6 9.518 3.659-1.748 6-5.437 6-9.519z"/><path d="m18.606 31.919c-.561-.24-1.096-.519-1.606-.831v.912c0 1.103.897 2 2 2s2-.897 2-2v-.912c-.51.312-1.046.591-1.606.831l-.394.169z"/><path d="m9.24 17.426c.534-.264 1.126-.426 1.76-.426h.465l1.02-1.529c.613-.921 1.64-1.471 2.747-1.471.71 0 1.414.234 1.981.661 2.013 1.508 4.505 2.339 7.019 2.339h2.768c.634 0 1.226.162 1.76.426l.593-.593c.423-.541.647-1.174.647-1.833 0-1.364-.93-2.555-2.261-2.894l-.786-.201.05-.971c-.004-1.918-1.98-3.52-4.058-2.731l-.856.325-.399-.824c-.507-1.051-1.538-1.704-2.69-1.704s-2.183.653-2.69 1.704l-.398.825-.856-.325c-2.079-.79-4.056.798-4.056 2.796 0-.001.001-.002.001-.002.005 0 .01.048.012.097l.034.811-.786.201c-1.331.338-2.261 1.529-2.261 2.893 0 .66.224 1.292.647 1.833z"/><path d="m32 53c-4.625 0-8.445 3.506-8.944 8h17.889c-.5-4.494-4.32-8-8.945-8z"/><circle cx="52" cy="47" r="4"/><path d="m52 53c-4.625 0-8.445 3.506-8.944 8h17.889c-.5-4.494-4.32-8-8.945-8z"/><path d="m58 13h-9v7.236l-2.658 5.317c-.447.892-1.344 1.447-2.342 1.447s-1.895-.555-2.342-1.447l-2.658-5.317v-7.236h-1c-1.654 0-3 1.346-3 3v12c0 1.654 1.346 3 3 3h6v5.54c0 .363.482.587.759.35l6.871-5.89h6.37c1.654 0 3-1.346 3-3v-12c0-1.654-1.346-3-3-3zm-3 16h-2v-2h2zm4 0h-2v-2h2zm0-4h-8v-2h8zm0-4h-8v-2h8zm0-4h-8v-2h8z"/><path d="m47 6c0-1.654-1.346-3-3-3s-3 1.346-3 3v1h6z"/><path d="m43.447 24.658c.211.422.895.422 1.105 0l1.83-3.658h-4.764z"/><path d="m45 9h2v10h-2z"/><path d="m41 9h2v10h-2z"/></svg>