<svg id="Capa_1" enable-background="new 0 0 512 512" height="512" viewBox="0 0 512 512" width="512" xmlns="http://www.w3.org/2000/svg"><g><g><path d="m98.799 110.303 7.977-11.966c5.781-8.671 8.836-18.762 8.836-29.192 0-29.019-23.61-52.629-52.629-52.629h-10.354c-29.019 0-52.629 23.61-52.629 52.629 0 10.43 3.055 20.521 8.836 29.192l7.977 11.966c1.544 21.372 19.233 38.342 40.993 38.342s39.449-16.97 40.993-38.342zm-46.17-77.271h10.356c19.91 0 36.113 16.202 36.113 36.113 0 4.245-.826 8.382-2.254 12.313-1.875-4.245-4.79-7.994-8.778-10.653l-2.899-1.932c1.85-2.23 3.46-4.699 4.806-7.374l-14.783-7.384c-3.683 7.366-11.091 11.949-19.332 11.949h-14.568c-10.157 0-18.886 6.152-22.701 14.914-1.321-3.782-2.073-7.754-2.073-11.834 0-19.909 16.202-36.112 36.113-36.112zm29.952 74.323c0 13.659-11.115 24.774-24.774 24.774s-24.774-11.115-24.774-24.774v-16.516c0-4.55 3.708-8.258 8.258-8.258h14.567c5.401 0 10.595-1.115 15.319-3.179l7.721 5.153c2.304 1.528 3.683 4.096 3.683 6.862z"/><path d="m281.071 110.303c1.544 21.372 19.233 38.342 40.993 38.342s39.449-16.97 40.993-38.342l7.977-11.966c5.781-8.671 8.836-18.762 8.836-29.192 0-29.019-23.61-52.629-52.629-52.629h-10.356c-29.019 0-52.629 23.61-52.629 52.629 0 10.43 3.055 20.521 8.836 29.192zm65.768-2.948c0 13.659-11.115 24.774-24.774 24.774s-24.774-11.115-24.774-24.774v-24.774l49.548-.008zm-29.952-74.323h10.356c19.91 0 36.112 16.202 36.112 36.113 0 2.725-.396 5.384-.991 8.002-2.263-6.433-8.332-11.082-15.525-11.082h-49.549c-7.193 0-13.262 4.649-15.525 11.082-.595-2.618-.991-5.277-.991-8.002 0-19.91 16.203-36.113 36.113-36.113z"/><path d="m165.161 156.903h5.103l5.467-10.934c4.451 1.643 9.191 2.676 14.204 2.676s9.753-1.032 14.204-2.676l5.467 10.934h5.103c18.217 0 33.032-14.815 33.032-33.032v-49.548c0-31.876-25.93-57.806-57.806-57.806s-57.806 25.93-57.806 57.806v49.548c0 18.217 14.815 33.032 33.032 33.032zm0-49.548v-16.516c0-4.55 3.708-8.258 8.258-8.258h14.567c5.401 0 10.595-1.115 15.319-3.179l7.721 5.153c2.304 1.528 3.683 4.096 3.683 6.862v15.938c0 13.659-11.115 24.774-24.774 24.774-13.658 0-24.774-11.115-24.774-24.774zm66.065 16.516c0 7.457-4.963 13.766-11.759 15.822l-1.214-2.436c7.944-7.531 12.973-18.118 12.973-29.902zm-82.581-49.548c0-22.767 18.523-41.29 41.29-41.29s41.29 18.523 41.29 41.29v17.094c0-8.299-4.129-16.004-11.033-20.612l-2.899-1.932c1.85-2.23 3.46-4.699 4.806-7.374l-14.774-7.391c-3.691 7.374-11.099 11.958-19.34 11.958h-14.567c-13.659 0-24.774 11.115-24.774 24.774v-16.517zm0 33.032c0 11.784 5.029 22.371 12.982 29.902l-1.214 2.436c-6.805-2.056-11.768-8.365-11.768-15.822z"/><path d="m512 76.329c0-18.209-11.33-33.759-27.285-40.142l-2.667-13.353c-2.651-13.23-14.361-22.834-27.854-22.834-13.494 0-25.204 9.604-27.855 22.834l-2.667 13.353c-15.955 6.383-27.285 21.933-27.285 40.142 0 11.561 4.501 22.437 12.684 30.613l4.22 4.22c1.949 20.959 19.439 37.483 40.902 37.483s38.953-16.524 40.902-37.483l4.22-4.22c8.184-8.184 12.685-19.051 12.685-30.613zm-57.806-59.813c5.648 0 10.546 4.022 11.66 9.555l1.387 6.962h-26.095l1.396-6.962c1.106-5.533 6.003-9.555 11.652-9.555zm24.774 90.839c0 13.659-11.115 24.774-24.774 24.774s-24.774-11.115-24.774-24.774v-8.258l49.548-.008zm13.105-18.193c-3.014-3.972-7.738-6.582-13.106-6.582v-16.515h-16.516v16.516h-16.516v-16.516h-16.516v16.516c-5.368 0-10.091 2.61-13.106 6.582-2.155-3.906-3.411-8.258-3.411-12.833 0-14.765 12.016-26.781 26.781-26.781h29.027c14.757 0 26.773 12.015 26.773 26.781.001 4.574-1.254 8.926-3.41 12.832z"/><path d="m405.512 202.76c-3.683 7.366-11.091 11.949-19.332 11.949h-14.567c-13.659 0-24.774 11.115-24.774 24.774v16.517c0 22.767 18.523 41.29 41.29 41.29s41.29-18.523 41.29-41.29v-15.938c0-8.299-4.129-16.004-11.033-20.612l-2.899-1.932c1.85-2.23 3.46-4.699 4.806-7.374zm7.391 53.24c0 13.659-11.115 24.774-24.774 24.774s-24.774-11.115-24.774-24.774v-16.516c0-4.55 3.708-8.258 8.258-8.258h14.567c5.401 0 10.595-1.115 15.319-3.179l7.721 5.145c2.304 1.536 3.683 4.104 3.683 6.871z"/><path d="m445.935 225.297v-2.329c0-29.06-21.578-53.116-49.548-57.146v-33.693h-16.516v33.693c-27.97 4.03-49.548 28.086-49.548 57.146v2.329c0 2.015-.256 3.997-.438 5.979l-152.609.471c2.899-9.769 4.402-19.943 4.402-30.291v-39.49l-10.868 3.625c-15.889 5.302-32.38 8.919-49.028 10.769l-6.169.677v-44.907h-16.516v47.22c-19.109 4.459-33.032 21.364-33.032 41.439 0 8.456 2.477 16.657 7.176 23.701l9.637 14.452c1.544 21.38 19.233 38.35 40.993 38.35 21.81 0 39.548-17.061 41.01-38.507 2.172-3.402 4.154-6.904 5.921-10.504l76.94-.231v65.759h-115.613c-9.109 0-16.516 7.407-16.516 16.516v.661c-27.97 4.03-49.548 28.086-49.548 57.146v80.277l15.063 5.021c-1.734 3.766-3.155 7.721-3.865 11.999l-4.427 26.571h102.07l-4.426-26.583c-.71-4.269-2.131-8.225-3.865-11.999l15.063-5.013v-80.277c0-29.06-21.578-53.116-49.548-57.146v-.661h115.613v.157c-27.582 1.61-49.548 24.493-49.548 52.472 0 10.422 3.055 20.513 8.836 29.192l7.977 11.966c.859 11.908 6.722 22.355 15.575 29.341-10.934 6.986-18.911 18.308-21.19 31.967l-4.428 26.584h102.07l-4.426-26.583c-2.271-13.659-10.248-24.981-21.19-31.967 8.853-6.986 14.708-17.433 15.575-29.341l7.977-11.966c5.781-8.679 8.836-18.771 8.836-29.192 0-27.978-21.966-50.861-49.548-52.472v-.157h115.613v11.875l-11.537 1.28c-21.669 2.411-38.012 20.67-38.012 42.471 0 8.456 2.486 16.665 7.176 23.701l9.637 14.452c.859 11.908 6.722 22.355 15.575 29.341-10.934 6.986-18.911 18.308-21.19 31.967l-4.427 26.591h102.07l-4.426-26.583c-2.271-13.659-10.248-24.981-21.19-31.967 8.894-7.019 14.774-17.524 15.591-29.506 10.967-17.16 16.797-36.922 16.797-57.327v-39.49l-10.868 3.625c-12.577 4.195-25.55 7.292-38.681 9.34v-9.769c0-9.109-7.407-16.516-16.516-16.516h-115.613v-65.809l61.935-.19c-1.784 4.889-3.997 9.637-6.929 14.039-3.576 5.343-5.459 11.57-5.459 18.003 0 13.997 8.919 26.368 22.198 30.794l8.225 2.742 5.227-15.657-8.233-2.75c-6.524-2.18-10.901-8.25-10.901-15.129 0-3.163.925-6.218 2.676-8.844 9.051-13.585 13.84-29.382 13.84-45.708v-2.329c0-22.767 18.523-41.29 41.29-41.29s41.29 18.523 41.29 41.29v2.329c0 16.326 4.79 32.132 13.841 45.708 1.751 2.626 2.676 5.682 2.676 8.844 0 6.879-4.377 12.949-10.901 15.129l-8.225 2.742 5.227 15.657 8.225-2.733c13.271-4.426 22.189-16.797 22.189-30.794 0-6.425-1.883-12.651-5.45-18.011-7.24-10.853-11.064-23.496-11.064-36.543zm-297.29 30.703c0 13.659-11.115 24.774-24.774 24.774s-24.774-11.115-24.774-24.774v-16.516c0-4.55 3.708-8.258 8.258-8.258h14.567c5.401 0 10.595-1.115 15.319-3.179l7.721 5.153c2.304 1.528 3.683 4.096 3.683 6.862zm16.516-54.545c0 8.795-1.28 17.449-3.757 25.74-1.85-3.014-4.236-5.715-7.275-7.738l-2.899-1.932c1.85-2.23 3.46-4.699 4.806-7.374l-14.774-7.391c-3.691 7.366-11.099 11.949-19.34 11.949h-14.567c-10.389 0-19.266 6.441-22.941 15.517-1.164-2.998-1.833-6.177-1.833-9.439 0-13.378 10.025-24.576 23.321-26.054l17.705-1.965c14.03-1.561 27.97-4.302 41.563-8.159v16.846zm-82.58 255.043v-35.336c0 13.13 6.284 24.716 15.872 32.289-2.667 1.701-5.103 3.691-7.374 5.888zm16.516-35.337v-8.258l49.548-.008v8.266c0 13.659-11.115 24.774-24.774 24.774s-24.774-11.115-24.774-24.774zm-6.772 74.323 1.222-7.358c2.486-14.873 15.236-25.674 30.324-25.674s27.838 10.802 30.315 25.674l1.23 7.358zm56.964-42.034c9.588-7.573 15.872-19.159 15.872-32.289v35.336l-8.498 2.833c-2.262-2.188-4.706-4.179-7.374-5.88zm15.872-65.321v24.774c0-9.109-7.407-16.516-16.516-16.516v-16.516h-16.516v16.516h-16.516v-16.516h-16.516v16.516c-9.109 0-16.516 7.407-16.516 16.516v-24.774c0-22.767 18.523-41.29 41.29-41.29s41.29 18.523 41.29 41.29zm253.283 99.997 1.23 7.358h-63.092l1.222-7.358c2.486-14.873 15.236-25.674 30.324-25.674s27.839 10.801 30.316 25.674zm-55.089-66.965v-15.938c0-2.766 1.379-5.335 3.675-6.871l7.721-5.145c4.732 2.065 9.934 3.179 15.327 3.179h14.567c4.55 0 8.258 3.7 8.258 8.258v16.516c0 13.659-11.115 24.774-24.774 24.774-13.659.001-24.774-11.114-24.774-24.773zm66.064-54.544c0 8.638-1.255 17.135-3.634 25.294-4.344-7.185-12.156-12.04-21.141-12.04h-14.567c-8.242 0-15.649-4.583-19.332-11.949l-14.774 7.391c1.338 2.676 2.956 5.145 4.806 7.374l-2.899 1.932c-4.17 2.783-7.168 6.772-9.01 11.264-1.305-3.146-2.031-6.491-2.031-9.934 0-13.378 10.025-24.584 23.321-26.046l17.705-1.965c14.039-1.561 27.97-4.302 41.563-8.167v16.846zm-143.104 121.509 1.23 7.358h-63.092l1.222-7.358c2.486-14.873 15.236-25.674 30.324-25.674s27.839 10.801 30.316 25.674zm-55.089-66.965v-16.516c0-4.558 3.708-8.258 8.258-8.258h14.567c5.393 0 10.595-1.115 15.319-3.179l7.721 5.145c2.304 1.536 3.683 4.104 3.683 6.871v15.938c0 13.659-11.115 24.774-24.774 24.774-13.659-.001-24.774-11.116-24.774-24.775zm66.064-38.21c0 4.245-.826 8.382-2.254 12.313-1.875-4.245-4.79-7.994-8.778-10.653l-2.899-1.932c1.85-2.23 3.46-4.691 4.806-7.374l-14.774-7.391c-3.691 7.374-11.099 11.958-19.34 11.958h-14.567c-10.157 0-18.878 6.152-22.701 14.914-1.321-3.782-2.073-7.763-2.073-11.834 0-19.91 16.202-36.113 36.113-36.113h10.356c19.909 0 36.111 16.202 36.111 36.112z"/></g></g></svg>