<svg clip-rule="evenodd" fill-rule="evenodd" stroke-linejoin="round" stroke-miterlimit="2" viewBox="0 0 510 510" xmlns="http://www.w3.org/2000/svg"><path d="m247 398.755h-191.212c-9.691 0-17.559-7.868-17.559-17.559v-285.364h433.542v285.364c0 9.691-7.868 17.559-17.559 17.559h-191.212v52.312c8.582 3.237 14.693 11.531 14.693 21.24 0 12.525-10.168 22.693-22.693 22.693s-22.693-10.168-22.693-22.693c0-9.709 6.111-18.003 14.693-21.24zm-135.384-247.23v22.976c0 4.869 3.981 8.849 8.85 8.849h80.674c4.869 0 8.849-3.98 8.849-8.849v-22.976zm250.652 181.537-4.981 4.982c-3.123 3.122-3.123 8.191 0 11.313 3.122 3.122 8.191 3.122 11.313 0l18.639-18.638c3.124-3.124 3.124-8.19 0-11.314l-18.639-18.638c-3.122-3.122-8.191-3.122-11.313 0-3.123 3.122-3.123 8.191 0 11.313l4.981 4.982h-35.664v-101.944c0-4.419-3.582-8-8-8h-44.792c-4.415 0-8 3.584-8 8 0 4.415 3.585 8 8 8h36.792v101.944c0 4.418 3.582 8 8 8zm-217.465-94.139c0 8.843 7.156 16 16 16 8.843 0 16-7.157 16-16 0-8.811-7.14-16-16-16s-16 7.189-16 16zm47.785 3.732c-1.846 15.925-15.361 28.268-31.785 28.268-16.419 0-29.93-12.334-31.783-28.251-22.214-2.085-41.957-6.323-54.009-12.22v48.02c0 7.57 6.201 13.789 13.789 13.789h144.006c7.587 0 13.789-6.219 13.789-13.789v-48.024c-12.017 5.867-31.767 10.111-54.007 12.207zm-76.568-107.13h16v-3.749c0-3.721 3.045-6.767 6.766-6.767h44.034c3.721 0 6.766 3.046 6.766 6.767v3.749h16v-3.749c0-12.52-10.246-22.767-22.766-22.767h-44.034c-12.52 0-22.766 10.247-22.766 22.767zm107.241 200.923-10.238 10.238c-3.122 3.122-3.122 8.192 0 11.314s8.192 3.122 11.314 0l10.238-10.238 10.238 10.238c3.122 3.122 8.192 3.122 11.314 0s3.122-8.192 0-11.314l-10.238-10.238 10.238-10.238c3.122-3.122 3.122-8.192 0-11.314s-8.192-3.122-11.314 0l-10.238 10.238-10.238-10.238c-3.122-3.122-8.192-3.122-11.314 0s-3.122 8.192 0 11.314zm179.965-7.45 13.107 13.107c3.124 3.124 8.189 3.124 11.314 0l22.771-22.772c3.122-3.122 3.122-8.192 0-11.314s-8.191-3.122-11.313 0l-17.115 17.115-7.45-7.45c-3.122-3.122-8.192-3.122-11.314 0s-3.122 8.192 0 11.314zm-31.743-165.61-10.238 10.238c-3.122 3.122-3.122 8.191 0 11.314 3.123 3.122 8.192 3.122 11.314 0l10.238-10.239 10.238 10.239c3.122 3.122 8.192 3.122 11.314 0 3.122-3.123 3.122-8.192 0-11.314l-10.238-10.238 10.238-10.238c3.122-3.122 3.122-8.192 0-11.314s-8.192-3.122-11.314 0l-10.238 10.238-10.238-10.238c-3.122-3.122-8.191-3.122-11.314 0-3.122 3.122-3.122 8.192 0 11.314zm-145.494-11.863v22.976c0 13.672-11.177 24.849-24.849 24.849h-80.674c-13.672 0-24.85-11.177-24.85-24.849v-22.976h-21.938c-3.891 0-7.072 3.163-7.072 7.054v37.097c0 6.664 3.447 11.746 8.405 15.815 1.333 1.102 2.772 2.115 4.282 3.074 10.037 6.355 29.523 10.469 51.838 12.36 4.741-11.709 16.214-20.002 29.672-20.002 13.451 0 24.92 8.285 29.665 19.985 22.353-1.904 41.856-6.024 51.844-12.343 1.511-.959 2.95-1.972 4.283-3.074 4.958-4.069 8.405-9.151 8.405-15.815v-37.097c0-3.891-3.181-7.054-7.072-7.054zm268.326-123.84v39.463c0 7-5.684 12.684-12.684 12.684h-453.262c-7 0-12.684-5.684-12.684-12.684v-39.463c0-7.001 5.684-12.685 12.684-12.685h453.262c7 0 12.684 5.684 12.684 12.685z"/></svg>