<svg enable-background="new 0 0 64 64" viewBox="0 0 64 64" xmlns="http://www.w3.org/2000/svg"><g id="Layer_1"/><g id="Layer_2"><g><path d="m24.2700195 24.5v-2.1700439h2.8999634c.5300293 0 .960022-.4299927.960022-.9599609v-3.8699952c0-.5300293-.4299927-.9700317-.960022-.9700317h-11.5999756c-.539978 0-.9700317.4400024-.9700317.9700317v3.8699951c0 .5299683.4300537.9599609.9700317.9599609h2.8999634v2.170044c-8.8799438 1.3999634-15.4699707 9.0499878-15.4699707 18.1300049 1.0080867 24.3651428 35.7232513 24.3681564 36.7300148-.0001373-.0000343-9.0798798-6.5900002-16.7299042-15.4599953-18.1298676zm-3.8699951-2.1700439h1.9299927v1.960022c-.6475811-.0253658-1.2774696-.0248871-1.9299927 0zm-1.6900024 8.7000122c5.6630116.1850739 5.6718636 8.4033966-.0000954 8.5900307-5.6746778-.1807404-5.6631994-8.4125386.0000954-8.5900307zm6.6399536 23.2000122c-5.6567764-.1769104-5.6554012-8.403923.0000935-8.5800209 5.6706771.1741066 5.6694202 8.4067802-.0000935 8.5800209zm4.0100098-17.5599976-14.6199952 14.6199951c-.1900024.1900024-.4400024.289978-.6799927.289978-.8273554.0240326-1.2981453-1.0774269-.6899548-1.6599884-.0000477.0000153 14.6199474-14.6199799 14.6199474-14.6199799.8976251-.8716582 2.2683164.4624787 1.3699953 1.3699952z"/><g><path d="m25.3499756 52.2999878c-3.0991936-.0797501-3.0985374-4.6407051.0000706-4.7200317 3.1114578.083332 3.1108932 4.6371841-.0000706 4.7200317z"/><path d="m18.710022 37.6799927c-3.1176825-.0788956-3.1069298-4.6339531.0000725-4.710022 3.1073894.0765457 3.116909 4.6315613-.0000725 4.710022z"/></g><path d="m61 42.6300049v12.5700073c0 .5299683-.4299927.9699707-.9699707.9699707h-13.5300293c-.5300293 0-.9699707-.4400024-.9699707-.9699707v-6.7700195h-3.460022c-.5300293 0-.960022-.4299927-.960022-.960022 0-.539978.4299927-.9699707.960022-.9699707h3.460022v-3.8699951c0-.5300293.4399414-.960022.9699707-.960022h4.8300171v-29h-30.9299927v.960022c0 .539978-.4300537.9699707-.9700317.9699707-.5299683 0-.960022-.4299927-.960022-.9699707v-1.9299927c0-.5300293.4300537-.9700317.960022-.9700317h13.539978v-6.7600098c0-.539978.4300537-.9699707.960022-.9699707h24.1699829c.5300293 0 .9700317.4299927.9700317.9699707v29.960022c0 .539978-.4400024.9699707-.9700317.9699707h-4.8299561v6.7700195h6.7600098c.539978 0 .9699707.4299927.9699707.960022z"/><path d="m39.7333336 27.166666h-3.8666687c-1.2631187-.0048218-1.26511-1.9284134.000061-1.9333286-.000061-.0000038 3.8666077-.0000038 3.8666077-.0000038 1.2631225.0048218 1.2651138 1.9284134 0 1.9333324z"/><path d="m48.4333344 27.166666h-4.8333359c-1.262825-.0047607-1.2653465-1.9284058.000061-1.9333286-.000061-.0000038 4.8332748-.0000038 4.8332748-.0000038 1.2628251.0047607 1.2653466 1.9284057.0000001 1.9333324z"/><path d="m47.4666672 22.333334h-8.7000008c-1.2616196-.0045204-1.266304-1.9283772.000061-1.9333305-.000061-.0000038 8.6999397-.0000038 8.6999397-.0000038 1.2616196.0045203 1.2663041 1.9283771.0000001 1.9333343z"/></g></g></svg>