<svg id="Layer_1" viewBox="0 0 512 512" xmlns="http://www.w3.org/2000/svg" data-name="Layer 1"><path d="m300.938 475.946v7.216c-11.435 11.626-27.344 18.838-44.939 18.838s-33.503-7.212-44.938-18.838v-7.216c.425-11.645 8.484-19.811 19.614-24.502 13.977 14.022 36.672 14.021 50.649 0 11.13 4.692 19.189 12.857 19.614 24.502zm-44.939-100.013c-34.812 0-63.033 28.221-63.033 63.034 0 10.507 2.574 20.412 7.121 29.123 2.971-12.166 12.009-21.164 23.56-26.643-11.062-23.424 5.925-51.007 32.353-51.007s43.415 27.581 32.353 51.007c11.55 5.48 20.589 14.478 23.56 26.644 4.547-8.712 7.121-18.617 7.121-29.124 0-34.812-28.221-63.034-63.034-63.034zm23.76 50.267c0-13.123-10.638-23.76-23.76-23.76s-23.76 10.638-23.76 23.76 10.638 23.76 23.76 23.76 23.76-10.638 23.76-23.76zm157.487-62.028c4.025-.318 7.975-.318 12 0v-266.219c0-3.313-2.686-6-6-6h-53.159v12h47.159zm-343.169 87.272c-13.977 14.022-36.672 14.022-50.649 0-11.13 4.691-19.189 12.857-19.614 24.502v7.216c11.435 11.626 27.343 18.838 44.938 18.838s33.504-7.212 44.938-18.838v-7.216c-.425-11.645-8.483-19.811-19.614-24.502zm-25.324-75.511c-34.812 0-63.033 28.221-63.033 63.034 0 10.507 2.574 20.412 7.121 29.123 2.971-12.166 12.01-21.164 23.56-26.643-11.062-23.424 5.925-51.007 32.352-51.007s43.415 27.581 32.352 51.007c11.551 5.48 20.59 14.477 23.56 26.644 4.547-8.712 7.122-18.617 7.122-29.124 0-34.812-28.221-63.034-63.034-63.034zm23.76 50.267c0-13.123-10.638-23.76-23.76-23.76s-23.76 10.638-23.76 23.76 10.638 23.76 23.76 23.76 23.76-10.638 23.76-23.76zm-17.76-62.028v-260.219h47.158v-12h-53.158c-3.314 0-6 2.687-6 6v266.219c4.027-.318 7.974-.318 12 0zm392.253 62.028c0-13.123-10.638-23.76-23.76-23.76s-23.76 10.638-23.76 23.76 10.638 23.76 23.76 23.76 23.76-10.638 23.76-23.76zm-23.76-50.267c-34.813 0-63.034 28.221-63.034 63.034 0 10.507 2.574 20.412 7.121 29.123 2.971-12.166 12.009-21.164 23.56-26.643-11.062-23.426 5.926-51.007 32.353-51.007s43.415 27.581 32.353 51.007c11.55 5.48 20.589 14.477 23.56 26.644 4.547-8.711 7.121-18.616 7.121-29.124 0-34.812-28.221-63.034-63.033-63.034zm25.324 75.511c-13.977 14.022-36.673 14.022-50.65 0-11.13 4.691-19.188 12.857-19.613 24.502v7.216c11.435 11.626 27.343 18.838 44.939 18.838s33.503-7.212 44.938-18.838v-7.216c-.425-11.645-8.484-19.811-19.614-24.502zm-152.811-379.115h62.33v247.562h-244.177v-309.891h181.848v62.329zm-117.918 62.239c0 9.383 6.531 9.909 5.68 19.564-.598 6.779 3.128 13.231 9.297 16.103 8.785 4.089 5.977 10.01 14.103 14.701 8.127 4.692 11.848-.701 19.783 4.863 5.571 3.907 13.023 3.907 18.594 0 7.936-5.565 11.656-.171 19.783-4.863 8.125-4.691 5.316-10.612 14.103-14.701 6.169-2.872 9.895-9.324 9.297-16.103-.851-9.654 5.68-10.181 5.68-19.564s-6.531-9.909-5.68-19.563c.598-6.779-3.128-13.231-9.297-16.103-8.787-4.09-5.977-10.01-14.103-14.701-8.126-4.692-11.847.702-19.783-4.863-5.571-3.907-13.022-3.907-18.594 0-7.935 5.564-11.656.171-19.783 4.863-8.125 4.691-5.317 10.612-14.103 14.701-6.169 2.871-9.895 9.324-9.297 16.103.852 9.654-5.68 10.179-5.68 19.563zm105.124 47.516c-.151.204-.285.442-.419.73-4.993 10.736-16.238 17.227-28.036 16.187-2.685-.237-3.557 2.535-10.566 4.589l8.659 32.313 15.733-24.848 26.049 13.652-11.421-42.623zm-105.35 42.623 26.049-13.652 15.733 24.848 8.658-32.313c-7.008-2.054-7.88-4.825-10.565-4.589-11.803 1.041-23.038-5.45-28.036-16.186-.135-.289-.269-.526-.419-.73l-11.421 42.623zm122.771 63.462c0-3.314-2.686-6-6-6h-116.771c-3.314 0-6 2.687-6 6s2.687 6 6 6h116.771c3.314 0 6-2.686 6-6zm-6-29.879h-116.771c-3.314 0-6 2.686-6 6s2.687 6 6 6h116.771c3.314 0 6-2.687 6-6s-2.686-6-6-6zm-90.409-123.722c0-17.686 14.337-32.023 32.023-32.023s32.023 14.337 32.023 32.023-14.337 32.023-32.023 32.023-32.023-14.337-32.023-32.023zm16.591 4.826 6.439 8.758c1.653 2.255 4.588 3.015 7.479 1.594.896-.441 1.572-1.003 2.168-1.805l14.779-19.878c1.954-2.666 1.377-6.413-1.289-8.367-2.667-1.955-6.413-1.377-8.367 1.289l-9.942 13.522-1.611-2.191c-1.954-2.666-5.701-3.243-8.367-1.289-2.666 1.955-3.243 5.701-1.289 8.367zm87.191-79.065h50.33l-50.33-50.329zm-65.759 303.842v-32.28h-12v32.28c4.026-.318 7.973-.318 12 0z"/></svg>