<svg enable-background="new 0 0 60 60" height="512" viewBox="0 0 60 60" width="512" xmlns="http://www.w3.org/2000/svg"><path d="m47 60h-42c-.552 0-1-.447-1-1v-50c0-.552.448-1 1-1h34.002c-.629-.836-1.002-1.875-1.002-3 0-2.757 2.243-5 5-5s5 2.243 5 5v54c0 .553-.448 1-1 1zm-41-2h40v-53c0-1.654-1.346-3-3-3s-3 1.346-3 3 1.346 3 3 3c.552 0 1 .448 1 1s-.448 1-1 1h-37z"/><path d="m43 10h-38c-2.757 0-5-2.243-5-5s2.243-5 5-5h38c.552 0 1 .448 1 1s-.448 1-1 1c-1.654 0-3 1.346-3 3s1.346 3 3 3c.552 0 1 .448 1 1s-.448 1-1 1zm-38-8c-1.654 0-3 1.346-3 3s1.346 3 3 3h34.002c-.629-.836-1.002-1.875-1.002-3s.373-2.164 1.002-3z"/><path d="m59 52h-6c-.552 0-1-.448-1-1v-45c0-.552.448-1 1-1h6c.552 0 1 .448 1 1v45c0 .552-.448 1-1 1zm-5-2h4v-43h-4z"/><path d="m58 7h-4c-.552 0-1-.448-1-1v-3c0-1.654 1.346-3 3-3s3 1.346 3 3v3c0 .552-.448 1-1 1zm-3-2h2v-2c0-.551-.448-1-1-1s-1 .449-1 1z"/><path d="m58 56h-4c-.552 0-1-.448-1-1v-4c0-.552.448-1 1-1h4c.552 0 1 .448 1 1v4c0 .552-.448 1-1 1zm-3-2h2v-2h-2z"/><path d="m56 60c-.552 0-1-.447-1-1v-4c0-.552.448-1 1-1s1 .448 1 1v4c0 .553-.448 1-1 1z"/><path d="m59 19h-6c-.552 0-1-.448-1-1v-6c0-.552.448-1 1-1h6c.552 0 1 .448 1 1v6c0 .552-.448 1-1 1zm-5-2h4v-4h-4z"/><path d="m59 46h-6c-.552 0-1-.448-1-1v-6c0-.552.448-1 1-1h6c.552 0 1 .448 1 1v6c0 .552-.448 1-1 1zm-5-2h4v-4h-4z"/><path d="m34 35h-16c-.552 0-1-.448-1-1v-20c0-.552.448-1 1-1h16c.552 0 1 .448 1 1v20c0 .552-.448 1-1 1zm-15-2h14v-18h-14z"/><path d="m23 19h-1c-.552 0-1-.448-1-1s.448-1 1-1h1c.552 0 1 .448 1 1s-.448 1-1 1z"/><path d="m30 19h-3c-.552 0-1-.448-1-1s.448-1 1-1h3c.552 0 1 .448 1 1s-.448 1-1 1z"/><path d="m23 27h-1c-.552 0-1-.448-1-1s.448-1 1-1h1c.552 0 1 .448 1 1s-.448 1-1 1z"/><path d="m30 27h-3c-.552 0-1-.448-1-1s.448-1 1-1h3c.552 0 1 .448 1 1s-.448 1-1 1z"/><path d="m30 23h-1c-.552 0-1-.448-1-1s.448-1 1-1h1c.552 0 1 .448 1 1s-.448 1-1 1z"/><path d="m25 23h-3c-.552 0-1-.448-1-1s.448-1 1-1h3c.552 0 1 .448 1 1s-.448 1-1 1z"/><path d="m30 31h-1c-.552 0-1-.448-1-1s.448-1 1-1h1c.552 0 1 .448 1 1s-.448 1-1 1z"/><path d="m25 31h-3c-.552 0-1-.448-1-1s.448-1 1-1h3c.552 0 1 .448 1 1s-.448 1-1 1z"/><path d="m13 55c-2.206 0-4-1.794-4-4s1.794-4 4-4 4 1.794 4 4-1.794 4-4 4zm0-6c-1.103 0-2 .897-2 2s.897 2 2 2 2-.897 2-2-.897-2-2-2z"/><path d="m26 55c-2.206 0-4-1.794-4-4s1.794-4 4-4 4 1.794 4 4-1.794 4-4 4zm0-6c-1.103 0-2 .897-2 2s.897 2 2 2 2-.897 2-2-.897-2-2-2z"/><path d="m39 55c-2.206 0-4-1.794-4-4s1.794-4 4-4 4 1.794 4 4-1.794 4-4 4zm0-6c-1.103 0-2 .897-2 2s.897 2 2 2 2-.897 2-2-.897-2-2-2z"/><path d="m26 49c-.552 0-1-.448-1-1v-14c0-.552.448-1 1-1s1 .448 1 1v14c0 .552-.448 1-1 1z"/><path d="m13 49c-.552 0-1-.448-1-1v-4c0-2.206 1.794-4 4-4h10c.552 0 1 .448 1 1s-.448 1-1 1h-10c-1.103 0-2 .897-2 2v4c0 .552-.448 1-1 1z"/><path d="m39 49c-.552 0-1-.448-1-1v-4c0-1.103-.897-2-2-2h-10c-.552 0-1-.448-1-1s.448-1 1-1h10c2.206 0 4 1.794 4 4v4c0 .552-.448 1-1 1z"/></svg>