<svg height="512" viewBox="0 0 64 64" width="512" xmlns="http://www.w3.org/2000/svg"><g id="Layer_27" data-name="Layer 27"><path d="m14 38v10h8v-10a4 4 0 0 0 -8 0z"/><path d="m42 38v10h8v-10a4 4 0 0 0 -8 0z"/><path d="m8 50h48v2h-48z"/><path d="m8 26h48v2h-48z"/><path d="m54 48v-18h-44v18h2v-10a6 6 0 0 1 12 0v10h2v-10a6 6 0 0 1 12 0v10h2v-10a6 6 0 0 1 12 0v10z"/><path d="m28 38v10h8v-10a4 4 0 0 0 -8 0z"/><path d="m5.97 24h52.06l-26.03-19.74zm31.03-9a5 5 0 1 1 -5-5 5.006 5.006 0 0 1 5 5z"/><path d="m6 54h52v2h-52z"/><path d="m4 58h56v2h-56z"/><circle cx="32" cy="15" r="3"/></g></svg>