<svg enable-background="new 0 0 512 512" height="512" viewBox="0 0 512 512" width="512" xmlns="http://www.w3.org/2000/svg"><g id="_x32_2_Manager"><g><g><path d="m167.591 96.25v51.371c0 49.178 39.82 89.378 89.378 89.378 49.283 0 89.378-40.094 89.378-89.378v-56.772c10.48-6.314 17.659-17.2 18.331-29.856 1.148-21.773-16.105-39.626-37.536-39.626h-91.693c-21.771 0-43.113-6.045-61.717-17.483-17.522-10.791-39.766 2.639-39.766 22.861v32.21c-.003 19.406 14.775 35.247 33.625 37.295zm162.76.272v51.099c0 40.461-32.921 73.382-73.382 73.382-40.293 0-73.382-32.646-73.382-73.382v-50.962c153.703 0 144.267.074 146.764-.137zm-180.392-69.778c0-7.993 8.723-13.345 15.39-9.236 21.127 12.989 45.366 19.854 70.098 19.854h91.693c12.361 0 22.221 10.276 21.564 22.787-.601 11.313-11.067 20.514-23.329 20.514-42.224 0-120.138 0-153.747 0-11.95 0-21.67-9.74-21.67-21.709v-32.21z"/><path d="m360.049 380.998h-16.546c-4.417 0-7.998 3.581-7.998 7.998s3.581 7.998 7.998 7.998h16.546c4.417 0 7.998-3.581 7.998-7.998s-3.581-7.998-7.998-7.998z"/><path d="m294.474 253.526h-76.947c-78.092 0-142.742 63.629-142.742 142.742v83.684c0 17.64 14.352 31.991 31.991 31.991h298.449c17.64 0 31.991-14.352 31.991-31.991v-83.684c0-79.07-64.613-142.742-142.742-142.742zm-47.983 55.738c5.614 3.714 13.175 3.835 19.018.031l8.111 98.895-17.62 15.824-17.62-15.824zm10.595-13.637c-.572.667-1.505.68-2.066.031-.697-.807-23.276-26.944-22.579-26.137h47.144c-2.653 3.078-23.856 27.68-22.499 26.106zm164.134 184.324c0 8.822-7.174 15.996-15.996 15.996h-298.448c-8.822 0-15.996-7.174-15.996-15.996v-83.684c0-67.876 53.676-123.301 120.789-126.445l20.189 23.373-9.643 117.641c-.203 2.488.765 4.932 2.628 6.604l25.915 23.275c3.02 2.71 7.622 2.747 10.685 0l25.915-23.275c1.863-1.671 2.831-4.116 2.628-6.604l-9.644-117.573 20.197-23.441c67.109 3.147 120.782 58.571 120.782 126.444v83.685z"/></g></g></g></svg>