<svg clip-rule="evenodd" fill-rule="evenodd" height="512" image-rendering="optimizeQuality" shape-rendering="geometricPrecision" text-rendering="geometricPrecision" viewBox="0 0 1707 1707" width="512" xmlns="http://www.w3.org/2000/svg"><g id="Layer_x0020_1"><g id="_577474904"><path d="m934 1072c-113 0-205-92-205-205s92-205 205-205 206 92 206 205-93 205-206 205zm-12-305v-22c0-11 9-20 20-20s20 9 20 20v21c5 1 9 3 14 6 9 5 13 18 7 27-6 10-18 13-27 7-4-2-8-3-12-3 0 0-1 0-2 0-7 1-13 5-17 12-3 5-4 11-2 17 1 6 5 11 10 14l23 13c14 8 24 21 29 38 4 16 2 33-6 47-5 8-10 14-17 19v27c0 11-9 20-20 20s-20-9-20-20v-15c-10 0-20-3-29-8-10-5-13-18-7-27 5-10 17-13 27-8 6 4 12 4 18 3 2-2 4-3 6-3 3-2 5-5 7-8 3-5 4-11 2-17-1-6-5-11-10-14l-23-13c-14-8-25-22-29-38s-2-33 6-47c8-13 19-23 32-28z"/><path d="m292 1c4 0 9 1 13 2l180 48c13 4 24 12 30 24 7 11 9 24 5 37l-120 448c-6 22-25 37-48 37-4 0-8-1-13-2l-180-48c-13-4-23-12-30-23-7-12-8-25-5-38l120-448c6-21 26-37 48-37zm72 77c6 0 11 1 17 2 34 9 54 44 45 78-8 28-33 47-62 47-5 0-11-1-16-2-34-9-54-44-45-78 7-28 33-47 61-47zm0 93c14 0 25-9 29-22 4-16-5-32-21-36s-32 5-36 21 5 32 21 36c2 1 5 1 7 1z"/><path d="m1505 600c8 11 12 23 10 36-3 15-15 29-37 41-71 37-199-42-285-113 42 14 88 25 124 32 50 9 106 16 157 10 10-1 21-3 31-6z"/><path d="m1317 694c-5 13-16 25-36 35-75 40-214-53-293-119 45-13 90-31 130-55l49 40c37 30 92 71 150 99z"/><path d="m537 206c74 31 148 64 167 73 370-58 385-51 604 54 54 26 123 58 213 98l3 1c22 10 45 20 50 42 4 15-1 33-17 53-17 21-47 34-88 39-107 12-277-37-335-70-49 38-124 71-212 90-149 32-346 24-458-93l-4-2z"/><g><path d="m1415 1705c-5 0-9 0-13-1l-180-49c-13-3-24-11-31-23-6-11-8-25-5-38l120-447c6-22 26-37 48-37 5 0 9 0 13 2l180 48c13 3 24 12 31 23 6 12 8 25 5 38l-120 447c-6 22-26 37-48 37zm-73-76c-5 0-11-1-16-2-34-9-54-44-45-78 7-28 33-48 61-48 6 0 11 1 17 3 34 9 54 44 45 78-8 27-33 47-62 47zm0-93c-13 0-25 9-28 21-5 16 5 33 21 37 15 4 32-6 36-21 4-16-5-32-21-36-3-1-5-1-8-1z"/><path d="m201 1106c-7-10-11-22-9-35 3-16 15-29 37-41 71-37 198 42 285 113-42-15-88-26-124-32-50-10-106-16-157-10-10 1-21 3-32 5z"/><path d="m390 1013c4-13 16-25 36-35 75-40 213 53 292 119-45 13-90 31-130 55l-49-40c-37-31-91-71-149-99z"/><path d="m1170 1501c-74-32-149-65-168-73-370 57-384 51-603-54-55-26-123-59-213-98l-4-2c-21-9-44-19-50-41-4-16 2-33 18-53 17-21 46-35 88-39 106-12 277 36 335 70 48-39 123-71 212-90 149-32 346-24 457 93l5 2z"/></g></g></g></svg>