<svg id="Layer_5" enable-background="new 0 0 64 64" height="512" viewBox="0 0 64 64" width="512" xmlns="http://www.w3.org/2000/svg"><g><path d="m33 48c0-.552-.449-1-1-1s-1 .448-1 1v2h2z"/><path d="m21.331 30.003c.651.674 1.404 1.246 2.245 1.667l1.184.592c1.382.691 2.24 2.08 2.24 3.624 0 1.68-1.057 3.203-2.629 3.793-3.212 1.205-5.371 4.32-5.371 7.751v9.57h26v-9.57c0-3.431-2.159-6.546-5.371-7.751-1.572-.59-2.629-2.114-2.629-3.793 0-1.544.858-2.933 2.239-3.624l1.186-.592c2.822-1.411 4.575-4.248 4.575-7.404v-1.266h-15.744c-1.695 3.197-4.513 5.7-7.925 7.003zm5.669 16.997h-2v8h-2v-8h-2v-2h6zm10 6.764 1.882-3.764-1.882-3.764v-1.236h2v.764l1 2 1-2v-.764h2v1.236l-1.882 3.764 1.882 3.764v1.236h-2v-.764l-1-2-1 2v.764h-2zm-8-5.764c0-1.654 1.346-3 3-3s3 1.346 3 3v7h-2v-3h-2v3h-2z"/><path d="m51 15v-4h-20.875c.449 1.265.732 2.605.824 4z"/><path d="m61 16c0-.235-.131-.447-.342-.553l-7.658-3.829v8.764l7.658-3.829c.211-.106.342-.318.342-.553z"/><path d="m51 17h-20.051c-.093 1.395-.375 2.735-.824 4h20.875z"/><path d="m16 29c7.168 0 13-5.832 13-13s-5.832-13-13-13-13 5.832-13 13 5.832 13 13 13zm0-23c5.523 0 10 4.477 10 10s-4.477 10-10 10-10-4.477-10-10 4.477-10 10-10z"/><path d="m47 59h-30c-1.103 0-2 .897-2 2h34c0-1.103-.897-2-2-2z"/><path d="m17 19h-2c-.551 0-1-.448-1-1h-2c0 1.654 1.346 3 3 3v2h2v-2c1.654 0 3-1.346 3-3s-1.346-3-3-3h-2c-.551 0-1-.448-1-1s.449-1 1-1h2c.551 0 1 .448 1 1h2c0-1.654-1.346-3-3-3v-2h-2v2c-1.654 0-3 1.346-3 3s1.346 3 3 3h2c.551 0 1 .448 1 1s-.449 1-1 1z"/><path d="m60.293 43.293-4.293 4.293v-15.586h-2v15.586l-4.293-4.293-1.414 1.414 6.707 6.707 6.707-6.707z"/><path d="m54 28h2v2h-2z"/><path d="m54 24h2v2h-2z"/><path d="m9 31.586-6.707 6.707 1.414 1.414 4.293-4.293v15.586h2v-15.586l4.293 4.293 1.414-1.414z"/><path d="m8 53h2v2h-2z"/><path d="m8 57h2v2h-2z"/></g></svg>