<?xml version="1.0"?>
<svg xmlns="http://www.w3.org/2000/svg" viewBox="0 0 64 64" width="512" height="512"><g id="Worldwide"><path d="M26,15A11,11,0,0,0,4,15c0,6.4,8.466,15.869,11,18.558C17.534,30.869,26,21.4,26,15ZM6,15a9,9,0,1,1,9,9A9.01,9.01,0,0,1,6,15Z"/><path d="M40.447,39.234A12.932,12.932,0,0,1,49,36a13.075,13.075,0,0,1,1.541.1,18.565,18.565,0,0,0,.426-3.1h-10A47.892,47.892,0,0,1,40.447,39.234Z"/><path d="M23.311,26.494c-1.115,1.639-2.3,3.175-3.39,4.506h3.108C23.059,29.468,23.146,27.956,23.311,26.494Z"/><path d="M22,15a7,7,0,1,0-7,7A7.008,7.008,0,0,0,22,15Zm-2,2a2,2,0,1,1-2-2A2,2,0,0,1,20,17ZM10,13a2,2,0,1,1,2,2A2,2,0,0,1,10,13Zm1.143,6.485,6-10,1.714,1.03-6,10Z"/><path d="M40.979,31h9.967a18.945,18.945,0,0,0-5.791-12.666,20.985,20.985,0,0,1-5.339,3.138A44.172,44.172,0,0,1,40.979,31Z"/><path d="M38.979,31a42.426,42.426,0,0,0-1.058-8.865A20.958,20.958,0,0,1,32,23a20.908,20.908,0,0,1-5.908-.863A42.775,42.775,0,0,0,25.029,31Z"/><path d="M43.625,17a18.982,18.982,0,0,0-7.284-3.477,18.755,18.755,0,0,1,2.935,6.006A19,19,0,0,0,43.625,17Z"/><path d="M23.021,33h-4.8c-1.373,1.559-2.374,2.568-2.513,2.707a1,1,0,0,1-1.414,0c-.084-.084-.49-.493-1.1-1.145a18.95,18.95,0,0,0,5.65,11.1,20.985,20.985,0,0,1,5.339-3.138A44.172,44.172,0,0,1,23.021,33Z"/><path d="M37.4,20.2C36.016,15.709,33.945,13,32,13c-1.476,0-2.975,1.456-4.228,4.093a17.293,17.293,0,0,1-.99,3.165A18.907,18.907,0,0,0,32,21,18.931,18.931,0,0,0,37.4,20.2Z"/><path d="M20.375,47a18.982,18.982,0,0,0,7.284,3.477,18.751,18.751,0,0,1-2.935-6.007A19.045,19.045,0,0,0,20.375,47Z"/><path d="M49,38A11,11,0,1,0,60,49,11.013,11.013,0,0,0,49,38ZM44.05,53.95l-1.414,1.414a9.01,9.01,0,0,1,0-12.728L44.05,44.05A7.007,7.007,0,0,0,44.05,53.95ZM49,48a3.992,3.992,0,0,1,1,7.858V58H48V55.858A4,4,0,0,1,45,52h2a2,2,0,1,0,2-2,3.992,3.992,0,0,1-1-7.858V40h2v2.142A4,4,0,0,1,53,46H51a2,2,0,1,0-2,2Zm6.364,7.364L53.95,53.95a7.007,7.007,0,0,0,0-9.9l1.414-1.414A9.01,9.01,0,0,1,55.364,55.364Z"/><path d="M25.021,33a42.426,42.426,0,0,0,1.058,8.865,20.657,20.657,0,0,1,11.837,0A43.526,43.526,0,0,0,38.972,33Z"/><path d="M26.6,43.8C27.984,48.291,30.055,51,32,51c1.429,0,2.943-1.448,4.165-3.969a12.868,12.868,0,0,1,.968-3.313A18.689,18.689,0,0,0,26.6,43.8Z"/><path d="M32,60A28.032,28.032,0,0,1,4,32H6A26.029,26.029,0,0,0,32,58Z"/><path d="M60,32H58A26.029,26.029,0,0,0,32,6V4A28.032,28.032,0,0,1,60,32Z"/></g></svg>
