<svg id="Growth_Marketing" height="512" viewBox="0 0 64 64" width="512" xmlns="http://www.w3.org/2000/svg" data-name="Growth Marketing"><path d="m20.02 29.47a8.869 8.869 0 0 1 -6.04 0 5.933 5.933 0 0 1 -.91 2.99l3.93 1.47 3.93-1.47a5.933 5.933 0 0 1 -.91-2.99z"/><path d="m16.03 37.38.47.62h1l.47-.62-.97-.97z"/><path d="m12.69 11h11.31v-2a5 5 0 0 0 -5-5h-13v.31a6.7 6.7 0 0 0 6.69 6.69z"/><path d="m24 13h-11.31a8.563 8.563 0 0 1 -2.69-.43v1.43h-1a1 1 0 0 0 -1 1v1a1 1 0 0 0 1 1h1v4a7 7 0 0 0 14 0v-4h1a1 1 0 0 0 1-1v-1a1 1 0 0 0 -1-1h-1zm-9 5a1 1 0 0 1 -2 0v-1a1 1 0 0 1 2 0zm6 0a1 1 0 0 1 -2 0v-1a1 1 0 0 1 2 0z"/><path d="m23 34.46a6.65 6.65 0 0 1 -.62-.41l-3.58 1.34 2.81 2.8z"/><path d="m38 20v10h5.76l8.24-4.12v-5.88a1 1 0 0 1 1-1h4.78l-12.78-14.49-12.78 14.49h4.78a1 1 0 0 1 1 1z"/><path d="m11 34.46 1.39 3.73 2.81-2.8-3.57-1.34c-.2.15-.42.28-.63.41z"/><path d="m38 44h-3v6.5a1.5 1.5 0 0 0 3 0z"/><path d="m40 44v6.5a3.5 3.5 0 0 1 -2 3.15v6.35h14v-11.88l-8.24-4.12z"/><path d="m14.6 38.81-1.89 1.9a1.007 1.007 0 0 1 -.71.29 1.492 1.492 0 0 1 -.21-.02 1.011 1.011 0 0 1 -.73-.63l-1.92-5.14-1.57.47a4.959 4.959 0 0 0 -3.57 4.78v19.54h3v-16h2v16h3.13l2.82-20.73z"/><path d="m55.5 34h-.5v-7.38l-10 5v10.76l10 5v-8.38h.5a2.5 2.5 0 0 0 0-5z"/><path d="m43 32h-10a5 5 0 0 0 0 10h10z"/><path d="m16.87 40-2.72 20h5.7l-2.72-20z"/><path d="m26 37a7.328 7.328 0 0 1 .14-1.41l-1.28-.38-1.92 5.14a1.011 1.011 0 0 1 -.73.63 1.492 1.492 0 0 1 -.21.02 1.007 1.007 0 0 1 -.71-.29l-1.89-1.9-.35.46 2.82 20.73h3.13v-16h2v16h3v-16.69a6.984 6.984 0 0 1 -4-6.31z"/></svg>