<svg id="Layer_1" enable-background="new 0 0 66 66" viewBox="0 0 66 66" xmlns="http://www.w3.org/2000/svg"><g><path d="m50.97 35.84-4.13-1.29c-.45-1.02-1.27-1.81-2.35-2.17l-.88-.3c-.24-.08-.51-.04-.71.12l-9.9 7.87-9.9-7.87c-.2-.16-.47-.2-.71-.12l-.88.3c-1.09.36-1.91 1.16-2.36 2.18-.01 0-.03 0-.04.01l-4.08 1.27c-5.22 1.64-8.73 6.41-8.73 11.87v7.47c0 5.41 4.41 9.82 9.83 9.82h33.74c5.42 0 9.83-4.41 9.83-9.82v-7.47c0-5.46-3.51-10.23-8.73-11.87zm-15.12 9.97-1.78 2.48h-2.1l-1.8-2.5 2.83-3.55zm-8.16.02c-.33 0-.64-.16-.85-.42l-6.02-7.68c-.51-.65-.67-1.48-.43-2.27.23-.79.82-1.4 1.6-1.66l.5-.17 1 .79 8.46 6.73-3.4 4.27c-.21.26-.52.41-.86.41zm.23 17.67 4.22-13.71h1.76l4.22 13.71zm10.39-17.67c-.34 0-.65-.15-.86-.41l-3.4-4.27 9.46-7.52.5.17c.78.26 1.37.87 1.6 1.66.24.79.08 1.62-.43 2.27l-6.02 7.68c-.2.26-.52.42-.85.42zm16.63 10.57c0 .94-.77 1.71-1.71 1.71h-8.73c-.94 0-1.7-.77-1.7-1.71v-6.77c0-.56.27-1.08.73-1.39.46-.32 1.05-.39 1.57-.2 2.63.99 5.09 1.02 7.49.07.54-.21 1.14-.15 1.61.18.46.31.74.83.74 1.4z"/><path d="m57.86 20.06c0 4.49-3.65 8.14-8.14 8.14s-8.15-3.65-8.15-8.14 3.66-8.15 8.15-8.15 8.14 3.66 8.14 8.15z"/><path d="m51 8.64c.12-.67-.11-1.37-.67-1.82l-4.05-3.22c-.81-.64-2-.51-2.64.31l-.76.95-5.06-.68c-.81-1.87-2.66-3.18-4.82-3.18-2.1 0-3.98 1.27-4.81 3.17l-5.07.69-.76-.95c-.64-.82-1.83-.95-2.64-.31l-4.05 3.22c-.56.45-.79 1.15-.67 1.82-5.74.64-10.22 5.51-10.22 11.42 0 6.34 5.16 11.5 11.5 11.5 6.11 0 11.11-4.8 11.47-10.82l3.42-2.73c.82-.64.95-1.83.31-2.64l-.84-1.06 1.4-2.88c.32.05.64.09.96.09.33 0 .65-.04.96-.09l1.4 2.88-.84 1.06c-.64.81-.51 2 .31 2.64l3.31 2.64c.03.02.07.04.11.06.34 6.04 5.35 10.85 11.47 10.85 6.34 0 11.5-5.16 11.5-11.5 0-5.91-4.48-10.78-10.22-11.42zm-34.72 21.42c-5.51 0-10-4.49-10-10 0-5.52 4.49-10 10-10 5.52 0 10 4.48 10 10 0 5.51-4.48 10-10 10zm13.32-17.05-5.39-6.78 3.57-.49c-.01.18-.04.35-.04.52 0 2.01 1.12 3.8 2.87 4.69zm6.8 0-1.02-2.08c1.7-.88 2.88-2.63 2.88-4.67 0-.18-.03-.34-.05-.52l3.58.49zm13.32 17.05c-5.52 0-10-4.49-10-10 0-5.52 4.48-10 10-10 5.51 0 10 4.48 10 10 0 5.51-4.49 10-10 10z"/><path d="m24.43 20.06c0 4.49-3.66 8.14-8.15 8.14s-8.14-3.65-8.14-8.14 3.65-8.15 8.14-8.15 8.15 3.66 8.15 8.15z"/><path d="m53.44 49.69v6.71c0 .12-.09.21-.21.21h-8.73c-.11 0-.2-.09-.2-.21v-6.77c0-.08.04-.13.08-.16.03-.02.06-.04.12-.04.02 0 .04.01.07.02 2.96 1.11 5.84 1.13 8.57.06.11-.05.19-.01.22.02.05.03.08.09.08.16z"/></g></svg>