<?xml version="1.0" encoding="UTF-8"?>
<svg xmlns="http://www.w3.org/2000/svg" id="Layer_5" data-name="Layer 5" viewBox="0 0 64 64" width="512" height="512"><path d="M49.8213,47.6074V44.9043l-3.876-1.9385a1,1,0,0,1-.5449-.77L43.9919,31H30v3.5889l5.4937.9619a1.0009,1.0009,0,0,1,.8276.9853v3.3213a.9988.9988,0,0,1-.1426.5147l-3.3213,5.5351a.9981.9981,0,0,1-.541.4336l-2.6377.88v3.708a.9991.9991,0,0,1-.4853.8574l-5.2427,3.1455-2.4419,6.2931a31.9267,31.9267,0,0,0,33.0582-7.56L50.0532,48.248A.9993.9993,0,0,1,49.8213,47.6074Z"/><path d="M62.9763,31H46.0076l1.31,10.416,3.95,1.9755a1,1,0,0,1,.5529.8946v2.959l4.1247,4.9494a31.8646,31.8646,0,0,0,8.0378-20.1692A1.0052,1.0052,0,0,0,62.9763,31Z"/><path d="M22.6279,53.3926l5.0508-3.03V46.5a.9988.9988,0,0,1,.6836-.9482l2.9707-.9913,2.9883-4.98V37.376l-5.4937-.9619A1.0009,1.0009,0,0,1,28,35.4287V31H11v2.7637l2.9219,7.4629,3.9277.9824a1,1,0,0,1,.7061.6533l1.1074,3.3213a1,1,0,0,1-.2056.9853l-2.9883,3.32,1.83,9.4227q.6627.3155,1.3407.6023L22.21,53.8887A.9988.9988,0,0,1,22.6279,53.3926Z"/><path d="M14.6494,49.5215l2.9321-3.2578-.7495-2.2481-3.896-.9746a1,1,0,0,1-.6884-.6055L9.0687,34.316,9,33.9521V31H1.023A1.0043,1.0043,0,0,0,.0162,32.0244,32.0212,32.0212,0,0,0,16.0289,58.7115l-1.6178-8.3307A1,1,0,0,1,14.6494,49.5215Z"/><path d="M41.6665,25a6.9947,6.9947,0,0,0-6.545-6.9771,5.4746,5.4746,0,0,1-6.243,0A6.9947,6.9947,0,0,0,22.3335,25v4h19.333Z"/><path d="M32,9.5439a5.6026,5.6026,0,0,1-3.5,2.167V13.5a3.5,3.5,0,0,0,7,0V11.7109A5.6026,5.6026,0,0,1,32,9.5439Z"/><path d="M26.5,13.5V10.8a1,1,0,0,1,1-1,3.6055,3.6055,0,0,0,3.5029-2.7344L31.03,6.958a1,1,0,0,1,1.94,0l.0269.1074A3.6055,3.6055,0,0,0,36.5,9.8a1,1,0,0,1,1,1v2.7a5.46,5.46,0,0,1-.7468,2.7541A8.9417,8.9417,0,0,1,39.5,17.4205V9.5a7.5,7.5,0,0,0-15,0v7.9205a8.9417,8.9417,0,0,1,2.7468-1.1664A5.46,5.46,0,0,1,26.5,13.5Z"/><path d="M63,25a6.9948,6.9948,0,0,0-6.545-6.9771,5.4746,5.4746,0,0,1-6.243,0A6.9947,6.9947,0,0,0,43.667,25v4H63Z"/><path d="M52.3809,9.4189a6.7438,6.7438,0,0,1-2.5474,2.0586V13.5a3.5,3.5,0,0,0,7,0V11.7959A5.7435,5.7435,0,0,1,52.3809,9.4189Z"/><path d="M46.8885,16.8428a8.9108,8.9108,0,0,1,1.6918-.5887A5.46,5.46,0,0,1,47.8335,13.5V10.8a.9986.9986,0,0,1,.6841-.9482,4.7179,4.7179,0,0,0,2.9673-2.9678,1,1,0,0,1,1.9189.0742A3.7475,3.7475,0,0,0,57.0444,9.8h.7891a1,1,0,0,1,1,1v2.7a5.46,5.46,0,0,1-.7468,2.7541,8.9108,8.9108,0,0,1,1.6918.5887,5.6615,5.6615,0,0,0,2.055-4.3588V10.5a8.5,8.5,0,0,0-17,0V12.484A5.6615,5.6615,0,0,0,46.8885,16.8428Z"/><path d="M14.1387,9.458a3.5,3.5,0,0,0-6.9444,0,6.412,6.412,0,0,1,6.9444,0Z"/><path d="M20.333,25a6.9934,6.9934,0,0,0-.225-1.7329,5.7709,5.7709,0,0,1-4.7193,2.4556H5.9443A5.7709,5.7709,0,0,1,1.225,23.2671,6.9934,6.9934,0,0,0,1,25v4H20.333Z"/><path d="M5.9443,23.7222h9.4444a3.7778,3.7778,0,0,0,3.7778-3.7778V10.5a8.5,8.5,0,0,0-17,0v9.4445A3.7778,3.7778,0,0,0,5.9443,23.7222ZM5.1665,11.7V9.9a5.5,5.5,0,0,1,11,0v3.6a5.5,5.5,0,0,1-11,0Z"/><path d="M10.6665,17a3.5042,3.5042,0,0,0,3.5-3.5V12.1143l-.3887-.3887a4.3992,4.3992,0,0,0-6.2226,0l-.3887.3887V13.5A3.5042,3.5042,0,0,0,10.6665,17Z"/></svg>
