<?xml version="1.0" encoding="UTF-8"?>
<svg xmlns="http://www.w3.org/2000/svg" id="Economy_management" data-name="Economy management" viewBox="0 0 64 64" width="512" height="512"><circle cx="21" cy="20" r="1"/><path d="M54,30V23H47a3.014,3.014,0,0,1-2.83-2H43a1,1,0,0,0-1,1v7.71A6.2,6.2,0,0,0,47.82,36,6,6,0,0,0,54,30Zm-8-3a1,1,0,0,1-2,0V26a1,1,0,0,1,2,0Zm6,0a1,1,0,0,1-2,0V26a1,1,0,0,1,2,0Z"/><circle cx="25" cy="47" r="6"/><path d="M12,54a3.009,3.009,0,0,0-3-3,1,1,0,0,1-1-1V44a1,1,0,0,1,1-1,3.009,3.009,0,0,0,3-3,1,1,0,0,1,1-1H36V37H6V57H34V55H13A1,1,0,0,1,12,54Z"/><path d="M47.54,44.88l-1.22,1.21L48,48.33l1.68-2.24-1.22-1.21a.942.942,0,0,1-.92,0Z"/><path d="M41.86,41.9A2.982,2.982,0,0,0,44,39.02V36.87a8.4,8.4,0,0,1-4-7.16V22a3.009,3.009,0,0,1,3-3h2a1,1,0,0,1,1,1,1,1,0,0,0,1,1h8a1,1,0,0,1,1,1v8a7.954,7.954,0,0,1-2.42,5.74A7.744,7.744,0,0,1,52,36.92v2.1a2.982,2.982,0,0,0,2.14,2.88l2.87.86a8.48,8.48,0,0,1,.99.39V22a7.008,7.008,0,0,0-7-7H45a7.008,7.008,0,0,0-7,7V43.15a8.48,8.48,0,0,1,.99-.39Z"/><circle cx="13" cy="14" r="1"/><path d="M17,30a12.852,12.852,0,0,0,6.046-1.5,1,1,0,0,1,.466-.115.993.993,0,0,1,.294.044l6.631,2.04-2.131-6.392a1,1,0,0,1,.074-.8A13,13,0,1,0,17,30Zm7-10a3,3,0,1,1-3-3A3,3,0,0,1,24,20Zm-3.809-9.588,1.618,1.176-8,11-1.618-1.176ZM13,11a3,3,0,1,1-3,3A3,3,0,0,1,13,11Z"/><path d="M50,39.02V37.74A7.836,7.836,0,0,1,48,38h-.24A7.968,7.968,0,0,1,46,37.73v1.29a5.015,5.015,0,0,1-.55,2.28L48,42.83l2.55-1.53A5.015,5.015,0,0,1,50,39.02Z"/><path d="M48,51a.975.975,0,0,1-.59-.22L46.15,60h3.7l-1.26-9.22A.975.975,0,0,1,48,51Z"/><path d="M19.73,41H13.9A5.01,5.01,0,0,1,10,44.9v4.2A5.01,5.01,0,0,1,13.9,53h5.83a7.958,7.958,0,0,1,0-12Z"/><path d="M42.44,43.82l-.36.11,1.19,2.38,2.49-2.49-1.58-.95A4.906,4.906,0,0,1,42.44,43.82Z"/><path d="M53.92,43.93l-.36-.11a4.906,4.906,0,0,1-1.74-.95l-1.58.95,2.49,2.49Z"/><path d="M58.33,45.75a4.712,4.712,0,0,0-1.9-1.07l-.56-.17-1.98,3.94a.972.972,0,0,1-.73.54A.86.86,0,0,1,53,49a1.007,1.007,0,0,1-.71-.29l-1.18-1.19-.8,1.07L51.87,60H54V59a1.033,1.033,0,0,1,.29-.71l.83-.83A2.956,2.956,0,0,0,56,55.34v-.68a2.956,2.956,0,0,0-.88-2.12l-.83-.83,1.42-1.42.83.83A4.994,4.994,0,0,1,58,54.66v.68a4.994,4.994,0,0,1-1.46,3.54l-.54.53V60h4V49.46A4.976,4.976,0,0,0,58.33,45.75Z"/><path d="M36,41H30.27a7.958,7.958,0,0,1,0,12H34V49.46a6.99,6.99,0,0,1,2-4.87Z"/><path d="M43.71,48.71A1.007,1.007,0,0,1,43,49a.86.86,0,0,1-.16-.01.972.972,0,0,1-.73-.54l-1.98-3.94-.56.17a4.812,4.812,0,0,0-1.9,1.06A5.014,5.014,0,0,0,36,49.46V60h4v-.59l-.54-.53A4.994,4.994,0,0,1,38,55.34v-.68a4.994,4.994,0,0,1,1.46-3.54l.83-.83,1.42,1.42-.83.83A2.956,2.956,0,0,0,40,54.66v.68a2.956,2.956,0,0,0,.88,2.12l.83.83A1.033,1.033,0,0,1,42,59v1h2.13l1.56-11.41-.8-1.07Z"/></svg>
