<svg id="Layer_1" enable-background="new 0 0 512 512" viewBox="0 0 512 512" xmlns="http://www.w3.org/2000/svg"><path d="m234.4 90.8c-2.2-2.5-1.8-6.3.7-8.4 2.5-2.2 6.3-1.9 8.4.7l15.8 18.4 32.3-36.9c2.2-2.5 6-2.7 8.4-.6 2.5 2.2 2.7 6 .6 8.4l-37.5 42.7c-2.5 2.2-6.3 1.8-8.4-.7zm-9.8 32.9c11.4 17 26.5 31.2 44.2 41.5 35.5-20.8 60.1-56.9 66-98.1-5.5-5.1-10.1-10.9-13.9-17.5l-4.3-8.7c-31.3-3.7-64.3-3.7-95.6 0-4.1 9.8-10.5 19-18.2 26.2 3 20.8 10.6 40 21.8 56.6zm76.2 258.3c-1.3 6.5-3.9 12.6-7.4 18.1 18.3 8.9 42.2 10.1 42.2 35.9v11.2h103c7.1 0 13-5.9 13-13l.1-59.3c0-16.9-14.3-22.1-30.4-28-3.4-1.2-6.9-2.5-10.4-3.9-6.9 24.8-24.7 44.4-46.9 60-2.2 1.5-5 1.4-7-.1-18.1-13-31.5-26.1-40.6-43.9-3.5 8.4-8.9 16.1-15.6 23zm-15.1 27.7c-8.3 8.3-18.7 13.7-29.1 13.8-12.2.2-24.3-3.8-33.3-14.4-13.2 5.4-35.7 10.3-35.7 22.1l-.3 36.8c0 4.5 3.7 8.2 8.2 8.2h119.6c4.5 0 8.2-3.7 8.2-8.2l.1-32c0-11.6-10.3-15.4-21.8-19.6-5.3-2-10.6-4-15.9-6.7zm-68.9-10.9c-1.5-3.1-2.8-6.6-3.9-10.5-1-1.7-14.2-8.8-20-27.6-27.2 14-67.1 9.7-80.1-21.7-17.7 6.7-43.9 13.2-43.9 29.5 0 25-.3 37.5-.3 65.7 0 7.1 5.9 13 13 13h94.1c0-3 .1-7.1.1-16-.1-20.6 23.4-25.6 41-32.4zm-7.2-30.7c-.5-6.7-.3-13.2.7-19.4.5-2.9 3-5 5.9-5h78.8c3.2 0 5.8 2.5 6 5.7.3 3.5.4 7.9.5 12.6 5.4-8.7 7.6-17.4 7.2-25.4-.1-.7-.3-1.4-.4-2.1-.6-.9-.9-2-.9-3.1 0-.6.1-1.2.3-1.7-1.6-6.4-4.9-12.2-9.5-16.9-16.4-16.6-57-24.9-72.5-1.3-.8 1.3-2.1 2.2-3.7 2.6-19.6 4.4-26.1 34.5-12.4 54zm80.1 4.4-.5-16.8h-67.8c-.9 12.4 1.3 32.1 8.6 42.5l2.7 3.6c6.4 7.3 15.3 10.1 24 9.9 15.4-.5 30.4-18.2 32.5-33.2zm-99.2-24.1c-.4-6.2.2-12.4 1.8-18.2-5-4.8-8.7-10.5-11.2-16.7-5.6 2.5-11.3 3.9-17.1 3.9-8.1.1-16.1-1.2-23.6-4.5-3.3 8.6-9.1 16.4-16.7 21.3 10.4 26.4 46.3 26.7 66.8 14.2zm98.3-56.1c13.1 6.1 23.7 15.5 28.9 29.6 6.1-5.3 10-13.5 11.1-21.6-14.1-9.9-23.2-26.1-25.8-48.1-2.4-20.2.8-35.9 7.8-47.7 8.1-13.7 21.1-21.9 36.1-25.1 3.9-.9 7.8 2.4 7.2 6.7-1.6 12.6 4.3 25.4 13.7 33.7 8.8 7.8 21 12.6 34.6 12.6 6.3 0 10 .9 12.7 5.2 2.1 3.3 2.5 7.7 2.5 15.2 0 22-11.3 41.7-29.4 51.6 1.1 4.3 3 8.8 6.1 12.9 2.2 2.9 4.9 5.6 8.4 8.1h18.4c5.4 0 9.8-4.4 9.8-9.8v-84.7c0-39.3-31.8-71.1-71-71.1s-71 31.8-71 71.1v61.4zm31.7 42.3v.6c2.1 9.9 6.2 19.4 12.5 28.3 6.7 9.6 15.9 18.7 27.5 27.2 18.9-13.9 33.9-31.1 39.3-52.8-2.3-1.2-2.2-1-4-2.6-4.6-3.2-8.3-6.8-11.2-10.7-3.8-5-6.2-10.3-7.7-15.5-11.8 3.2-25.8 1.9-37.2-2.7-2.4 11.3-9.2 22.2-19.2 28.2zm-170.7-58.1c-3-1.3-4.5-4.8-3.2-7.8 1.3-3.1 4.8-4.5 7.9-3.2 5.1 2.1 10.9 2.1 16 0 3.1-1.3 6.5.2 7.8 3.2s-.2 6.5-3.2 7.8c-8.2 3.3-17.2 3.3-25.3 0zm-44.9-36.4c-.3-34.4 13.3-54 44.5-60.8 3-.7 6 1.1 6.9 3.9 2.3 5.2 7.8 9.7 15.9 13 8.7 3.6 20.2 5.6 33.7 5.6 12.2 0 13.3 16.6 13.8 37.9.5-.6.9-1.2 1.3-1.8 18.7-26.2 15.8-57.5-10.6-74.8-24-15.7-66.4-21.4-84.2 5.9-.9 1.3-2.1 2.2-3.7 2.6-13.8 3.1-22.2 15.7-24.9 29.1-2.6 13.3-.2 27.8 7.3 39.4zm103.3 13.5c-.3-11.8-.5-39.7-2.2-39.7-21.4 0-47.5-5.3-58.3-21.8-9.4 2.6-17.4 6.9-22.7 14.4-6.4 9-9.5 22.9-7.5 44.4 1.6 17 6.1 31.5 14.7 41.4 8.6 9.8 20.4 13.5 32.1 13.2 11.3-.3 22.3-7.8 29.7-16.2 8.5-9.7 14.4-22.5 14.2-35.7zm139.1 22.9c-3.1-1.3-4.5-4.8-3.2-7.8 1.2-3.1 4.8-4.5 7.8-3.2 5.1 2.1 10.9 2.1 16 0 3.1-1.3 6.6.2 7.9 3.2 1.2 3.1-.2 6.5-3.3 7.8-8.1 3.3-17.1 3.3-25.2 0zm46.3 8.6c7.3-8.1 12-19.3 12-32.3 0-5.2-.1-7.9-.6-8.7-.2-.3-.7.3-2.6.3-30.5 0-58.5-21.1-60.4-51.1-22.9 8.8-30.3 31-27.1 57.5 2 16.6 7.9 28.1 15.8 35.6 9.5 9.1 22 12.6 34 12.4 11.1-.1 21.4-5.5 28.9-13.7z"/></svg>