<svg id="Layer_1" viewBox="0 0 512 512" xmlns="http://www.w3.org/2000/svg" data-name="Layer 1"><path d="m15.093 73.886a53.261 53.261 0 0 0 -4.064 20.633v211.448a2.87 2.87 0 0 0 4.978 1.949 66.748 66.748 0 0 1 80.935-13.216 2.866 2.866 0 0 0 4.251-2.517v-236.278a2.78 2.78 0 0 0 -.989-2.169c-27.769-24.095-71.15-13.644-85.111 20.15zm155.507 217.182c-9.337-9.339-25.378-2.694-25.378 10.512s16.038 19.852 25.378 10.512a14.867 14.867 0 0 0 0-21.024zm85.735-131.2c-9.339-9.34-25.378-2.694-25.378 10.512s16.043 19.849 25.378 10.51a14.867 14.867 0 0 0 0-21.024zm85.735 131.2c-9.338-9.339-25.378-2.694-25.378 10.512s16.037 19.852 25.378 10.512a14.867 14.867 0 0 0 0-21.024zm81.048-178.368v11.409a2.874 2.874 0 0 0 2.853 2.87c7.875.049 15.625 1.29 23.095 1.342a2.859 2.859 0 0 0 2.891-2.871v-11.405a2.874 2.874 0 0 0 -2.853-2.87c-7.872-.049-15.628-1.291-23.1-1.343a2.858 2.858 0 0 0 -2.89 2.871zm0 49.41v3.911a6.383 6.383 0 0 1 -12.765 0c0-2.064.434-4.527-2.006-5.3a2.834 2.834 0 0 0 -3.215 1.088 14.877 14.877 0 0 0 1.649 19.075c9.337 9.338 25.378 2.7 25.378-10.512a14.839 14.839 0 0 0 -4.089-10.243 2.87 2.87 0 0 0 -4.952 1.978zm-70.318 38.273a6.381 6.381 0 0 1 -9.025 9.024l-10.186-10.185a2.877 2.877 0 0 0 -4.06 0l-10.186 10.186a6.382 6.382 0 0 1 -9.025-9.025l10.182-10.183a2.877 2.877 0 0 0 0-4.06l-10.183-10.19a6.381 6.381 0 0 1 9.025-9.024l10.186 10.186a2.877 2.877 0 0 0 4.06 0l10.186-10.186a6.382 6.382 0 1 1 9.025 9.025l-10.186 10.186a2.877 2.877 0 0 0 0 4.06zm78.618 151.39a6.381 6.381 0 1 1 -9.024 9.025l-10.186-10.186a2.877 2.877 0 0 0 -4.06 0l-10.187 10.188a6.382 6.382 0 1 1 -9.025-9.025l10.186-10.186a2.877 2.877 0 0 0 0-4.06l-10.186-10.186a6.382 6.382 0 1 1 9.025-9.025l10.186 10.182a2.877 2.877 0 0 0 4.06 0l10.186-10.186a6.381 6.381 0 1 1 9.024 9.025l-10.186 10.186a2.877 2.877 0 0 0 0 4.06l10.186 10.186zm-93.081 55.355a2.856 2.856 0 0 1 -2.852-3.169 90.149 90.149 0 1 0 -179.321 0 2.858 2.858 0 0 1 -2.853 3.169h-88.371a54.056 54.056 0 0 1 -20.682-4.085c-35.087-14.533-44.78-60.607-17.439-87.943a53.925 53.925 0 0 1 76.22-.023 6.388 6.388 0 0 0 10.918-4.489v-206.817a2.876 2.876 0 0 1 2.871-2.87h290.655a2.875 2.875 0 0 1 2.87 2.87v37.716a2.831 2.831 0 0 1 -1.955 2.721c-18.083 6.084-24.747 28.738-12.528 43.625a2.833 2.833 0 0 1 .185 3.391l-53.931 82.532a2.83 2.83 0 0 1 -3.169 1.2 27.784 27.784 0 0 0 -14.794 0 2.832 2.832 0 0 1 -3.17-1.2l-53.929-82.531a2.832 2.832 0 0 1 .188-3.394c14.536-17.659 2.069-45.083-21.427-45.083s-35.963 27.424-21.423 45.083a2.832 2.832 0 0 1 .188 3.394l-53.929 82.53a2.833 2.833 0 0 1 -3.172 1.2 27.645 27.645 0 0 0 -26.932 7.092c-17.366 17.366-4.994 47.168 19.537 47.168 23.5 0 35.964-27.425 21.426-45.084a2.832 2.832 0 0 1 -.187-3.394l53.925-82.537a2.833 2.833 0 0 1 3.17-1.2 27.784 27.784 0 0 0 14.794 0 2.833 2.833 0 0 1 3.17 1.2l53.929 82.531a2.832 2.832 0 0 1 -.188 3.394c-14.537 17.66-2.067 45.084 21.427 45.084s35.964-27.423 21.426-45.084a2.832 2.832 0 0 1 -.187-3.394l53.929-82.53a2.833 2.833 0 0 1 3.172-1.2 27.642 27.642 0 0 0 26.932-7.092c15.016-15.016 8-40.26-11.65-46.029-2.216-.651-2.062-2.58-2.062-4.1 11.793-.473 22.848 2.649 35.762.613 3.461-.546 5.841-2.922 5.841-6.364v-29.9h-.013c0-1.926 1.085-3.225 2.864-3.225h30.528a2.875 2.875 0 0 1 2.871 2.87v300.483a2.876 2.876 0 0 1 -2.871 2.871zm-18.577-6.164a2.862 2.862 0 0 1 2.85 3.224 77.407 77.407 0 0 1 -67.181 67.179 2.862 2.862 0 0 1 -3.223-2.85v-10.29a6.382 6.382 0 0 0 -12.764 0v10.29a2.862 2.862 0 0 1 -3.224 2.85 77.407 77.407 0 0 1 -67.18-67.179 2.861 2.861 0 0 1 2.849-3.224h10.292a6.382 6.382 0 0 0 0-12.764h-10.29a2.862 2.862 0 0 1 -2.85-3.224 77.406 77.406 0 0 1 67.178-67.176 2.862 2.862 0 0 1 3.224 2.85v10.29a6.382 6.382 0 0 0 12.764 0v-10.29a2.862 2.862 0 0 1 3.224-2.85 77.4 77.4 0 0 1 67.178 67.179 2.862 2.862 0 0 1 -2.849 3.224h-10.29a6.382 6.382 0 0 0 0 12.764zm-80.318-42.309v35.927a6.382 6.382 0 0 0 6.382 6.382h23.141a6.382 6.382 0 0 0 0-12.764h-13.889a2.876 2.876 0 0 1 -2.871-2.871v-26.674a6.382 6.382 0 1 0 -12.764 0z" fill-rule="evenodd"/></svg>