<svg id="Layer_1" viewBox="0 0 512 512" xmlns="http://www.w3.org/2000/svg" data-name="Layer 1"><path d="m386.79 301.87c-38.11 0-69.12 31-69.12 69.09s31.01 69.13 69.12 69.13 69.1-31.01 69.1-69.13-31-69.09-69.1-69.09zm0 128.21c-32.59 0-59.11-26.52-59.11-59.12s26.52-59.08 59.11-59.08 59.09 26.5 59.09 59.08-26.5 59.12-59.09 59.12z" fill="none"/><path d="m386.79 301.87c-38.11 0-69.12 31-69.12 69.09s31.01 69.13 69.12 69.13 69.1-31.01 69.1-69.13-31-69.09-69.1-69.09zm0 128.21c-32.59 0-59.11-26.52-59.11-59.12s26.52-59.08 59.11-59.08 59.09 26.5 59.09 59.08-26.5 59.12-59.09 59.12z" fill="none"/><path d="m77.15 240.57v-119c0-4.48-3.65-8.12-8.15-8.12h-39.71c-4.49 0-8.15 3.64-8.15 8.12v119c0 4.49 3.66 8.15 8.15 8.15h39.71c4.5 0 8.15-3.66 8.15-8.15zm-22.99-15c0 2.77-2.24 5.01-5 5.01s-5-2.24-5-5.01v-22.3c0-2.77 2.24-5.01 5-5.01s5 2.24 5 5.01zm123.82-76.28c0 2.77 2.24 5.01 5 5.01h35.98c6 0 10.89 4.89 10.89 10.9s-4.89 10.87-10.89 10.87h-36.34c-2.77 0-5.01 2.24-5.01 5s2.24 5 5.01 5h36.34c6 0 10.89 4.89 10.89 10.9s-4.89 10.87-10.89 10.87h-35.98c-2.76 0-5 2.24-5 5.01s2.24 5 5 5h27.16c6.01 0 10.9 4.89 10.9 10.9s-4.89 10.87-10.9 10.87h-90.48c-10.99 0-17.5-3.93-26.5-9.36-1.92-1.16-3.88-2.35-6-3.56v-97.6c7.45-1.48 15.79-6.79 20.67-21.61 4.9-14.88 4.9-34.8 4.9-46.69v-14.72c0-.59.11-.86.76-1.22 2.63-1.48 10.47-1.27 18.91 3.9 6.39 3.9 17.01 13.12 16.33 30.92v.17l-.2 37.64c-.01 1.33.52 2.61 1.46 3.56.93.94 2.21 1.47 3.54 1.47h65.43c6 0 10.89 4.89 10.89 10.9s-4.89 10.87-10.89 10.87h-35.98c-2.76 0-5 2.24-5 5zm101.813 2.042 67.543-75.306c.995-1.107 1.499-2.562 1.421-4.038-.078-1.488-.75-2.875-1.846-3.871l-19.531-17.495c-2.215-1.98-2.987-4.844-2.08-7.651.906-2.797 3.21-4.665 6.152-4.978l79.803-8.367c.268-.022.537-.045.805-.045 1.801 0 3.501.649 4.844 1.857 1.533 1.376 2.372 3.278 2.383 5.358l.324 80.273c.011 2.942-1.577 5.425-4.262 6.634-2.708 1.219-5.638.772-7.842-1.197l-19.531-17.529c-1.108-.995-2.551-1.499-4.05-1.432-1.477.078-2.864.75-3.859 1.857l-67.498 75.306c-8.11 9.016-22.059 9.777-31.076 1.7-9.016-8.11-9.777-22.048-1.7-31.076zm142.107 31.668v85.23c-1.44-.12-2.64-.67-3.78-1.7l-6.22-5.6-13.9-12.5c-6.39-5.78-16.03-5.78-22.4-.01l-13.48 12.13-6.66 5.99c-1.03.93-2.09 1.46-3.35 1.65v-85.19c0-4.74 3.88-8.6 8.63-8.6h52.56c4.74 0 8.6 3.86 8.6 8.6zm-305.9 144.43v72.12c0 4.74-3.86 8.6-8.61 8.6h-52.55c-4.76 0-8.63-3.86-8.63-8.6v-72.12c0-4.74 3.87-8.6 8.63-8.6h52.55c4.75 0 8.61 3.86 8.61 8.6zm283.818 33.457 17.035-.043-13.806 10.01c-2.88 2.088-4.078 5.751-2.979 9.121l5.309 16.224-13.753-10.03c-1.438-1.068-3.13-1.604-4.828-1.604-1.683 0-3.371.526-4.823 1.579l-13.758 10.049 5.309-16.223c1.097-3.364-.102-7.027-2.982-9.116l-13.807-10.009 17.05.043c3.567 0 6.69-2.277 7.765-5.649l5.246-16.245 5.24 16.23c1.082 3.388 4.205 5.664 7.783 5.664zm-184.198-77.927v117.59c0 4.74-3.86 8.6-8.6 8.6h-52.55c-4.75 0-8.61-3.86-8.61-8.6v-117.59c0-4.75 3.86-8.63 8.61-8.63h52.55c4.74 0 8.6 3.88 8.6 8.63zm171.17 28.92c-32.59 0-59.11 26.5-59.11 59.08s26.52 59.12 59.11 59.12 59.09-26.52 59.09-59.12-26.5-59.08-59.09-59.08zm40.517 53.744-17.301 12.544 6.659 20.352c1.077 3.377-.094 7.024-2.902 9.114-1.476 1.067-3.18 1.599-4.871 1.599-1.697 0-3.382-.534-4.812-1.598l-17.298-12.613-17.303 12.638c-2.882 2.089-6.733 2.089-9.6.012-2.912-2.111-4.091-5.812-2.936-9.207l6.641-20.296-17.37-12.593c-2.854-1.997-4.082-5.667-2.992-9.086 1.083-3.39 4.206-5.666 7.771-5.666l21.449.054 6.587-20.398c1.075-3.372 4.198-5.648 7.766-5.648s6.685 2.272 7.769 5.656l6.583 20.391 21.409-.054c3.578 0 6.701 2.276 7.783 5.664 1.142 3.354-.065 7.061-3.032 9.137zm71.273.006c4.57-7.28 2.9-16.76-3.88-22.05l-21.37-16.71c-1.43-1.11-2.23-2.5-2.49-4.34l-3.77-26.8c-1.18-8.54-8.53-14.73-17.15-14.41l-27.08.94c-.32.01-.64 0-.94-.03-1.44-.12-2.64-.67-3.78-1.7l-6.22-5.6-13.9-12.5c-6.39-5.78-16.03-5.78-22.4-.01l-13.48 12.13-6.66 5.99c-1.03.93-2.09 1.46-3.35 1.65-.44.07-.9.09-1.4.07l-26.43-.92-.6-.02c-3.43-.13-6.68.79-9.41 2.48-4.09 2.53-7.04 6.8-7.77 11.92l-3.78 26.83c-.25 1.82-1.04 3.19-2.52 4.34l-21.31 16.69c-6.77 5.27-8.45 14.75-3.91 22.04l14.36 22.95c.99 1.59 1.26 3.16.86 5l-2.24 10.57-2.12 10.01-1.25 5.89c-1.78 8.41 3.03 16.75 11.2 19.41l25.71 8.35c1.81.59 3.04 1.62 3.9 3.24l12.7 23.92c2.99 5.63 8.74 8.89 14.75 8.89 2.1 0 4.24-.4 6.31-1.24l25.13-10.13c1.71-.69 3.3-.69 5.03.01l25.1 10.12c7.96 3.23 17-.06 21.04-7.65l12.73-23.93c.86-1.61 2.09-2.64 3.84-3.22l25.78-8.37c8.16-2.66 12.97-11 11.19-19.4l-5.64-26.47c-.38-1.82-.1-3.41.88-4.99zm-111.79 74.46c-38.11 0-69.12-31.01-69.12-69.13s31.01-69.09 69.12-69.09 69.1 31 69.1 69.09-31 69.13-69.1 69.13zm-107.45-56.52c.99 1.59 1.26 3.16.86 5l-2.24 10.57-2.12 10.01h-22.75c-4.74 0-8.6-3.86-8.6-8.6v-163.05c0-4.76 3.86-8.63 8.6-8.63h52.56c4.75 0 8.63 3.87 8.63 8.63v38.84l-.6-.02c-3.43-.13-6.68.79-9.41 2.48-4.09 2.53-7.04 6.8-7.77 11.92l-3.78 26.83c-.25 1.82-1.04 3.19-2.52 4.34l-21.31 16.69c-6.77 5.27-8.45 14.75-3.91 22.04z"/></svg>