<svg id="Layer_1" enable-background="new 0 0 512 512" height="512" viewBox="0 0 512 512" width="512" xmlns="http://www.w3.org/2000/svg"><path clip-rule="evenodd" d="m81 366c35.898 0 65 29.102 65 65 0 13.394-4.053 25.84-10.996 36.183-2.969-3.864-6.312-7.362-9.959-10.457 4.42-7.553 6.955-16.342 6.955-25.726 0-28.171-22.829-51-51-51s-51 22.829-51 51c0 9.384 2.536 18.174 6.956 25.726-3.647 3.096-6.99 6.594-9.959 10.458-6.944-10.343-10.997-22.79-10.997-36.184 0-35.898 29.102-65 65-65zm235.73 75.769c-12.8 0-19.223 15.508-10.172 24.558 1.667 1.667 1.667 4.371 0 6.039l-9.192 9.193c-1.667 1.667-4.372 1.667-6.039 0-9.051-9.051-24.558-2.628-24.558 10.172 0 2.359-1.912 4.27-4.27 4.27h-13c-2.357 0-4.27-1.91-4.27-4.27 0-12.816-15.496-19.234-24.558-10.172-1.667 1.667-4.371 1.667-6.039 0l-9.192-9.193c-1.667-1.667-1.667-4.371 0-6.039 9.051-9.05 2.628-24.558-10.172-24.558-2.359 0-4.27-1.912-4.27-4.27v-12.999c0-2.358 1.911-4.27 4.27-4.27 12.8 0 19.223-15.507 10.172-24.558-1.667-1.667-1.667-4.371 0-6.038l9.192-9.193c1.667-1.667 4.372-1.667 6.039 0 9.051 9.051 24.558 2.628 24.558-10.172 0-2.359 1.912-4.27 4.27-4.27h13c2.357 0 4.27 1.91 4.27 4.27 0 12.8 15.507 19.223 24.558 10.172 1.667-1.667 4.371-1.667 6.039 0l9.192 9.193c1.667 1.667 1.667 4.371 0 6.038-9.05 9.051-2.628 24.558 10.172 24.558 2.359 0 4.27 1.912 4.27 4.27v13c0 2.357-1.911 4.269-4.27 4.269zm-60.73-42.533c-17.543 0-31.764 14.221-31.764 31.764s14.221 31.764 31.764 31.764 31.764-14.221 31.764-31.764-14.221-31.764-31.764-31.764zm175-33.236c35.898 0 65 29.102 65 65 0 35.899-29.101 65-65 65s-65-29.101-65-65c0-35.898 29.102-65 65-65zm-39.661 60.703c7.341 9.46 20.123 9.461 27.463 0 6.498-8.375 6.498-21.314 0-29.688-7.34-9.461-20.122-9.46-27.463 0-6.498 8.374-6.498 21.313 0 29.688zm11.046-8.531c1.694 2.183 3.676 2.183 5.37 0 2.57-3.312 2.57-9.314 0-12.626-1.694-2.183-3.676-2.183-5.37 0-2.569 3.312-2.569 9.314 0 12.626zm40.814 46.813c7.34 9.461 20.123 9.461 27.463 0 6.498-8.375 6.498-21.314 0-29.688-7.34-9.461-20.122-9.461-27.463 0-6.498 8.375-6.498 21.314 0 29.688zm11.047-8.531c1.694 2.183 3.675 2.183 5.369 0 2.57-3.312 2.57-9.314 0-12.626-1.694-2.183-3.675-2.183-5.369 0-2.57 3.312-2.57 9.314 0 12.626zm-6.448-68.489-45.683 79.125c-1.918 3.337-.767 7.598 2.57 9.516s7.598.767 9.516-2.57l45.683-79.125c1.918-3.337.767-7.598-2.57-9.516s-7.598-.767-9.516 2.57zm-191.798-371.965c55.228 0 100 44.772 100 100s-44.771 100-100 100c-55.228 0-100-44.772-100-100s44.772-100 100-100zm151.567 322.372-114.53-114.53c4.8-1.648 9.453-3.611 13.94-5.857l110.696 110.696v-25.59c0-3.866 3.134-7 7-7s7 3.134 7 7v42.254c0 4.118-3.514 6.973-7.618 6.973h-41.636c-3.851 0-6.973-3.122-6.973-6.973s3.122-6.973 6.973-6.973zm-144.567-108.593c-4.688.285-9.312.284-14 0v98.667l-17.929-17.929c-2.733-2.733-7.165-2.733-9.899 0-2.733 2.733-2.733 7.165 0 9.899l29.878 29.878c2.733 2.733 7.165 2.733 9.898 0l29.878-29.878c2.733-2.733 2.733-7.165 0-9.899-2.733-2.733-7.165-2.733-9.899 0l-17.927 17.929zm-44.037-5.937-114.53 114.53h25.148c3.851 0 6.973 3.122 6.973 6.973s-3.122 6.973-6.973 6.973h-41.636c-4.104 0-7.618-2.854-7.618-6.973v-42.254c0-3.866 3.134-7 7-7s7 3.134 7 7v25.59l110.696-110.696c4.487 2.246 9.141 4.209 13.94 5.857zm15.297-74.008c4.471 4.218 8.828 7.544 14.902 8.959l.106 4.388c.09 3.851 3.286 6.899 7.137 6.808 3.851-.09 6.899-3.286 6.808-7.137l-.101-4.198c11.214-2.804 20.153-12.294 20.153-24.225 0-14.676-13.196-25.097-27.265-25.097-6.348 0-13.292-4.163-13.292-11.096 0-6.936 6.993-11.124 13.292-11.124 2.935 0 10.521 2.733 12.154 5.217 2.114 3.216 6.436 4.11 9.652 1.996s4.11-6.436 1.996-9.653c-3.473-5.285-10.901-8.903-16.942-10.494l-.128-5.36c-.09-3.851-3.286-6.899-7.137-6.809s-6.899 3.286-6.809 7.137l.116 4.86c-11.237 2.803-20.168 12.279-20.168 24.229 0 14.698 13.221 25.097 27.265 25.097 6.348 0 13.265 4.164 13.265 11.097s-6.916 11.096-13.265 11.096c-5.644 0-8.22-2.137-12.17-5.863-2.809-2.643-7.228-2.508-9.871.301-2.642 2.809-2.507 7.228.302 9.871zm21.74-116.211c-45.494 0-82.378 36.883-82.378 82.377s36.884 82.378 82.378 82.378 82.377-36.884 82.377-82.378-36.883-82.377-82.377-82.377zm0 14c-37.765 0-68.377 30.612-68.377 68.377s30.612 68.377 68.377 68.377c37.764 0 68.377-30.613 68.377-68.377s-30.612-68.377-68.377-68.377zm-130.301 430.565c-9.741-14.26-26.125-23.621-44.698-23.621s-34.959 9.362-44.7 23.622c11.65 11.038 27.383 17.811 44.699 17.811s33.05-6.773 44.699-17.812zm-69.7-63.032c0 13.809 11.193 25.002 25.002 25.002s25.002-11.193 25.002-25.002c0-13.805-11.193-24.999-25.002-24.999s-25.002 11.194-25.002 24.999z" fill-rule="evenodd"/></svg>