<svg id="Semi_Solid" viewBox="0 0 64 64" xmlns="http://www.w3.org/2000/svg"><g fill="rgb(0,0,0)"><path d="m32 60.5c-6.50195 0-17.86475-13.03711-19.13867-14.52393-.25293-.29492-.38135-.67627-.35889-1.06396l1-17c.04688-.79297.70312-1.41211 1.49756-1.41211h6.12988c.82861 0 1.5.67139 1.5 1.5s-.67139 1.5-1.5 1.5h-4.71533l-.88135 14.97949c4.55908 5.22217 12.71289 13.02051 16.4668 13.02051 4.65576 0 14.2793-3.06494 15.54883-6.08057.11816-.27979.36328-.86279-.62158-1.87109-.5791-.59277-.56787-1.54248.02441-2.12109.59375-.57861 1.54346-.56738 2.12109.02441 2.06885 2.11719 1.66553 4.12451 1.24121 5.13232-2.16504 5.14209-13.96631 7.91602-18.31396 7.91602z"/><path d="m46.67041 55.99023c-.40283 0-.8042-.16113-1.09961-.47949l-10.66992-11.49023c-.56396-.60693-.52881-1.55615.07861-2.11963.60645-.56348 1.55615-.52832 2.11963.07861l10.66992 11.49023c.56396.60693.52881 1.55615-.07861 2.11963-.28857.26807-.65479.40088-1.02002.40088z"/><path d="m41.89014 58.39014c-.38379 0-.76758-.14648-1.06055-.43945l-9.89014-9.89014c-.58594-.58545-.58594-1.53564 0-2.12109.58594-.58594 1.53516-.58594 2.12109 0l9.89014 9.89014c.58594.58545.58594 1.53564 0 2.12109-.29297.29297-.67676.43945-1.06055.43945z"/><path d="m36.64941 59.91016c-.3457 0-.69238-.11865-.97559-.36084l-8.6499-7.41016c-.62891-.53906-.70215-1.48584-.16309-2.11523.53857-.62939 1.48584-.70264 2.11523-.16309l8.6499 7.41016c.62891.53906.70215 1.48584.16309 2.11523-.29688.34619-.7168.52393-1.13965.52393z"/><path d="m59 47c-.02783 0-.05518-.00098-.08301-.00244l-9-.5c-.82715-.0459-1.46045-.75342-1.41455-1.58057.04639-.82715.76221-1.4502 1.58057-1.41455l7.41699.41211v-17.26123l-6.5752.6416c-.2334.02637-.4248.24023-.4248.49512v.20996c0 .82861-.67139 1.5-1.5 1.5s-1.5-.67139-1.5-1.5v-.20996c0-1.78564 1.33838-3.28076 3.11328-3.47852l8.24121-.8042c.42041-.04053.83984.09766 1.15332.38184s.49219.6875.49219 1.11084v20.5c0 .41211-.16992.80615-.46924 1.08984-.2793.26416-.64844.41016-1.03076.41016z"/><path d="m5 47c-.38232 0-.75146-.146-1.03076-.41016-.29932-.28369-.46924-.67773-.46924-1.08984v-20.5c0-.42334.17871-.82666.49219-1.11084.31299-.28418.73438-.42334 1.15332-.38184l8.2207.80225c1.79541.19971 3.13379 1.69482 3.13379 3.48047v.20996c0 .82861-.67139 1.5-1.5 1.5s-1.5-.67139-1.5-1.5v-.20996c0-.25488-.19141-.46875-.44531-.49707l-6.55469-.63965v17.26123l7.41699-.41211c.81982-.0376 1.53467.5874 1.58057 1.41455s-.5874 1.53467-1.41455 1.58057l-9 .5c-.02734.00146-.05518.00244-.08301.00244z"/><path d="m48 50c-.44043 0-.86084-.19385-1.14746-.53369l-9.98779-11.85938-3.88965 2.84424c-2.35889 1.72754-5.60791 1.65723-7.8999-.16797l-.32129-.25732c-.76025-.60938-1.23535-1.51562-1.30322-2.4873-.06836-.97168.27588-1.93555.94385-2.64453l5.18359-5.50244c.56738-.604 1.5166-.63184 2.12012-.06348.60303.56787.63135 1.51758.06348 2.12012l-5.18359 5.50244c-.13086.13916-.14062.29688-.13477.37842.00537.08154.0376.23633.18604.35547l.31787.25439c1.23291.9834 2.98535 1.02051 4.25635.09082l5.021-3.6709c.63721-.46533 1.52441-.35791 2.03223.24463l9.50684 11.28662.71289-1.24707-.97412-16.55518c-.04834-.82666.58252-1.53662 1.40967-1.58545.81885-.03955 1.53662.58203 1.58545 1.40967l1 17c.01709.29004-.05078.57959-.19531.83203l-2 3.5c-.24316.42578-.67871.70557-1.16699.74951-.04541.00439-.09033.00635-.13525.00635z"/><path d="m44.74463 41.07666c-3.15039 0-6.12109-1.38184-8.15088-3.79102-.53369-.63379-.45264-1.58008.18115-2.11377.63379-.5332 1.58057-.45215 2.11377.18115 1.45801 1.73096 3.59229 2.72363 5.85596 2.72363.82861 0 1.5.67139 1.5 1.5s-.67139 1.5-1.5 1.5z"/><path d="m46.75732 10.15918-14.12842-6.521c-.39844-.18457-.85938-.18457-1.25781 0l-14.12842 6.521c-.75244.34619-1.08203 1.2373-.73584 1.98975.34619.75195 1.23584 1.08154 1.98975.73584l1.13379-.52332v17.63855c0 .82861.67139 1.5 1.5 1.5h21.73926c.82861 0 1.5-.67139 1.5-1.5v-17.63855l1.13379.52332c.20312.09326.41602.1377.62598.1377.56787 0 1.11084-.32422 1.36377-.87354.34619-.75244.0166-1.64355-.73584-1.98975zm-8.77588 6.97559-6.75 5.83789c-.28369.24463-.63281.36523-.98096.36523-.41016 0-.81836-.16748-1.11426-.49561l-3.25-3.60352c-.55518-.61475-.50586-1.56348.10938-2.11816.61523-.55518 1.56396-.50537 2.11816.10938l2.26611 2.51221 5.63867-4.87695c.62695-.54199 1.57373-.47266 2.11621.15332.5415.62695.47314 1.57422-.15332 2.11621z"/></g></svg>