<svg id="Layer_5" enable-background="new 0 0 64 64" height="512" viewBox="0 0 64 64" width="512" xmlns="http://www.w3.org/2000/svg"><circle cx="13" cy="35" r="6"/><path d="m31.5 58h-8.587c-1.041 0-1.897-.782-1.992-1.819l-.322-4.944c-.3-4.619-4.161-8.237-8.79-8.237-4.858 0-8.809 3.952-8.809 8.809v9.191h12.691c-.554-.731-.913-1.619-.993-2.585l-.694-8.332 1.992-.166.694 8.332c.129 1.543 1.443 2.751 2.991 2.751h8.374 3.445c.827 0 1.5-.673 1.5-1.5s-.673-1.5-1.5-1.5z"/><path d="m14.756 20h.225c.419 0 .825-.15 1.144-.423l13.875-11.894 13.876 11.894c.318.273.725.423 1.144.423h.225c.967 0 1.755-.788 1.755-1.756 0-.503-.217-.983-.594-1.316l-15.318-13.516c-.602-.531-1.573-.531-2.177 0l-15.316 13.515c-.378.333-.595.813-.595 1.317 0 .968.788 1.756 1.756 1.756z"/><circle cx="47" cy="35" r="6"/><path d="m43 57v-5.414l2.586-2.586-4.456-4.456c-3.653 2.06-6.13 5.972-6.13 10.456v2h4v-6h2v6z"/><path d="m50.917 43.669c-1.23-.426-2.544-.669-3.917-.669s-2.687.243-3.917.669l3.917 3.917z"/><path d="m45 52.414v4.586h8v-6h2v6h4v-2c0-4.484-2.477-8.396-6.13-10.456zm4 2.586h-2v-2h2z"/><path d="m42.646 41.702c-2.191-1.428-3.646-3.897-3.646-6.702 0-2.52 1.174-4.768 3-6.235v-8.162l-12-10.286-12 10.286v8.162c1.826 1.468 3 3.715 3 6.235 0 3.115-1.793 5.812-4.398 7.133 3.348 1.668 5.735 5.019 5.992 8.974l.32 4.918 8.586-.025c.539 0 1.044.133 1.5.351v-1.351c0-6.199 4.053-11.462 9.646-13.298zm-9.514-25.198 1.736.992-8 14-1.736-.992zm-10.132 5.496c0-1.103.897-2 2-2s2 .897 2 2-.897 2-2 2-2-.897-2-2zm6 21h-6v-2h6zm4 0h-2v-2h2zm4 0h-2v-2h2zm0-4h-14v-2h14zm0-4h-14v-2h14zm-2-7c-1.103 0-2-.897-2-2s.897-2 2-2 2 .897 2 2-.897 2-2 2z"/><path d="m34.949 59c.024.165.051.329.051.5 0 .539-.133 1.044-.351 1.5h26.351v-2z"/></svg>