<svg id="_x33_0" enable-background="new 0 0 62 62" height="512" viewBox="0 0 62 62" width="512" xmlns="http://www.w3.org/2000/svg"><g><circle cx="9" cy="15" r="1"/><circle cx="17" cy="15" r="1"/><path d="m14 20h-4v2h4c2.206 0 4-1.794 4-4h-2c0 1.103-.897 2-2 2z"/><circle cx="45" cy="24" r="1"/><circle cx="53" cy="24" r="1"/><path d="m61.332 22.794.372-1.488c.196-.784.296-1.592.296-2.402 0-5.461-4.443-9.904-9.904-9.904h-5.459c-4.586-3.265-9.981-5-15.637-5-2.327 0-4.627.312-6.856.895-1.975-2.949-5.336-4.895-9.144-4.895h-4c-6.065 0-11 4.935-11 11v11c0 .762.114 1.501.315 2.209-.199.913-.315 1.848-.315 2.791 0 4 1.819 7.581 4.669 9.967 1.523 6.739 5.673 12.733 11.461 16.564.741 4.788 4.878 8.469 9.87 8.469 3.346 0 6.306-1.658 8.122-4.189 8.873-1.021 16.587-6.305 20.768-14.237 4.213-2.153 7.11-6.527 7.11-11.574 0-1.58-.295-3.111-.845-4.57.522-.676.845-1.512.845-2.43 0-.815-.248-1.573-.668-2.206zm-3.332 4.206v-4c1.103 0 2 .897 2 2s-.897 2-2 2zm2-8.096c0 .647-.079 1.292-.235 1.917l-.134.535c-.499-.225-1.049-.356-1.631-.356h-.184c-.414-1.161-1.514-2-2.816-2h-8c-.552 0-1-.449-1-1s.448-1 1-1h1v-2h-1c-1.331 0-2.462.871-2.854 2.073-2.024.35-3.628 1.924-4.038 3.927h-.108c-.582 0-1.132.131-1.631.356l-.134-.535c-.156-.626-.235-1.27-.235-1.917 0-4.359 3.546-7.904 7.904-7.904h6.191c4.359 0 7.905 3.545 7.905 7.904zm-24.03 32.482c-.055-.911-.231-1.799-.528-2.655.348-.49.558-1.085.558-1.731 0-.562-.165-1.082-.435-1.532l.075-.226c.239-.717.36-1.464.36-2.22 0-.689-.104-1.354-.29-1.984.595-.076 1.204.119 1.673.585l.706.672 1.43-1.43c1.901 2.031 4.439 3.45 7.298 3.936-2.858 3.281-6.629 5.562-10.847 6.585zm-5.762 1.417c.843-.712 1.463-1.682 1.691-2.803h1.101c.247 0 .484-.039.715-.096.184.679.285 1.379.285 2.096 0 1.311-.323 2.545-.884 3.638-.673-1.217-1.686-2.199-2.908-2.835zm-3.826 3.197h-.764l-.984-1.968c.123-.009.242-.032.366-.032h2c.124 0 .244.023.366.032zm-4.382-7v-3.586l1.48-1.48c1.101 1.263 2.717 2.066 4.52 2.066h2v3c0 1.654-1.346 3-3 3h-2c-1.654 0-3-1.346-3-3zm-2-1h-1c-.552 0-1-.448-1-1s.448-1 1-1h1zm-16-14.695v-.305c0-3.011 1.524-5.797 4-7.461v2.338c0 2.887 1.956 5.393 4.758 6.093l.242.061.242-.062c2.802-.699 4.758-3.205 4.758-6.092v-2.338c2.476 1.664 4 4.451 4 7.461v.305c-1.992 2.834-5.28 4.695-9 4.695s-7.008-1.861-9-4.695zm12-5.428c0 .042-.009.082-.01.123h-5.98c-.001-.042-.01-.081-.01-.123v-1.957c.328.047.66.08 1 .08h4c.34 0 .672-.033 1-.08zm-.574 2.123c-.525.916-1.374 1.632-2.426 1.961-1.053-.329-1.902-1.046-2.426-1.961zm-.426-6h-4c-2.757 0-5-2.243-5-5v-6c0-1.654 1.346-3 3-3h.531c1.1 1.227 2.695 2 4.469 2h5c.552 0 1 .449 1 1v6c0 2.757-2.243 5-5 5zm31.856 14.27-1.38 4.14c-1.953-.663-3.665-1.852-4.954-3.409.572-1.609 1.604-3.034 2.949-4.088l.861 5.168 2.167-2.167zm-14.856 7.73h1c.552 0 1 .448 1 1s-.448 1-1 1h-1zm1.393-8.431c1.213-.444 2.271-1.209 3.065-2.199.382 1.42.987 2.748 1.794 3.933l-.267.267c-.936-.561-2.062-.684-3.127-.372-.401-.616-.895-1.166-1.465-1.629zm-5.834-14.885c1.17-.486 2.014-1.482 2.317-2.684h2.244c.301 1.194 1.146 2.196 2.321 2.684.491.204 1.007.305 1.521.305.212 0 .422-.023.632-.058-.369.606-.594 1.309-.594 2.069 0 .496.102.967.268 1.405-1.284-1.47-3.167-2.405-5.268-2.405-1.984 0-3.775.834-5.05 2.166-.042-.659-.126-1.312-.266-1.954.115-.403.203-.815.254-1.239.55.015 1.101-.074 1.621-.289zm-1.559 8.316c0-2.757 2.243-5 5-5s5 2.243 5 5-2.243 5-5 5-5-2.243-5-5zm-3.023 5.002c.002-.213-.01-.425-.042-.636.548-.65 1.035-1.352 1.448-2.101.359 1.044.954 1.978 1.727 2.735h-3.088c-.015 0-.029.002-.045.002zm22.69-.083-.182-1.089c.364.081.738.128 1.12.15zm-6.457 1.073c-.768-1.5-1.21-3.194-1.21-4.992 0-1.131.17-2.235.503-3.297.463.188.967.297 1.497.297h.08c.242 1.679 1.078 3.164 2.292 4.238-1.317 1.001-2.406 2.286-3.162 3.754zm.79-9.992c-1.103 0-2-.897-2-2s.897-2 2-2zm-3.769-6.043c-.342.048-.693.017-1.022-.12-.734-.305-1.209-1.016-1.209-1.837v-1h-5l-1 .027v1c0 .794-.475 1.505-1.209 1.81-.254.105-.523.149-.791.143v-9.98c0-.129-.015-.255-.019-.383 1.636-.402 3.318-.617 5.019-.617 2.854 0 5.596.561 8.176 1.657-1.948 1.81-3.176 4.385-3.176 7.247 0 .691.088 1.378.231 2.053zm-12.246 6.338c-.025.934-.166 1.838-.411 2.701-.167-.586-.394-1.148-.654-1.696.391-.303.743-.642 1.065-1.005zm-10.985 12.705c1.415 0 2.775-.235 4.051-.655-.662 1.071-1.051 2.328-1.051 3.677 0 .756.121 1.503.36 2.221l.075.224c-.084.14-.161.284-.221.438-1.742-1.726-3.165-3.739-4.21-5.955.33.025.66.05.996.05zm7.586 4h-1.586c-.3 0-.584.058-.858.14-.084-.367-.142-.739-.142-1.118 0-2.769 2.253-5.022 5.022-5.022h5.955c2.77 0 5.023 2.253 5.023 5.022 0 .379-.058.751-.142 1.118-.273-.082-.558-.14-.858-.14h-1-1-3c-2.206 0-4-1.794-4-4h-2c0 .767.15 1.498.413 2.173zm28.414-1c-.535 0-1.057-.051-1.571-.125l1.291-3.875h.559l1.292 3.875c-.514.074-1.036.125-1.571.125zm.586-6h-1.172l-.5-.5 1.086-1.086 1.086 1.086zm1.808-2.02c.382-.021.757-.069 1.12-.15l-.182 1.089zm-.394-1.98h-4c-2.757 0-5-2.243-5-5v-6c0-1.381.938-2.547 2.211-2.895.441 1.109 1.525 1.895 2.789 1.895h8c.552 0 1 .449 1 1v6c0 2.757-2.243 5-5 5zm-20-27c4.419 0 8.662 1.153 12.432 3.325-.86.222-1.675.552-2.428.983-4.693-2.267-10.196-2.854-15.268-1.675-.147-.666-.348-1.311-.61-1.925 1.917-.461 3.884-.708 5.874-.708zm-29 5c0-4.962 4.037-9 9-9h4c4.963 0 9 4.038 9 9v11c0 1.785-.778 3.427-2.108 4.558-.632-.874-1.381-1.666-2.255-2.328 1.445-1.283 2.363-3.149 2.363-5.23v-6c0-1.654-1.346-3-3-3h-5c-2.206 0-4-1.794-4-4h-2c0 .716.126 1.404.357 2.041-2.454.316-4.357 2.42-4.357 4.959v6c0 2.081.918 3.947 2.364 5.23-.874.662-1.623 1.455-2.255 2.328-1.331-1.131-2.109-2.773-2.109-4.558zm1.079 17.301c-.259.547-.487 1.109-.654 1.695-.245-.863-.385-1.767-.411-2.701.323.363.675.702 1.065 1.006zm4.103 10.308c.783.394 1.609.708 2.472.939 1.456 3.634 3.813 6.825 6.862 9.302-.235.708-.397 1.434-.468 2.178-4.163-3.12-7.285-7.492-8.866-12.419zm11.104 11.296c.23.056.467.095.714.095h1.101c.229 1.121.848 2.09 1.691 2.803-1.222.635-2.236 1.617-2.909 2.834-.56-1.093-.883-2.327-.883-3.637 0-.716.102-1.416.286-2.095zm1.952 7.63c.396-1.288 1.284-2.337 2.439-2.947l1.244 2.489-.793 2.38c-1.102-.425-2.086-1.085-2.89-1.922zm4.835 2.407.647-1.942h.559l.647 1.942c-.304.035-.612.058-.926.058s-.622-.023-.927-.058zm3.8-.484-.793-2.38 1.245-2.489c1.154.61 2.041 1.66 2.438 2.947-.805.836-1.789 1.496-2.89 1.922zm6.437-3.834c.269-.689.461-1.414.572-2.167 5.319-1.15 10.018-4.124 13.354-8.469.928-.017 1.83-.133 2.701-.335-3.789 5.822-9.775 9.785-16.627 10.971zm17.214-13.213-1.38-4.14.356-.356 2.167 2.167.861-5.168c1.345 1.054 2.378 2.479 2.949 4.088-1.288 1.556-3 2.745-4.953 3.409zm6.266-5.419c-.755-1.467-1.845-2.752-3.162-3.754 1.214-1.074 2.051-2.559 2.292-4.238h.08c.53 0 1.034-.109 1.497-.296.333 1.06.503 2.164.503 3.296 0 1.798-.442 3.492-1.21 4.992z"/><path d="m51 27.764c-.381.762-1.147 1.236-2 1.236s-1.619-.474-2-1.236l-.105-.211-1.789.895.105.21c.722 1.445 2.174 2.342 3.789 2.342s3.067-.897 3.789-2.342l.105-.211-1.789-.895z"/><path d="m31 28c-1.654 0-3 1.346-3 3s1.346 3 3 3 3-1.346 3-3-1.346-3-3-3zm0 4c-.552 0-1-.449-1-1s.448-1 1-1 1 .449 1 1-.448 1-1 1z"/></g></svg>