<?xml version="1.0"?>
<svg xmlns="http://www.w3.org/2000/svg" viewBox="0 0 32 32"><g data-name="parents day" id="parents_day"><path d="M29,14H23V13a4,4,0,0,0-1.62-3.2A3,3,0,0,0,22,8a3,3,0,0,0-6,0,3,3,0,0,0,.62,1.8l-.2.16a4,4,0,0,0-1.67-1.54A3,3,0,0,0,16,6a3,3,0,0,0-6,0,3,3,0,0,0,1.25,2.42A4,4,0,0,0,9,12v2H3a1,1,0,0,0-1,1,14,14,0,0,0,28,0A1,1,0,0,0,29,14Zm-2.1,6H23.39a14.89,14.89,0,0,0,.6-4h4A12,12,0,0,1,26.9,20ZM10,16h5v4H10.71A13.45,13.45,0,0,1,10,16Zm5,6v4.07A13.74,13.74,0,0,1,11.59,22Zm2,4.07V22h3.41A13.74,13.74,0,0,1,17,26.07ZM17,20V16h5a13.45,13.45,0,0,1-.71,4Zm0-6V13a2,2,0,0,1,4,0v1Zm1-6a1,1,0,1,1,1,1A1,1,0,0,1,18,8ZM13,5a1,1,0,1,1-1,1A1,1,0,0,1,13,5Zm-2,7a2,2,0,0,1,4,0v2H11ZM8,16a14.89,14.89,0,0,0,.6,4H5.1A12,12,0,0,1,4,16ZM6.27,22H9.36a15.52,15.52,0,0,0,3.1,4.46A12,12,0,0,1,6.27,22Zm13.27,4.46A15.52,15.52,0,0,0,22.64,22h3.09A12,12,0,0,1,19.54,26.46Z"/></g></svg>
