<svg id="Layer_1" enable-background="new 0 0 66 66" viewBox="0 0 66 66" xmlns="http://www.w3.org/2000/svg"><g><g><g><g><g><g><path d="m22.6 36.7c-3.3 0-6-2.7-6-6s2.7-6 6-6 6 2.7 6 6-2.7 6-6 6zm0-10c-2.2 0-4 1.8-4 4s1.8 4 4 4 4-1.8 4-4-1.8-4-4-4z"/></g><g><path d="m31.4 53.6h-17.6c-.4 0-.7-.2-.9-.6-1-2.1-1.6-4.4-1.6-6.5 0-5.4 3.8-8.2 11.3-8.2s11.3 2.8 11.3 8.2c0 1.9-.6 4.2-1.6 6.5-.1.4-.5.6-.9.6zm-17-2h16.3c.7-1.8 1.2-3.6 1.2-5.1 0-4.3-2.9-6.2-9.3-6.2s-9.3 1.9-9.3 6.2c0 1.6.4 3.5 1.1 5.1z"/></g></g><g><g><path d="m22.6 46.6c-.3 0-.5-.1-.7-.3l-5-5.1c-.4-.4-.4-1 0-1.4s1-.4 1.4 0l4.3 4.4 4.3-4.4c.4-.4 1-.4 1.4 0s.4 1 0 1.4l-5 5.1c-.2.2-.4.3-.7.3z"/></g><g><path d="m22.6 53.3c-.6 0-1-.4-1-1v-6.7c0-.6.4-1 1-1s1 .4 1 1v6.7c0 .6-.4 1-1 1z"/></g></g><g><path d="m28.7 47.6h-2.7c-.6 0-1-.4-1-1s.4-1 1-1h2.7c.6 0 1 .4 1 1s-.4 1-1 1z"/></g></g><g><g><g><path d="m53.7 48c-3.3 0-6-2.7-6-6s2.7-6 6-6 6 2.7 6 6-2.7 6-6 6zm0-10c-2.2 0-4 1.8-4 4s1.8 4 4 4 4-1.8 4-4-1.8-4-4-4z"/></g><g><path d="m60.5 64.9h-13.6c-1.7 0-3.2-1.1-3.7-2.8-.5-1.3-.8-2.8-.8-4.3 0-5.4 3.8-8.2 11.3-8.2s11.3 2.8 11.3 8.2c0 1.2-.2 2.5-.7 4.3-.6 1.7-2 2.8-3.8 2.8zm-6.8-13.3c-6.4 0-9.3 1.9-9.3 6.2 0 1.3.2 2.6.6 3.6.3.9 1 1.5 1.9 1.5h13.6c.9 0 1.6-.5 1.8-1.4.4-1.5.7-2.8.7-3.7 0-4.3-2.9-6.2-9.3-6.2z"/></g></g></g><g><path d="m43.4 61.6h-41.4c-.6 0-1-.4-1-1v-8c0-.6.4-1 1-1h43.1c.6 0 1 .4 1 1s-.4 1-1 1h-42.1v6h40.4c.6 0 1 .4 1 1s-.4 1-1 1z"/></g></g><g><path d="m13.6 26.6c-.3 0-.5-.1-.7-.3l-4.8-4.7h-1.6c-2.2 0-3.9-1.7-3.9-3.9v-12.7c0-2.2 1.7-3.9 3.9-3.9h27.1c2.2 0 3.9 1.7 3.9 3.9v.7c0 .1 0 .2-.1.3l-.1.3c-.1.3-.3.5-.6.6-4.8 1.7-8 6.3-8 11.5 0 .6 0 1 .1 1.4.1.3 0 .5-.1.8l-.4.6c-.2.3-.5.4-.8.4h-13l.1 4c0 .4-.2.8-.6.9-.1.1-.3.1-.4.1zm-7.1-23.5c-1 0-1.9.9-1.9 1.9v12.7c0 1 .9 1.9 1.9 1.9h2c.3 0 .5.1.7.3l3.4 3.3-.1-2.6c0-.3.1-.5.3-.7s.4-.3.7-.3h13.2c0-.4 0-.8 0-1.2 0-5.8 3.5-11 8.8-13.1v-.3c0-1.1-.8-1.9-1.9-1.9z"/></g><g><path d="m52.9 32.5c-.1 0-.1 0-.2 0l-6.4-1.1c-1.8.8-3.6 1.2-5.6 1.2-7.8 0-14.1-6.3-14.1-14.1s6.4-14.2 14.2-14.2 14.1 6.3 14.1 14.1c0 2.5-.7 5-2 7.3l1 5.7c.1.3 0 .7-.3.9-.2.1-.4.2-.7.2zm-12.1-26.3c-6.7 0-12.2 5.5-12.2 12.2s5.4 12.1 12.1 12.1c1.8 0 3.5-.4 5.1-1.1.2-.1.4-.1.6-.1l5.3.9-.8-4.7c0-.2 0-.5.1-.7 1.3-2.1 2-4.3 2-6.6-.1-6.6-5.5-12-12.2-12z"/></g><g><g><path d="m32.8 17.7c-.3 0-.5-.1-.7-.3-.4-.4-.4-1 .1-1.4l8-7.4c.4-.4 1-.4 1.4 0l7.9 7.4c.4.4.4 1 0 1.4s-1 .4-1.4 0l-7.2-6.8-7.3 6.8c-.3.2-.6.3-.8.3z"/></g><g><path d="m46.9 25.7h-12.3c-.6 0-1-.4-1-1v-9.5c0-.3.1-.5.3-.7l6.2-5.9c.4-.4 1-.4 1.4 0l6.1 5.9c.2.2.3.4.3.7v9.5c0 .6-.4 1-1 1zm-11.3-2h10.3v-8.1l-5.1-4.9-5.2 4.9z"/></g><g><path d="m43 25.7h-4.4c-.6 0-1-.4-1-1v-5.8c0-.6.4-1 1-1h4.4c.6 0 1 .4 1 1v5.8c0 .6-.4 1-1 1zm-3.4-2h2.4v-3.8h-2.4z"/></g></g></g><g><g><path d="m25.8 7.6h-17.3c-.6 0-1-.4-1-1s.4-1 1-1h17.3c.6 0 1 .4 1 1s-.4 1-1 1z"/></g><g><path d="m22.8 12.3h-14.3c-.6 0-1-.4-1-1s.4-1 1-1h14.3c.6 0 1 .4 1 1s-.4 1-1 1z"/></g><g><path d="m22.8 17h-14.3c-.6 0-1-.4-1-1s.4-1 1-1h14.3c.6 0 1 .4 1 1s-.4 1-1 1z"/></g></g></g></svg>