<svg id="Layer_1" viewBox="0 0 64 64" xmlns="http://www.w3.org/2000/svg" data-name="Layer 1"><path d="m7.555 48.788h24.145a1 1 0 0 0 1-1v-13.42l.142.122a1 1 0 0 0 1.41-.1l2.757-3.2a1 1 0 0 0 -.1-1.411l-16.626-14.324a1 1 0 0 0 -1.307 0l-4.246 3.657v-.4a1 1 0 0 0 -1-1h-5.036a1 1 0 0 0 -1 1v6.46l-5.347 4.608a1 1 0 0 0 -.1 1.411l2.753 3.195a1 1 0 0 0 1.41.1l.145-.126v13.428a1 1 0 0 0 1 1zm23.143-2h-22.143v-14.146l11.074-9.542 11.071 9.544zm-21-27.074h3.032v1.121l-3.036 2.616zm-3.837 12.609-1.45-1.68 15.217-13.11 15.21 13.11-1.449 1.68-13.107-11.3a1 1 0 0 0 -1.306 0l-12.123 10.446h-.006z"/><path d="m14.234 31.179a1 1 0 0 0 -1 1v10.782a1 1 0 0 0 1 1h10.782a1 1 0 0 0 1-1v-10.782a1 1 0 0 0 -1-1zm1 2h3.391v3.391h-3.391zm0 5.391h3.391v3.391h-3.391zm8.782 3.391h-3.391v-3.391h3.391zm0-5.391h-3.391v-3.391h3.391z"/><path d="m42.009 27.571a1 1 0 0 0 0 2h.959v4.16a1 1 0 1 0 2 0v-4.16h.959a1 1 0 0 0 0-2z"/><path d="m46.976 31.621-.688 1.743a1 1 0 1 0 1.86.735l.431-1.09h1.355l.431 1.09a1 1 0 0 0 .93.633 1.017 1.017 0 0 0 .368-.07 1 1 0 0 0 .562-1.3l-.687-1.738v-.011l-1.347-3.41a1 1 0 0 0 -1.861 0l-1.349 3.414z"/><path d="m53.31 34.556a.987.987 0 0 0 .564.175 1 1 0 0 0 .826-.431l.943-1.377.943 1.377a1 1 0 0 0 1.65-1.131l-1.381-2.015 1.381-2.015a1 1 0 0 0 -1.65-1.131l-.943 1.377-.943-1.38a1 1 0 0 0 -1.65 1.131l1.381 2.015-1.381 2.015a1 1 0 0 0 .26 1.39z"/><path d="m62 47.555v-27.644a1 1 0 0 0 -1-1h-17.748c-.022 0-.041.012-.064.013a.986.986 0 0 0 -.257.052.874.874 0 0 0 -.1.034.989.989 0 0 0 -.281.188h-.005l-4.822 4.751c-.011.011-.017.026-.027.037a1 1 0 0 0 -.165.245.944.944 0 0 0 -.042.116.968.968 0 0 0 -.047.231c0 .028-.017.053-.017.082v22.895a1 1 0 0 0 1 1h22.575a1 1 0 0 0 1-1zm-19.747-25.255v1.369h-1.39zm17.747 24.255h-20.58v-20.886h3.833a1 1 0 0 0 1-1v-3.758h15.747z"/><path d="m55.37 37.172h-10.682a1 1 0 0 0 0 2h10.682a1 1 0 1 0 0-2z"/><path d="m55.37 41.613h-10.682a1 1 0 0 0 0 2h10.682a1 1 0 1 0 0-2z"/></svg>