<svg id="Layer_1" enable-background="new 0 0 200 200" viewBox="0 0 200 200" xmlns="http://www.w3.org/2000/svg"><g fill="rgb(0,0,0)"><path d="m54.1128 144.2485c.1157 0 .2324-.0103.3486-.0308l9.8193-1.7373c.4038-.0713.7759-.2651 1.0654-.5552l30.4062-30.4062c1.4575-1.457 2.2598-3.3945 2.2598-5.4551s-.8022-3.998-2.2598-5.4551c-3.0083-3.0083-7.9023-3.0073-10.9097 0l-30.4066 30.4068c-.29.2896-.4839.6616-.5552 1.0654l-1.7373 9.8188c-.1138.6431.0933 1.3013.5552 1.7627.3784.3785.8882.586 1.4141.586zm38.8115-40.8115c.7017.7017 1.0879 1.6348 1.0879 2.627s-.3862 1.9253-1.0879 2.627l-1.6167 1.6166-5.2534-5.2538 1.6167-1.6168c1.4482-1.4487 3.8052-1.4487 5.2534 0zm-35.2143 29.9614 25.5161-25.5165 5.2534 5.2538-25.5161 25.5157-6.3828 1.1294z"/><path d="m161.686 164.1587h-6.7144v-26.3835c1.7496 1.3351 4.2576 1.2212 5.855-.3763l2.1982-2.1982c1.7412-1.7407 1.7412-4.5742 0-6.3159l-7.2266-7.2266c-.7803-.7812-2.0479-.7812-2.8281 0-.7812.7808-.7812 2.0474 0 2.8281l7.2261 7.2266c.1821.1816.1821.4775.0005.6597l-2.1982 2.1982c-.1816.1807-.478.1816-.6597 0l-2.9519-2.9518c-.0007-.0008-.0017-.0018-.0024-.0026l-25.449-25.4489c-1.7402-1.7402-4.5737-1.7412-6.3159 0l-28.4038 28.4033c-.2256.2256-.4321.2261-.6587-.0005l-2.1987-2.1978c-.1816-.1821-.1816-.478 0-.6597l34.0894-34.0889c.1812-.1816.4775-.1831.6597-.0005l15.8403 15.8408c.7812.7812 2.0479.7812 2.8281 0 .7812-.7808.7812-2.0474 0-2.8281l-15.8403-15.8408c-1.7402-1.7402-4.5737-1.7412-6.3159 0l-34.0898 34.0894c-1.7407 1.7417-1.7407 4.5752.0005 6.3164l2.1982 2.1978c.8433.8438 1.9648 1.3086 3.1582 1.3086.9916 0 1.9235-.337 2.6973-.9297v26.3809h-6.5908c-1.1045 0-2 .8955-2 2s.8955 2 2 2h25.896 19.7773 26.0195c1.1045 0 2-.8955 2-2s-.8956-2-2.0001-2zm-61.102-30.2993 24.8638-24.8633c.1812-.1816.4775-.1831.6597-.0005l24.8643 24.8643v30.2988h-13.3052v-24.2197c0-2.7305-2.2212-4.9517-4.9517-4.9517h-13.874c-2.7305 0-4.9517 2.2212-4.9517 4.9517v24.2197h-13.3052zm17.3052 30.2993v-24.2197c0-.5249.4268-.9517.9517-.9517h13.874c.5249 0 .9517.4268.9517.9517v24.2197z"/><path d="m147.02 118.3198c.0498.1201.1099.2402.1899.3501.0698.1099.1499.21.2397.2998.3799.3701.8901.5903 1.4199.5903.5303 0 1.04-.2202 1.4102-.5903.0898-.0898.1802-.1899.25-.2998s.1299-.23.1802-.3501c.0498-.1201.0898-.2402.1196-.3701.02-.1299.04-.2598.04-.3896 0-.5303-.2197-1.0503-.5898-1.4204-.46-.46-1.1499-.6699-1.7998-.54-.1304.02-.2603.0601-.3804.1104-.1196.0498-.23.1099-.3398.1797-.1099.0801-.21.1602-.3101.25-.3701.3701-.5801.8901-.5801 1.4204 0 .1299.0103.2598.04.3896.0202.1298.0602.2499.1105.37z"/><path d="m122.707 148.3369c-1.1045 0-2 .8955-2 2v6.3481c0 1.1045.8955 2 2 2s2-.8955 2-2v-6.3481c0-1.1045-.8955-2-2-2z"/><path d="m107.1074 139.3984c-1.1045 0-2 .8955-2 2v13.8809c0 1.1045.8955 2 2 2s2-.8955 2-2v-13.8809c0-1.1045-.8955-2-2-2z"/><path d="m144.1816 157.2793c1.1045 0 2-.8955 2-2v-13.8809c0-1.1045-.8955-2-2-2s-2 .8955-2 2v13.8809c0 1.1045.8955 2 2 2z"/><path d="m55.6514 74.2432c.3906.3906.9023.5859 1.4141.5859s1.0239-.1953 1.4141-.5859l8.5273-8.5269c.7812-.7808.7812-2.0474 0-2.8281-.7803-.7812-2.0479-.7812-2.8281 0l-7.1133 7.1123-3.4292-3.4287c-.7803-.7812-2.0479-.7812-2.8281 0-.7812.7808-.7812 2.0474 0 2.8281z"/><path d="m50.8081 87.9897 4.8433 4.8438c.375.375.8838.5859 1.4141.5859s1.0391-.2109 1.4141-.5859l8.5273-8.5273c.7812-.7808.7812-2.0474 0-2.8281-.7803-.7812-2.0479-.7812-2.8281 0l-7.1133 7.1128-3.4292-3.4292c-.7803-.7812-2.0469-.7812-2.8281 0-.7813.7807-.7813 2.0473-.0001 2.828z"/><path d="m110.2847 67.6362h-31.5596c-1.1045 0-2 .8955-2 2s.8955 2 2 2h31.5596c1.1045 0 2-.8955 2-2s-.8955-2-2-2z"/><path d="m112.2847 87.1558c0-1.1045-.8955-2-2-2h-31.5596c-1.1045 0-2 .8955-2 2s.8955 2 2 2h31.5596c1.1045 0 2-.8955 2-2z"/><path d="m81.0776 164.002h-41.4106v-28.7891c0-1.1045-.8955-2-2-2s-2 .8955-2 2v30.7891c0 1.1045.8955 2 2 2h43.4106c1.1045 0 2-.8955 2-2s-.8955-2-2-2z"/><path d="m39.5098 125.9897c-.0498-.1201-.1099-.2397-.1802-.3501-.0698-.1099-.1597-.21-.25-.2998-.46-.46-1.1499-.6802-1.7998-.5498-.1299.0298-.2598.0698-.3799.1196-.1201.0503-.23.1104-.3398.1802-.1104.0698-.2104.1602-.3101.25-.3701.3701-.5801.8901-.5801 1.4102 0 .5298.21 1.0498.5801 1.4199.3799.3701.8896.5898 1.4199.5898.52 0 1.04-.2197 1.4097-.5898.0903-.0903.1802-.2002.25-.3003.0703-.1099.1304-.23.1802-.3496.0503-.1201.0898-.25.1201-.3701.02-.1299.04-.27.04-.3999 0-.1304-.02-.2603-.04-.3901-.0303-.1202-.0698-.25-.1201-.3702z"/><path d="m37.667 119.5562c1.1045 0 2-.8955 2-2v-81.7149h70.6289v21.1011c0 1.1045.8955 2 2 2h20.6396v26.2354c0 1.1045.8955 2 2 2s2-.8955 2-2v-28.6973c0-.5303-.2109-1.0391-.5859-1.4141l-22.6384-22.6379c-.0924-.0926-.1942-.1758-.3032-.2489-.0267-.0179-.0568-.0292-.0843-.0457-.0838-.0505-.1682-.1005-.2593-.1385-.0382-.0159-.0792-.0233-.1183-.0368-.0837-.0289-.1664-.0597-.2548-.0775-.1293-.0261-.2616-.0399-.3954-.0399h-74.6289c-1.1045 0-2 .8955-2 2v83.7148c0 1.1046.8955 2.0002 2 2.0002zm76.6289-80.8863 16.2729 16.2725h-16.2729z"/></g></svg>