<svg id="Layer_1" enable-background="new 0 0 512 512" height="512" viewBox="0 0 512 512" width="512" xmlns="http://www.w3.org/2000/svg"><path clip-rule="evenodd" d="m35.882 401.494h201.795c1.404 6.824 3.312 13.464 5.679 19.882h-227.356v-345.275h19.882zm336.833 23.559c.375-.023.748-.022 1.122.007 2.79-.096 9.202-1.286 9.119-4.776l-.062-.518c-.53-4.368-7.433-5.614-10.907-6.185-11.303-1.856-21.985-7.459-22.607-20.287-.502-10.344 6.318-18.29 15.838-21.255v-1.07c0-4.418 3.582-8 8-8s8 3.582 8 8v.968c6.571 1.993 12.454 6.543 15.628 14.103 1.708 4.073-.208 8.76-4.281 10.469-4.073 1.708-8.76-.208-10.469-4.281-1.491-3.552-4.663-5.338-8.382-5.47-.31.019-.619.021-.929.004-3.271.145-7.657 1.898-7.468 5.783.178 3.681 6.435 4.828 9.232 5.287 11.601 1.905 22.634 6.996 24.219 20.06.064.524.105 1.201.125 2.018.259 10.876-7.851 17.755-17.676 20.172v.759c0 4.418-3.582 8-8 8s-8-3.582-8-8v-.927c-8.566-2.372-15.265-8.446-17.461-17.252-1.053-4.28 1.564-8.603 5.844-9.656s8.603 1.564 9.656 5.844c1.057 4.23 5.47 6.032 9.459 6.203zm.699-174.225c-67.703 0-122.586 54.884-122.586 122.586s54.883 122.586 122.586 122.586c67.702 0 122.586-54.884 122.586-122.586s-54.884-122.586-122.586-122.586zm-31.511 32.648c3.468-3.468 8.958-4.054 13.085-1.405 3.178 2.039 7.375.301 8.18-3.388 1.028-4.706 5.242-8.259 10.246-8.26 4.914 0 9.199 3.463 10.247 8.26.805 3.688 5.001 5.428 8.179 3.388 4.054-2.602 9.547-2.133 13.085 1.404 4.078 4.077 4.078 10.751 0 14.829l-1.678 1.678c-2.251-.633-4.624-.972-7.074-.972h-45.519c-2.45 0-4.823.339-7.074.972l-1.677-1.678c-4.078-4.078-4.078-10.751 0-14.828zm64.473 41.736c0 5.611-4.591 10.202-10.204 10.202h-45.519c-5.612 0-10.203-4.591-10.203-10.203 0-5.611 4.591-10.202 10.203-10.202h45.519c5.613 0 10.204 4.591 10.204 10.203zm-32.962 151.182c-49.627.836-86.684-45.618-60.635-91.356 6.156-10.808 15.076-22.696 26.756-36.107 3.378 1.591 7.147 2.482 11.12 2.482h45.519c3.973 0 7.742-.891 11.12-2.482 11.681 13.41 20.6 25.298 26.756 36.107 26.048 45.738-11.009 92.193-60.636 91.356zm-295.727-307.683c-2.201 0-4 1.8-4 4v10.529c0 2.2 1.8 4 4 4h184.208c2.2 0 4-1.8 4-4v-10.529c0-2.2-1.8-4-4-4zm188.894-109.024-96.789-43.687-96.79 43.687c-2.61 1.179-1.765 5.109 1.1 5.109h14.758v87.915h26.154v-41.831c0-3.305 2.695-6 6-6h32.984c3.305 0 6 2.695 6 6v41.831h90.726v-87.915h14.758c2.864 0 3.71-3.931 1.099-5.109zm-43.791 47.454c0 3.305-2.695 6-6 6h-31.236c-3.304 0-6-2.695-6-6v-19.322c0-3.305 2.695-6 6-6h31.236c3.305 0 6 2.695 6 6zm-114.136-91.141h16.678c1.122 0 2.14.468 2.868 1.219l-23.546 10.628v-7.847c0-2.2 1.8-4 4-4zm-12.141 260.17 75.447-57.287 74.924 32.217c3.095 1.33 6.566.553 8.811-1.693l53.618-48.779-1.045 5.286c-.845 4.332 1.981 8.529 6.312 9.375 4.332.846 8.53-1.981 9.375-6.312l5.715-29.022c.952-4.895-2.786-9.496-7.822-9.496l-29.579.108c-4.401 0-7.969 3.568-7.969 7.969s3.568 7.969 7.969 7.969l8.869-.032-52.663 47.911-74.45-32.014-.012.027c-2.547-1.092-5.592-.822-7.957.973l-79.169 60.113c-3.503 2.658-4.189 7.653-1.531 11.156s7.653 4.189 11.157 1.531zm-17.397 65.603c-3.305 0-6 2.695-6 6v37.721h37.17v-37.721c0-3.305-2.695-6-6-6zm237.506-111.468h25.171c3.305 0 6 2.695 6 6v.898c-13.136 2.456-25.621 6.76-37.17 12.639v-13.537c-.001-3.305 2.694-6 5.999-6zm-79.169 74.107c-3.305 0-6 2.695-6 6v75.083h3.906c-.344-3.982-.53-8.009-.53-12.08 0-25.123 6.685-48.684 18.373-69.002h-15.749zm-79.169-25.349c-3.305 0-6 2.695-6 6v100.432h37.17v-100.433c0-3.305-2.695-6-6-6h-25.17z" fill-rule="evenodd"/></svg>