<?xml version="1.0"?>
<svg xmlns="http://www.w3.org/2000/svg" viewBox="0 0 64 64"><title/><g data-name="Layer 6" id="Layer_6"><path d="M62,31H58V21h1a1,1,0,0,0,.92-.62,1,1,0,0,0-.21-1.09l-18-18A1,1,0,0,0,41,1H23a1,1,0,0,0-.71.29l-18,18a1,1,0,0,0-.21,1.09A1,1,0,0,0,5,21h5v9H2a1,1,0,0,0-1,1V49a1,1,0,0,0,1,1h8a1,1,0,0,0,1-1V48h4.67l.7.51L14.2,51.4a1,1,0,0,0-.19.75,1,1,0,0,0,.41.66l14,10A1,1,0,0,0,29,63a1,1,0,0,0,.8-.4l2-2.7,2.59,1.91A1,1,0,0,0,35,62a1,1,0,0,0,.8-.4l2.28-3.05.31.24A1,1,0,0,0,39,59h.13a1,1,0,0,0,.67-.39l2.28-3.05.31.24A1,1,0,0,0,43,56h.13a1,1,0,0,0,.67-.39l2.28-3.05.31.24A1,1,0,0,0,47,53h.13a1,1,0,0,0,.67-.39L50.5,49H53v1a1,1,0,0,0,1,1h8a1,1,0,0,0,1-1V32A1,1,0,0,0,62,31ZM9,48H3V32H9ZM56.59,19H41.41l-16-16H40.59ZM23,3.41,38.59,19H35.41L23.71,7.29a1,1,0,0,0-1.42,0L10.59,19H7.41ZM23,31v1H20V27a3,3,0,0,1,6,0v3H24A1,1,0,0,0,23,31Zm0-9a5,5,0,0,0-5,5v5H12V20.41l11-11,11,11V30H28V27A5,5,0,0,0,23,22ZM18,49.7,19.75,51,18.2,53.06l-1.79-1.28Zm8.69,6.41-1.47,2-1.79-1.28,1.49-2Zm-4.88-.49-2-1.4,1.53-2,1.93,1.42Zm7,5-2-1.4,1.45-1.93,1.93,1.43Zm18-10-8.2-6.38-1.22,1.58,7.12,5.54-1.7,2.26-8.2-6.38-1.22,1.58,7.12,5.54-1.7,2.26-8.2-6.38-1.22,1.58,7.12,5.54-1.72,2.28L16.59,46.19A1,1,0,0,0,16,46H11V34H23v1a1,1,0,0,0,1,1h8.66l16,12.19ZM50.34,47,33.61,34.21A1,1,0,0,0,33,34H25V32h9.84l8.84,3A1.19,1.19,0,0,0,44,35h9V47ZM53,32v1H44.16L40,31.61V25H52v4h2V24a1,1,0,0,0-1-1H39a1,1,0,0,0-1,1v7l-2-.67V21H56V31H54A1,1,0,0,0,53,32Zm8,17H55V33h6Z"/><path d="M23,13a4,4,0,1,0,4,4A4,4,0,0,0,23,13Zm0,6a2,2,0,1,1,2-2A2,2,0,0,1,23,19Z"/></g></svg>
