<svg id="Layer_5" enable-background="new 0 0 64 64" height="512" viewBox="0 0 64 64" width="512" xmlns="http://www.w3.org/2000/svg"><g><path d="m32 21c3.86 0 7-3.14 7-7s-3.14-7-7-7-7 3.14-7 7 3.14 7 7 7zm0-12c2.757 0 5 2.243 5 5s-2.243 5-5 5-5-2.243-5-5 2.243-5 5-5z"/><path d="m32 17c1.654 0 3-1.346 3-3s-1.346-3-3-3-3 1.346-3 3 1.346 3 3 3zm0-4c.551 0 1 .449 1 1s-.449 1-1 1-1-.449-1-1 .449-1 1-1z"/><path d="m63 15v-2c0-1.654-1.346-3-3-3h-17.753c-.002-.005-.007-.008-.009-.014-.051-.132-.104-.263-.161-.393-.118-.273-.104-.591.038-.873.601-1.188.372-2.62-.57-3.561l-.705-.703c-.942-.942-2.373-1.171-3.561-.57-.281.144-.6.157-.874.038-.128-.056-.259-.109-.39-.161-.279-.108-.497-.345-.596-.648-.416-1.265-1.59-2.115-2.921-2.115h-.996c-1.331 0-2.505.85-2.921 2.116-.099.302-.316.538-.596.646-.131.051-.261.104-.391.161-.273.118-.591.104-.873-.038-1.189-.601-2.619-.372-3.561.57l-.704.705c-.942.941-1.171 2.373-.57 3.561.143.282.156.6.038.874-.056.129-.11.26-.161.39-.003.006-.009.009-.011.015h-17.752c-1.654 0-3 1.346-3 3v2c0 1.654 1.346 3 3 3h3.59l-6.59 18.83v.17c0 4.963 4.038 9 9 9s9-4.037 9-9v-.17l-6.59-18.83h6.918c-1.504 2.383-2.328 5.156-2.328 8 0 6.643 4.344 12.281 10.336 14.248-.214.559-.336 1.147-.336 1.752v16c0 2.757 2.243 5 5 5s5-2.243 5-5v-16c0-.605-.122-1.193-.336-1.752 5.992-1.967 10.336-7.605 10.336-14.248 0-2.844-.824-5.617-2.328-8h6.918l-6.59 18.83v.17c0 4.963 4.038 9 9 9s9-4.037 9-9v-.17l-6.59-18.83h3.59c1.654 0 3-1.346 3-3zm-42-1.498c0-.465.297-.875.739-1.021.873-.286 1.561-.932 1.887-1.772.042-.107.086-.214.131-.318.356-.82.325-1.757-.087-2.572-.21-.415-.13-.916.199-1.245l.704-.704c.329-.33.829-.41 1.245-.199.815.412 1.753.444 2.571.087.106-.046.213-.09.32-.131.839-.327 1.485-1.015 1.772-1.887.145-.443.556-.74 1.021-.74h.996c.465 0 .875.297 1.021.74.287.872.932 1.56 1.771 1.886.107.042.214.086.319.131.818.356 1.757.324 2.572-.087.414-.21.915-.13 1.245.199l.704.704c.329.329.409.83.199 1.245-.412.815-.443 1.752-.087 2.571.045.105.089.212.132.321.326.839 1.014 1.484 1.887 1.771.442.145.739.556.739 1.021v.996c0 .465-.297.875-.74 1.021-.872.286-1.56.932-1.886 1.772-.042.107-.086.214-.131.318-.356.82-.325 1.757.087 2.572.21.415.13.915-.199 1.244l-.705.705c-.329.329-.83.408-1.244.199-.814-.411-1.752-.442-2.571-.087-.105.045-.212.089-.321.132-.839.326-1.484 1.014-1.771 1.887-.145.442-.556.739-1.021.739h-.996c-.465 0-.875-.297-1.021-.74-.286-.872-.932-1.56-1.772-1.886-.107-.042-.214-.086-.318-.131-.378-.165-.781-.247-1.186-.247-.473 0-.947.112-1.386.333-.416.209-.916.129-1.244-.199l-.705-.705c-.329-.329-.409-.829-.199-1.244.412-.815.443-1.752.087-2.571-.045-.105-.089-.212-.132-.321-.326-.839-1.014-1.484-1.887-1.771-.442-.144-.739-.555-.739-1.02zm20 12.498c0 4.962-4.038 9-9 9s-9-4.038-9-9c0-.796.114-1.57.315-2.323.939.822 2.278 1.008 3.406.438.281-.143.6-.157.874-.038.129.056.26.11.39.161.28.108.497.345.596.648.416 1.264 1.59 2.114 2.921 2.114h.996c1.331 0 2.505-.85 2.921-2.116.099-.302.316-.538.594-.646.132-.051.263-.104.393-.161.272-.118.591-.104.873.038 1.127.57 2.467.384 3.406-.438.201.753.315 1.528.315 2.323zm-31 18c-3.52 0-6.436-2.612-6.923-6h13.846c-.487 3.388-3.403 6-6.923 6zm6.591-8h-13.182l6.3-18h.581zm-12.591-20c-.551 0-1-.449-1-1v-2c0-.551.449-1 1-1h15.398c-.252.449-.398.961-.398 1.502v.996c0 .541.146 1.053.398 1.502zm31 42c0 1.654-1.346 3-3 3s-3-1.346-3-3v-13h6zm0-15h-6v-1c0-.437.105-.861.294-1.257.88.161 1.781.257 2.706.257s1.826-.096 2.706-.257c.189.396.294.82.294 1.257zm10-17c0 7.168-5.832 13-13 13s-13-5.832-13-13c0-2.9.983-5.714 2.76-7.99.001.001.002.002.003.004.051.132.104.263.161.393.118.273.104.591-.038.873-.421.833-.426 1.783-.072 2.602-.53 1.308-.814 2.688-.814 4.118 0 6.065 4.935 11 11 11s11-4.935 11-11c0-1.429-.283-2.809-.814-4.118.354-.819.349-1.769-.072-2.602-.143-.282-.156-.6-.038-.874.056-.129.11-.26.161-.39.001-.002.002-.003.003-.005 1.777 2.276 2.76 5.09 2.76 7.989zm9 18c-3.52 0-6.436-2.612-6.923-6h13.846c-.487 3.388-3.403 6-6.923 6zm6.591-8h-13.182l6.3-18h.581zm-15.989-20c.252-.449.398-.961.398-1.502v-.996c0-.541-.146-1.053-.398-1.502h15.398c.551 0 1 .449 1 1v2c0 .551-.449 1-1 1z"/><path d="m35 29h2v2h-2z"/><path d="m31 29h2v2h-2z"/><path d="m27 29h2v2h-2z"/><circle cx="32" cy="58" r="1"/></g></svg>