<svg id="Layer_5" enable-background="new 0 0 64 64" height="512" viewBox="0 0 64 64" width="512" xmlns="http://www.w3.org/2000/svg"><g><path d="m32 13c1.859 0 3.411-1.279 3.858-3h9.142v5h2v-7h-11.142c-.447-1.721-1.999-3-3.858-3s-3.411 1.279-3.858 3h-7.142v2h7.142c.447 1.721 1.999 3 3.858 3z"/><path d="m31 46c0 .552.448 1 1 1h28c.552 0 1-.448 1-1v-21h-30zm18-19h10v2h-10zm-4 0h2v2h-2zm0 4h14v2h-14zm0 6h14v2h-14zm0 4h14v2h-14zm-12-14h10v8h-10zm0 10h10v8h-10z"/><path d="m35 29h6v4h-6z"/><path d="m60 17h-28c-.552 0-1 .448-1 1v5h30v-5c0-.552-.448-1-1-1zm-25 4h-2v-2h2zm4 0h-2v-2h2zm4 0h-2v-2h2z"/><path d="m35 39h6v4h-6z"/><path d="m24 40v-11h-21v11c0 .552.448 1 1 1h19c.552 0 1-.448 1-1z"/><path d="m24 24c0-.552-.448-1-1-1h-19c-.552 0-1 .448-1 1v3h21z"/><path d="m7 61h12v-12h-12zm2-10h8v2h-8zm0 4h8v2h-8z"/><path d="m19 3h-12v12h12zm-2 8h-8v-2h8zm0-4h-8v-2h8z"/><path d="m12 17h2v4h-2z"/><path d="m12 43h2v4h-2z"/><path d="m45 54h-9.142c-.447-1.721-1.999-3-3.858-3s-3.411 1.279-3.858 3h-7.142v2h7.142c.447 1.721 1.999 3 3.858 3s3.411-1.279 3.858-3h11.142v-7h-2z"/></g></svg>