<svg id="Network_Security" viewBox="0 0 64 64" xmlns="http://www.w3.org/2000/svg" data-name="Network Security"><path d="m31.65 13.06-15 5.59c-.39.15-.65.52-.65.94v12.82c0 8.91 4.94 15.04 14.67 18.22l1.01.33c.1.03.21.05.31.05s.21-.02.31-.05l1.01-.33c9.74-3.18 14.67-9.31 14.67-18.22v-12.82c0-.42-.26-.79-.65-.94l-15-5.59c-.22-.08-.47-.08-.7 0zm14.35 19.34c0 7.95-4.47 13.44-13.3 16.32l-.7.23-.7-.23c-8.82-2.88-13.3-8.37-13.3-16.32v-12.12l14-5.21 14 5.21z"/><path d="m43.36 21.33-11-4.26c-.23-.09-.49-.09-.72 0l-11 4.26c-.38.15-.64.52-.64.93v10.11c0 7.14 3.82 11.91 11.68 14.58.1.04.21.05.32.05s.22-.02.32-.05c7.86-2.67 11.68-7.43 11.68-14.58v-10.11c0-.41-.25-.78-.64-.93zm-4.65 6.38-8 8c-.2.2-.45.29-.71.29s-.51-.1-.71-.29l-4-4c-.39-.39-.39-1.02 0-1.41s1.02-.39 1.41 0l3.29 3.29 7.29-7.29c.39-.39 1.02-.39 1.41 0s.39 1.02 0 1.41z"/><path d="m58.7 28.07c-.16-1.1-.37-2.2-.67-3.27-2.51-9.11-9.72-16.32-18.83-18.83-.53-.15-1.08.17-1.23.7s.17 1.08.7 1.23c8.43 2.32 15.11 9 17.43 17.44.27.95.46 1.92.6 2.89-1.57.54-2.7 2.02-2.7 3.76 0 2.21 1.79 4 4 4s4-1.79 4-4c0-1.97-1.43-3.6-3.3-3.93zm-.7 5.93c-1.1 0-2-.9-2-2s.9-2 2-2 2 .9 2 2-.9 2-2 2z"/><path d="m6.67 26.03c.09.02.18.04.27.04.44 0 .84-.29.96-.73 2.32-8.43 9-15.11 17.44-17.43.95-.27 1.92-.46 2.89-.6.54 1.57 2.02 2.7 3.76 2.7 2.21 0 4-1.79 4-4s-1.79-4-4-4c-1.97 0-3.6 1.43-3.93 3.3-1.1.16-2.2.37-3.27.67-9.09 2.5-16.31 9.72-18.81 18.82-.15.53.17 1.08.7 1.23zm25.33-22.03c1.1 0 2 .9 2 2s-.9 2-2 2-2-.9-2-2 .9-2 2-2z"/><path d="m25.34 56.1c-8.43-2.32-15.11-9-17.43-17.44-.27-.95-.46-1.92-.6-2.89 1.57-.54 2.7-2.02 2.7-3.76 0-2.21-1.79-4-4-4s-4 1.79-4 4c0 1.97 1.43 3.6 3.3 3.93.16 1.1.37 2.2.67 3.27 2.51 9.11 9.72 16.32 18.83 18.83.09.02.18.04.27.04.44 0 .84-.29.96-.73.15-.53-.17-1.08-.7-1.23zm-21.34-24.1c0-1.1.9-2 2-2s2 .9 2 2-.9 2-2 2-2-.9-2-2z"/><path d="m57.33 37.97c-.53-.15-1.08.17-1.23.7-2.32 8.43-9 15.11-17.44 17.43-.95.27-1.92.46-2.89.6-.54-1.57-2.02-2.7-3.76-2.7-2.21 0-4 1.79-4 4s1.79 4 4 4c1.97 0 3.6-1.43 3.93-3.3 1.1-.16 2.2-.37 3.27-.67 9.11-2.51 16.32-9.72 18.83-18.83.15-.53-.17-1.08-.7-1.23zm-25.33 22.03c-1.1 0-2-.9-2-2s.9-2 2-2 2 .9 2 2-.9 2-2 2z"/></svg>