<svg id="Layer_1" viewBox="0 0 512 512" xmlns="http://www.w3.org/2000/svg" data-name="Layer 1"><path d="m49.317 221.984c19.474 41.499 51.732 71.121 97.2 88.895 45.439-17.773 77.726-47.395 97.172-88.895 19.502-41.584 26.334-95.216 20.834-160.895-41.896-5.188-81.326-21.26-118.006-44.532-36.708 23.272-76.139 39.345-118.035 44.532-5.471 65.679 1.333 119.31 20.835 160.895zm19.587 50.995v79.313h416.438v-246.557h-207.042c-.595 99.326-34.526 181.19-129.685 217.162-1.757.652-3.118.397-4.791-.227-30.387-11.622-55.332-28.176-74.919-49.691zm285.109 38.297h39.175v-131.131h-39.175zm-51.165 0h39.175v-97.71h-39.175zm-6.01 12.019h-51.165c-3.317 0-6.01-2.693-6.01-6.01v-45.099c0-3.317 2.693-5.981 6.01-5.981h45.156v-58.649c0-3.316 2.693-6.009 6.009-6.009h45.185v-27.411c0-3.288 2.665-5.981 5.981-5.981h45.184v-27.411c0-3.317 2.665-6.01 5.981-6.01h51.166c3.316 0 6.009 2.693 6.009 6.01v176.542c0 3.316-2.693 6.01-6.009 6.01h-153.496zm-45.156-12.019h39.146v-33.08h-39.146zm153.496 0h39.175v-164.523h-39.175zm-336.274 53.008v32.655h416.438v-32.655zm186.407 22.336c-3.317 0-6.01-2.693-6.01-6.01s2.693-6.01 6.01-6.01h43.653c3.288 0 5.981 2.693 5.981 6.01s-2.693 6.01-5.981 6.01zm61.114 22.309h-78.604c12.812 25.909.765 42.038-18 54.51-7.824 5.188-16.753 9.581-25.342 13.833-12.444 6.123-24.066 11.877-28.885 18.17h223.059c-4.791-6.293-16.441-12.047-28.857-18.17-8.617-4.252-17.546-8.646-25.37-13.833-18.737-12.472-30.812-28.602-18-54.51zm-166.082-254.126c-4.309-4.309-11.338.794-8.73 6.179.312.652.737 1.219 1.219 1.673 1.729 1.19 2.75 3.231 2.58 5.442l-3.373 38.296h8.929l-3.345-38.296c-.425-5.216 4.309-4.706 4.309-9.468 0-1.502-.624-2.834-1.587-3.827zm-3.826-13.578c14.825 0 22.791 17.405 13.294 28.602l3.685 42.038c.312 3.487-2.494 6.52-5.981 6.52h-22.025c-3.543 0-6.321-3.033-5.953-6.661l3.657-41.896c-9.496-11.197-1.531-28.602 13.323-28.602zm-55.588 86.627h111.146c1.644 0 3.033-1.361 3.033-3.005v-90.085c0-1.644-1.389-3.005-3.033-3.005h-111.146c-1.644 0-3.004 1.361-3.004 3.005v90.085c0 1.644 1.36 3.005 3.004 3.005zm93.232-108.113c-4.819-30.529-42.548-43.03-64.63-20.948-5.556 5.556-9.411 12.841-10.687 20.948h75.316zm-87.449 0c3.005-25.002 24.265-44.135 49.805-44.135s46.8 19.134 49.776 44.135c6.35 0 11.367-.624 16.413 4.422 2.693 2.721 4.394 6.463 4.394 10.602v90.085c0 8.277-6.747 14.995-15.024 14.995h-111.146c-8.277 0-15.023-6.718-15.023-14.995v-90.085c0-8.277 6.747-15.023 15.023-15.023h5.783z"/></svg>