<svg height="512" viewBox="0 0 512 512" width="512" xmlns="http://www.w3.org/2000/svg"><g id="solid"><path d="m307.564 355.991-17.729 10.637a65.764 65.764 0 0 1 -67.671 0l-17.728-10.637-3.283 9.848 28.5 28.5a8 8 0 0 1 2.347 5.661v80h16v-40a8 8 0 0 1 16 0v40h16v-80a8 8 0 0 1 2.343-5.657l28.5-28.5z"/><path d="m168 360v120h48v-76.687l-29.255-29.254z"/><circle cx="256" cy="336" r="24"/><circle cx="372" cy="92" r="28"/><circle cx="136" cy="280" r="24"/><path d="m336.028 439.335 6.52-78.246-17.293 12.97-29.255 29.254v76.687h48v-32a8 8 0 0 1 -7.972-8.665z"/><path d="m190.847 346.161-27.717-27.718a21.919 21.919 0 0 0 -6.227-4.356 39.9 39.9 0 0 1 -43.1-.833 16.025 16.025 0 0 0 -9.803 14.746v152h16v-72a8 8 0 0 1 16 0v72h16v-136a8 8 0 0 1 12.8-6.4l23.12 17.34z"/><path d="m372 152a60 60 0 1 0 -60-60 60.068 60.068 0 0 0 60 60zm0-104a44 44 0 1 1 -44 44 44.049 44.049 0 0 1 44-44z"/><path d="m278.98 216a8.794 8.794 0 0 0 -6.259 2.593l-11.064 11.064a8 8 0 0 1 -11.314 0l-11.064-11.064a8.852 8.852 0 0 0 -13.625 1.349 14.036 14.036 0 0 0 2.7 18.6l27.646 23.044 27.648-23.04a14.037 14.037 0 0 0 2.7-18.6 8.838 8.838 0 0 0 -7.368-3.946z"/><path d="m397.264 163.666a75.65 75.65 0 0 1 -25.264 4.334h-76a8 8 0 0 1 0-16h29.435a76.044 76.044 0 0 1 -28.248-46.713l-41.187-24.025-184 107.338v291.4h16v-152a32.062 32.062 0 0 1 14.232-26.6 40 40 0 1 1 66.745 1.205 37.909 37.909 0 0 1 5.466 4.525l30.517 30.517 12.04 7.226a40 40 0 1 1 77.992 0l12.044-7.226 30.517-30.517a37.909 37.909 0 0 1 5.466-4.525 40 40 0 1 1 66.745-1.2 32.067 32.067 0 0 1 14.236 26.289l7.98 111.736a8 8 0 0 1 -7.98 8.57v32h16v-291.4zm-103.372 87.171-32.77 27.309a8 8 0 0 1 -10.244 0l-32.77-27.308a30.009 30.009 0 0 1 -5.767-39.771 24.853 24.853 0 0 1 38.252-3.788l5.407 5.408 5.407-5.408a24.854 24.854 0 0 1 38.253 3.788 30.009 30.009 0 0 1 -5.768 39.77z"/><circle cx="376" cy="280" r="24"/><path d="m360 448h16v32h-16z"/><path d="m392 448h16v32h-16z"/><path d="m408 328a16.025 16.025 0 0 0 -9.8-14.746 39.9 39.9 0 0 1 -43.1.833 21.919 21.919 0 0 0 -6.227 4.356l-27.717 27.718 2.927 8.779 23.117-17.34a8 8 0 0 1 12.772 7.065l-7.278 87.335h62.714l-7.387-103.43q-.021-.285-.021-.57z"/></g></svg>