<svg height="512" viewBox="0 0 32 32" width="512" xmlns="http://www.w3.org/2000/svg"><g id="_x30_2"><path d="m22 13c-4.4111328 0-8 3.5888672-8 8s3.5888672 8 8 8 8-3.5888672 8-8-3.5888672-8-8-8zm0 7.5c1.6542969 0 3 1.3457031 3 3 0 1.4830933-1.0841064 2.7097168-2.5 2.9494629v1.0505371c0 .2763672-.2236328.5-.5.5s-.5-.2236328-.5-.5v-1.0505371c-1.4158936-.2397461-2.5-1.4663696-2.5-2.9494629 0-.2763672.2236328-.5.5-.5s.5.2236328.5.5c0 1.1030273.8969727 2 2 2s2-.8969727 2-2-.8969727-2-2-2c-1.6542969 0-3-1.3457031-3-3 0-1.4830933 1.0841064-2.7097168 2.5-2.9494629v-1.0505371c0-.2763672.2236328-.5.5-.5s.5.2236328.5.5v1.0505371c1.4158936.2397461 2.5 1.4663696 2.5 2.9494629 0 .2763672-.2236328.5-.5.5s-.5-.2236328-.5-.5c0-1.1030273-.8969727-2-2-2s-2 .8969727-2 2 .8969727 2 2 2z"/><path d="m9.0532837 19.0532837c-.0335693.6125488-.0532837 1.2596435-.0532837 1.9467163s.0197144 1.3341675.0532837 1.9467163c.6125488.0335693 1.2596435.0532837 1.9467163.0532837s1.3341675-.0197144 1.9467163-.0532837c.0335693-.6125488.0532837-1.2596435.0532837-1.9467163s-.0197144-1.3341675-.0532837-1.9467163c-.6125488-.0335693-1.2596435-.0532837-1.9467163-.0532837s-1.3341675.0197144-1.9467163.0532837z"/><path d="m11 24c-.6280518 0-1.256958-.0167236-1.876709-.0494385.3432617 3.9362793 1.3233032 6.0494385 1.876709 6.0494385s1.5334473-2.1131592 1.876709-6.0494385c-.619751.0327149-1.2486572.0494385-1.876709.0494385z"/><path d="m11 18c.6280518 0 1.256958.0167236 1.876709.0494385-.3432617-3.9362793-1.3233032-6.0494385-1.876709-6.0494385s-1.5334473 2.1131592-1.876709 6.0494385c.619751-.0327149 1.2486572-.0494385 1.876709-.0494385z"/><path d="m8 21c0-.6280518.0167236-1.256958.0494385-1.876709-3.9362793.3432617-6.0494385 1.3233032-6.0494385 1.876709s2.1131592 1.5334473 6.0494385 1.876709c-.0327149-.619751-.0494385-1.2486572-.0494385-1.876709z"/><path d="m13.805603 24.6798706c-.2373657 2.166626-.6932983 4.0617065-1.3538818 5.1993408 1.5073242-.2479248 2.8890381-.8720093 4.0483398-1.7712402-1.1588745-.8988037-2.0830078-2.0782471-2.694458-3.4281006z"/><path d="m2.1288452 22.4564819c.6216431 3.7954712 3.6192017 6.7930298 7.4146729 7.4146729-.737854-1.2767334-1.2179565-3.503479-1.4248047-5.9898682-2.4863892-.2068481-4.7131348-.6869507-5.9898682-1.4248047z"/><path d="m9.5435181 12.1288452c-3.7954712.6216431-6.7930298 3.6192017-7.4146729 7.4146729 1.2767334-.737854 3.503479-1.2179565 5.9898682-1.4248047.2068481-2.4863892.6869507-4.7131348 1.4248047-5.9898682z"/><path d="m16.500061 13.8920288c-1.1593018-.899231-2.5410156-1.5233154-4.0483398-1.7712402.6605835 1.1376343 1.1165161 3.0327148 1.3538818 5.1993408.6114502-1.3498535 1.5355835-2.5292969 2.694458-3.4281006z"/><circle cx="16" cy="5" r="3"/><path d="m21 12.0586548v-.0796509c0-2.3798828-1.2055664-3.9790039-3-3.9790039h-2-2c-1.5350342 0-2.6323853 1.1759033-2.9194946 3.0040894 2.3893433.019043 4.5795898.8727417 6.2902222 2.2883301 1.0836791-.6523438 2.3111572-1.0878907 3.6292724-1.2337647z"/></g></svg>