<svg id="Layer_1" viewBox="0 0 512 512" xmlns="http://www.w3.org/2000/svg" data-name="Layer 1"><path d="m157.322 289.393s25.378-10.409 53.815-35.693h-14.2v-72.667h31.463a114.639 114.639 0 0 1 6.3-15.195l-22.247-22.246 51.384-51.383 22.035 22.035a271.715 271.715 0 0 0 2.776-39.1 239.044 239.044 0 0 1 -131.325-49.144 239.028 239.028 0 0 1 -131.323 49.142c0 160.411 131.322 214.251 131.322 214.251zm180.285-12.144a59.883 59.883 0 1 1 59.883-59.882 59.882 59.882 0 0 1 -59.883 59.882zm-34.907-54.226 19.5 19.5a8 8 0 0 0 11.312 0l39-39a8 8 0 0 0 -11.312-11.312l-33.349 33.348-13.841-13.849a8 8 0 0 0 -11.31 11.313zm159.574 14.677h-27.683a98.52 98.52 0 0 1 -14.037 33.858l19.584 19.583-28.756 28.759-19.582-19.586a98.523 98.523 0 0 1 -33.86 14.036v27.683h-40.666v-27.683a98.529 98.529 0 0 1 -33.858-14.036l-19.584 19.586-28.756-28.757 19.584-19.583a98.471 98.471 0 0 1 -14.036-33.86h-27.683v-40.667h27.683a98.518 98.518 0 0 1 14.036-33.858l-19.584-19.583 28.757-28.756 19.583 19.584a98.492 98.492 0 0 1 33.858-14.037v-27.683h40.666v27.683a98.5 98.5 0 0 1 33.86 14.037l19.583-19.584 28.756 28.756-19.583 19.583a98.538 98.538 0 0 1 14.036 33.858h27.683v40.667zm-124.667 55.549a75.883 75.883 0 1 1 75.883-75.882 75.89 75.89 0 0 1 -75.883 75.882zm8 64.784v21.557h100.05a18.7 18.7 0 0 1 18.665 18.665h-.032v12.464h-15.937v-12.464h-.031a2.7 2.7 0 0 0 -2.665-2.666h-100.05v15.13h-16v-15.13h-100.048a2.7 2.7 0 0 0 -2.666 2.666h-.031v12.464h-15.937v-12.464h-.032a18.7 18.7 0 0 1 18.666-18.665h100.048v-21.557zm-107.7 68.686h-38.027a10.7 10.7 0 0 0 -10.665 10.665v37.95a10.7 10.7 0 0 0 10.665 10.666h38.026a10.7 10.7 0 0 0 10.666-10.666v-37.95a10.7 10.7 0 0 0 -10.666-10.665zm118.715 0h-38.028a10.7 10.7 0 0 0 -10.665 10.665v37.95a10.7 10.7 0 0 0 10.665 10.666h38.027a10.7 10.7 0 0 0 10.665-10.666v-37.95a10.7 10.7 0 0 0 -10.665-10.665zm118.714 0h-38.028a10.7 10.7 0 0 0 -10.665 10.665v37.95a10.7 10.7 0 0 0 10.665 10.666h38.027a10.7 10.7 0 0 0 10.665-10.666v-37.95a10.7 10.7 0 0 0 -10.665-10.665z" fill-rule="evenodd"/></svg>