<svg clip-rule="evenodd" fill-rule="evenodd" height="512" image-rendering="optimizeQuality" shape-rendering="geometricPrecision" text-rendering="geometricPrecision" viewBox="0 0 512 512" width="512" xmlns="http://www.w3.org/2000/svg"><g id="Layer_x0020_1"><path d="m481 384h-450c-17 0-31-14-31-31v-294c0-17 14-31 31-31h450c17 0 31 14 31 31v294c0 17-14 31-31 31zm-78 100h-294c-5 0-9-4-9-9v-20c0-17 13-30 29-30h37l9-23h162l9 23h37c16 0 29 13 29 30v20c0 5-4 9-9 9zm-147-222h-184c-11 0-11-18 0-18h9v-24c0-8 7-15 15-15h20c9 0 15 7 15 15v24h8v-70c0-15 6-24 15-24h20c9 0 16 9 16 24v70h7v-44c0-11 7-20 16-20h19c9 0 16 9 16 20v44c6 0 17-2 17 9 0 5-4 9-9 9zm107 59c-37 0-68-17-80-45-11-25-12-69 48-136l-11-22c-4-7 3-15 11-12l12 4 14-17c4-4 10-4 14 0l14 17c9-3 17-8 22-2 3 3 3 8 1 11l-13 21c59 67 59 111 48 136-12 28-44 45-80 45zm-17-191 2 2h30l2-2c-5-2-12-12-16-17l-12 14c-1 2-3 3-6 3zm17 154c-10 0-9-11-9-16-19-7-23-34-9-34 5 0 9 4 9 9 0 11 17 11 17 0 0-4-4-8-8-8-30 0-37-41-9-51 0-5-1-15 9-15s9 10 9 15c19 7 23 34 8 34-5 0-9-4-9-9 0-11-17-11-17 0 0 4 4 8 9 8 29 0 36 41 9 51 0 5 1 16-9 16zm107 66h-428c-5 0-9-4-9-9v-271c0-5 4-9 9-9h428c5 0 9 4 9 9v271c0 5-4 9-9 9z"/></g></svg>