<svg id="Layer_1" enable-background="new 0 0 72 72" height="512" viewBox="0 0 72 72" width="512" xmlns="http://www.w3.org/2000/svg"><g><path d="m68.8 37.8c-.4-.4-1-.5-1.4-.1-.6.5-1.3 1-2 1.4l-4.6-19.7c1.6-.8 2.6-2.5 2.6-4.4 0-2.4-1.7-4.4-4-4.9v-6.1c0-.6-.4-1-1-1s-1 .4-1 1v6.1c-2.3.5-4 2.5-4 4.9 0 1.9 1.1 3.5 2.6 4.4l-4.6 19.7c-.7-.4-1.4-.9-2-1.4-.4-.4-1-.3-1.4.1s-.3 1 .1 1.4c.9.7 1.8 1.4 2.8 1.9l-2.4 10.5c-.1.5.2 1.1.8 1.2.5.1 1.1-.2 1.2-.7l2.3-10.2c1.4.5 3 .8 4.5.9v2.3c0 .6.4 1 1 1s1-.4 1-1v-2.3c1.5-.1 3.1-.4 4.5-.9l2.3 10.2c.1.5.7.9 1.2.7.5-.1.9-.7.8-1.2l-2.4-10.5c1-.5 2-1.1 2.8-1.9.6-.3.6-1 .3-1.4zm-10.4-24.7c1 0 1.9.8 1.9 1.9s-.8 1.9-1.9 1.9-1.9-.8-1.9-1.9c.1-1 .9-1.9 1.9-1.9zm1 27.8v-2.4c0-.6-.4-1-1-1s-1 .4-1 1v2.4c-1.4-.1-2.8-.4-4.1-.9l4.6-20h.4.4l4.6 20c-1.1.5-2.5.8-3.9.9z"/><g><g><g><g><path d="m32.7 8.5v3.1c0 1.6-1.3 3-3 3h-13.2c-1.7 0-3-1.4-3-3v-3.1c0-1.7 1.3-3 3-3h13.2c1.7 0 3 1.3 3 3z"/></g><g><path d="m39.5 11h-4.8v.6c0 2.8-2.2 5-5 5h-13.2c-2.8 0-5-2.2-5-5v-.6h-4.5c-2.2 0-4 1.8-4 4v50c0 2.2 1.8 4 4 4h32.5c2.2 0 4-1.8 4-4v-50c0-2.2-1.8-4-4-4zm-29.6 9.7h26.6c.6 0 1 .5 1 1s-.4 1-1 1h-26.6c-.6 0-1-.5-1-1s.5-1 1-1zm0 4h14.4c.6 0 1 .5 1 1 0 .6-.4 1-1 1h-14.4c-.6 0-1-.4-1-1s.5-1 1-1zm1.3 11.6c-.6 0-1-.5-1-1 0-.6.4-1 1-1h1.8v-1.8c0-.6.4-1 1-1s1 .4 1 1v1.8h1.8c.6 0 1 .4 1 1 0 .5-.4 1-1 1h-1.8v1.8c0 .5-.4 1-1 1s-1-.5-1-1v-1.8zm3.6 25.4c0 1.8-1.5 3.3-3.3 3.3s-3.3-1.5-3.3-3.3c0-1.4 1-2.7 2.3-3.1v-7.4c0-6.8 4.6-7.1 8.3-7.4s6.4-.5 6.4-5.4v-7.2l-1.5 1.5c-.4.4-1 .4-1.4 0s-.4-1 0-1.4l3.2-3.2c.1-.1.2-.2.3-.2.2-.1.5-.1.8 0 .1 0 .2.1.3.2l3.2 3.2c.4.4.4 1 0 1.4-.1.2-.3.3-.6.3s-.5-.1-.7-.3l-1.5-1.5v7.2c0 6.8-4.6 7.1-8.3 7.4-3.8.3-6.5.5-6.5 5.4v7.4c1.4.5 2.3 1.7 2.3 3.1zm17.9-3.2c0 .5-.4 1-1 1h-7.5c-.6 0-1-.5-1-1v-7.5c0-.5.4-1 1-1h4.8c.3 0 .5.1.7.3l2.7 2.7c.2.2.3.5.3.7zm4.5-17.8h-1.8v1.8c0 .5-.4 1-1 1s-1-.5-1-1v-1.8h-1.8c-.6 0-1-.4-1-1 0-.5.4-1 1-1h1.8v-1.8c0-.5.4-1 1-1s1 .5 1 1v1.8h1.8c.6 0 1 .5 1 1s-.5 1-1 1z"/></g></g></g></g></g></svg>