<svg height="448pt" viewBox="0 -8 448 448" width="448pt" xmlns="http://www.w3.org/2000/svg"><path d="m232 128c0 4.417969-3.582031 8-8 8s-8-3.582031-8-8 3.582031-8 8-8 8 3.582031 8 8zm0 0"/><path d="m224 32c-53.019531 0-96 42.980469-96 96s42.980469 96 96 96 96-42.980469 96-96c-.058594-52.996094-43.003906-95.941406-96-96zm0 184c-48.601562 0-88-39.398438-88-88s39.398438-88 88-88 88 39.398438 88 88c-.058594 48.578125-39.421875 87.941406-88 88zm0 0"/><path d="m224 56c-39.765625 0-72 32.234375-72 72s32.234375 72 72 72 72-32.234375 72-72c-.046875-39.746094-32.253906-71.953125-72-72zm0 96c-7.171875.03125-13.976562-3.160156-18.539062-8.691406s-6.398438-12.820313-5.003907-19.851563l-20.632812-12.632812 8.351562-13.648438 20.472657 12.527344c2.175781-1.839844 4.667968-3.273437 7.351562-4.230469v-33.472656h16v33.472656c11.011719 3.878906 17.621094 15.132813 15.644531 26.640625-1.980469 11.507813-11.96875 19.910157-23.644531 19.886719zm0 0"/><path d="m0 312c0 4.417969 3.582031 8 8 8h432c4.417969 0 8-3.582031 8-8v-40h-448zm384-24h32v16h-32zm0 0"/><path d="m440 0h-432c-4.417969 0-8 3.582031-8 8v248h448v-248c0-4.417969-3.582031-8-8-8zm-352 32h16c2.121094 0 4.15625.84375 5.65625 2.34375l16 16-11.3125 11.3125-13.65625-13.65625h-12.6875zm-16 192h-32v-16h32zm0-32h-32v-16h32zm0-112h-32v-16h32zm0-32h-32v-16h32zm37.65625 173.65625c-1.5 1.5-3.535156 2.34375-5.65625 2.34375h-16v-16h12.6875l13.65625-13.65625 11.3125 11.3125zm114.34375 18.34375c-61.855469 0-112-50.144531-112-112s50.144531-112 112-112 112 50.144531 112 112c-.066406 61.828125-50.171875 111.933594-112 112zm136-16h-16c-2.121094 0-4.15625-.84375-5.65625-2.34375l-16-16 11.3125-11.3125 13.65625 13.65625h12.6875zm0-176h-12.6875l-13.65625 13.65625-11.3125-11.3125 16-16c1.5-1.5 3.535156-2.34375 5.65625-2.34375h16zm48 176h-32v-16h32zm0-32h-32v-16h32zm0-112h-32v-16h32zm0-32h-32v-16h32zm0 0"/><path d="m304 400h-160v16h-48v16h256v-16h-48zm0 0"/><path d="m167.0625 336-6 48h125.875l-6-48zm0 0"/></svg>