<svg id="Layer_1" enable-background="new 0 0 68 68" viewBox="0 0 68 68" xmlns="http://www.w3.org/2000/svg"><g><g><path d="m63.85278 59.69019c-2.56006-4.31982-2.65991-4.49023-12.07983-20.39014-.53027-.87988-1.44019-1.35986-2.34009-1.3999h-.13013c-.94995 0-1.90991.47021-2.46997 1.3999l-12.07983 20.39014c-1.13013 1.8999.23975 4.31982 2.45996 4.31982h24.16992c2.22998 0 3.6001-2.41992 2.46997-4.31982zm-14.55005.06005c-.83008 0-1.5-.66992-1.5-1.5s.66992-1.5 1.5-1.5 1.5.66992 1.5 1.5-.66992 1.5-1.5 1.5zm1.5-6.70996c0 .83008-.66992 1.5-1.5 1.5s-1.5-.66992-1.5-1.5v-6.11035c0-.83008.66992-1.5 1.5-1.5s1.5.66992 1.5 1.5z"/></g><path d="m47.43286 3.98999h-41.69018c-1.10986 0-2 .8999-2 2v56.02002c0 1.1001.89014 2 2 2h28.19019c-.19995-.21973-.36011-.44971-.51001-.70996-.79004-1.37988-.77002-3.00977.04004-4.37988l1.63989-2.77002h-26.04004c-.40991 0-.75-.33008-.75-.75 0-.41016.34009-.75.75-.75h26.92993l2.24023-3.77979h-29.17016c-.40991 0-.75-.33008-.75-.75 0-.41016.34009-.75.75-.75h30.06005l2.23999-3.78027h-32.30004c-.40991 0-.75-.33984-.75-.75s.34009-.75.75-.75h33.19019l3.28979-5.5498c.81006-1.3501 2.21021-2.14014 3.76001-2.14014h.13013v-30.41016c-.00001-1.1001-.90016-2-2.00001-2zm-34.83008 17.09033 8.48999-7.2002c.20996-.18018.5-.22998.76001-.12988l9.08008 3.63965 7.21997-5.1499-1.45996-.21973c-.41016-.06006-.68994-.43994-.63013-.8501.06006-.41016.44995-.7002.86011-.62988l3.28003.48975h.01001c.41992.06982.67993.47021.61987.8501v.00977l-.48999 3.27051c-.05005.37988-.37012.63965-.73999.63965h-.11011c-.40991-.06982-.68994-.4502-.62988-.85986l.22998-1.52979-7.62012 5.42969c-.20996.1499-.47998.18994-.70996.08984l-9.0498-3.60986-8.14014 6.8999c-.13989.12012-.31982.18018-.48999.18018-.20996 0-.41992-.08984-.57007-.27002-.27001-.31007-.22997-.79005.09009-1.04982zm11.82007 1.11963v9.97021c0 .2998-.25.5498-.55005.5498h-3.93994v-10.52001c0-.2998.25-.5498.55981-.5498h3.38013c.30005 0 .55005.25.55005.5498zm-13.29004 5.63037c0-.30029.25-.55029.55005-.55029h3.36987c.31006 0 .56006.25.56006.55029v4.33984c0 .2998-.25.5498-.56006.5498h-3.36987c-.30005 0-.55005-.25-.55005-.5498zm16.02002 12.04004h-18.09008c-.40991 0-.75-.34033-.75-.75 0-.41016.34009-.75.75-.75h18.09009c.40991 0 .75.33984.75.75-.00001.40967-.3401.75-.75001.75zm6.06983-7.70019c0 .2998-.23975.5498-.5498.5498h-3.37012c-.2998 0-.5498-.25-.5498-.5498v-8h4.46973v8zm8.82006 0c0 .2998-.25.5498-.55981.5498h-3.37012c-.31006 0-.56006-.25-.56006-.5498v-13.37989c0-.31006.25-.56006.56006-.56006h3.37012c.30981 0 .55981.25.55981.56006z"/></g></svg>