<svg height="512" viewBox="0 0 64 64" width="512" xmlns="http://www.w3.org/2000/svg"><circle cx="32" cy="7" r="7"/><path d="m31.09 14.44-.29 1.81a1.38 1.38 0 0 0 .2.75 5.33 5.33 0 0 0 2 0 1.38 1.38 0 0 0 .2-.73l-.29-1.82a5.86 5.86 0 0 1 -.94.07 6.84 6.84 0 0 1 -.88-.08z"/><path d="m19.36 31h4.14v-8.4h.5v8.4h16v-8.4h.5v8.4h4.14a1.86 1.86 0 0 0 1.86-1.86v-9.54a6.86 6.86 0 0 0 -6.85-6.85h-2.14a2.23 2.23 0 0 0 -1.25.42 4.07 4.07 0 0 0 -.5.42 2.07 2.07 0 0 0 -.54 1.74c.22 1.46.38 2.89.46 4.27v2a3.72 3.72 0 0 1 -2.32 3.45l-.43-7.05a8.9 8.9 0 0 1 -.92.08c-.27 0-.88-.07-.91-.07l-.48 7.08a3.71 3.71 0 0 1 -2.32-3.45s0-1.39.05-2c.08-1.38.24-2.79.46-4.25a2.08 2.08 0 0 0 -.89-2.06l-.28-.19a2 2 0 0 0 -1.15-.35h-2.14a6.85 6.85 0 0 0 -6.85 6.81v9.58a1.86 1.86 0 0 0 1.86 1.82z"/><path d="m9.89 40.1a2 2 0 0 0 1.29.47 2 2 0 0 0 1.29-3.57l-1.18-1h10.14a8.57 8.57 0 0 1 8.57 8.61v2.21a8.71 8.71 0 1 0 4 0v-2.21a8.57 8.57 0 0 1 8.57-8.61h10.14l-1.18 1a2 2 0 0 0 1.29 3.53 2 2 0 0 0 1.29-.47l5.35-4.52a2 2 0 0 0 0-3l-5.27-4.61a2 2 0 1 0 -2.64 3l1.29 1.07h-10.27a12.56 12.56 0 0 0 -10.57 5.83 12.56 12.56 0 0 0 -10.57-5.83h-10.27l1.26-1.11a2 2 0 1 0 -2.64-3l-5.27 4.65a2 2 0 0 0 0 3zm22.11 10.48a4.71 4.71 0 1 1 -4.71 4.71 4.71 4.71 0 0 1 4.71-4.71z"/></svg>