<svg id="Layer_1" enable-background="new 0 0 66 66" height="512" viewBox="0 0 66 66" width="512" xmlns="http://www.w3.org/2000/svg"><g><path d="m32.95 18.55c-7.94 0-14.4 6.46-14.4 14.4s6.46 14.4 14.4 14.4 14.4-6.46 14.4-14.4-6.45-14.4-14.4-14.4zm0 27.06c-6.98 0-12.65-5.68-12.65-12.65s5.68-12.66 12.65-12.66 12.65 5.68 12.65 12.65-5.67 12.66-12.65 12.66z"/><path d="m32.08 9.46v1.96c0 .48.39.88.88.88s.88-.39.88-.88v-1.96c1.92-.4 3.36-2.11 3.36-4.15 0-2.34-1.9-4.24-4.24-4.24s-4.24 1.9-4.24 4.24c0 2.05 1.44 3.75 3.36 4.15zm.87-6.63c1.37 0 2.49 1.12 2.49 2.49s-1.12 2.49-2.49 2.49-2.49-1.12-2.49-2.49 1.12-2.49 2.49-2.49z"/><path d="m33.83 56.44v-1.96c0-.48-.39-.88-.88-.88s-.88.39-.88.88v1.96c-1.92.4-3.36 2.11-3.36 4.15 0 2.34 1.9 4.24 4.24 4.24s4.24-1.9 4.24-4.24c0-2.04-1.44-3.74-3.36-4.15zm-.88 6.64c-1.37 0-2.49-1.12-2.49-2.49s1.12-2.49 2.49-2.49 2.49 1.12 2.49 2.49-1.11 2.49-2.49 2.49z"/><path d="m48.17 18.61c.22 0 .45-.09.62-.26l1.39-1.39c.7.46 1.51.69 2.31.69 1.08 0 2.17-.41 3-1.24 1.65-1.65 1.65-4.34 0-5.99-1.66-1.65-4.34-1.65-6 0-1.44 1.44-1.62 3.67-.55 5.31l-1.39 1.39c-.34.34-.34.9 0 1.24.17.17.4.25.62.25zm2.57-6.96c.48-.49 1.12-.73 1.76-.73s1.27.24 1.76.73c.97.97.97 2.55 0 3.52s-2.55.97-3.52 0-.97-2.55 0-3.52z"/><path d="m17.12 47.55-1.39 1.39c-1.64-1.07-3.87-.89-5.31.55-1.65 1.65-1.65 4.34 0 6 .83.83 1.91 1.24 3 1.24 1.08 0 2.17-.41 3-1.24 1.44-1.44 1.62-3.67.55-5.31l1.39-1.39c.34-.34.34-.9 0-1.24s-.9-.34-1.24 0zm-1.95 6.7c-.97.97-2.55.97-3.52 0s-.97-2.55 0-3.52 2.55-.97 3.52 0c.97.98.97 2.56 0 3.52z"/><path d="m54.48 32.08c-.48 0-.88.39-.88.88s.39.88.88.88h1.96c.4 1.92 2.11 3.36 4.15 3.36 2.34 0 4.24-1.9 4.24-4.24s-1.9-4.24-4.24-4.24c-2.04 0-3.74 1.45-4.15 3.36zm6.11-1.61c1.37 0 2.49 1.12 2.49 2.49s-1.12 2.49-2.49 2.49-2.49-1.12-2.49-2.49 1.12-2.49 2.49-2.49z"/><path d="m11.43 33.83c.48 0 .88-.39.88-.88s-.39-.88-.88-.88h-1.97c-.4-1.92-2.11-3.36-4.15-3.36-2.34 0-4.24 1.9-4.24 4.24s1.9 4.24 4.24 4.24c2.04 0 3.74-1.45 4.15-3.36zm-6.11 1.61c-1.37 0-2.49-1.12-2.49-2.49s1.12-2.49 2.49-2.49 2.49 1.12 2.49 2.49-1.12 2.49-2.49 2.49z"/><path d="m13.41 17.65c.81 0 1.61-.23 2.31-.69l1.39 1.39c.17.17.4.26.62.26s.45-.09.62-.26c.34-.34.34-.9 0-1.24l-1.39-1.39c1.07-1.64.89-3.87-.55-5.31-1.65-1.65-4.34-1.65-6 0-1.65 1.65-1.65 4.34 0 6 .83.83 1.92 1.24 3 1.24zm-1.76-6c.49-.49 1.12-.73 1.76-.73s1.27.24 1.76.73c.97.97.97 2.55 0 3.52s-2.55.97-3.52 0-.97-2.55 0-3.52z"/><path d="m63.64 57.47-11.54-11.55.38-.38c.58-.58.85-1.39.73-2.2-.12-.82-.6-1.51-1.32-1.91l-2.07-1.13c.99-2.25 1.54-4.74 1.54-7.35 0-10.15-8.26-18.4-18.4-18.4-10.15 0-18.4 8.26-18.4 18.4s8.26 18.4 18.4 18.4c2.61 0 5.1-.56 7.35-1.54l1.13 2.07c.4.72 1.09 1.21 1.91 1.32.13.02.25.03.38.03.68 0 1.33-.27 1.83-.76l.38-.38 11.55 11.54c.83.82 1.92 1.28 3.09 1.28s2.26-.45 3.09-1.28c.82-.83 1.28-1.92 1.28-3.09-.03-1.15-.48-2.25-1.31-3.07zm-47.34-24.52c0-9.18 7.47-16.65 16.65-16.65s16.65 7.47 16.65 16.65-7.47 16.65-16.65 16.65c-9.18.01-16.65-7.46-16.65-16.65zm27.29 18.52c-.27-.04-.49-.2-.62-.43l-1.1-2c3.01-1.67 5.5-4.16 7.17-7.17l2 1.1c.24.13.39.35.43.62s-.05.53-.24.72l-6.93 6.93c-.18.18-.44.27-.71.23zm18.81 10.93c-.99.99-2.71.99-3.7 0l-11.54-11.54 3.7-3.7 11.54 11.54c.49.49.77 1.15.77 1.85s-.27 1.36-.77 1.85z"/><path d="m32.96 22.24c-.9 0-1.78.38-2.39 1.04-.62.66-.93 1.56-.87 2.47l.76 9.13c.09 1.31 1.19 2.33 2.5 2.33s2.41-1.02 2.5-2.32l.76-9.15c.06-.9-.25-1.8-.87-2.46s-1.49-1.04-2.39-1.04zm.75 12.51c-.03.4-.36.7-.76.7s-.73-.31-.76-.71l-.76-9.13c-.03-.42.11-.83.4-1.14s.69-.48 1.11-.48.82.17 1.11.48.43.72.4 1.13z"/><path d="m32.96 37.72c-1.64 0-2.97 1.33-2.97 2.97s1.33 2.97 2.97 2.97 2.97-1.33 2.97-2.97-1.34-2.97-2.97-2.97zm0 4.2c-.67 0-1.22-.55-1.22-1.22s.55-1.22 1.22-1.22 1.22.55 1.22 1.22-.55 1.22-1.22 1.22z"/></g></svg>