<svg id="Layer_1" enable-background="new 0 0 64 64" height="512" viewBox="0 0 64 64" width="512" xmlns="http://www.w3.org/2000/svg"><g><path d="m57 32c-1.654 0-3 1.346-3 3v8.586l-4.708 4.707c-.423.424-1.162.424-1.585 0-.212-.212-.329-.494-.329-.793s.117-.581.353-.817l2.39-2.561c.567-.567.879-1.321.879-2.122s-.312-1.555-.878-2.121c-1.133-1.133-3.111-1.133-4.243 0l-6 6c-.567.566-.879 1.32-.879 2.121v15c0 .553.448 1 1 1h9c.552 0 1-.447 1-1v-6.758l9.121-9.121c.567-.566.879-1.32.879-2.121v-10c0-1.654-1.346-3-3-3zm1 13c0 .263-.107.521-.293.707l-9.414 9.414c-.188.188-.293.441-.293.707v6.172h-7v-14c0-.263.107-.521.293-.707l6-6c.377-.379 1.036-.379 1.414 0 .39.39.39 1.024-.024 1.438l-2.39 2.562c-1.217 1.217-1.217 3.197-.001 4.414 1.179 1.18 3.236 1.181 4.415 0l5-5c.187-.187.293-.441.293-.707v-9c0-.552.449-1 1-1s1 .448 1 1z"/><path d="m18.122 39.879c-1.133-1.133-3.111-1.133-4.243 0-.567.566-.879 1.32-.879 2.121s.312 1.555.855 2.097l2.438 2.61c.212.212.329.494.329.793s-.117.581-.33.793c-.423.424-1.162.424-1.585 0l-4.707-4.707v-8.586c0-1.654-1.346-3-3-3s-3 1.346-3 3v10c0 .801.312 1.555.879 2.121l9.121 9.121v6.758c0 .553.448 1 1 1h9c.552 0 1-.447 1-1v-15c0-.801-.312-1.555-.879-2.121zm4.878 22.121h-7v-6.172c0-.266-.106-.519-.293-.707l-9.414-9.414c-.186-.186-.293-.444-.293-.707v-10c0-.552.449-1 1-1s1 .448 1 1v9c0 .266.105.52.293.707l4.999 5c1.18 1.18 3.237 1.179 4.415 0 1.217-1.217 1.217-3.197.024-4.39l-2.438-2.61c-.39-.39-.39-1.024 0-1.414.377-.379 1.036-.379 1.414 0l6 6c.186.186.293.444.293.707z"/><path d="m23 41h18c2.206 0 4-1.794 4-4v-10c0-6.105-2.232-10.423-6.301-12.531.784-.542 1.301-1.446 1.301-2.469 0-1.377-.937-2.527-2.203-2.879 1.114-1.142 2.203-2.841 2.203-5.121 0-4-4.067-4-8-4s-8 0-8 4c0 2.28 1.089 3.979 2.203 5.121-1.266.352-2.203 1.502-2.203 2.879 0 1.102.604 2.058 1.494 2.579-4.434 2.459-6.494 7.449-6.494 12.421v10c0 2.206 1.794 4 4 4zm9-39c4.575 0 6 .275 6 2 0 2.858-2.538 4.57-3.26 5h-5.48c-.722-.43-3.26-2.142-3.26-5 0-1.725 1.425-2 6-2zm-5 11c-.551 0-1-.448-1-1s.449-1 1-1h10c.551 0 1 .448 1 1s-.449 1-1 1zm-6 14c0-5.536 2.881-12 11-12 7.093 0 11 4.262 11 12v10c0 1.103-.897 2-2 2h-18c-1.103 0-2-.897-2-2z"/><path d="m31 29h2c.551 0 1 .448 1 1s-.449 1-1 1h-3c-.552 0-1 .447-1 1s.448 1 1 1h1c0 .553.448 1 1 1s1-.447 1-1c1.654 0 3-1.346 3-3s-1.346-3-3-3h-2c-.551 0-1-.448-1-1s.449-1 1-1h3c.552 0 1-.447 1-1s-.448-1-1-1h-1c0-.553-.448-1-1-1s-1 .447-1 1c-1.654 0-3 1.346-3 3s1.346 3 3 3z"/></g></svg>