<svg id="Layer_1" enable-background="new 0 0 512 512" viewBox="0 0 512 512" xmlns="http://www.w3.org/2000/svg"><path d="m341.51 339.94h-21.51v-14.49c0-3.31-2.69-6-6-6h-126.75v-23.98l18.83-18.67c2.05.08 4.08.14 6.07.14 26.25 0 46.88-7.23 61.37-21.53 16.26-16.04 23.86-39.86 22.61-70.79-.13-3.12-2.62-5.62-5.74-5.75-30.79-1.33-54.54 6.21-70.59 22.39-15.26 15.39-22.51 37.76-21.64 66.49l-10.92 10.83v-65.86c15.6-5.32 26.21-13.83 31.53-25.32 5.56-12.02 4.87-26.99-2-43.28-1.21-2.88-4.42-4.34-7.39-3.37-1.91.62-3.73 1.29-5.5 2 .48-12.73-5.66-25.62-18.03-37.32-2.27-2.15-5.8-2.19-8.13-.11-14.3 12.82-18.87 25.12-19.18 35.29-1.33-.58-2.69-1.15-4.1-1.68-2.92-1.1-6.19.22-7.54 3.03-7.6 15.96-8.97 30.88-3.96 43.14 4.99 12.22 15.86 21.46 32.29 27.48v65.92l-7.25-7.25c.99-29.01-6.25-51.58-21.62-67.06-16.05-16.18-39.8-23.72-70.59-22.39-3.12.13-5.61 2.63-5.74 5.75-1.25 30.93 6.36 54.75 22.62 70.79 14.49 14.3 35.11 21.53 61.37 21.53 1.8 0 3.64-.05 5.49-.11l15.71 15.71v23.99h-125.3c-3.31 0-6 2.69-6 6v14.49h-22.92c-3.31 0-6 2.69-6 6v119.05c0 3.31 2.69 6 6 6h128.8c2.82 14.8 15.85 26.02 31.45 26.02s28.64-11.22 31.45-26.02h128.8c3.31 0 6-2.69 6-6v-119.06c.01-3.32-2.68-6-5.99-6zm-113.18-130.24c12.62-12.73 31.42-19.11 55.94-18.99.06 24.65-6.38 43.53-19.17 56.15-11.07 10.93-26.81 16.93-46.89 17.92l32.43-32.16c2.35-2.33 2.37-6.13.03-8.49-2.33-2.35-6.13-2.37-8.48-.03l-31.87 31.61c1.17-19.68 7.21-35.12 18.01-46.01zm-127.22 40.09c-12.8-12.63-19.23-31.5-19.18-56.15 24.48-.14 43.31 6.26 55.94 18.99 10.9 10.99 16.95 26.61 18.06 46.54l-35.05-35.05c-2.34-2.34-6.14-2.34-8.49 0-2.34 2.34-2.34 6.14 0 8.48l35.09 35.09c-19.82-1.07-35.39-7.07-46.37-17.9zm106.78-67.44c-3.51 7.58-10.56 13.53-21.01 17.72-.03-.09-.05-.17-.08-.26 3.68-10.96 4.08-21.07 1.15-30.17 3.86-6.46 10.49-11.67 19.81-15.52 3.68 10.98 3.73 20.46.13 28.23zm-26.26-64.11c9.54 10.63 12.48 21.28 8.78 31.72-3.34 2.36-6.23 4.98-8.69 7.85-2.8-3.69-6.3-7.06-10.46-10.06-2.35-9.87 1.13-19.77 10.37-29.51zm-27.56 62.31c-3.24-7.92-2.76-17.38 1.42-28.19 10.43 4.88 17.29 11.34 20.43 19.27 3.09 7.8 2.53 17.06-1.66 27.58-10.25-4.67-17.02-10.93-20.19-18.66zm-98.15 150.89h119.34v27.46c0 3.31 2.69 6 6 6s6-2.69 6-6v-27.46h120.74v100.71h-90.11c-11.65 0-22.01 4.35-30.09 12.57l-.54-52.07c-.03-3.31-2.71-5.94-6.06-5.94-3.31.04-5.97 2.75-5.94 6.06l.54 51.6c-8.03-8.01-18.27-12.23-29.77-12.23h-90.11zm279.59 127.54h-128.24c-3.31 0-6 2.69-6 6 0 11.04-8.98 20.02-20.02 20.02s-20.02-8.98-20.02-20.02c0-3.31-2.69-6-6-6h-128.23v-107.04h16.92v86.21c0 3.31 2.69 6 6 6h96.11c8.89 0 16.44 3.33 22.42 9.91l9.07 9.97c1.16 1.27 2.78 1.96 4.44 1.96.74 0 1.48-.14 2.19-.42.88-.34 1.63-.88 2.24-1.55l9.07-9.96c5.99-6.58 13.53-9.91 22.42-9.91h96.12c3.31 0 6-2.69 6-6v-86.21h15.51zm157.75-403.88-97.35-39.66c-1.45-.59-3.08-.59-4.53 0l-97.34 39.66c-2.26.92-3.74 3.12-3.74 5.56s1.48 4.64 3.74 5.56l20.6 8.39v15.43c-5.37 2.33-9.14 7.68-9.14 13.9 0 8.35 6.79 15.14 15.14 15.14 6.91 0 12.75-4.66 14.55-11v9.61c0 3.86 1.47 7.37 3.86 10.04-12.95 14.1-20.25 32.63-20.25 51.95 0 42.34 34.44 76.78 76.78 76.78s76.78-34.44 76.78-76.78c0-20.45-8.1-39.88-22.42-54.23 1.37-2.27 2.18-4.92 2.18-7.76v-34.7l41.16-16.77c2.26-.92 3.74-3.12 3.74-5.56s-1.5-4.64-3.76-5.56zm-172.62 51.98c-1.73 0-3.14-1.41-3.14-3.14s1.41-3.14 3.14-3.14 3.14 1.41 3.14 3.14-1.41 3.14-3.14 3.14zm6-17.04v-10.54l8.55 3.49v16.81c-1.25-4.39-4.42-7.97-8.55-9.76zm68.94 154.41c-35.72 0-64.78-29.06-64.78-64.78 0-17.75 7.32-34.7 20.13-46.91h86.09c1 0 1.98-.1 2.92-.29 13.01 12.23 20.41 29.25 20.41 47.19.01 35.73-29.05 64.79-64.77 64.79zm44.53-126.77c0 1.67-1.41 3.09-3.09 3.09h-86.74c-1.67 0-3.09-1.41-3.09-3.09v-29.81l44.19 18c.73.3 1.49.44 2.26.44s1.54-.15 2.26-.44l44.19-18v29.81zm-46.46-23.84-49.94-20.34 50.74-6.89c3.28-.45 5.58-3.47 5.14-6.75-.45-3.28-3.47-5.58-6.75-5.14l-71.42 9.7-9.21-3.75 81.45-33.18 81.45 33.18zm-5.92 73.69c0 1.8 2.15 3.07 8.21 5.74l2.1.93c.67.3 1.33.59 1.99.88 6.49 2.86 15.38 6.77 15.38 16.73 0 8.09-5.83 14.96-13.85 17.29v7.24c0 3.31-2.69 6-6 6s-6-2.69-6-6v-7.24c-8.02-2.33-13.85-9.2-13.85-17.29 0-3.31 2.69-6 6-6s6 2.69 6 6c0 3.33 3.59 6.14 7.85 6.14s7.85-2.81 7.85-6.14c0-1.8-2.15-3.07-8.22-5.74-.7-.31-1.4-.62-2.1-.93-.67-.3-1.34-.6-2-.89-6.49-2.86-15.38-6.77-15.38-16.72 0-8.09 5.83-14.96 13.85-17.29v-7.24c0-3.31 2.69-6 6-6s6 2.69 6 6v7.24c8.02 2.33 13.85 9.2 13.85 17.29 0 3.31-2.69 6-6 6s-6-2.69-6-6c0-3.33-3.59-6.14-7.85-6.14s-7.83 2.81-7.83 6.14z"/></svg>