<svg height="451pt" viewBox="0 -2 451.838 451" width="451pt" xmlns="http://www.w3.org/2000/svg"><path d="m161.847656 230.496094c-26.65625-.976563-52.773437-7.804688-76.5-20-6.011718 20.199218-9.265625 41.117187-9.675781 62.1875h86.175781zm0 0"/><path d="m161.847656 446.945312v-104.050781c-25.1875 1.066407-49.824218 7.691407-72.144531 19.40625 14.46875 37.519531 40.144531 67.121094 72.144531 84.644531zm0 0"/><path d="m133.96875 445.375c-24.6875-18.847656-43.761719-44.855469-56.121094-75.933594-11.640625 7.457032-22.324218 16.3125-31.808594 26.371094 23.589844 25.074219 54.265626 42.363281 87.929688 49.5625zm0 0"/><path d="m85.269531 348.921875c23.746094-12.210937 49.890625-19.054687 76.578125-20.039063v-42.199218h-86.179687c.578125 22 3.738281 43.097656 9.601562 62.238281zm0 0"/><path d="m73.074219 203.476562c-13.277344-8.175781-25.457031-18.015624-36.242188-29.277343-22.449219 28.070312-35.351562 62.570312-36.832031 98.484375h61.664062c.449219-23.5 4.292969-46.808594 11.410157-69.207032zm0 0"/><path d="m61.667969 286.683594h-61.66406275c1.47656275 35.914062 14.37499975 70.417968 36.81249975 98.5 10.769532-11.246094 22.925782-21.074219 36.183594-29.242188-7.003906-22.441406-10.820312-45.753906-11.332031-69.257812zm0 0"/><path d="m279.847656 148.390625 128 50.867187v-198.839843l-128 50.867187zm0 0"/><path d="m421.847656 127.683594v-.011719c-.136718 0-.273437.011719-.410156.011719zm0 0"/><path d="m421.4375 67.683594c.136719 0 .273438.007812.410156.007812v-.007812zm0 0"/><path d="m421.847656 67.691406v59.980469c16.5625 0 29.992188-13.425781 29.992188-29.988281s-13.429688-29.992188-29.992188-29.992188zm0 0"/><path d="m204.507812 445.375c33.679688-7.199219 64.363282-24.5 87.957032-49.585938-9.449219-10.117187-20.121094-19.019531-31.765625-26.507812-12.359375 31.144531-31.460938 57.214844-56.191407 76.09375zm0 0"/><path d="m301.6875 385.15625c22.425781-28.074219 35.3125-62.570312 36.785156-98.472656h-61.664062c-.503906 23.441406-4.300782 46.699218-11.273438 69.085937 13.265625 8.199219 25.414063 18.074219 36.152344 29.386719zm0 0"/><path d="m167.847656 121.460938v-46.679688c0-.027344-.226562-.058594-.226562-.089844-9.074219 4.238282-14.863282 13.363282-14.828125 23.378906.066406 10.054688 5.933593 19.164063 15.054687 23.390626zm0 0"/><path d="m95.332031 184.660156c-1.898437 4.039063-3.742187 8.203125-5.375 12.449219 22.234375 11.699219 46.789063 18.316406 71.890625 19.375v-81.976563c-6.101562-2.804687-11.429687-7.050781-15.53125-12.371093-21.636718 15.328125-38.679687 36.316406-50.984375 62.523437zm0 0"/><path d="m186.96875 156.550781c-4.21875-2.027343-7.996094-4.859375-11.121094-8.339843v68.304687c6.703125-.21875 13.386719-.855469 20.011719-1.898437zm0 0"/><path d="m262.8125 286.683594h-86.964844v42.164062c26.832032.863282 53.136719 7.65625 77.03125 19.886719 6.082032-20.144531 9.421875-41.015625 9.933594-62.050781zm0 0"/><path d="m261.828125 256.289062-53.355469-.28125c-3.449218-.015624-6.382812-2.523437-6.929687-5.929687l-3.445313-21.628906c-7.363281 1.171875-14.796875 1.863281-22.25 2.078125v42.15625h86.957032c-.148438-6-.484376-11-.976563-16.394532zm0 0"/><path d="m248.066406 362.117188c-22.285156-11.855469-46.988281-18.445313-72.21875-19.257813v104.085937c33-17.550781 57.757813-47.21875 72.21875-84.828124zm0 0"/><path d="m77.894531 189.96875c1.519531-3.832031 3.140625-7.582031 4.863281-11.257812 12.316407-26.234376 29.921876-48.378907 51.320313-64.75-33.722656 7.15625-64.445313 24.472656-88.03125 49.617187 9.496094 10.066406 20.191406 18.929687 31.847656 26.390625zm0 0"/><path d="m265.617188 203.539062.152343.964844c6.863281 22.097656 10.582031 45.046875 11.039063 68.179688h61.671875c-1.46875-35.90625-14.335938-70.414063-36.734375-98.515625-10.722656 11.308593-22.867188 21.179687-36.128906 29.371093zm0 0"/><path d="m258.804688 159.683594 4.4375 28.488281c9.328124-6.269531 17.996093-13.464844 25.882812-21.472656l-17.261719-7.015625zm0 0"/><path d="m194.570312 144.335938c.855469.082031 1.675782.347656 2.414063.785156 1.84375.441406 3.742187.628906 5.640625.5625h63.222656v-93h-63.222656c-11.707031 0-20.777344 10.390625-20.777344 22.097656v50.117188c-.078125 8.457031 4.941406 16.128906 12.722656 19.4375zm0 0"/><path d="m201.882812 159.832031 12.679688 82.101563 42.960938.117187-12.886719-82.367187h-42.011719c-.25 0-.496094.152344-.742188.148437zm0 0"/></svg>