<svg id="Layer_1" enable-background="new 0 0 68 68" height="512" viewBox="0 0 68 68" width="512" xmlns="http://www.w3.org/2000/svg"><g id="_x38_2"><path d="m52.5 56.7c-1.1 0-1.9-.9-1.9-1.9 0-.6-.4-1-1-1s-1 .4-1 1c0 1.8 1.2 3.3 2.9 3.8v.8c0 .6.4 1 1 1s1-.4 1-1v-.8c1.7-.4 2.9-2 2.9-3.8 0-2.2-1.8-3.9-3.9-3.9-1.1 0-1.9-.9-1.9-1.9 0-1.1.9-1.9 1.9-1.9 1.1 0 1.9.9 1.9 1.9 0 .6.4 1 1 1s1-.4 1-1c0-1.8-1.2-3.3-2.9-3.8v-.8c0-.6-.4-1-1-1s-1 .4-1 1v.8c-1.7.4-2.9 2-2.9 3.8 0 2.2 1.8 3.9 3.9 3.9 1.1 0 1.9.9 1.9 1.9s-.8 1.9-1.9 1.9z"/><path d="m66.1 12.3c0-.6-.4-1-1-1-2.3 0-4.6.6-6.6 1.8-.2-4.2-1.9-8.1-4.9-11.1-.4-.4-1-.4-1.4 0-3 3-4.7 6.9-4.8 11.1-2-1.2-4.3-1.8-6.6-1.8-.6 0-1 .5-1 1 0 6.9 5.4 12.6 12.1 13.1v4.2c-3.6-1.2-6.9.5-7.1.6-.4.2-.6.6-.5 1 .3 2.5 1.5 5.1 3.1 6.9-2.3 1.4-4.3 3.6-5.9 6.5-.3.5-.1 1.1.4 1.4s1.1.1 1.4-.4c1.5-2.8 3.6-4.9 5.8-6 1 .7 2.2 1.1 3.5 1.1s2.4-.4 3.5-1.1c4.8 2.5 8.1 9.2 8.1 13.9 0 5.9-5.2 10.8-11.6 10.8s-11.5-4.8-11.5-10.8c0-1.2.2-2.4.6-3.8.2-.5-.2-1.1-.7-1.2-.5-.2-1.1.2-1.2.7-.4 1.5-.6 3-.6 4.3 0 4.5 2.5 8.5 6.3 10.8h-12.5v-9c0-3.6-2.9-6.5-6.5-6.5h-1.8c-.4-.5-1.1-1.6-1.2-3.3 1.9-1.5 3.1-3.8 3.1-6.4v-6.1c0-1.8-1.5-3.3-3.3-3.3h-9.8c-1.8 0-3.3 1.5-3.3 3.3v6.1c0 2.6 1.3 5 3.2 6.5-.1 1.6-.8 2.7-1.2 3.1h-1.9c-3.6 0-6.5 2.9-6.5 6.5v9h-1c-.6 0-1 .4-1 1s.4 1 1 1h62c.6 0 1-.4 1-1s-.4-1-1-1h-5.1c3.8-2.3 6.3-6.2 6.3-10.8 0-5.1-3.4-12.2-8.5-15.3 1.6-1.8 2.8-4.4 3.1-6.9.1-.8-.8-1.4-1.5-1 0 0-2.5 1.5-5.3.3v-5.2c6.9-.4 12.3-6.1 12.3-13zm-52.5 19.5h9.8c.7 0 1.3.6 1.3 1.3v2.6c-.8-.5-1.3-1.3-1.5-1.8-.2-.4-.6-.7-1-.8-.5-.1-.9 0-1.3.3l-1.4 1.1c-.5.4-1.2.6-1.9.7-2.2.1-4 .6-5.2 1.1v-3.2c-.1-.7.4-1.3 1.2-1.3zm-1.3 7.4v-.7c.8-.4 2.8-1.2 5.3-1.3 1.2 0 2.2-.4 3.1-1.1l1-.8c.5.9 1.5 2.1 3 2.7v1.2c0 3.4-2.8 6.2-6.2 6.2s-6.2-2.8-6.2-6.2zm6.2 8.2c1.2 0 2.3-.2 3.3-.7.3 1.3.8 2.4 1.2 3l-4.5 5.4-4.4-5.3c.4-.6 1-1.7 1.3-3 .9.3 2 .6 3.1.6zm7.7 16.9v-3.8c0-.6-.4-1-1-1s-1 .4-1 1v3.8h-11.5v-3.8c0-.6-.4-1-1-1s-1 .4-1 1v3.8h-4.8v-9c0-2.5 2-4.5 4.5-4.5h1.9l5.4 6.5c.4.5 1.2.5 1.5 0l5.4-6.5h1.9c2.5 0 4.5 2 4.5 4.5v9zm29.2-41.1c1.5-2.2 2.6-4.8 2.9-7.6 1.7-1.3 3.6-2 5.7-2.2-.4 4.7-4 8.7-8.6 9.8zm-2.5-19c4.8 5.5 4.6 13.5 0 18.9-4.7-5.5-4.7-13.5 0-18.9zm-11.1 9.1c2.1.2 4 .9 5.7 2.2.3 2.8 1.4 5.4 3 7.6-4.7-1-8.2-4.9-8.7-9.8zm16.6 19.5c-.9 3.1-3.2 6-5.8 6-2.9 0-5.4-3.5-6.1-7 1.1-.4 3.6-1.1 5.9.3 2.2 1.2 4.5 1.1 6 .7z"/><path d="m18.6 25.6c.4.2.8.1 1.1-.1l4.8-3.8h8.4c1.7 0 3-1.3 3-3v-7.3c0-1.7-1.3-3-3-3h-16c-1.7 0-3 1.3-3 3v7.3c0 1.7 1.3 3 3 3h1.1v3.1c0 .3.3.7.6.8zm-1.7-5.9c-.6 0-1-.4-1-1v-7.3c0-.6.4-1 1-1h16c.6 0 1 .4 1 1v7.3c0 .6-.4 1-1 1h-8.8c-.2 0-.4.1-.6.2l-3.5 2.7v-2c0-.6-.4-1-1-1h-2.1z"/><path d="m19.9 16c.6 0 1-.5 1-1s-.4-1-1-1c-.5 0-1 .4-1 1s.4 1 1 1z"/><path d="m24.9 16c.6 0 1-.5 1-1 0-.6-.5-1-1-1s-1 .4-1 1c0 .5.4 1 1 1z"/><path d="m29.9 16c.6 0 1-.5 1-1s-.5-1-1-1c-.4 0-1 .4-1 1 0 .5.4 1 1 1z"/></g></svg>