<svg id="Layer_1" enable-background="new 0 0 512 512" viewBox="0 0 512 512" xmlns="http://www.w3.org/2000/svg"><path d="m400.839 334.638c0-79.864-64.975-144.838-144.839-144.838s-144.839 64.974-144.839 144.838c0 4.418 3.582 8 8 8h51.012c4.418 0 8-3.582 8-8 0-42.914 34.913-77.827 77.827-77.827s77.827 34.913 77.827 77.827c0 4.418 3.582 8 8 8h51.012c4.418 0 8-3.582 8-8zm-152.839-93.47c-11.285.958-22.002 3.92-31.802 8.53l-17.555-30.405c15.028-7.504 31.717-12.152 49.356-13.239v35.114zm16-35.113c17.639 1.086 34.329 5.735 49.357 13.239l-17.555 30.405c-9.8-4.611-20.518-7.573-31.803-8.531v-35.113zm-101.489 120.583h-35.104c1.086-17.64 5.744-34.328 13.249-49.357l30.41 17.557c-4.612 9.801-7.598 20.513-8.555 31.8zm16.571-45.647-30.406-17.554c9.521-14.303 21.823-26.599 36.126-36.12l17.544 30.386c-9.055 6.334-16.93 14.234-23.264 23.288zm130.573-23.287 17.544-30.387c14.302 9.521 26.605 21.817 36.125 36.119l-30.405 17.555c-6.334-9.053-14.21-16.953-23.264-23.287zm39.834 68.934c-.957-11.286-3.943-21.998-8.554-31.799l30.41-17.557c7.504 15.029 12.162 31.717 13.249 49.356zm-56.53-40.273-23.969 23.969c-3.873-2.078-8.295-3.261-12.99-3.261-15.199 0-27.564 12.365-27.564 27.564s12.365 27.565 27.564 27.565 27.564-12.366 27.564-27.565c0-4.694-1.183-9.117-3.261-12.989l23.97-23.97c3.124-3.124 3.124-8.189 0-11.313-3.125-3.124-8.189-3.124-11.314 0zm-36.959 59.838c-6.377 0-11.564-5.188-11.564-11.565 0-6.376 5.188-11.564 11.564-11.564s11.564 5.188 11.564 11.564c0 6.377-5.187 11.565-11.564 11.565zm247.954 148.945c-3.543-33.114-25.566-60.013-55.197-70.991 10.589-8.662 17.362-21.823 17.362-36.54 0-9.599-2.887-18.533-7.829-25.993 9.038-24.153 13.624-49.57 13.624-75.624 0-52.201-18.877-102.587-53.153-141.877-31.298-35.876-73.436-60.333-119.666-69.717 2.628-5.873 4.102-12.37 4.102-19.209 0-26.024-21.173-47.197-47.197-47.197s-47.197 21.173-47.197 47.198c0 6.839 1.474 13.336 4.102 19.209-46.229 9.384-88.367 33.842-119.665 69.717-34.276 39.29-53.153 89.677-53.153 141.877 0 26.057 4.586 51.474 13.624 75.625-4.941 7.46-7.828 16.393-7.828 25.991 0 14.716 6.773 27.877 17.362 36.539-29.631 10.977-51.656 37.877-55.199 70.991-.242 2.257.486 4.51 2.004 6.198 1.517 1.691 3.68 2.655 5.95 2.655h154.159c2.27 0 4.433-.964 5.95-2.653 1.518-1.688 2.246-3.941 2.004-6.198-.297-2.781-.729-5.516-1.281-8.203 25.123 9.938 51.674 14.97 79.167 14.97s54.045-5.032 79.167-14.97c-.552 2.688-.983 5.423-1.281 8.204-.242 2.257.486 4.51 2.004 6.198s3.681 2.653 5.95 2.653l154.161-.001c2.27 0 4.433-.964 5.95-2.653 1.518-1.688 2.246-3.942 2.004-6.199zm-85.023-76.332c-.003 0-.006 0-.01 0s-.007 0-.01 0c-17.199-.005-31.188-13.998-31.188-31.198 0-17.203 13.995-31.198 31.198-31.198s31.198 13.996 31.198 31.198c0 17.199-13.99 31.192-31.188 31.198zm-162.931-394.816c17.202 0 31.197 13.995 31.197 31.198 0 17.199-13.99 31.193-31.188 31.198-.003 0-.006 0-.01 0s-.007 0-.01 0c-17.198-.005-31.188-13.999-31.188-31.198.002-17.203 13.997-31.198 31.199-31.198zm0 78.396h.01c32.579.005 60.216 22.316 67.591 53.184h-135.204c7.375-30.868 35.013-53.18 67.592-53.184zm-194.117 285.222c0-17.203 13.995-31.198 31.197-31.198 17.203 0 31.198 13.996 31.198 31.198 0 17.199-13.99 31.192-31.188 31.198-.003 0-.006 0-.01 0s-.007 0-.01 0c-17.197-.006-31.187-13.999-31.187-31.198zm-36.405 100.382c7.375-30.868 35.013-53.18 67.592-53.184h.01s.007 0 .01 0c32.579.005 60.216 22.316 67.591 53.184zm230.522-2.085c-30.233 0-59.224-6.579-86.225-19.52-9.631-19.53-26.429-34.669-46.859-42.237 10.589-8.662 17.362-21.823 17.362-36.54 0-26.025-21.173-47.198-47.198-47.198-9.991 0-19.261 3.13-26.898 8.448-6.694-20.201-10.095-41.293-10.095-62.866 0-97.244 71.431-181.28 166.829-197.185 1.038 1.022 2.121 1.998 3.249 2.921-29.632 10.977-51.655 37.877-55.198 70.991-.242 2.257.486 4.51 2.004 6.199 1.518 1.688 3.681 2.652 5.95 2.652h154.158c2.27 0 4.433-.964 5.95-2.653 1.518-1.688 2.246-3.941 2.004-6.198-3.543-33.114-25.567-60.014-55.198-70.991 1.128-.923 2.211-1.899 3.25-2.921 95.398 15.905 166.829 99.941 166.829 197.185 0 21.571-3.4 42.663-10.095 62.866-7.638-5.318-16.907-8.447-26.898-8.447-26.025 0-47.198 21.173-47.198 47.198 0 14.716 6.773 27.877 17.362 36.54-20.43 7.568-37.229 22.707-46.859 42.237-27.002 12.94-55.993 19.519-86.226 19.519zm95.318 2.085c7.375-30.868 35.013-53.18 67.592-53.184h.01s.007 0 .01 0c32.579.005 60.216 22.316 67.591 53.184z"/></svg>