<svg id="Layer_1" enable-background="new 0 0 512 512" viewBox="0 0 512 512" xmlns="http://www.w3.org/2000/svg"><g><g><g><g><path d="m256 397.1c-27 0-49-22-49-49s22-49 49-49 49 22 49 49-22 49-49 49zm0-87.8c-21.4 0-38.9 17.4-38.9 38.9s17.5 38.8 38.9 38.8 38.9-17.4 38.9-38.9-17.5-38.8-38.9-38.8z"/></g><g><path d="m331.1 471h-150.1c-2.8 0-5-2.3-5-5v-25.7c0-29.3 23.8-53.1 53.1-53.1h54c29.3 0 53.1 23.8 53.1 53.1v25.7c0 2.7-2.3 5-5.1 5zm-145.1-10.1h140v-20.7c0-23.7-19.3-43-43-43h-54c-23.7 0-43 19.3-43 43z"/></g><g><path d="m296.3 471c-2.8 0-5-2.3-5-5v-27.2c0-2.8 2.3-5 5-5s5 2.3 5 5v27.2c0 2.7-2.2 5-5 5z"/></g><g><path d="m215.7 471c-2.8 0-5-2.3-5-5v-27.2c0-2.8 2.3-5 5-5s5 2.3 5 5v27.2c.1 2.7-2.2 5-5 5z"/></g></g><g><g><g><path d="m113.9 381.6c-27 0-49-22-49-49s22-49 49-49 49 22 49 49-22 49-49 49zm0-87.8c-21.4 0-38.9 17.4-38.9 38.9s17.4 38.9 38.9 38.9 38.9-17.4 38.9-38.9-17.4-38.9-38.9-38.9z"/></g><g><path d="m181 455.4h-142.1c-2.8 0-5-2.3-5-5v-23.5c0-30.5 24.8-55.3 55.3-55.3h49.5c26 0 48.2 17.7 53.9 43 .6 2.7-1.1 5.4-3.8 6s-5.4-1.1-6-3.8c-4.7-20.7-22.8-35.1-44-35.1h-49.6c-24.9 0-45.2 20.3-45.2 45.2v18.5h137c2.8 0 5 2.3 5 5s-2.2 5-5 5z"/></g><g><path d="m154.2 455.4c-2.8 0-5-2.3-5-5v-27.2c0-2.8 2.3-5 5-5s5 2.3 5 5v27.2c.1 2.7-2.2 5-5 5z"/></g><g><path d="m73.7 455.4c-2.8 0-5-2.3-5-5v-27.2c0-2.8 2.3-5 5-5s5 2.3 5 5v27.2c0 2.7-2.3 5-5 5z"/></g></g><g><g><path d="m398.1 381.6c-27 0-49-22-49-49s22-49 49-49 49 22 49 49-22 49-49 49zm0-87.8c-21.4 0-38.9 17.4-38.9 38.9s17.4 38.9 38.9 38.9 38.9-17.4 38.9-38.9-17.5-38.9-38.9-38.9z"/></g><g><path d="m473.1 455.4h-142.1c-2.8 0-5-2.3-5-5s2.3-5 5-5h137v-18.5c0-24.9-20.3-45.2-45.2-45.2h-49.5c-21.3 0-39.4 14.4-44 35.1-.6 2.7-3.3 4.4-6 3.8s-4.4-3.3-3.8-6c5.7-25.3 27.9-43 53.9-43h49.5c30.5 0 55.3 24.8 55.3 55.3v23.5c-.1 2.7-2.3 5-5.1 5z"/></g><g><path d="m438.3 455.4c-2.8 0-5-2.3-5-5v-27.2c0-2.8 2.3-5 5-5s5 2.3 5 5v27.2c.1 2.7-2.2 5-5 5z"/></g><g><path d="m357.8 455.4c-2.8 0-5-2.3-5-5v-27.2c0-2.8 2.3-5 5-5s5 2.3 5 5v27.2c0 2.7-2.2 5-5 5z"/></g></g></g></g><g><path d="m398.8 293.8c-2.8 0-5-2.3-5-5v-28c0-3.1-2.5-5.7-5.7-5.7h-263.5c-3.1 0-5.7 2.5-5.7 5.7v28c0 2.8-2.3 5-5 5-2.8 0-5-2.3-5-5v-28c0-8.7 7.1-15.8 15.8-15.8h263.4c8.7 0 15.8 7.1 15.8 15.8v28c-.1 2.7-2.4 5-5.1 5z"/></g><g><path d="m256 309.3c-2.8 0-5-2.3-5-5v-104.6c0-2.8 2.3-5 5-5 2.8 0 5 2.3 5 5v104.6c0 2.7-2.2 5-5 5z"/></g><g><g><g><path d="m256.1 172.8c-1.3 0-2.6-.5-3.6-1.5l-38-38c-5.7-5.7-8.8-13.2-8.8-21.2s3.1-15.5 8.8-21.2c5.6-5.6 13.3-8.7 21.1-8.7 7.5 0 14.9 2.9 20.3 8 5.5-5.1 12.8-8 20.3-8 7.9 0 15.6 3.2 21.1 8.7 5.7 5.7 8.8 13.2 8.8 21.2s-3.1 15.5-8.8 21.2l-37.9 38c-.7 1-2 1.5-3.3 1.5zm-20.4-80.5c-5.1 0-10.4 2.2-14 5.8-3.8 3.8-5.9 8.8-5.9 14 0 5.3 2.1 10.3 5.9 14l34.4 34.4 34.3-34.4c3.8-3.8 5.9-8.8 5.9-14 0-5.3-2.1-10.3-5.9-14-3.7-3.7-8.8-5.8-14-5.8s-10.3 2.1-14 5.8l-2.8 2.8c-1 1-2.3 1.5-3.6 1.5-1.4 0-2.6-.6-3.6-1.5l-2.7-2.8c-3.7-3.6-8.8-5.8-14-5.8z"/></g></g></g><g><path d="m256 204.7c-45.1 0-81.9-36.7-81.9-81.9s36.8-81.8 81.9-81.8 81.9 36.7 81.9 81.9-36.8 81.8-81.9 81.8zm0-153.7c-39.6 0-71.8 32.2-71.8 71.8s32.2 71.8 71.8 71.8 71.8-32.2 71.8-71.8-32.2-71.8-71.8-71.8z"/></g></g></svg>