<svg id="Outline" enable-background="new 0 0 64 64" viewBox="0 0 64 64" xmlns="http://www.w3.org/2000/svg"><g><path d="m56 6h-48c-.54999 0-1 .45001-1 1v36c0 .54999.45001 1 1 1h6v10h-1c-.54999 0-1 .45001-1 1s.45001 1 1 1h25c.54999 0 1-.45001 1-1s-.45001-1-1-1h-2v-10h20c.54999 0 1-.45001 1-1v-36c0-.54999-.45001-1-1-1zm-28 48h-6v-6h6zm6 0h-4v-7c0-.54999-.45001-1-1-1h-8c-.54999 0-1 .45001-1 1v7h-4v-20h18zm21-12h-19v-9c0-.54999-.45001-1-1-1h-20c-.54999 0-1 .45001-1 1v9h-5v-26h32v6.99998c.00004.75929.85881 1.25025 1.51001.86.00002-.00001 4.48999-2.69 4.48999-2.69s4.48013 2.6841 4.48997 2.68999c.62449.37414 1.51003-.08749 1.51003-.85997v-7h2zm-12-20.77002v-9.22998h8v9.22998l-3.48999-2.08997c-.15002-.09002-.33002-.14001-.51001-.14001s-.35999.04999-.51001.14001zm12-7.22998h-2v-3c0-.54999-.45001-1-1-1h-10c-.54999 0-1 .45001-1 1v3h-32v-6h46z"/><circle cx="12" cy="11" r="1"/><circle cx="16" cy="11" r="1"/><circle cx="20" cy="11" r="1"/><path d="m23 36h-4c-.55273 0-1 .44727-1 1v4c0 .55273.44727 1 1 1h4c.55273 0 1-.44727 1-1v-4c0-.55273-.44727-1-1-1zm-1 4h-2v-2h2z"/><path d="m31 36h-4c-.55273 0-1 .44727-1 1v4c0 .55273.44727 1 1 1h4c.55273 0 1-.44727 1-1v-4c0-.55273-.44727-1-1-1zm-1 4h-2v-2h2z"/><path d="m27.93359 23.81934 1.47559-1.42578c.27539-.26562.375-.66406.25684-1.02734-.11719-.36328-.43066-.62793-.80859-.68262l-2.04883-.29395-.91309-1.83496c-.33789-.67969-1.45312-.67969-1.79102 0l-.91309 1.83496-2.04883.29395c-.37793.05469-.69141.31934-.80859.68262-.11816.36328-.01855.76172.25684 1.02734l1.47559 1.42578s-.34705 2.00625-.34766 2.00976c-.13879.80232.72589 1.43291 1.44727 1.05762l1.83398-.95508s1.82867.95231 1.83397.95507c.6965.36271 1.58628-.24881 1.44728-1.05761zm-1.7705-1.07129c-.23828.23047-.34766.56348-.29102.89062l.09375.54102-.50391-.26172c-.14453-.0752-.30371-.11328-.46191-.11328s-.31738.03809-.46191.11328l-.50391.26172.09375-.54102c.05664-.32715-.05273-.66016-.29102-.89062l-.38867-.375.54688-.07812c.3252-.04688.60645-.25098.75293-.54492l.25195-.50587.25195.50586c.14648.29395.42773.49805.75293.54492l.54688.07812z"/><path d="m36.93359 27.81934 1.47559-1.42578c.27539-.26562.375-.66406.25684-1.02734-.11719-.36328-.43066-.62793-.80859-.68262l-2.04883-.29395-.91309-1.83496c-.33789-.67969-1.45312-.67969-1.79102 0l-.91309 1.83496-2.04883.29395c-.37793.05469-.69141.31934-.80859.68262-.11816.36328-.01855.76172.25684 1.02734l1.47559 1.42578s-.34675 2.00451-.34765 2.00976c-.13721.7932.732 1.43081 1.44726 1.05763l1.83398-.95509s1.83398.95508 1.83408.95513c.71682.37514 1.58395-.26185 1.44717-1.05767zm-1.7705-1.07129c-.23828.23047-.34766.56348-.29102.89062l.09375.54102-.50391-.26172c-.14453-.0752-.30371-.11328-.46191-.11328s-.31738.03809-.46191.11328l-.50391.26172.09375-.54102c.05664-.32715-.05273-.66016-.29102-.89062l-.38867-.375.54688-.07812c.3252-.04688.60645-.25098.75293-.54492l.25195-.50587.25195.50586c.14648.29395.42773.49805.75293.54492l.54688.07812z"/><path d="m19.85742 24.68359-2.04883-.29395-.91309-1.83496c-.33789-.67969-1.45312-.67969-1.79102 0l-.91309 1.83496s-2.04647.29361-2.04883.29395c-.78539.11268-1.1441 1.13862-.55176 1.70996l1.47559 1.42578s-.34656 2.00343-.34765 2.00975c-.1382.79889.73029 1.4317 1.44726 1.05763l1.834-.95507s1.83398.95508 1.83401.95509c.71525.3744 1.58448-.26165 1.44724-1.05763l-.34766-2.00977 1.47559-1.42578c.27539-.26562.375-.66406.25684-1.02734-.11719-.36328-.43067-.62793-.8086-.68262zm-2.69433 2.06446c-.23828.23047-.34766.56348-.29102.89062l.09375.54102-.50391-.26172c-.14453-.0752-.30371-.11328-.46191-.11328s-.31738.03809-.46191.11328l-.50391.26172.09375-.54102c.05664-.32715-.05273-.66016-.29102-.89062l-.38867-.375.54688-.07812c.3252-.04688.60645-.25098.75293-.54492l.25195-.50587.25195.50586c.14648.29395.42773.49805.75293.54492l.54688.07812z"/><path d="m52 34h-13c-.55273 0-1 .44727-1 1v4c0 .55273.44727 1 1 1h13c.55273 0 1-.44727 1-1v-4c0-.55273-.44727-1-1-1zm-1 4h-11v-2h11z"/><path d="m52 30h-9c-.55273 0-1 .44727-1 1s.44727 1 1 1h9c.55273 0 1-.44727 1-1s-.44727-1-1-1z"/></g></svg>