<?xml version="1.0" encoding="UTF-8"?>
<svg xmlns="http://www.w3.org/2000/svg" viewBox="0 0 64 64" width="512" height="512"><g id="Glyph"><g id="Glyph-2" data-name="Glyph"><path d="M40.56,49.65V54.7a1,1,0,0,1-1,1H38.18l-.14,1.26C38.01,59.74,35.31,62,32,62c-2.94.06-6.037-2.029-6.04-5.04l-.14-1.26H24.44a1,1,0,0,1-1-1V49.65a1,1,0,0,1,1-1h.67l-.222-2.1a.5.5,0,0,1,.5-.553H38.614a.5.5,0,0,1,.5.553l-.222,2.1h.67A1,1,0,0,1,40.56,49.65Z"/><path d="M31,34.38V31.25a8.409,8.409,0,0,1-7.32-7.32H20.56A11.5,11.5,0,0,0,31,34.38Z"/><path d="M31,14.61V11.49A11.479,11.479,0,0,0,20.56,21.93h3.12A8.409,8.409,0,0,1,31,14.61Z"/><path d="M48.28,14.92a1.052,1.052,0,0,1-.71.29h-3.6a.5.5,0,0,0-.435.746A13.28,13.28,0,0,1,45.45,21.93h2.52a1,1,0,0,1,0,2H45.45A13.513,13.513,0,0,1,33,36.39v1.92a1,1,0,0,1-2,0V36.39A13.513,13.513,0,0,1,18.55,23.93H16.22a1,1,0,1,1,0-2h2.33A13.512,13.512,0,0,1,31,9.48V7.55a1,1,0,1,1,2,0V9.48a13.322,13.322,0,0,1,6.687,2.367.5.5,0,0,0,.773-.415V8.1a1.052,1.052,0,0,1,.29-.71l1.682-1.682a.507.507,0,0,0-.087-.787A19.889,19.889,0,0,0,12.08,21.91,20.057,20.057,0,0,0,24.14,40.2l-.525,3.219a.5.5,0,0,0,.493.581H39.892a.5.5,0,0,0,.493-.581L39.86,40.2A20.057,20.057,0,0,0,51.92,21.91a19.6,19.6,0,0,0-1.685-7.985.5.5,0,0,0-.815-.145Z"/><path d="M32,21.09a1.84,1.84,0,1,0,1.84,1.84A1.848,1.848,0,0,0,32,21.09Z"/><path d="M40.32,23.93A8.409,8.409,0,0,1,33,31.25v3.13A11.5,11.5,0,0,0,43.44,23.93Z"/><path d="M53.41,6.09a.977.977,0,0,0-.92-.62H50.21V3.18a.987.987,0,0,0-.62-.92.963.963,0,0,0-1.01.15L42.607,8.374a.5.5,0,0,0-.147.353V11.65L39.7,14.41A11.425,11.425,0,0,0,33,11.49v3.12a8.322,8.322,0,0,1,4.5,2.01l-1.408,1.408a6.444,6.444,0,0,0-10.416,4.049A6.382,6.382,0,1,0,37.4,19.54l1.44-1.44a8.23,8.23,0,0,1,1.48,3.83h3.12a11.334,11.334,0,0,0-2.38-6.05l2.67-2.67h3.223a.5.5,0,0,0,.353-.146l5.9-5.9A.988.988,0,0,0,53.41,6.09ZM32,26.77a3.84,3.84,0,1,1,3.84-3.84A3.841,3.841,0,0,1,32,26.77Z"/></g></g></svg>
