<svg id="a" viewBox="0 0 32 32" xmlns="http://www.w3.org/2000/svg"><path d="m26 29.5h-.5v-27h.5c.28 0 .5-.22.5-.5s-.22-.5-.5-.5h-20c-.28 0-.5.22-.5.5s.22.5.5.5h.5v27h-.5c-.28 0-.5.22-.5.5s.22.5.5.5h8c.28 0 .5-.22.5-.5s-.22-.5-.5-.5h-4.5v-1c0-.8.31-1.55.88-2.12s1.32-.88 2.12-.88c.14 0 .28-.06.38-.17l3.12-3.57 3.13 3.57c.09.11.23.17.38.17.8 0 1.55.31 2.12.88s.88 1.32.88 2.12v1h-4.5c-.28 0-.5.22-.5.5s.22.5.5.5h8c.28 0 .5-.22.5-.5s-.22-.5-.5-.5zm-1.5 0h-1v-6.5c0-3.19-2.01-5.92-4.83-7 2.82-1.08 4.83-3.81 4.83-7v-6.5h1zm-13.97-20c.25 2.8 2.61 5 5.47 5s5.22-2.2 5.47-5h1c-.26 3.35-3.06 6-6.47 6s-6.22-2.65-6.47-6zm.97-.5c0-2.48 2.02-4.5 4.5-4.5s4.5 2.02 4.5 4.5-2.02 4.5-4.5 4.5-4.5-2.02-4.5-4.5zm11-6.5v6h-1.03c-.25-2.8-2.61-5-5.47-5s-5.22 2.2-5.47 5h-1.03v-6zm-15 0h1v6.5c0 3.19 2.01 5.92 4.83 7-2.82 1.08-4.83 3.81-4.83 7v6.5h-1zm4.77 22.01c-.98.06-1.9.46-2.59 1.16-.06.06-.11.14-.17.21v-2.88c0-3.42 2.65-6.22 6-6.47v4.29l-3.23 3.69zm10.06 1.16c-.7-.7-1.61-1.11-2.6-1.16l-3.23-3.69v-4.29c3.35.26 6 3.06 6 6.47v2.88c-.06-.07-.11-.14-.17-.21z"/><circle cx="16" cy="30" r=".5"/><path d="m15.5 10.5c-.28 0-.5-.22-.5-.5s-.22-.5-.5-.5-.5.22-.5.5c0 .83.67 1.5 1.5 1.5v.5c0 .28.22.5.5.5s.5-.22.5-.5v-.5c.83 0 1.5-.67 1.5-1.5s-.67-1.5-1.5-1.5v-1c.28 0 .5.22.5.5s.22.5.5.5.5-.22.5-.5c0-.83-.67-1.5-1.5-1.5v-.5c0-.28-.22-.5-.5-.5s-.5.22-.5.5v.5c-.83 0-1.5.67-1.5 1.5s.67 1.5 1.5 1.5zm-.5-2.5c0-.28.22-.5.5-.5v1c-.28 0-.5-.22-.5-.5zm1.5 1.5c.28 0 .5.22.5.5s-.22.5-.5.5z"/></svg>