<svg id="Layer_1" enable-background="new 0 0 50 50" height="512" viewBox="0 0 50 50" width="512" xmlns="http://www.w3.org/2000/svg"><g><path d="m25 1c-4.3 0-8.4 1.1-12.1 3.3l-3-3c-.2-.3-.7-.4-1-.2-.4.2-.7.5-.7.9v6.2h-6.2c-.4 0-.8.2-.9.6-.2.5-.1.9.2 1.2l3 3c-2.2 3.6-3.3 7.7-3.3 12 0 13.2 10.8 24 24 24s24-10.8 24-24-10.8-24-24-24zm-15.8 9.3c.6 0 1-.4 1-1v-4.9l4.4 4.4c0 .3 0 6 0 5.8-.1 0-6 0-5.8 0l-4.4-4.4h4.8zm11.7 9.9h-3c1-1.5 2.4-2.6 4-3.2-.4.9-.8 2-1 3.2zm1 12.8c-1.6-.6-3.1-1.8-4-3.2h3c.2 1.2.6 2.3 1 3.2zm-1.3-10.8c-.1.9-.2 1.8-.2 2.8 0 .9.1 1.9.2 2.8h-3.7c-.3-.9-.5-1.8-.5-2.8s.2-1.9.5-2.8zm-6.2 2.8c0 5.8 4.7 10.6 10.6 10.6 5.8 0 10.6-4.8 10.6-10.6s-4.7-10.6-10.6-10.6c-2.6 0-4.9.9-6.8 2.5l-1.6-1.6v-3c2.5-1.6 5.4-2.5 8.4-2.5 8.4 0 15.3 6.9 15.3 15.3s-6.9 15.3-15.3 15.3-15.3-6.9-15.3-15.3c0-3 .9-5.9 2.5-8.4h3l1.6 1.6c-1.5 1.8-2.4 4.2-2.4 6.7zm13-2.8c.1.8.2 1.8.2 2.8s-.1 1.9-.2 2.8h-4.9c-.1-.8-.2-1.8-.2-2.8s.1-1.9.2-2.8zm-4.5-2c.6-2.5 1.5-3.8 2.1-3.8.6 0 1.5 1.3 2.1 3.8zm4.2 9.6c-.6 2.5-1.5 3.8-2.1 3.8-.6 0-1.5-1.3-2.1-3.8zm2.4-2c.1-.9.2-1.9.2-2.8s-.1-1.9-.2-2.8h3.7c.3.9.5 1.8.5 2.8s-.2 1.9-.5 2.8zm2.6 2c-1 1.5-2.4 2.6-4 3.2.4-.9.8-2 1-3.2zm-3-9.6c-.2-1.2-.6-2.3-1-3.2 1.6.6 3.1 1.8 4 3.2zm-4.1 26.8c-12.1 0-22-9.9-22-22 0-3.7.9-7.4 2.7-10.6l1.9 1.9c.2.2.4.3.7.3h1.5c-1.3 2.6-2.1 5.4-2.1 8.4 0 9.5 7.8 17.3 17.3 17.3s17.3-7.8 17.3-17.3-7.8-17.3-17.3-17.3c-3 0-5.8.8-8.4 2.2v-1.5c0-.3-.1-.5-.3-.7l-1.9-1.9c3.2-1.8 6.9-2.8 10.6-2.8 12.1 0 22 9.9 22 22s-9.9 22-22 22z"/></g></svg>