<?xml version="1.0" encoding="UTF-8"?>
<svg xmlns="http://www.w3.org/2000/svg" id="Layer_1" data-name="Layer 1" viewBox="0 0 512 512" width="512" height="512"><defs><style>.cls-1{fill-rule:evenodd;}</style></defs><path class="cls-1" d="M453.815,5.878l2.415,14.859c.707.257,1.407.543,2.107.828s1.394.6,2.093.922l11.738-8.458a7,7,0,0,1,9.5.357l15.938,15.945-.022.007a6.977,6.977,0,0,1,.736,9.008l-8.808,12.223c.314.7.629,1.386.914,2.087s.572,1.4.829,2.114L505.622,58.1A7.007,7.007,0,0,1,512,65.064V87.6h-.022a6.97,6.97,0,0,1-5.858,6.894L491.256,96.9c-.264.715-.536,1.415-.829,2.115s-.6,1.386-.914,2.086l8.458,11.73a7.014,7.014,0,0,1-.364,9.508l-15.938,15.938-.007-.014a6.988,6.988,0,0,1-9.016.721l-12.216-8.8c-.7.322-1.393.629-2.093.922s-1.4.557-2.107.829L453.9,146.289a7.008,7.008,0,0,1-6.972,6.387H424.4v-.021a6.974,6.974,0,0,1-6.887-5.858l-2.421-14.859c-.708-.272-1.408-.543-2.108-.843-.7-.279-1.393-.586-2.093-.908l-11.73,8.451a6.992,6.992,0,0,1-9.509-.357l-15.931-15.938.008-.007a6.967,6.967,0,0,1-.715-9.008l8.794-12.223c-.314-.7-.628-1.4-.914-2.086s-.564-1.4-.836-2.115L365.71,94.575a7.01,7.01,0,0,1-6.393-6.979V65.064h.021a6.99,6.99,0,0,1,5.858-6.886L380.07,55.77c.257-.714.528-1.414.828-2.114.279-.7.593-1.386.907-2.087l-8.444-11.744a6.976,6.976,0,0,1,.357-9.494l15.931-15.945.015.021a6.984,6.984,0,0,1,9.008-.728l12.216,8.808c.7-.322,1.4-.629,2.093-.922s1.4-.571,2.108-.828l2.328-14.359A7.005,7.005,0,0,1,424.4,0h22.532V.02a6.97,6.97,0,0,1,6.886,5.858ZM435.663,38.339a38,38,0,1,0,26.868,11.13,37.884,37.884,0,0,0-26.868-11.13ZM453.815,365.2a6.985,6.985,0,0,0-6.886-5.858v-.022H424.4a7.006,7.006,0,0,0-6.98,6.387l-2.328,14.352c-.708.271-1.408.536-2.108.829s-1.393.6-2.093.921l-12.216-8.8a6.975,6.975,0,0,0-9.008.722l-.015-.008-15.931,15.931a6.985,6.985,0,0,0-.357,9.5l8.444,11.737c-.314.7-.628,1.386-.907,2.086-.3.7-.571,1.4-.828,2.114L365.2,417.505a6.976,6.976,0,0,0-5.858,6.894h-.021v22.532a7,7,0,0,0,6.393,6.965l14.345,2.336c.272.707.543,1.407.836,2.107s.6,1.386.914,2.086l-8.794,12.223a6.968,6.968,0,0,0,.715,9.009l-.008.007,15.931,15.945a7.008,7.008,0,0,0,9.509.357l11.73-8.458c.7.321,1.393.629,2.093.921s1.4.558,2.108.829l2.421,14.859a6.962,6.962,0,0,0,6.887,5.858V512h22.532a7.007,7.007,0,0,0,6.972-6.379l2.329-14.359c.707-.264,1.407-.543,2.107-.829s1.394-.6,2.093-.921l12.216,8.808a7,7,0,0,0,9.016-.729l.007.022,15.938-15.945a7.015,7.015,0,0,0,.364-9.509l-8.458-11.73c.314-.7.629-1.386.914-2.086s.565-1.4.829-2.107l14.866-2.415a6.979,6.979,0,0,0,5.858-6.886H512V424.4a7.011,7.011,0,0,0-6.38-6.98l-14.366-2.329c-.257-.714-.536-1.414-.829-2.114s-.6-1.386-.914-2.086l8.808-12.223a6.976,6.976,0,0,0-.736-9.008l.022-.008L481.669,373.72a6.985,6.985,0,0,0-9.5-.364l-11.738,8.451c-.7-.321-1.393-.628-2.093-.921s-1.4-.558-2.107-.829L453.815,365.2Zm-10.759,20.86a7,7,0,0,0,5.051,6.051,45,45,0,0,1,4.873,1.685,47.035,47.035,0,0,1,4.679,2.251,6.986,6.986,0,0,0,7.472-.429l10.837-7.808,7.544,7.537-7.665,10.644a6.986,6.986,0,0,0-.579,7.673,44.926,44.926,0,0,1,2.25,4.679,42.8,42.8,0,0,1,1.694,4.865h.014a7,7,0,0,0,5.593,4.986L498,430.328v10.659l-12.738,2.071a6.992,6.992,0,0,0-6.05,5.051,42.394,42.394,0,0,1-1.694,4.865,44.493,44.493,0,0,1-2.25,4.687,6.976,6.976,0,0,0,.429,7.465l7.815,10.837-7.544,7.544-10.637-7.658a7,7,0,0,0-7.672-.586,45.343,45.343,0,0,1-4.679,2.257,44.784,44.784,0,0,1-4.873,1.686v.022a6.977,6.977,0,0,0-4.979,5.586L440.992,498H430.334l-2.072-12.738a7.012,7.012,0,0,0-5.051-6.051,44.693,44.693,0,0,1-4.872-1.686,45.145,45.145,0,0,1-4.679-2.257,7.005,7.005,0,0,0-7.473.436l-10.837,7.808-7.536-7.544,7.658-10.637a6.977,6.977,0,0,0,.578-7.665,43.98,43.98,0,0,1-2.25-4.687,43.149,43.149,0,0,1-1.693-4.865H392.1a6.988,6.988,0,0,0-5.6-4.979l-13.18-2.143V430.328l12.737-2.072a6.983,6.983,0,0,0,6.051-5.05,45.653,45.653,0,0,1,3.943-9.544,7,7,0,0,0-.428-7.473l-7.808-10.844,7.536-7.537,10.637,7.658a6.988,6.988,0,0,0,7.673.579,47.575,47.575,0,0,1,4.679-2.251,44.9,44.9,0,0,1,4.872-1.685v-.015a7,7,0,0,0,4.979-5.593l2.144-13.181h10.658l2.064,12.738Zm-7.393,11.6a38,38,0,1,1-26.875,11.129,37.912,37.912,0,0,1,26.875-11.129ZM94.488,5.878A6.955,6.955,0,0,0,87.6.02V0H65.07A7.009,7.009,0,0,0,58.1,6.378L55.769,20.737c-.708.257-1.408.543-2.108.828s-1.393.6-2.093.922L39.345,13.679a6.978,6.978,0,0,0-9,.728l-.014-.021L14.392,30.331a7,7,0,0,0-.365,9.494l8.466,11.744c-.322.7-.636,1.386-.922,2.087s-.564,1.4-.829,2.114L5.876,58.178A6.984,6.984,0,0,0,.018,65.064H0V87.6a7.01,7.01,0,0,0,6.386,6.979L20.742,96.9c.257.715.536,1.415.829,2.115s.6,1.386.922,2.086l-8.816,12.223a6.994,6.994,0,0,0,.729,9.008l-.014.007,15.937,15.938a6.992,6.992,0,0,0,9.509.357l11.73-8.451c.7.322,1.393.629,2.093.908.7.3,1.4.571,2.108.843L58.176,146.8a7,7,0,0,0,6.894,5.858v.021H87.6a7.01,7.01,0,0,0,6.98-6.387l2.329-14.351c.707-.272,1.407-.543,2.107-.829s1.393-.6,2.093-.922l12.216,8.8a6.988,6.988,0,0,0,9.016-.721l.007.014,15.931-15.938a6.992,6.992,0,0,0,.357-9.508l-8.451-11.73c.321-.7.635-1.386.914-2.086.3-.7.572-1.4.836-2.115l14.859-2.414A6.976,6.976,0,0,0,152.66,87.6h.022V65.064a7.008,7.008,0,0,0-6.394-6.965L131.936,55.77c-.264-.714-.536-1.414-.829-2.114s-.6-1.386-.921-2.087l8.808-12.223a6.986,6.986,0,0,0-.721-9.008l.007-.007L122.349,14.386a7.008,7.008,0,0,0-9.509-.357l-11.73,8.458c-.7-.322-1.393-.629-2.093-.922s-1.4-.571-2.107-.828L94.488,5.878ZM83.744,26.737a6.981,6.981,0,0,0,5.043,6.051,45.122,45.122,0,0,1,4.872,1.686,47.253,47.253,0,0,1,4.68,2.251,6.988,6.988,0,0,0,7.472-.429l10.837-7.808,7.544,7.536-7.665,10.645a6.986,6.986,0,0,0-.579,7.672,45.2,45.2,0,0,1,2.25,4.68,44.264,44.264,0,0,1,1.694,4.864h.007a7,7,0,0,0,5.6,4.98l13.181,2.143V81.666l-12.738,2.072a6.983,6.983,0,0,0-6.05,5.051,44.281,44.281,0,0,1-1.694,4.865,45.278,45.278,0,0,1-2.25,4.679,6.985,6.985,0,0,0,.429,7.472l7.815,10.845-7.544,7.536-10.637-7.658a6.989,6.989,0,0,0-7.672-.578,47.475,47.475,0,0,1-4.68,2.25,44.906,44.906,0,0,1-4.872,1.686v.007a7,7,0,0,0-4.979,5.6l-2.136,13.18H71.006l-2.064-12.737a7,7,0,0,0-5.051-6.051,44.986,44.986,0,0,1-9.551-3.936,6.988,6.988,0,0,0-7.473.428L36.03,124.186l-7.537-7.536,7.659-10.645a6.987,6.987,0,0,0,.578-7.672,45.653,45.653,0,0,1-3.943-9.544h-.022a6.966,6.966,0,0,0-5.586-4.979L14,81.666V71.008l12.744-2.072a6.982,6.982,0,0,0,6.044-5.051,43.485,43.485,0,0,1,1.693-4.864,41.907,41.907,0,0,1,2.25-4.68,6.987,6.987,0,0,0-.428-7.472L28.493,36.024l7.537-7.536,10.637,7.658a6.99,6.99,0,0,0,7.673.579,46.492,46.492,0,0,1,4.679-2.251,45.122,45.122,0,0,1,4.872-1.686v-.021A6.988,6.988,0,0,0,68.87,27.18L71.006,14H81.672l2.072,12.737Zm-7.4,11.6a38,38,0,1,1-26.875,11.13,37.884,37.884,0,0,1,26.875-11.13ZM94.488,365.2A6.969,6.969,0,0,0,87.6,359.34v-.022H65.07a7.009,7.009,0,0,0-6.973,6.387l-2.328,14.352c-.708.271-1.408.536-2.108.829s-1.393.6-2.093.921l-12.223-8.8a6.969,6.969,0,0,0-9,.722l-.014-.008L14.392,389.651a7.007,7.007,0,0,0-.365,9.5l8.466,11.737c-.322.7-.636,1.386-.922,2.086s-.564,1.4-.829,2.114L5.876,417.505A6.97,6.97,0,0,0,.018,424.4H0v22.532A7,7,0,0,0,6.383,453.9l14.359,2.336c.257.707.536,1.407.829,2.107s.6,1.386.922,2.086l-8.816,12.223a7,7,0,0,0,.729,9.009l-.014.007,15.937,15.945a7.008,7.008,0,0,0,9.509.357l11.73-8.458c.7.321,1.393.629,2.093.921s1.4.558,2.108.829l2.407,14.859a6.985,6.985,0,0,0,6.894,5.858V512H87.6a7.009,7.009,0,0,0,6.98-6.379l2.329-14.359c.707-.264,1.407-.543,2.107-.829s1.393-.6,2.093-.921l12.216,8.808a7,7,0,0,0,9.016-.729l.007.022,15.931-15.945a6.993,6.993,0,0,0,.357-9.509l-8.451-11.73c.321-.7.635-1.386.914-2.086.3-.7.572-1.4.836-2.107l14.859-2.415a6.985,6.985,0,0,0,5.865-6.886h.022V424.4a7.012,7.012,0,0,0-6.394-6.98l-14.352-2.329c-.264-.714-.536-1.414-.829-2.114s-.6-1.386-.921-2.086l8.808-12.223a6.985,6.985,0,0,0-.721-9.008l.007-.008L122.349,373.72a7,7,0,0,0-9.509-.364l-11.73,8.451c-.7-.321-1.393-.628-2.093-.921s-1.4-.558-2.107-.829L94.488,365.2Zm-10.744,20.86a6.983,6.983,0,0,0,5.043,6.051,44.9,44.9,0,0,1,4.872,1.685,47.7,47.7,0,0,1,4.68,2.251,6.986,6.986,0,0,0,7.472-.429l10.837-7.808,7.544,7.537-7.665,10.644a6.986,6.986,0,0,0-.579,7.673,46.6,46.6,0,0,1,2.25,4.679,44.209,44.209,0,0,1,1.694,4.865h.007a7.012,7.012,0,0,0,5.6,4.986l13.181,2.136v10.659l-12.738,2.071a6.984,6.984,0,0,0-6.05,5.051,43.777,43.777,0,0,1-1.694,4.865,46.132,46.132,0,0,1-2.25,4.687,6.974,6.974,0,0,0,.429,7.465l7.815,10.837-7.544,7.544-10.637-7.658a7,7,0,0,0-7.672-.586,45.965,45.965,0,0,1-4.68,2.257,44.693,44.693,0,0,1-4.872,1.686v.022a6.977,6.977,0,0,0-4.979,5.586L81.672,498H71.006l-2.064-12.738a7,7,0,0,0-5.051-6.051,44.693,44.693,0,0,1-4.872-1.686,43.807,43.807,0,0,1-4.679-2.257,7.005,7.005,0,0,0-7.473.436L36.03,483.507l-7.537-7.544,7.659-10.637a6.977,6.977,0,0,0,.578-7.665,43.98,43.98,0,0,1-2.25-4.687,44.583,44.583,0,0,1-1.693-4.865h-.022a6.957,6.957,0,0,0-5.586-4.979L14,440.987V430.328l12.744-2.072a6.982,6.982,0,0,0,6.044-5.05,44,44,0,0,1,1.693-4.865,42.491,42.491,0,0,1,2.25-4.679,6.989,6.989,0,0,0-.428-7.473l-7.809-10.844,7.537-7.537,10.637,7.658a6.988,6.988,0,0,0,7.673.579,46.928,46.928,0,0,1,4.679-2.251,44.9,44.9,0,0,1,4.872-1.685v-.015A7,7,0,0,0,68.87,386.5l2.136-13.181H81.672l2.072,12.738Zm-7.4,11.6a38,38,0,1,1-26.875,11.129A37.912,37.912,0,0,1,76.343,397.66ZM298.487,34.517a7,7,0,0,1,9.9-9.9l32.233,32.24a7,7,0,0,1,0,9.9L308.388,99a7,7,0,1,1-9.9-9.9l20.281-20.289H176.328a7,7,0,1,1,0-14h142.44L298.487,34.517ZM203.61,413a7,7,0,1,1,9.9,9.9L193.23,443.187H335.671a7,7,0,1,1,0,14H193.23l20.281,20.289a7,7,0,0,1-9.9,9.9l-32.233-32.24a7,7,0,0,1,0-9.9L203.61,413ZM99,203.605a7,7,0,1,1-9.894,9.9l-20.3-20.282V335.665a7,7,0,1,1-13.995,0V193.224L34.523,213.506a7,7,0,0,1-9.9-9.9l32.24-32.226a6.986,6.986,0,0,1,9.9,0L99,203.605Zm378.487,94.884a7,7,0,1,1,9.894,9.9l-32.24,32.226a6.977,6.977,0,0,1-9.894,0L413,308.39a7,7,0,1,1,9.9-9.9l20.3,20.274V176.329a7,7,0,1,1,14,0V318.763l20.3-20.274ZM132.5,292.745v29.476a1.575,1.575,0,0,0,.458,1.085,1.531,1.531,0,0,0,1.085.451H230.8a1.55,1.55,0,0,0,1.543-1.536V289.059a18.508,18.508,0,0,0-12.2-17.724l-30.983-11.752a18.866,18.866,0,0,0-6.737-1.314v.029a18.98,18.98,0,0,0-6.743,1.285L144.7,271.335a18.485,18.485,0,0,0-12.2,17.724v3.686Zm49.921-118.509a39.333,39.333,0,0,1,17.56,74.51l25.089,9.523a32.553,32.553,0,0,1,21.267,30.79v33.162A15.56,15.56,0,0,1,230.8,337.758H134.043A15.56,15.56,0,0,1,118.5,322.221V289.059a32.595,32.595,0,0,1,21.282-30.79l25.089-9.523a39.324,39.324,0,0,1,17.552-74.51Zm97.242,118.509v29.476a1.526,1.526,0,0,0,1.536,1.536h96.763a1.543,1.543,0,0,0,1.079-.451,1.575,1.575,0,0,0,.457-1.085V289.059a18.485,18.485,0,0,0-12.2-17.724l-30.975-11.752a18.994,18.994,0,0,0-6.744-1.314v.029a18.953,18.953,0,0,0-6.737,1.285l-30.983,11.752a18.493,18.493,0,0,0-12.194,17.724v3.686Zm49.914-118.509a39.325,39.325,0,0,1,17.552,74.51l25.089,9.523a32.565,32.565,0,0,1,21.282,30.79v33.162a15.572,15.572,0,0,1-15.538,15.537H281.2a15.56,15.56,0,0,1-15.538-15.537V289.059a32.579,32.579,0,0,1,21.267-30.79l25.089-9.523a39.328,39.328,0,0,1,17.56-74.51Zm113.479-147.5L440.992,14H430.334L428.19,27.18a6.988,6.988,0,0,1-4.979,5.587v.021a45.122,45.122,0,0,0-4.872,1.686,47.126,47.126,0,0,0-4.679,2.251,6.99,6.99,0,0,1-7.673-.579L395.35,28.488l-7.536,7.536,7.808,10.845a7,7,0,0,1,.428,7.472,45.712,45.712,0,0,0-3.943,9.544,6.983,6.983,0,0,1-6.051,5.051l-12.737,2.072V81.666L386.5,83.81a7,7,0,0,1,5.6,4.979h.007a42.67,42.67,0,0,0,1.693,4.865,43.839,43.839,0,0,0,2.25,4.679,6.987,6.987,0,0,1-.578,7.672l-7.658,10.645,7.536,7.536,10.837-7.808a6.988,6.988,0,0,1,7.473-.428,46.6,46.6,0,0,0,4.679,2.25,44.906,44.906,0,0,0,4.872,1.686,7.011,7.011,0,0,1,5.051,6.051l2.072,12.737h10.658l2.136-13.18a7,7,0,0,1,4.979-5.6v-.007a45,45,0,0,0,4.873-1.686,46.813,46.813,0,0,0,4.679-2.25,6.989,6.989,0,0,1,7.672.578l10.637,7.658,7.544-7.536L475.7,105.805a6.988,6.988,0,0,1-.429-7.472,43.7,43.7,0,0,0,2.25-4.679,42.867,42.867,0,0,0,1.694-4.865,6.991,6.991,0,0,1,6.05-5.051L498,81.666V71.008l-13.181-2.143a6.986,6.986,0,0,1-5.593-4.98h-.014a42.85,42.85,0,0,0-1.694-4.864,43.621,43.621,0,0,0-2.25-4.68,6.986,6.986,0,0,1,.579-7.672l7.665-10.645-7.544-7.536L465.131,36.3a6.988,6.988,0,0,1-7.472.429,46.6,46.6,0,0,0-4.679-2.251,45.215,45.215,0,0,0-4.873-1.686A7,7,0,0,1,443.056,26.737Z"/></svg>
