<svg height="512" viewBox="0 0 64 64" width="512" xmlns="http://www.w3.org/2000/svg"><g id="Layer_13" data-name="Layer 13"><path d="m47.67 44.69a1 1 0 0 0 -1 1v8a3.38 3.38 0 0 1 -3.39 3.37h-22.58a3.37 3.37 0 0 1 -3.37-3.37v-8a1 1 0 0 0 -2 0v8a5.38 5.38 0 0 0 5.37 5.37h22.58a5.39 5.39 0 0 0 5.39-5.37v-8a1 1 0 0 0 -1-1z"/><path d="m16.33 19.31a1 1 0 0 0 1-1v-8a3.37 3.37 0 0 1 3.37-3.39h22.58a3.38 3.38 0 0 1 3.39 3.37v8a1 1 0 0 0 2 0v-8a5.39 5.39 0 0 0 -5.39-5.37h-22.58a5.38 5.38 0 0 0 -5.37 5.37v8a1 1 0 0 0 1 1.02z"/><path d="m29.13 51.87c0 3.76 5.72 3.76 5.74 0s-5.72-3.75-5.74 0zm3.74 0a.87.87 0 0 1 -1.74 0 .87.87 0 0 1 1.74 0z"/><path d="m13.16 30.07a3.28 3.28 0 0 0 0-4.64c-3.07-3-7.67 1.57-4.65 4.64a3.3 3.3 0 0 0 4.65 0zm-3.23-1.41c-1.2-1.16.66-3 1.81-1.82 1.2 1.16-.65 2.99-1.81 1.82z"/><path d="m21.58 33.85c-3.07-3-7.67 1.57-4.65 4.65s7.68-1.6 4.65-4.65zm-1.41 3.23c-1.18 1.17-3-.65-1.82-1.82s3.01.66 1.82 1.82z"/><path d="m20.66 26.35a1 1 0 0 0 -1.41 0l-9.82 9.81a1 1 0 0 0 1.42 1.42l9.81-9.82a1 1 0 0 0 0-1.41z"/><path d="m27 32c-.49-15.87-23.5-15.87-24 0 .5 15.87 23.51 15.87 24 0zm-12 10c-13.2-.35-13.2-19.67 0-20 13.2.34 13.2 19.66 0 20z"/><path d="m60.71 31.7-11-11a1 1 0 0 0 -1.41 0l-5 5v-2.43a1 1 0 0 0 -2 0v4.45l-4 4c-.93.91.51 2.35 1.41 1.42l1.29-1.37v8.83a1 1 0 0 0 1 1h15.9a1 1 0 0 0 1-1v-8.83l1.35 1.35a1 1 0 0 0 1.46-1.42zm-4.77 7.9h-13.94v-9.83l7-6.95 6.95 7z"/><path d="m40.08 19.3a1 1 0 0 0 -.22-1.09l-3.3-3.3c-.9-.93-2.35.51-1.41 1.41l1.59 1.6h-11.89a1 1 0 0 0 0 2h11.89l-1.59 1.59c-.93.9.51 2.34 1.41 1.41.04-.07 3.73-3.63 3.52-3.62z"/><path d="m40.15 43.9a1 1 0 0 0 -1-1h-11.89l1.59-1.6c.93-.9-.51-2.34-1.41-1.41l-3.3 3.3a1 1 0 0 0 0 1.41c.45.3 3.39 3.8 4 3.6a1 1 0 0 0 .7-1.71l-1.58-1.59h11.89a1 1 0 0 0 1-1z"/></g></svg>