<svg id="_x33_0" enable-background="new 0 0 64 64" height="512" viewBox="0 0 64 64" width="512" xmlns="http://www.w3.org/2000/svg"><g><path d="m62.008 43.41-2.39-2.987c-.722-.904-1.802-1.423-2.959-1.423-.572 0-1.143.136-1.659.387v2.231l.857-.429c.741-.37 1.685-.16 2.2.482l2.39 2.987c.357.447.553 1.008.553 1.579 0 .791-.377 1.546-1.011 2.021l-4.989 3.742v2.5l6.189-4.642c1.134-.85 1.811-2.204 1.811-3.621 0-1.024-.352-2.028-.992-2.827z"/><path d="m3 53c0 1.103.897 2 2 2h26v-4h-26c-1.103 0-2 .897-2 2z"/><path d="m5 3c-1.103 0-2 .897-2 2v44.556c.591-.344 1.268-.556 2-.556z"/><path d="m33 11h18v2h-18z"/><path d="m35 35v-20h-3.181l-7.233-2.712c-.949-.355-1.586-1.275-1.586-2.288s.637-1.932 1.585-2.288l7.234-2.712h3.181v-2h-28v46h24v-12c0-1.103.897-2 2-2zm-14 2-9-11 9-11 9 11z"/><path d="m33 7h18v2h-18z"/><path d="m25 10c0 .184.115.35.287.415l5.713 2.142v-5.114l-5.713 2.142c-.172.065-.287.231-.287.415z"/><path d="m61 10c0-1.654-1.346-3-3-3h-1v6h1c1.654 0 3-1.346 3-3z"/><path d="m33 56c0 2.757 2.243 5 5 5h10c2.757 0 5-2.243 5-5v-19h-20zm10-14 5 7-5 7-5-7z"/><path d="m53 7h2v6h-2z"/><path d="m16 25h2v2h-2z"/><path d="m20 25h2v2h-2z"/><path d="m24 25h2v2h-2z"/></g></svg>