<svg clip-rule="evenodd" fill-rule="evenodd" height="8.467mm" image-rendering="optimizeQuality" shape-rendering="geometricPrecision" text-rendering="geometricPrecision" viewBox="0 0 846.66 846.66" width="8.467mm" xmlns="http://www.w3.org/2000/svg"><g id="Layer_x0020_1"><path d="m450.98 720.27c-153.39 0-220.69-200.6-225.48-326.97h-126.73l31.07 20.71c22.62 15.08-.33 49.52-22.95 34.44l-87.61-58.4c-13.28-8.48-12.44-27.36.87-35.42l86.82-57.87c22.61-14.97 45.41 19.46 22.79 34.44l-31.06 20.71h126.8c4.79-126.38 72.1-326.97 225.48-326.97 11.43 0 20.7 9.26 20.7 20.69v306.28h187.46v-33.43c0-27.22 41.39-27.22 41.39 0v33.43h34.15v-33.43c0-27.22 41.39-27.22 41.39 0v33.43h23.28c27.22 0 27.22 41.39 0 41.39h-23.28v33.42c0 27.22-41.39 27.22-41.39 0v-33.42h-34.15v33.42c0 27.22-41.39 27.22-41.39 0v-33.42h-187.46v306.27c0 11.43-9.27 20.7-20.7 20.7zm178.77-11.39c-21.14-16.89 4.57-49.06 25.7-32.17l17.34 13.87 52.62-68.95c16.46-21.56 49.28 3.51 32.82 25.06l-65.44 85.66c-7.12 9.13-20.11 10.87-29.22 3.59zm62.46-176.59c79.92 0 144.71 64.8 144.71 144.72s-64.79 144.71-144.71 144.71-144.72-64.79-144.72-144.71 64.8-144.72 144.72-144.72zm0 41.39c-57.07 0-103.33 46.26-103.33 103.33 0 57.06 46.26 103.32 103.33 103.32 57.06 0 103.32-46.26 103.32-103.32 0-57.07-46.26-103.33-103.32-103.33zm-425.29-221.77h163.37v-283.62c-113.24 21.57-159.4 185.78-163.37 283.62zm163.37 41.39h-163.37c3.97 97.84 50.13 262.04 163.37 283.61z" fill-rule="nonzero"/></g></svg>