<svg id="Layer_1" enable-background="new 0 0 512 512" viewBox="0 0 512 512" xmlns="http://www.w3.org/2000/svg"><path clip-rule="evenodd" d="m439.45 240.93-64.29-17.28-64.29 17.28 64.29 17.28zm-296.1 18.34-20.66-16.26c-2.67.74-5.31 1.58-7.9 2.51l16.48 28.55zm38-16.51-20.97 16.51 12.09 14.79 16.68-28.9c-2.56-.89-5.16-1.69-7.8-2.4zm-26.56-3.76c3.7.07 7.37.33 10.98.76l-13.9 10.94-13.73-10.8c3.94-.51 7.95-.81 12.01-.89.77.02 1.54.06 2.32.06.78-.01 1.54-.04 2.32-.07zm-2.32-12.03c.78 0 1.55.01 2.32.03 28.12-1.22 50.62-24.47 50.62-52.88 0-29.19-23.75-52.94-52.94-52.94s-52.93 23.75-52.93 52.94c0 28.41 22.5 51.66 50.62 52.88.76-.01 1.53-.03 2.31-.03zm-109.37 103.95c6.19-35.9 29.32-65.43 60.56-80.69l21.57 37.36c.98 1.71 2.74 2.82 4.71 2.98.16.01.32.02.48.02 1.79 0 3.5-.8 4.65-2.2l16.81-20.57 16.81 20.57c1.15 1.4 2.85 2.2 4.65 2.2.16 0 .32 0 .49-.02 1.96-.16 3.72-1.27 4.71-2.98l21.82-37.81c31.72 15.13 55.25 44.89 61.5 81.14zm211.12 132.79c7.59-48.91 43.49-87.52 89.81-99.81-9.22-5.05-17.07-12.28-22.89-20.98h-293.1v120.79zm230.91 0h-218.76c8.96-51.99 53.49-90.65 106.7-91.91.69.02 1.38.05 2.08.05.85 0 1.69-.03 2.53-.07 53.54.93 98.45 39.69 107.45 91.93zm-87.82-154.71 30.62-6.09c.1 1.34.16 2.67.16 4.01 0 28.35-22.4 51.56-50.43 52.88-.64-.01-1.27-.02-1.91-.02-.91 0-1.82.01-2.73.03-28.21-1.12-50.81-24.41-50.81-52.89 0-1.34.06-2.67.16-4.01l30.63 6.09c7.66 1.52 14.91 2.28 22.16 2.28 7.24 0 14.48-.76 22.15-2.28zm29.73-52.31v34.17l-32.07 6.38c-13.7 2.72-25.92 2.72-39.63 0l-32.07-6.38v-34.17l50.33 13.52c.51.14 1.03.21 1.56.21.52 0 1.05-.07 1.56-.21zm-123.92-120.9h87.67c23.98 0 43.49-19.51 43.49-43.49s-19.51-43.49-43.49-43.49h-117.85c-23.98 0-43.49 19.51-43.49 43.49s19.51 43.49 43.49 43.49c1.6 0 3.13.64 4.26 1.77 1.12 1.14 1.75 2.67 1.74 4.27-.05 6.7-1.33 13.22-3.81 19.43 11.03-6.69 20.58-15.64 22.25-21.21.76-2.53 3.09-4.26 5.74-4.26zm16.53-21.19c-3.31 0-6-2.69-6-6s2.69-6 6-6h71.96c3.31 0 6 2.69 6 6 0 3.32-2.69 6-6 6zm-47.53-32.6c-3.32 0-6-2.69-6-6s2.69-6 6-6h119.49c3.31 0 6 2.69 6 6 0 3.32-2.69 6-6 6zm196.45 200.36v-36.79l-12 3.22v33.57l-7.34 4.8c-1.7 1.11-2.72 3-2.72 5.02v28.86c0 2.2 1.21 4.23 3.15 5.28s4.29.95 6.14-.25l6.77-4.43 6.77 4.43c.99.65 2.13.98 3.28.98.98 0 1.96-.24 2.86-.72 1.93-1.05 3.14-3.07 3.14-5.28v-28.86c0-2.02-1.02-3.92-2.72-5.02zm-6 10.42 4.05 2.65v14.52l-.77-.5c-1-.65-2.14-.98-3.28-.98-1.15 0-2.29.33-3.29.98l-.77.5v-14.52z" fill-rule="evenodd"/></svg>