<?xml version="1.0" encoding="UTF-8"?>
<svg xmlns="http://www.w3.org/2000/svg" id="Layer_3" data-name="Layer 3" viewBox="0 0 64 64" width="512" height="512"><path d="M44.293,45.707l-1.379-1.379a1.121,1.121,0,0,0-1.586,1.586L45,49.586l3.672-3.672a1.121,1.121,0,0,0-1.586-1.586l-1.379,1.379A1,1,0,0,1,44.293,45.707Z"/><path d="M55,58a2,2,0,0,0,2-2V22H7V48h6a4,4,0,0,1,4,4v6ZM17,42a7,7,0,0,1,3.779-6.208,5,5,0,1,1,6.445,0,7.012,7.012,0,0,1,1.448,1,3.992,3.992,0,0,1,6.657,0,7,7,0,0,1,1.448-1,5,5,0,1,1,6.444,0A7,7,0,0,1,47,42v.14a3.113,3.113,0,0,1,3.086,5.188l-4.379,4.379a1,1,0,0,1-1.414,0l-1.885-1.885a25.991,25.991,0,0,1-24.969-2.279A1,1,0,0,1,17,46.715Z"/><path d="M59,56a4,4,0,0,1-4,4H16a1,1,0,0,1-.707-.293l-10-10A1,1,0,0,1,5,49V22H2V59a3,3,0,0,0,3,3H59a3,3,0,0,0,3-3V22H59Z"/><circle cx="40" cy="32" r="3"/><circle cx="24" cy="32" r="3"/><circle cx="32" cy="39" r="2"/><path d="M28,49.655a23.873,23.873,0,0,0,8,.015V47a4,4,0,0,0-8,0Z"/><path d="M38,47v2.238a23.566,23.566,0,0,0,2.885-.939l-.971-.971a3.121,3.121,0,0,1,4.414-4.414l.672.672V42a4.992,4.992,0,0,0-9-2.982,3.978,3.978,0,0,1-1.1,2.729A6,6,0,0,1,38,47Z"/><path d="M26,47a6,6,0,0,1,3.107-5.253A3.976,3.976,0,0,1,28,39.017,4.993,4.993,0,0,0,19,42v4.178a23.827,23.827,0,0,0,7,3.051Z"/><path d="M8.414,50,15,56.586V52a2,2,0,0,0-2-2Z"/><circle cx="32" cy="15" r="1"/><path d="M59,8c0-3.991-1.72-7-4-7s-4,3.009-4,7h2c0-3.052,1.185-5,2-5s2,1.948,2,5H53c0,3.052,1.185,5,2,5v2c-2.28,0-4-3.009-4-7H50c0-3.991-1.72-7-4-7s-4,3.009-4,7h2c0-3.052,1.185-5,2-5s2,1.948,2,5H44c0,3.052,1.185,5,2,5v2c-2.28,0-4-3.009-4-7H22c0-3.991-1.72-7-4-7s-4,3.009-4,7h2c0-3.052,1.185-5,2-5s2,1.948,2,5H16c0,3.052,1.185,5,2,5v2c-2.28,0-4-3.009-4-7H13c0-3.991-1.72-7-4-7S5,4.009,5,8H7C7,4.948,8.185,3,9,3s2,1.948,2,5H7c0,3.052,1.185,5,2,5v2c-2.28,0-4-3.009-4-7a3,3,0,0,0-3,3v9H62V11A3,3,0,0,0,59,8ZM24,18a3,3,0,1,1,3-3A3,3,0,0,1,24,18Zm8,0a3,3,0,1,1,3-3A3,3,0,0,1,32,18Zm8,0a3,3,0,1,1,3-3A3,3,0,0,1,40,18Z"/><circle cx="24" cy="15" r="1"/><circle cx="40" cy="15" r="1"/></svg>
