<svg id="Glyph" enable-background="new 0 0 48 48" viewBox="0 0 48 48" xmlns="http://www.w3.org/2000/svg"><g><path d="m25.20636 19.41602-1.2403-2.51807-1.24023 2.51807c-.1452.29541-.42578.5-.75122.54736l-2.77283.40381 2.00702 1.95996c.23486.22998.34198.56104.2865.88525l-.47351 2.76758 2.48053-1.30664c.14514-.07666.30396-.11475.46375-.11475s.3186.03809.46381.11475l2.48053 1.30664-.47351-2.76758c-.05554-.32422.05164-.65527.28644-.88525l2.00708-1.95996-2.77289-.40381c-.32539-.04736-.60603-.25195-.75117-.54736z"/><path d="m38.96533 21.91998c0-1.06-.10974-2.09998-.32922-3.09998-.53876.12-1.09747.18-1.66614.18-.49225 0-.97217-.05133-1.44006-.13733.25751.9776.40833 1.99823.40833 3.05579 0 6.6167-5.37036 12-11.97217 12s-11.97211-5.3833-11.97211-12 5.3703-12 11.97211-12c1.7959 0 3.49426.40967 5.0246 1.12286-.00007-.01392-.00208-.0274-.00208-.04132 0-1.07001.20953-2.09003.59857-3.02002-1.73596-.71002-3.63153-1.09998-5.61695-1.09998-8.27069 0-15.005 6.75-15.005 15.03998s6.73431 15.03003 15.005 15.03003c8.27082 0 14.99512-6.74005 14.99512-15.03003z"/><path d="m29.41199 13.55048c-1.56763-1.0285-3.43665-1.63202-5.44592-1.63202-5.50085 0-9.97675 4.48584-9.97675 10s4.47589 10 9.97675 10 9.97681-4.48584 9.97681-10c0-1.3808-.28094-2.69696-.78802-3.89447-1.74837-.95819-3.09639-2.55548-3.74287-4.47351zm2.39216 5.81527c.11154.34101.05415.7377-.23372 1.0195l-3.07874 3.00732s.72583 4.24078.72681 4.24658c.13641.79694-.72687 1.43439-1.44684 1.0542l-3.8056-2.00488s-3.80072 2.00232-3.80554 2.00488c-.71637.37738-1.58228-.2644-1.44684-1.0542l.72681-4.24658s-3.07483-3.00348-3.0788-3.00732c-.58075-.56732-.24957-1.58929.55341-1.70605l4.25378-.61963 1.90277-3.86328c.33521-.68262 1.45367-.68262 1.78882 0l1.90283 3.86328s4.24475.61833 4.25372.61963c.39162.05665.6749.34342.78713.68655z"/><path d="m10.1225 31.77997-4.8786 5.63c-.23944.28003-.30933.66004-.17963 1.01001.1297.34003.43903.59003.80817.64001l2.91315.37.76825 2.83002c.09973.35992.37909.62994.73828.71997.34772.08704.74652-.05273.97772-.32001.00037-.00049 4.86865-5.63 4.86865-5.63-2.39447-1.25-4.4596-3.06-6.01599-5.25z"/><path d="m42.74652 37.32996-4.89856-5.59998c-1.54639 2.20001-3.60162 4.01001-5.99609 5.27002l4.89868 5.59998c.25195.2926.61145.36591.97766.32001.35919-.09003.63855-.35999.73828-.71997l.75824-2.84003 2.9032-.38c.36914-.04999.67841-.29999.80817-.64001.1297-.34999.05981-.72999-.18958-1.01002z"/><path d="m36.96997 17c3.30035 0 5.98608-2.69159 5.98608-6 0-3.30847-2.68573-6-5.98608-6s-5.98602 2.69153-5.98602 6c0 3.30841 2.68567 6 5.98602 6zm-3.19958-7.20703c.38971-.39062 1.02106-.39062 1.41077 0l1.28998 1.29297 2.28766-2.29297c.38971-.39062 1.02106-.39062 1.41077 0s.38971 1.02344 0 1.41406l-2.99304 3c-.19484.19531-.45015.29297-.7054.29297s-.5105-.09766-.70538-.29297l-1.99536-2c-.38971-.39062-.38971-1.02344 0-1.41406z"/></g></svg>