<svg id="Layer_1" enable-background="new 0 0 512 512" viewBox="0 0 512 512" xmlns="http://www.w3.org/2000/svg"><path clip-rule="evenodd" d="m215.83 283.33c-24.86-1.59-30.36-31.49-41.05-17.66-5.78 7.51-10.77 15.53-15.17 23.92-3.69-10.52-5.67-21.83-5.67-33.59 0-5.44.43-10.83 1.25-16.04 6.26 1.08 12.67 1.28 19.36.26 17.43-2.75 11.85-27.52 47.99-43.14 25.23-10.89 38.04-23.16 52.64-41.3 20.49 3.88 38.81 13.92 52.98 28.09 6.15 6.15 11.54 13.1 15.99 20.69l-26.56 5.41c-16.21 4-39.57 8.14-39.43 23.47.14 12.44-9.98 12.64-13.63 14.63-22.39 12.22 21.77 43.51 31.44 39.91 7.57-2.83 17.21-35.35 21.32-2.1 1.87 15.19 5.3 29.59 9.64 43.54-18.37 17.72-43.37 28.66-70.92 28.66-17.12 0-33.25-4.22-47.42-11.68 2.78-4.25 6.15-7.77 10.49-10.06 30.66-19.65 46.7-48.62-3.25-53.01zm200.21 198.11c-.48 16.89-14.46 30.56-31.49 30.56h-257.1c-17.01 0-30.98-13.66-31.49-30.56 49.24-.03 89.18-39.94 89.18-89.21 0-49.24-39.94-89.18-89.18-89.18v-94.11c49.24 0 89.18-39.91 89.18-89.18 0-49.24-39.94-89.18-89.18-89.18.51-16.89 14.48-30.58 31.49-30.58h36.06l.54 2.1 8.67 32.6c1.08 4.11 3.43 7.54 6.6 9.98s7.11 3.86 11.34 3.86h130.71c4.2 0 8.14-1.42 11.34-3.86 3.15-2.44 5.5-5.87 6.6-9.98l8.65-32.6.57-2.1h36.03c17.04 0 31.01 13.69 31.49 30.59-49.24 0-89.15 39.94-89.15 89.18 0 49.27 39.91 89.18 89.18 89.18v94.11c-49.27 0-89.18 39.94-89.18 89.18-.01 49.26 39.91 89.17 89.14 89.2zm-160.04-106.87c32.74 0 62.39-13.27 83.85-34.72s34.72-51.11 34.72-83.85-13.27-62.36-34.72-83.82-51.11-34.72-83.85-34.72-62.36 13.27-83.82 34.72c-21.46 21.46-34.75 51.08-34.75 83.82s13.29 62.39 34.75 83.85 51.08 34.72 83.82 34.72zm20.83 94.09c0-4.56-3.71-8.25-8.28-8.25h-25.11c-4.56 0-8.25 3.69-8.25 8.25s3.68 8.25 8.25 8.25h25.11c4.57-.01 8.28-3.69 8.28-8.25zm-87.44-437.02c.31.23.74.37 1.28.37h130.71c.51 0 .96-.14 1.28-.37.34-.26.6-.65.74-1.13l8.09-30.51h-150.95l8.11 30.5c.11.49.4.88.74 1.14zm184.25 142.07-.91 4.39c12.1 9.01 27.1 14.34 43.34 14.34s31.24-5.33 43.34-14.34l-.94-4.39c-1.3-6.32-4.82-11.85-9.67-15.79-4.73-3.86-10.77-6.15-17.35-6.15h-30.78c-6.58 0-12.61 2.3-17.35 6.15-4.86 3.94-8.35 9.47-9.68 15.79zm-320.12 0-.91 4.39c12.1 9.01 27.1 14.34 43.34 14.34s31.24-5.33 43.34-14.34l-.91-4.39c-1.33-6.32-4.85-11.85-9.69-15.79-4.73-3.86-10.77-6.15-17.35-6.15h-30.78c-6.58 0-12.61 2.3-17.35 6.15-4.87 3.94-8.36 9.47-9.69 15.79zm289.87-53.94c0 17.04 5.87 32.68 15.65 45.07 2.75-7.8 7.63-14.6 13.89-19.7 6.49-5.27 14.49-8.76 23.22-9.64-1.36-1.02-2.64-2.1-3.83-3.29-6.07-6.09-9.84-14.49-9.84-23.75s3.77-17.66 9.84-23.73c6.09-6.09 14.49-9.84 23.75-9.84s17.66 3.74 23.73 9.84c6.09 6.07 9.84 14.46 9.84 23.73s-3.74 17.66-9.84 23.75c-1.19 1.19-2.47 2.27-3.83 3.29 8.73.88 16.72 4.37 23.22 9.64 6.29 5.1 11.14 11.91 13.89 19.7 9.81-12.39 15.65-28.03 15.65-45.07 0-40.14-32.54-72.65-72.65-72.65-40.15-.01-72.69 32.51-72.69 72.65zm72.68 5.75c4.71 0 8.96-1.9 12.05-4.99s5.02-7.37 5.02-12.08-1.93-8.99-5.02-12.08c-3.09-3.06-7.34-4.99-12.05-4.99-4.73 0-8.99 1.93-12.08 4.99-3.09 3.09-4.99 7.37-4.99 12.08s1.9 8.99 4.99 12.08c3.1 3.09 7.35 4.99 12.08 4.99zm-363.26 19.62c6.52-5.27 14.51-8.76 23.22-9.64-1.36-1.02-2.64-2.1-3.83-3.29-6.07-6.09-9.84-14.49-9.84-23.75s3.77-17.66 9.84-23.73c6.09-6.09 14.49-9.84 23.75-9.84s17.66 3.74 23.73 9.84c6.09 6.07 9.84 14.46 9.84 23.73s-3.74 17.66-9.84 23.75c-1.19 1.19-2.47 2.27-3.8 3.29 8.7.88 16.7 4.37 23.19 9.64 6.29 5.1 11.14 11.91 13.89 19.7 9.81-12.39 15.65-28.03 15.65-45.07 0-40.14-32.51-72.65-72.65-72.65s-72.68 32.51-72.68 72.65c0 17.04 5.87 32.68 15.68 45.07 2.71-7.8 7.59-14.6 13.85-19.7zm43.15-19.62c4.71 0 8.99-1.9 12.05-4.99 3.09-3.09 5.02-7.37 5.02-12.08s-1.93-8.99-5.02-12.08c-3.06-3.06-7.34-4.99-12.05-4.99s-8.99 1.93-12.08 4.99c-3.09 3.09-4.99 7.37-4.99 12.08s1.9 8.99 4.99 12.08 7.37 4.99 12.08 4.99zm-12.08 243.36c-3.09 3.09-4.99 7.34-4.99 12.05 0 4.73 1.9 8.99 4.99 12.08s7.37 4.99 12.08 4.99 8.99-1.9 12.05-4.99c3.09-3.09 5.02-7.34 5.02-12.08 0-4.71-1.93-8.96-5.02-12.05-3.06-3.09-7.34-5.02-12.05-5.02s-8.99 1.93-12.08 5.02zm332.19 29.11c4.71 0 8.96-1.9 12.05-4.99s5.02-7.34 5.02-12.08c0-4.71-1.93-8.96-5.02-12.05s-7.34-5.02-12.05-5.02c-4.73 0-8.99 1.93-12.08 5.02s-4.99 7.34-4.99 12.05c0 4.73 1.9 8.99 4.99 12.08 3.1 3.09 7.35 4.99 12.08 4.99zm32.74 32.4c-4.73-3.83-10.77-6.15-17.35-6.15h-30.78c-6.58 0-12.61 2.32-17.35 6.15-4.88 3.94-8.36 9.5-9.69 15.79l-.91 4.39c12.1 9.01 27.1 14.34 43.34 14.34s31.24-5.33 43.34-14.34l-.94-4.39c-1.3-6.3-4.81-11.85-9.66-15.79zm-372.78-22.42c-1.36-.99-2.64-2.1-3.83-3.29-6.07-6.09-9.84-14.49-9.84-23.75s3.77-17.66 9.84-23.73c6.09-6.09 14.49-9.84 23.75-9.84s17.66 3.74 23.73 9.84c6.09 6.07 9.84 14.46 9.84 23.73s-3.74 17.66-9.84 23.75c-1.19 1.19-2.47 2.3-3.8 3.29 8.7.91 16.7 4.37 23.19 9.67 6.29 5.1 11.14 11.88 13.89 19.67 9.81-12.39 15.65-28.03 15.65-45.07 0-40.11-32.51-72.65-72.65-72.65s-72.68 32.54-72.68 72.65c0 17.04 5.87 32.68 15.68 45.07 2.72-7.8 7.6-14.57 13.86-19.67 6.51-5.31 14.51-8.77 23.21-9.67zm340.04-88.39c-40.14 0-72.68 32.54-72.68 72.65 0 17.04 5.87 32.68 15.65 45.07 2.75-7.8 7.63-14.57 13.89-19.67 6.49-5.3 14.49-8.76 23.22-9.67-1.36-.99-2.64-2.1-3.83-3.29-6.07-6.09-9.84-14.49-9.84-23.75s3.77-17.66 9.84-23.73c6.09-6.09 14.49-9.84 23.75-9.84s17.66 3.74 23.73 9.84c6.09 6.07 9.84 14.46 9.84 23.73s-3.74 17.66-9.84 23.75c-1.19 1.19-2.47 2.3-3.83 3.29 8.73.91 16.72 4.37 23.22 9.67 6.29 5.1 11.14 11.88 13.89 19.67 9.81-12.39 15.65-28.03 15.65-45.07-.01-40.11-32.55-72.65-72.66-72.65zm-276.77 130.99-.91-4.39c-1.33-6.29-4.85-11.85-9.69-15.79-4.73-3.83-10.77-6.15-17.35-6.15h-30.79c-6.58 0-12.61 2.32-17.35 6.15-4.88 3.94-8.36 9.5-9.69 15.79l-.91 4.39c12.1 9.01 27.1 14.34 43.34 14.34 16.25 0 31.24-5.33 43.35-14.34z" fill-rule="evenodd"/></svg>