<svg id="Layer_1" enable-background="new 0 0 512 512" viewBox="0 0 512 512" xmlns="http://www.w3.org/2000/svg"><path clip-rule="evenodd" d="m446.5 306.6c27.7 0 50.23-22.53 50.23-50.23 0-27.69-22.53-50.22-50.23-50.22-.16 0-.31.01-.47.01-6.01-22.86-16.02-44.25-29.8-63.64-1.92-2.7-5.66-3.34-8.36-1.42s-3.34 5.67-1.42 8.37c12.64 17.78 21.89 37.35 27.57 58.25-21.68 5.56-37.75 25.27-37.75 48.65 0 23.39 16.07 43.09 37.74 48.66-6.56 24.02-18.13 46.87-33.7 66.41-2.07 2.59-1.64 6.37.95 8.43 1.11.88 2.43 1.31 3.74 1.31 1.76 0 3.51-.78 4.69-2.26 16.93-21.25 29.43-46.16 36.34-72.33.16 0 .31.01.47.01zm-95.37-56.15-3.98 12.2h13.76c2.34 4.88 7.32 8.27 13.09 8.27 8.01 0 14.53-6.52 14.53-14.54 0-8.01-6.52-14.53-14.53-14.53-5.98 0-11.12 3.63-13.35 8.8zm-200.42-.03c-2.28-5.05-7.36-8.58-13.25-8.58-8.01 0-14.53 6.52-14.53 14.53 0 8.02 6.52 14.54 14.53 14.54 5.85 0 10.9-3.49 13.2-8.49l13.5.05-3.96-12.21zm64.03-73.52c-25.5 0-46.25 20.75-46.25 46.25 0 9.14 1.57 18.35 4.56 27.36l32.35.12 7.17-16.89c.97-2.27 3.19-3.69 5.69-3.65 2.46.06 4.64 1.63 5.48 3.95l9.87 27.19 15.35-51.09c.77-2.58 3.15-4.32 5.88-4.27 2.69.06 5.02 1.91 5.68 4.53l14.6 57.78 10.07-41.94c.62-2.56 2.83-4.42 5.46-4.59 2.62-.15 5.06 1.4 5.99 3.86l9.52 25.13h32.13c3.02-9.05 4.61-18.3 4.61-27.49 0-25.5-20.75-46.25-46.25-46.25-14.2 0-27.42 6.39-36.25 17.53-1.14 1.43-2.87 2.27-4.7 2.27-1.84 0-3.57-.84-4.7-2.27-8.84-11.14-22.06-17.53-36.26-17.53zm2.92 75.56 10.85 29.88c.88 2.43 3.2 3.99 5.81 3.95 2.58-.07 4.83-1.79 5.57-4.27l14.31-47.63 15.24 60.33c.68 2.66 3.07 4.53 5.82 4.53h.03c2.77-.02 5.16-1.92 5.8-4.6l11.23-46.69 4.09 10.81c.89 2.33 3.12 3.87 5.61 3.87h31.36c-4.34 8.92-10.1 17.5-17.19 25.42-17.58 19.66-36.87 34.67-60.49 47.04-23.63-12.37-42.92-27.38-60.5-47.04-7.12-7.96-12.9-16.57-17.25-25.53l31.4.11h.02c2.4 0 4.58-1.44 5.52-3.65zm-68.84-146.81c17.79-12.63 37.36-21.88 58.25-27.56 5.57 21.67 25.27 37.74 48.66 37.74s43.09-16.06 48.66-37.74c24.02 6.56 46.86 18.13 66.4 33.71 1.11.88 2.43 1.3 3.74 1.3 1.76 0 3.51-.77 4.7-2.26 2.06-2.59 1.63-6.36-.96-8.43-21.24-16.93-46.15-29.43-72.32-36.33 0-.16.01-.32.01-.48 0-27.69-22.53-50.23-50.23-50.23s-50.23 22.54-50.23 50.23c0 .16.01.32.01.47-22.86 6.01-44.24 16.02-63.64 29.8-2.7 1.92-3.33 5.67-1.41 8.37 1.17 1.64 3.02 2.52 4.89 2.52 1.21 0 2.42-.36 3.47-1.11zm-71.38 199.38c21.68-5.56 37.75-25.27 37.75-48.66 0-23.38-16.07-43.09-37.74-48.65 6.56-24.02 18.13-46.87 33.7-66.41 2.07-2.59 1.64-6.37-.95-8.43-2.59-2.07-6.37-1.64-8.43.95-16.93 21.24-29.43 46.16-36.34 72.33-.16 0-.31-.01-.47-.01-27.7 0-50.23 22.53-50.23 50.22 0 27.7 22.53 50.23 50.23 50.23.16 0 .31-.01.47-.01 6.01 22.86 16.02 44.25 29.8 63.64 1.17 1.65 3.01 2.53 4.89 2.53 1.2 0 2.42-.36 3.47-1.11 2.7-1.92 3.34-5.67 1.42-8.37-12.64-17.78-21.89-37.35-27.57-58.25zm226.95 129.63c-5.57-21.67-25.27-37.74-48.66-37.74s-43.09 16.06-48.66 37.74c-24.02-6.56-46.86-18.13-66.4-33.71-2.6-2.06-6.37-1.63-8.44.96-2.06 2.59-1.64 6.36.96 8.43 21.24 16.93 46.15 29.43 72.32 36.33 0 .16-.01.32-.01.48 0 27.69 22.53 50.22 50.23 50.22s50.23-22.53 50.23-50.22c0-.16-.01-.32-.01-.47 22.86-6.01 44.24-16.02 63.64-29.8 2.7-1.92 3.33-5.67 1.41-8.37s-5.66-3.33-8.37-1.41c-17.78 12.63-37.35 21.88-58.24 27.56z" fill-rule="evenodd"/></svg>