<svg id="Layer_1" viewBox="0 0 64 64" xmlns="http://www.w3.org/2000/svg" data-name="Layer 1"><path d="m54.766 37.671a.488.488 0 0 0 -.488-.487h-2.846a4.517 4.517 0 0 0 3.334 3.124z"/><path d="m30.4 15.014v-8.64a2.377 2.377 0 0 0 -2.37-2.374h-11.78a2.377 2.377 0 0 0 -2.374 2.374v8.64h2.368v-7.647a1 1 0 0 1 1-1h9.793a1 1 0 0 1 1 1v7.647z"/><path d="m18.244 8.367h7.793v6.649h-7.793z"/><path d="m48.033 35.184v-4.933a.585.585 0 0 0 -.584-.584h-11.6c-.007 0-.014 0-.021 0s-.014 0-.022 0h-4.97c-.008 0-.014 0-.022 0s-.014 0-.022 0h-.673a.585.585 0 0 0 -.584.584v2.579.019s0 .013 0 .019v2.316h1.165v-3.341a1 1 0 0 1 1-1h14.165a1 1 0 0 1 1 1v3.341z"/><path d="m40.545 45.376-1.761-3.567-1.761 3.567a1 1 0 0 1 -.753.548l-3.937.572 2.849 2.777a1 1 0 0 1 .288.885l-.67 3.922 3.522-1.852a1 1 0 0 1 .931 0l3.521 1.852-.674-3.922a1 1 0 0 1 .287-.885l2.85-2.777-3.937-.572a1 1 0 0 1 -.755-.548z"/><path d="m54.278 60a.491.491 0 0 0 .488-.493v-2.637a4.521 4.521 0 0 0 -3.335 3.13z"/><path d="m29.814 22.652h-15.566v9.2h13.287v-1.6a2.579 2.579 0 0 1 2.279-2.552z"/><path d="m22.8 37.671v2.637a4.519 4.519 0 0 0 3.334-3.124h-2.844a.487.487 0 0 0 -.49.487z"/><path d="m13.582 39.9h7.218v-2.229a2.489 2.489 0 0 1 2.487-2.487h4.245v-1.335h-14.284a1 1 0 0 1 -1-1v-11.2a1 1 0 0 1 1-1h17.566a1 1 0 0 1 1 1v6.015h3.014v-9.2a1.457 1.457 0 0 0 -1.461-1.451h-22.667a1.445 1.445 0 0 0 -1.47 1.451v30.586a1.468 1.468 0 0 0 1.47 1.461h2.23.014 5.342.015 2.5v-8.611h-7.219a1 1 0 0 1 0-2z"/><path d="m23.29 60h2.847a4.52 4.52 0 0 0 -3.337-3.13v2.637a.49.49 0 0 0 .49.493z"/><path d="m32.704 32.843h12.162v2.341h-12.162z"/><path d="m54.766 42.335a6.5 6.5 0 0 1 -5.384-5.151h-21.195a6.5 6.5 0 0 1 -5.387 5.151v12.508a6.505 6.505 0 0 1 5.387 5.157h21.195a6.5 6.5 0 0 1 5.384-5.157zm-6.683 4.179-3.924 3.824.926 5.4a1 1 0 0 1 -1.451 1.054l-4.85-2.55-4.85 2.55a1 1 0 0 1 -1.451-1.054l.926-5.4-3.924-3.824a1 1 0 0 1 .555-1.706l5.422-.788 2.425-4.914a1.042 1.042 0 0 1 1.794 0l2.425 4.914 5.422.788a1 1 0 0 1 .555 1.706z"/><path d="m15.615 55.85a1.673 1.673 0 0 0 1.671-1.671v-1.668h-3.342v1.668a1.673 1.673 0 0 0 1.671 1.671z"/></svg>