<svg clip-rule="evenodd" fill-rule="evenodd" height="512" image-rendering="optimizeQuality" shape-rendering="geometricPrecision" text-rendering="geometricPrecision" viewBox="0 0 4335 4335" width="512" xmlns="http://www.w3.org/2000/svg"><g id="Layer_x0020_1" fill="#000002"><path d="m1826 4159h-402v-331h460v273c0 32-26 58-58 58zm-402-395v-274c0-18-14-32-32-32s-32 14-32 32v306 363h-836v-669c0-18-14-32-32-32s-32 14-32 32v274h-459v-216c0-337 274-611 611-611h16c15 0 30 6 41 16l273 274 273-274c11-10 26-16 41-16h16c337 0 612 274 612 611v216zm-964 64v331h-402c-32 0-57-26-57-58v-273z"/><path d="m942 2861c-259 0-469-210-469-469v-120c0-32 26-58 58-58 31 0 57 26 57 58v120c0 195 159 354 354 354s354-159 354-354v-143c0-32 26-58 58-58 31 0 57 26 57 58v143c0 259-210 469-469 469z"/><path d="m1256 3052c-25 0-49-17-56-43l-72-270c-8-30 10-62 41-70 31-9 62 10 70 40l73 270c8 31-10 63-41 71-5 1-10 2-15 2z"/><path d="m628 3052c-5 0-10-1-15-2-31-8-49-40-41-71l73-270c8-30 39-49 70-40 31 8 49 40 41 70l-72 270c-7 26-31 43-56 43z"/><path d="m808 1648c11 0 20 0 28-1-9-19-16-45-1-72 8-15 27-35 68-37 244-12 454 185 536 384 69 167 28 355-76 384-31 4-60-15-66-46-39-202-255-281-301-240-104 92-161-12-177-16 0 0-5-1-20 2-122 25-176 167-214 284-12 39-61 52-93 25-165-143-46-666 316-667z"/><path d="m4278 4159h-402v-331h459v273c0 32-25 58-57 58zm-402-395v-274c0-18-14-32-32-32s-32 14-32 32v306 363h-836v-362-1-2-304c0-18-14-32-32-32s-32 14-32 32v274h-460v-216c0-337 275-611 612-611h16c15 0 30 6 41 16l273 274 273-274c11-10 26-16 41-16h16c337 0 611 274 611 611v216zm-964 64v331h-402c-32 0-58-26-58-58v-273z"/><path d="m3394 2861c-259 0-469-210-469-469v-120c0-32 25-58 57-58s58 26 58 58v120c0 195 159 354 354 354s354-159 354-354v-143c0-32 26-58 57-58 32 0 58 26 58 58v143c0 259-210 469-469 469z"/><path d="m3708 3052c-26 0-49-17-56-43l-72-270c-8-30 10-62 41-70 30-9 62 10 70 40l73 270c8 31-10 63-41 71-5 1-10 2-15 2z"/><path d="m3080 3052c-5 0-10-1-15-2-31-8-49-40-41-71l72-270c9-30 40-49 71-40 31 8 49 40 41 70l-72 270c-7 26-31 43-56 43z"/><path d="m2903 1931c64-176 197-282 357-283 11 0 20 0 28-1-9-19-17-45-2-72 9-15 28-35 68-37 245-11 455 185 537 384 122 296-98 465-140 346l-2-8c-26-134-128-231-260-249-27-4-29-1-41 9-13 12-34 30-71 38-9 1-19 1-28-2-35-11-55-30-68-43-4-3-9-8-10-9 0 0-6-1-21 2-161 33-201 275-223 302-75 90-221-105-124-377z"/><path d="m2168 2264c-12 0-25-4-35-11-158-121-279-242-362-362h794c-83 120-204 241-362 362-10 7-23 11-35 11zm-439-438c-45-79-75-158-88-236h1054c-13 78-43 157-89 236zm-95-300c-1-28 0-56 3-84 5-54 19-105 38-152h986c19 47 32 98 38 152 3 28 4 56 3 84zm72-300c137-252 422-389 437-396 16-7 34-7 49 0 16 7 301 144 438 396z"/><path d="m2168 940c-8 0-17-2-25-6-22-10-537-258-508-704 2-32 29-56 61-54s56 29 54 61c-21 319 322 528 418 580 96-52 438-262 418-580-2-32 22-59 54-61 31-2 59 22 61 54 29 446-487 694-509 704-7 4-16 6-24 6z"/><path d="m2643 2941c-30 0-55-24-57-54-13-193-153-397-418-607-265 210-405 414-418 607-2 31-29 55-61 53s-56-29-54-61c15-235 183-477 498-718 21-16 49-16 70 0 315 241 483 482 498 718 2 32-22 59-54 61-1 1-2 1-4 1z"/><path d="m2596 2753h-856c-32 0-58-26-58-58s26-58 58-58h856c32 0 58 26 58 58s-26 58-58 58z"/><path d="m2623 465h-910c-32 0-58-25-58-57s26-58 58-58h910c32 0 58 26 58 58s-26 57-58 57z"/></g></svg>