<svg id="Layer_1" viewBox="0 0 128 128" xmlns="http://www.w3.org/2000/svg" data-name="Layer 1"><path d="m95.00006 56a2 2 0 0 0 0-4h-8a2 2 0 1 0 0 4z"/><circle cx="37" cy="52" r="7"/><path d="m26.00006 73v7h22v-7a5.00589 5.00589 0 0 0 -5-5h-12a5.00589 5.00589 0 0 0 -5 5z"/><path d="m56.66022 92h-16.001a2 2 0 0 0 0 4h14.001v4a1.99981 1.99981 0 0 0 1.07513 1.77338 2.06894 2.06894 0 0 0 2.06842-.13275l14.33984-10a1.99963 1.99963 0 0 0 0-3.28125l-14.33984-10a1.99978 1.99978 0 0 0 -3.14355 1.64062v4h-29.66016a2 2 0 1 0 0 4h31.66016a2.0001 2.0001 0 0 0 2-2v-2.167l8.84378 6.167-8.84375 6.167v-2.167a2.0001 2.0001 0 0 0 -2.00003-2z"/><path d="m37.05481 20a4.24872 4.24872 0 0 0 -3.03613 1.26367l-33.09278 33.3877a3.19023 3.19023 0 0 0 2.25781 5.4375h6.81544v29.64258a6.07373 6.07373 0 0 0 6 6.26855h19.008a5.96464 5.96464 0 0 1 -.007-4h-19.001a2.0862 2.0862 0 0 1 -2-2.26855v-31.64258a2.0001 2.0001 0 0 0 -2-2h-6.86524l31.72559-32.00879a.24129.24129 0 0 1 .39063 0l31.71387 32.00879h-6.96485a2.0001 2.0001 0 0 0 -2 2v16.93426c.02985.02.06226.03436.0918.055l3.9082 2.7254v-17.71466h6.74609a3.26027 3.26027 0 0 0 2.30664-5.55664l-32.96094-33.26758a4.244 4.244 0 0 0 -3.03613-1.26465z"/><path d="m75.81348 93.56879a5.93563 5.93563 0 0 1 -1.38177 1.35309l-1.54603 1.07812h4.41779c-.54676-.89209-1.05147-1.71582-1.48999-2.43121z"/><path d="m127.747 58.08691a3.25814 3.25814 0 0 0 -.69336-3.55469l-32.96093-33.26757a4.278 4.278 0 0 0 -6.07227-.001l-21.15295 21.34145 2.81586 2.842 21.17792-21.367a.24129.24129 0 0 1 .39063 0l31.71387 32.00879h-6.96484a2.0001 2.0001 0 0 0 -2 2v31.64256a2.0862 2.0862 0 0 1 -2 2.26855h-4.90039c-.47284.77521-1.36694 2.24078-2.44031 4h7.3407a6.07373 6.07373 0 0 0 6-6.26855v-29.64258h6.74607a3.24429 3.24429 0 0 0 3-2.00196z"/><path d="m88.49127 106.60156a2.91955 2.91955 0 0 0 2.50684 1.39844h.00489a2.91943 2.91943 0 0 0 2.50586-1.40527c1.75683-2.87793 10.49414-17.19727 10.49214-17.19727a19.254 19.254 0 0 0 2.74023-6.665 14.31649 14.31649 0 0 0 .25879-2.66992 16.00012 16.00012 0 1 0 -32 .001 16.58319 16.58319 0 0 0 2.58598 8.7431c.09765.15918 8.27539 13.50293 10.90527 17.79492zm2.50873-31.60156a5 5 0 1 1 -5 5 5.00048 5.00048 0 0 1 5-5z"/></svg>