<?xml version="1.0" encoding="UTF-8" standalone="no"?>
<!-- Created with Inkscape (http://www.inkscape.org/) -->
<svg xmlns="http://www.w3.org/2000/svg" xmlns:svg="http://www.w3.org/2000/svg" version="1.1" id="svg2082" width="682.66669" height="682.66669" viewBox="0 0 682.66669 682.66669">
  <defs id="defs2086">
    <clipPath clipPathUnits="userSpaceOnUse" id="clipPath2096">
      <path d="M 0,512 H 512 V 0 H 0 Z" id="path2094"/>
    </clipPath>
  </defs>
  <mask id="custom"><rect id="bg" x="0" y="0" width="100%" height="100%" fill="white"/><g transform="matrix(1.3333333,0,0,-1.3333333,0,682.66667)"><path transform="matrix(1,0,0,1,37.4688,86.2031)" d="m 0,0 c 0,26.872 21.862,48.734 48.734,48.734 h 145.461 c -15.821,23.028 -42.267,37.469 -71.1,37.469 H 48.734 C 1.202,86.203 -37.469,47.532 -37.469,0 c 0,-47.532 38.671,-86.203 86.203,-86.203 h 74.361 c 28.833,0 55.278,14.441 71.1,37.469 H 48.734 C 21.862,-48.734 0,-26.872 0,0" style="fill:#ffffff;fill-opacity:1;fill-rule:nonzero;stroke:none" id="path2100"/><path transform="matrix(1,0,0,1,425.7969,172.4062)" d="m 0,0 h -74.36 c -28.833,0 -55.28,-14.441 -71.101,-37.469 H 0 c 26.872,0 48.734,-21.862 48.734,-48.734 0,-26.872 -21.862,-48.734 -48.734,-48.734 h -145.461 c 15.822,-23.028 42.268,-37.469 71.101,-37.469 H 0 c 47.532,0 86.203,38.671 86.203,86.203 C 86.203,-38.671 47.532,0 0,0" style="fill:#ffffff;fill-opacity:1;fill-rule:nonzero;stroke:none" id="path2104"/><path transform="matrix(1,0,0,1,152.3672,86.2031)" d="m 0,0 c 0,-10.33 8.404,-18.734 18.734,-18.734 h 169.797 c 10.33,0 18.735,8.404 18.735,18.734 0,10.33 -8.405,18.734 -18.735,18.734 H 18.734 C 8.404,18.734 0,10.33 0,0" style="fill:#ffffff;fill-opacity:1;fill-rule:nonzero;stroke:none" id="path2108"/><path transform="matrix(1,0,0,1,241,476.3984)" d="m 0,0 h 30 v -92.77 h 92.77 v -30 H 0 Z m 15,-251.141 c 79.182,0 143.371,64.19 143.371,143.371 0,79.182 -64.189,143.372 -143.371,143.372 -79.182,0 -143.371,-64.19 -143.371,-143.372 0,-79.181 64.189,-143.371 143.371,-143.371" style="fill:#ffffff;fill-opacity:1;fill-rule:nonzero;stroke:none" id="path2112"/></g></mask><g mask="url(#custom)"><g id="g2088" transform="matrix(1.3333333,0,0,-1.3333333,0,682.66667)">
    <g id="g2090">
      <g id="g2092" clip-path="url(#clipPath2096)">
        <g id="g2098" transform="translate(37.4688,86.2031)">
          <path d="m 0,0 c 0,26.872 21.862,48.734 48.734,48.734 h 145.461 c -15.821,23.028 -42.267,37.469 -71.1,37.469 H 48.734 C 1.202,86.203 -37.469,47.532 -37.469,0 c 0,-47.532 38.671,-86.203 86.203,-86.203 h 74.361 c 28.833,0 55.278,14.441 71.1,37.469 H 48.734 C 21.862,-48.734 0,-26.872 0,0" style="fill:#000000;fill-opacity:1;fill-rule:nonzero;stroke:none" id="path2100"/>
        </g>
        <g id="g2102" transform="translate(425.7969,172.4062)">
          <path d="m 0,0 h -74.36 c -28.833,0 -55.28,-14.441 -71.101,-37.469 H 0 c 26.872,0 48.734,-21.862 48.734,-48.734 0,-26.872 -21.862,-48.734 -48.734,-48.734 h -145.461 c 15.822,-23.028 42.268,-37.469 71.101,-37.469 H 0 c 47.532,0 86.203,38.671 86.203,86.203 C 86.203,-38.671 47.532,0 0,0" style="fill:#000000;fill-opacity:1;fill-rule:nonzero;stroke:none" id="path2104"/>
        </g>
        <g id="g2106" transform="translate(152.3672,86.2031)">
          <path d="m 0,0 c 0,-10.33 8.404,-18.734 18.734,-18.734 h 169.797 c 10.33,0 18.735,8.404 18.735,18.734 0,10.33 -8.405,18.734 -18.735,18.734 H 18.734 C 8.404,18.734 0,10.33 0,0" style="fill:#000000;fill-opacity:1;fill-rule:nonzero;stroke:none" id="path2108"/>
        </g>
        <g id="g2110" transform="translate(241,476.3984)">
          <path d="m 0,0 h 30 v -92.77 h 92.77 v -30 H 0 Z m 15,-251.141 c 79.182,0 143.371,64.19 143.371,143.371 0,79.182 -64.189,143.372 -143.371,143.372 -79.182,0 -143.371,-64.19 -143.371,-143.372 0,-79.181 64.189,-143.371 143.371,-143.371" style="fill:#000000;fill-opacity:1;fill-rule:nonzero;stroke:none" id="path2112"/>
        </g>
      </g>
    </g>
  </g></g>
</svg>
