<svg enable-background="new 0 0 550 550" viewBox="0 0 550 550" xmlns="http://www.w3.org/2000/svg"><g id="_x36_5_-_Family_Time"><g><path d="m143.419 391.527c-6.694.466-13.233-.282-19.422-2.108v6.753s-1.71 6.412-4.965 7.413l-4.013 1.224c5.052 7.86 13.894 12.932 23.532 12.932 9.949 0 18.994-5.344 23.959-13.592l-2.205-.67c-3.148-.972-5.305-3.877-5.305-7.18v-6.986c-3.721 1.174-7.598 1.942-11.581 2.214z"/><path d="m177.997 336.681v-1.875c-13.476-1.574-23.182-13.728-29.099-27.632-14.574 15.477-37.746 23.036-48.9 25.941v4.032c0 10.425 4.061 20.219 11.426 27.564 2.361 2.371 4.974 4.382 7.773 6.033.651.253 1.253.593 1.797 1.001 6.704 3.498 14.37 5.004 22.249 4.178 19.151-2.011 34.754-19.985 34.754-39.242z"/><path d="m96.948 318.007c12.067-3.187 40-12.456 47.744-31.402 1.292-3.138 4.469-5.072 7.85-4.79 3.391.291 6.189 2.75 6.918 6.063 3.371 15.312 11.688 30.809 21.258 31.557 2.341-5.674 6.578-16.624 9.609-28.195 5.713-21.783 3.614-32.334-.243-34.958-10.697-7.248-20.238-9.502-23.736-5.616-5.684 6.315-15.186 7.306-22.113 2.312-.583-.428-1.176-.845-1.749-1.244-17.76-12.32-35.939-6.267-46.121 2.652-10.221 8.977-18.635 26.301-8.686 45.616z"/><path d="m237.225 375.486c0 16.031 13.039 29.079 29.07 29.079s29.07-13.048 29.07-29.079-13.039-29.07-29.07-29.07-29.07 13.039-29.07 29.07z"/><path d="m406.494 384.279c-5.606 0-11.173-.845-16.497-2.468v8.2c0 3.303-2.147 6.208-5.305 7.17l-5.169 1.584c3.692 11.105 14.117 18.897 26.301 18.897 12.135 0 22.521-7.724 26.262-18.752l-5.645-1.729c-3.255-.991-5.441-7.394-5.441-7.394v-7.403c-4.693 1.244-9.532 1.895-14.506 1.895z"/><path d="m448 327.801v-2.779c-14.224-1.467-24.426-14.418-30.576-29.128-15.196 16.478-39.864 24.435-51.426 27.408v4.498c0 10.959 4.265 21.249 12.009 28.982 2.682 2.691 5.713 4.984 9.026 6.83.087.049.175.097.262.155 5.995 3.294 12.805 5.033 19.704 5.033 6.461 0 12.631-1.448 18.343-4.324 13.972-7.003 22.658-21.052 22.658-36.675z"/><path d="m343.001 318.211v1.078c0 8.851.972 18.11 2.905 27.505 2.069 10.134 3.439 27.952-5.13 48.122l25.475-7.773c1.01-.68 2.196-1.127 3.488-1.263.253-.019.496-.029.738-.039l4.518-1.38v-9.784c-3.031-2.04-5.868-4.372-8.453-6.966-10.668-10.648-16.546-24.834-16.546-39.942v-10.639c0-3.721 2.652-6.898 6.296-7.588.447-.078 45.557-8.871 55.983-34.394 1.273-3.119 4.43-5.052 7.802-4.761 3.362.282 6.15 2.73 6.869 6.024 2.944 13.379 11.591 33.286 23.337 33.286 1.02 0 2.031-.126 3.07-.389 1.263-.321 2.604-.35 3.857-.01 3.556.962 5.791 4.081 5.791 7.481v10.989c0 19.908-10.24 37.96-27 48.2v7.462l35.803 10.94c-8.326-20.005-6.908-37.668-4.751-47.879 1.914-9.094 2.905-18.217 2.944-27.107l.01-1.778c0-38.096-33.782-68.487-72.985-62.784-31.199 4.54-54.021 31.861-54.021 63.389z"/><path d="m488.554 418.857c-1.302-.369-2.516-1.098-3.498-2.176-3.877-2.235-8.016-4.032-12.339-5.353l-25.825-7.889c-4.955 15.205-17.994 26.466-33.889 29.109v31.266c0 4.217-3.469 7.607-7.705 7.501-4.12-.107-7.297-3.721-7.297-7.841v-31.034c-15.662-2.847-28.438-14.078-33.286-29.147l-24.872 7.598c-3.711 1.127-7.316 2.643-10.736 4.508-.058.039-.126.068-.185.107-4.178 2.283-8.016 5.062-11.484 8.278 17.45 14.719 28.565 36.745 28.565 61.336v29.478h168.997v-46.258c-.078-20.015-9.91-38.387-26.446-49.483z"/><path d="m268.869 419.955c-.855.049-1.71.087-2.575.087-.855 0-1.71-.029-2.546-.078-34.297 1.448-61.744 29.886-61.744 64.63v30.002h128.997v-29.166c.001-34.948-27.378-64.192-62.132-65.475z"/><path d="m216.249 422.607c-4.1-2.604-8.531-4.644-13.243-6.082l-25.397-7.763c-7.17 14.7-22.288 24.455-39.058 24.455-16.429 0-31.402-9.473-38.708-23.775l-24.863 7.608c-23.861 7.287-39.893 28.943-39.98 53.903v43.643h151.003v-28.584c0-25.493 11.785-48.471 30.246-63.405z"/><path d="m275 237.842c55.817 0 101.219-45.402 101.219-101.219s-45.402-101.22-101.219-101.22-101.219 45.402-101.219 101.22 45.402 101.219 101.219 101.219zm-64.63-164.615c.185-.224.369-.447.583-.651.204-.214.428-.408.651-.583 16.352-16.041 38.737-25.951 63.396-25.951s47.044 9.91 63.396 25.951c.223.175.447.369.651.583.214.204.408.427.583.651 16.041 16.352 25.951 38.737 25.951 63.396s-9.91 47.044-25.951 63.396c-.185.223-.369.447-.583.651-.204.214-.427.398-.651.583-16.352 16.041-38.737 25.951-63.396 25.951s-47.044-9.91-63.396-25.951c-.223-.185-.447-.369-.651-.583-.214-.204-.398-.427-.583-.651-16.041-16.352-25.951-38.737-25.951-63.396s9.911-47.044 25.951-63.396z"/><path d="m211.021 144.599h-10.697c1.574 14.817 7.481 28.36 16.41 39.339l7.763-7.763c3.022-3.022 7.928-3.022 10.95 0s3.022 7.928 0 10.95l-7.763 7.763c11.222 9.133 25.115 15.089 40.321 16.497v-10.444c0-4.12 3.177-7.734 7.297-7.841 4.236-.107 7.695 3.294 7.695 7.501v10.687c14.817-1.574 28.351-7.471 39.32-16.4l-7.763-7.763c-3.022-3.022-3.022-7.928 0-10.95s7.928-3.022 10.95 0l7.763 7.763c8.929-10.979 14.836-24.523 16.41-39.339h-10.347c-4.129 0-7.744-3.177-7.85-7.297-.107-4.236 3.294-7.705 7.501-7.705h10.785c-1.419-15.186-7.374-29.079-16.497-40.291l-7.763 7.763c-1.516 1.506-3.498 2.264-5.47 2.264-1.982 0-3.964-.758-5.48-2.264-3.022-3.022-3.022-7.928 0-10.95l7.763-7.763c-10.969-8.929-24.503-14.826-39.32-16.4v10.687c0 4.207-3.459 7.607-7.695 7.501-4.119-.107-7.297-3.721-7.297-7.85v-10.435c-15.205 1.409-29.099 7.365-40.321 16.497l7.763 7.763c3.022 3.022 3.022 7.928 0 10.95-1.516 1.506-3.498 2.264-5.48 2.264-1.972 0-3.954-.758-5.47-2.264l-7.763-7.763c-9.123 11.212-15.079 25.106-16.497 40.291h10.435c4.129 0 7.744 3.187 7.85 7.306.105 4.237-3.296 7.696-7.503 7.696zm56.984-34.996c0-3.838 2.75-7.277 6.558-7.734 4.566-.554 8.433 2.992 8.433 7.442v24.183l23.25 23.24c3.012 3.022 3.206 8.132.087 11.047-1.438 1.35-3.274 2.031-5.12 2.031-1.924 0-3.838-.738-5.305-2.196l-25.708-25.718c-1.409-1.409-2.196-3.313-2.196-5.305v-26.99z"/></g></g><g id="Layer_1"/></svg>